<?xml version="1.0" encoding="UTF-8"?>
<svg id="Layer_2" data-name="Layer 2" xmlns="http://www.w3.org/2000/svg" viewBox="0 0 796.99 175.87">
  <defs>
    <style>
      .cls-1 {
        fill: #edfd35;
        stroke-width: 0px;
      }
    </style>
  </defs>
  <g id="Layer_1-2" data-name="Layer 1">
    <g id="_293b6f7a80" data-name="293b6f7a80">
      <path class="cls-1" d="m85.53,81.08l10.49,20.54c1.31,2.57-.56,5.62-3.43,5.62h-28.05c-1.47,0-2.82-.84-3.47-2.16l-9.46-19.32c-.65-1.32-1.99-2.16-3.47-2.16h-11.99c-2.13,0-3.85,1.72-3.85,3.85v15.91c0,2.13-1.72,3.85-3.85,3.85H5.12c-2.14,0-3.86-1.72-3.86-3.85V10.2c0-2.13,1.72-3.85,3.86-3.85h61.78c18.98,0,31.99,16.14,31.99,38.62,0,13.41-4.66,24.66-12.46,31.45-1.25,1.09-1.66,3.18-.9,4.66Zm-53.23-33.05c0,2.13,1.72,3.85,3.85,3.85h24.79c3.1,0,6.93,0,6.93-6.92s-3.82-6.92-6.93-6.92h-24.79c-2.13,0-3.85,1.72-3.85,3.86v6.12Z"/>
      <path class="cls-1" d="m202.39,24.61v78.76c0,2.14-1.72,3.86-3.85,3.86h-20.93c-2.14,0-3.86-1.72-3.86-3.86,0-3.08-3.4-4.89-5.98-3.2-7.59,4.98-16.87,8.51-28.63,8.51-16.11,0-34.38-6.06-34.38-37.33V24.61c0-2.14,1.72-3.85,3.85-3.85h20.93c2.13,0,3.85,1.72,3.85,3.85v32.6c0,14.85,4.41,21.19,17.3,21.19,7.98,0,16.36-3.96,22.01-9.82.69-.72,1.04-1.68,1.04-2.67V24.61c0-2.14,1.72-3.85,3.85-3.85h20.93c2.14,0,3.85,1.72,3.85,3.85h.02Z"/>
      <path class="cls-1" d="m307.09,56.64v46.73c0,2.13-1.72,3.85-3.86,3.85h-20.93c-2.13,0-3.85-1.72-3.85-3.85v-32.6c0-14.85-4.41-21.19-17.3-21.19-7.97,0-16.36,3.96-22.01,9.82-.69.72-1.04,1.68-1.04,2.67v41.31c0,2.13-1.72,3.85-3.85,3.85h-20.93c-2.14,0-3.85-1.72-3.85-3.85V24.61c0-2.14,1.72-3.85,3.85-3.85h20.93c2.14,0,3.85,1.72,3.85,3.85,0,3.09,3.41,4.89,5.99,3.21,7.59-4.98,16.86-8.51,28.63-8.51,16.11,0,34.38,6.06,34.38,37.32h-.01Z"/>
      <path class="cls-1" d="m342.82,6.2h53.36c25.56,0,39.38,12.38,35.04,34.89-2.89,14.47-12.85,20.54-27.47,23.76l-1.94.32c27.81,4.98,8.68,38.7,14.95,40.63l.47,1.45-29.25-.48c-4.82-4.82,12.69-28.73-11.9-28.73h-18.8l-7.87,29.22h-28.94l22.34-101.03v-.02Zm18.97,51.27h18.8c11.57,0,19.45-4.82,21.54-15.28,1.6-8.83-2.89-12.37-14.46-12.37h-20.42l-5.46,27.65Z"/>
      <path class="cls-1" d="m486.87,80.14h25.88c-7.71,17.84-22.02,28.13-43.56,28.13-28.13,0-42.1-19.93-36.33-48.05,4.98-24.27,22.99-39.38,48.39-39.38,28.94,0,40.18,21.21,34.4,50.15h-59.15c-2.25,12.53,5.95,18.01,14.31,18.01,9.64,0,15.27-4.82,16.07-8.84h0Zm-27.32-23.64h33.76c2.09-12.85-4.01-18.01-13.02-18.01-10.61,0-18.48,6.42-20.73,18.01Z"/>
      <path class="cls-1" d="m595.19,94.11c-.81,4.35-.16,5.46,2.89,5.46l-1.29,6.43c-3.85,1.94-8.52,2.26-12.86,2.26-11.41,0-14.63-5.14-14.47-10.45-6.43,5.95-16.56,10.45-26.53,10.45-18.16,0-26.52-10.45-23.46-26.36,2.73-14.31,15.28-20.9,34.71-25.4,11.74-2.73,23.46-4.82,24.91-11.74.81-4.01-1.93-6.27-8.2-6.27-10.12,0-15.59,4.18-18,12.06h-23.96c3.86-17.04,16.39-29.73,42.44-29.73,23.95,0,36.17,9.65,31.17,35.52l-7.39,37.77h.04Zm-19.44-28.93c-3.54,2.09-7.71,3.06-13.18,4.17-11.25,2.41-16.39,5.95-17.35,11.74-.97,5.95,2.89,9.48,8.36,9.48,11.9,0,17.67-7.87,19.77-15.59l2.41-9.8Z"/>
      <path class="cls-1" d="m709.05.03l-22.34,105.66h-25.72l1.29-7.23c-4.17,4.35-13.5,9.81-24.27,9.81-22.66,0-34.07-17.36-28.6-45.17,5.14-26.19,21.37-42.28,42.44-42.28,12.69,0,20.26,7.07,22.67,11.41l.97-.65,7.87-31.57h25.71v.03Zm-50.94,40.09c-11.25,0-20.26,8.99-23.63,25.88-2.89,15.28,1.13,22.98,10.78,22.98,11.24,0,20.26-8.99,23.62-25.88,2.89-15.27-1.13-22.98-10.77-22.98Z"/>
      <path class="cls-1" d="m752.63,104.85c-11.09,21.05-19.29,26.19-35.83,26.19-5.14,0-9.81-.64-14.79-1.77l3.05-18.8c6.43,1.29,12.86-.32,15.91-4.98,3.38-3.06,4.51-8.2,3.54-15.43l-13.5-69.76h25.24l8.2,54h.32l26.03-54h26.19l-44.35,84.54h0Z"/>
      <path class="cls-1" d="m3.52,175.33H0v-28.02h19v3.15H3.52v9.08h12.52v3.13H3.52v12.67Z"/>
      <path class="cls-1" d="m33.79,175.87c-2.75,0-5.16-.63-7.21-1.88-2.04-1.25-3.64-2.97-4.79-5.17-1.16-2.19-1.73-4.7-1.73-7.52s.57-5.34,1.73-7.52c1.15-2.18,2.75-3.9,4.79-5.15,2.05-1.25,4.46-1.88,7.21-1.88s5.14.63,7.21,1.88c2.07,1.25,3.67,2.97,4.79,5.15,1.14,2.18,1.71,4.69,1.71,7.52s-.57,5.33-1.71,7.52c-1.13,2.2-2.72,3.92-4.79,5.17-2.07,1.25-4.47,1.88-7.21,1.88Zm0-3.13c2.34,0,4.26-.53,5.73-1.6,1.48-1.07,2.57-2.47,3.25-4.21.69-1.75,1.04-3.63,1.04-5.63s-.35-3.89-1.04-5.63c-.68-1.73-1.77-3.13-3.25-4.19-1.47-1.07-3.39-1.6-5.73-1.6s-4.27.54-5.75,1.6c-1.47,1.06-2.56,2.45-3.25,4.19-.7,1.74-1.04,3.61-1.04,5.63s.34,3.88,1.04,5.63c.69,1.74,1.78,3.14,3.25,4.21,1.48,1.07,3.4,1.6,5.75,1.6Z"/>
      <path class="cls-1" d="m64.21,175.87c-2.75,0-5.16-.63-7.21-1.88-2.04-1.25-3.64-2.97-4.79-5.17-1.16-2.19-1.73-4.7-1.73-7.52s.57-5.34,1.73-7.52c1.15-2.18,2.75-3.9,4.79-5.15,2.05-1.25,4.46-1.88,7.21-1.88s5.14.63,7.21,1.88c2.07,1.25,3.67,2.97,4.79,5.15,1.14,2.18,1.71,4.69,1.71,7.52s-.57,5.33-1.71,7.52c-1.13,2.2-2.72,3.92-4.79,5.17-2.07,1.25-4.47,1.88-7.21,1.88Zm0-3.13c2.34,0,4.26-.53,5.73-1.6,1.48-1.07,2.57-2.47,3.25-4.21.69-1.75,1.04-3.63,1.04-5.63s-.35-3.89-1.04-5.63c-.68-1.73-1.77-3.13-3.25-4.19-1.47-1.07-3.39-1.6-5.73-1.6s-4.27.54-5.75,1.6c-1.47,1.06-2.56,2.45-3.25,4.19-.7,1.74-1.04,3.61-1.04,5.63s.34,3.88,1.04,5.63c.69,1.74,1.78,3.14,3.25,4.21,1.48,1.07,3.4,1.6,5.75,1.6Z"/>
      <path class="cls-1" d="m90.97,175.33h-3.52v-24.88h-9.33v-3.15h22.19v3.15h-9.33v24.88Z"/>
      <path class="cls-1" d="m112.38,175.33h-3.92l-6.94-28.02h3.73l5.33,22.96h.06l6.27-22.96h3.92l6.27,22.96h.08l5.33-22.96h3.73l-6.94,28.02h-3.92l-6.48-24.02h-.08l-6.46,24.02Z"/>
      <path class="cls-1" d="m159.65,175.33h-19.88v-28.02h19.4v3.15h-15.88v8.81h14v3.13h-14v9.81h16.35v3.13Z"/>
      <path class="cls-1" d="m164.78,175.33h-3.65l10.35-28.02h3.96l10.42,28.02h-3.79l-2.48-7.02h-12.33l-2.48,7.02Zm8.63-24.77l-4.98,14.63h10.04l-4.98-14.63h-.08Z"/>
      <path class="cls-1" d="m192.53,175.33h-3.52v-28.02h11.25c3.08,0,5.42.7,7,2.1,1.58,1.39,2.38,3.39,2.38,5.98,0,1.75-.49,3.24-1.46,4.46-.97,1.22-2.19,2.02-3.65,2.4v.08c1.04.21,1.88.65,2.5,1.31.64.66,1.11,1.45,1.42,2.4.32.95.53,1.93.65,2.96.13,1.02.2,1.97.23,2.88.04.89.1,1.64.19,2.23.09.58.26.92.5,1v.23h-3.79c-.21-.21-.33-.61-.38-1.23-.04-.61-.06-1.34-.06-2.21s-.06-1.76-.19-2.67c-.11-.92-.34-1.76-.69-2.54-.33-.79-.85-1.44-1.54-1.94-.68-.5-1.61-.75-2.79-.75h-8.04v11.33Zm0-14.46h6.92c2.14,0,3.78-.46,4.92-1.4,1.15-.93,1.73-2.27,1.73-4.02,0-1.61-.5-2.84-1.5-3.71-.99-.86-2.67-1.29-5.04-1.29h-7.02v10.42Z"/>
      <path class="cls-1" d="m233.97,175.87c-2.72,0-5.02-.63-6.9-1.88s-3.3-2.97-4.27-5.17c-.97-2.19-1.46-4.7-1.46-7.52s.55-5.34,1.65-7.52c1.09-2.18,2.61-3.9,4.56-5.15,1.96-1.25,4.23-1.88,6.81-1.88,2.38,0,4.36.39,5.98,1.15,1.63.75,2.92,1.81,3.88,3.17.97,1.35,1.61,2.91,1.94,4.69h-3.69c-.42-2-1.35-3.48-2.79-4.44-1.43-.96-3.2-1.44-5.31-1.44-1.68,0-3.11.34-4.29,1.02-1.17.68-2.13,1.58-2.88,2.71-.74,1.13-1.29,2.36-1.65,3.71-.35,1.35-.52,2.68-.52,3.98s.14,2.68.42,4.02c.28,1.33.75,2.56,1.42,3.69s1.57,2.03,2.73,2.71c1.17.68,2.63,1.02,4.38,1.02s3.19-.36,4.58-1.1c1.39-.75,2.49-1.79,3.31-3.13.82-1.33,1.23-2.88,1.23-4.63h-9.13v-3.15h12.67v14.58h-2.35l-1.19-3.96h-.06c-1.06,1.46-2.29,2.58-3.71,3.35-1.41.76-3.19,1.15-5.35,1.15Z"/>
      <path class="cls-1" d="m254.97,175.33h-3.52v-28.02h11.25c3.08,0,5.42.7,7,2.1,1.58,1.39,2.38,3.39,2.38,5.98,0,1.75-.49,3.24-1.46,4.46-.97,1.22-2.19,2.02-3.65,2.4v.08c1.04.21,1.88.65,2.5,1.31.64.66,1.11,1.45,1.42,2.4.32.95.53,1.93.65,2.96.13,1.02.2,1.97.23,2.88.04.89.1,1.64.19,2.23.09.58.26.92.5,1v.23h-3.79c-.21-.21-.33-.61-.38-1.23-.04-.61-.06-1.34-.06-2.21s-.06-1.76-.19-2.67c-.11-.92-.34-1.76-.69-2.54-.33-.79-.85-1.44-1.54-1.94-.68-.5-1.61-.75-2.79-.75h-8.04v11.33Zm0-14.46h6.92c2.14,0,3.78-.46,4.92-1.4,1.15-.93,1.73-2.27,1.73-4.02,0-1.61-.5-2.84-1.5-3.71-.99-.86-2.67-1.29-5.04-1.29h-7.02v10.42Z"/>
      <path class="cls-1" d="m277.79,175.33h-3.65l10.35-28.02h3.96l10.42,28.02h-3.79l-2.48-7.02h-12.33l-2.48,7.02Zm8.63-24.77l-4.98,14.63h10.04l-4.98-14.63h-.08Z"/>
      <path class="cls-1" d="m312.16,175.33h-10.15v-28.02h10.15c3.88,0,6.92,1.21,9.15,3.63,2.22,2.42,3.33,5.89,3.33,10.4s-1.11,7.96-3.33,10.38c-2.22,2.42-5.27,3.63-9.15,3.63Zm-6.63-3.13h6.63c1.78,0,3.24-.3,4.4-.9,1.15-.61,2.05-1.44,2.69-2.48.64-1.04,1.08-2.21,1.33-3.5.25-1.3.38-2.64.38-4s-.13-2.71-.38-4-.7-2.45-1.33-3.48c-.64-1.04-1.54-1.86-2.69-2.48-1.16-.61-2.62-.92-4.4-.92h-6.63v21.75Z"/>
      <path class="cls-1" d="m332.62,175.33h-3.52v-28.02h3.52v28.02Z"/>
      <path class="cls-1" d="m341.95,175.33h-3.52v-28.02h4.31l14,23h.06v-23h3.54v28.02h-4.31l-14-23h-.08v23Z"/>
      <path class="cls-1" d="m377.39,175.87c-2.72,0-5.02-.63-6.9-1.88s-3.3-2.97-4.27-5.17c-.97-2.19-1.46-4.7-1.46-7.52s.55-5.34,1.65-7.52c1.09-2.18,2.61-3.9,4.56-5.15,1.96-1.25,4.23-1.88,6.81-1.88,2.38,0,4.36.39,5.98,1.15,1.63.75,2.92,1.81,3.88,3.17.97,1.35,1.61,2.91,1.94,4.69h-3.69c-.42-2-1.35-3.48-2.79-4.44-1.43-.96-3.2-1.44-5.31-1.44-1.68,0-3.11.34-4.29,1.02-1.17.68-2.13,1.58-2.88,2.71-.74,1.13-1.29,2.36-1.65,3.71-.35,1.35-.52,2.68-.52,3.98s.14,2.68.42,4.02c.28,1.33.75,2.56,1.42,3.69s1.57,2.03,2.73,2.71c1.17.68,2.63,1.02,4.38,1.02s3.19-.36,4.58-1.1c1.39-.75,2.49-1.79,3.31-3.13.82-1.33,1.23-2.88,1.23-4.63h-9.13v-3.15h12.67v14.58h-2.35l-1.19-3.96h-.06c-1.06,1.46-2.29,2.58-3.71,3.35-1.41.76-3.19,1.15-5.35,1.15Z"/>
      <path class="cls-1" d="m406.78,175.33h-3.52v-28.02h11.13c1.73,0,3.28.27,4.65.81,1.38.53,2.46,1.4,3.25,2.6.8,1.2,1.21,2.77,1.21,4.73s-.41,3.54-1.21,4.75c-.79,1.2-1.88,2.06-3.25,2.6-1.36.54-2.91.81-4.65.81h-7.6v11.71Zm0-14.85h7.85c3.44,0,5.17-1.67,5.17-5.02s-1.72-5-5.17-5h-7.85v10.02Z"/>
      <path class="cls-1" d="m430.76,175.33h-3.52v-28.02h11.25c3.08,0,5.42.7,7,2.1,1.58,1.39,2.38,3.39,2.38,5.98,0,1.75-.49,3.24-1.46,4.46-.97,1.22-2.19,2.02-3.65,2.4v.08c1.04.21,1.88.65,2.5,1.31.64.66,1.11,1.45,1.42,2.4.32.95.53,1.93.65,2.96.13,1.02.2,1.97.23,2.88.04.89.1,1.64.19,2.23.09.58.26.92.5,1v.23h-3.79c-.21-.21-.33-.61-.38-1.23-.04-.61-.06-1.34-.06-2.21s-.06-1.76-.19-2.67c-.11-.92-.34-1.76-.69-2.54-.33-.79-.85-1.44-1.54-1.94-.68-.5-1.61-.75-2.79-.75h-8.04v11.33Zm0-14.46h6.92c2.14,0,3.78-.46,4.92-1.4,1.15-.93,1.73-2.27,1.73-4.02,0-1.61-.5-2.84-1.5-3.71-.99-.86-2.67-1.29-5.04-1.29h-7.02v10.42Z"/>
      <path class="cls-1" d="m464.88,175.87c-2.75,0-5.16-.63-7.21-1.88-2.04-1.25-3.64-2.97-4.79-5.17-1.16-2.19-1.73-4.7-1.73-7.52s.57-5.34,1.73-7.52c1.15-2.18,2.75-3.9,4.79-5.15,2.05-1.25,4.46-1.88,7.21-1.88s5.14.63,7.21,1.88c2.07,1.25,3.67,2.97,4.79,5.15,1.14,2.18,1.71,4.69,1.71,7.52s-.57,5.33-1.71,7.52c-1.13,2.2-2.72,3.92-4.79,5.17-2.07,1.25-4.47,1.88-7.21,1.88Zm0-3.13c2.34,0,4.26-.53,5.73-1.6,1.48-1.07,2.57-2.47,3.25-4.21.69-1.75,1.04-3.63,1.04-5.63s-.35-3.89-1.04-5.63c-.68-1.73-1.77-3.13-3.25-4.19-1.47-1.07-3.39-1.6-5.73-1.6s-4.27.54-5.75,1.6c-1.47,1.06-2.56,2.45-3.25,4.19-.7,1.74-1.04,3.61-1.04,5.63s.34,3.88,1.04,5.63c.69,1.74,1.78,3.14,3.25,4.21,1.48,1.07,3.4,1.6,5.75,1.6Z"/>
      <path class="cls-1" d="m494.23,175.87c-2.72,0-5.02-.63-6.9-1.88s-3.3-2.97-4.27-5.17c-.97-2.19-1.46-4.7-1.46-7.52s.55-5.34,1.65-7.52c1.09-2.18,2.61-3.9,4.56-5.15,1.96-1.25,4.23-1.88,6.81-1.88,2.38,0,4.36.39,5.98,1.15,1.63.75,2.92,1.81,3.88,3.17.97,1.35,1.61,2.91,1.94,4.69h-3.69c-.42-2-1.35-3.48-2.79-4.44-1.43-.96-3.2-1.44-5.31-1.44-1.68,0-3.11.34-4.29,1.02-1.17.68-2.13,1.58-2.88,2.71-.74,1.13-1.29,2.36-1.65,3.71-.35,1.35-.52,2.68-.52,3.98s.14,2.68.42,4.02c.28,1.33.75,2.56,1.42,3.69s1.57,2.03,2.73,2.71c1.17.68,2.63,1.02,4.38,1.02s3.19-.36,4.58-1.1c1.39-.75,2.49-1.79,3.31-3.13.82-1.33,1.23-2.88,1.23-4.63h-9.13v-3.15h12.67v14.58h-2.35l-1.19-3.96h-.06c-1.06,1.46-2.29,2.58-3.71,3.35-1.41.76-3.19,1.15-5.35,1.15Z"/>
      <path class="cls-1" d="m515.23,175.33h-3.52v-28.02h11.25c3.08,0,5.42.7,7,2.1,1.58,1.39,2.38,3.39,2.38,5.98,0,1.75-.49,3.24-1.46,4.46-.97,1.22-2.19,2.02-3.65,2.4v.08c1.04.21,1.88.65,2.5,1.31.64.66,1.11,1.45,1.42,2.4.32.95.53,1.93.65,2.96.13,1.02.2,1.97.23,2.88.04.89.1,1.64.19,2.23.09.58.26.92.5,1v.23h-3.79c-.21-.21-.33-.61-.38-1.23-.04-.61-.06-1.34-.06-2.21s-.06-1.76-.19-2.67c-.11-.92-.34-1.76-.69-2.54-.33-.79-.85-1.44-1.54-1.94-.68-.5-1.61-.75-2.79-.75h-8.04v11.33Zm0-14.46h6.92c2.14,0,3.78-.46,4.92-1.4,1.15-.93,1.73-2.27,1.73-4.02,0-1.61-.5-2.84-1.5-3.71-.99-.86-2.67-1.29-5.04-1.29h-7.02v10.42Z"/>
      <path class="cls-1" d="m538.05,175.33h-3.65l10.35-28.02h3.96l10.42,28.02h-3.79l-2.48-7.02h-12.33l-2.48,7.02Zm8.63-24.77l-4.98,14.63h10.04l-4.98-14.63h-.08Z"/>
      <path class="cls-1" d="m565.8,175.33h-3.52v-28.02h4.83l8.77,23.27h.08l8.77-23.27h4.81v28.02h-3.52v-23.04h-.08l-8.46,23.04h-3.13l-8.48-23.04h-.08v23.04Z"/>
    </g>
  </g>
</svg>