<svg width="253" height="437" viewBox="0 0 253 437" fill="none" xmlns="http://www.w3.org/2000/svg">
<path d="M16.6653 91.9994V50.6554H4.88925V91.9994H16.6653ZM4.88925 38.8794H16.6653V12.3834H63.7693V0.607422H4.88925V38.8794ZM16.6653 50.6554H63.7693V38.8794H16.6653V50.6554ZM63.7693 91.9994H75.5453V50.6554H63.7693V91.9994ZM63.7693 38.8794H75.5453V12.3834H63.7693V38.8794Z" fill="black"/>
<path d="M99.0403 0.607422H87.2643V80.2234H99.0403V0.607422ZM99.0403 91.9994H146.144V80.2234H99.0403V91.9994ZM146.144 80.2234H157.92V0.607422H146.144V80.2234Z" fill="black"/>
<path d="M181.415 0.607422H169.639V91.9994H181.415V24.1594H193.191V12.3834H181.415V0.607422ZM193.191 35.9354H204.967V24.1594H193.191V35.9354ZM204.967 68.4474H216.743V35.9354H204.967V68.4474ZM216.743 80.2234H228.519V91.9994H240.295V0.607422H228.519V68.4474H216.743V80.2234Z" fill="black"/>
<path d="M0.28125 206.999H12.0573L21.9132 179.095H58.3933L68.1213 206.999H80.6653L46.8733 115.479H33.9453L0.28125 206.999ZM36.1213 139.031C37.9133 133.783 40.3453 126.103 40.3453 126.103H40.6013C40.6013 126.103 42.9053 133.911 44.6973 139.031L55.1933 169.751H25.2413L36.1213 139.031Z" fill="black"/>
<path d="M122.607 208.791C142.319 208.791 156.271 199.191 156.271 182.039C156.271 161.431 140.015 157.079 122.223 153.495C108.527 150.807 98.2873 147.735 98.2873 137.367C98.2873 127.895 106.479 122.647 118.895 122.647C132.335 122.647 140.783 129.175 142.447 142.231H153.327C151.023 125.335 141.551 113.687 118.639 113.687C100.079 113.687 87.5352 122.775 87.5352 137.879C87.5352 155.159 101.359 159.767 117.487 163.351C133.871 166.935 144.879 169.879 144.879 182.423C144.879 193.815 135.791 199.575 123.119 199.575C105.839 199.575 96.3673 191.511 94.8313 176.023H83.5673C84.5913 194.455 96.8792 208.791 122.607 208.791Z" fill="black"/>
<path d="M46.1053 280.655H34.3293V321.999H46.1053V280.655ZM4.88925 268.879H16.6653V230.607H4.88925V268.879ZM16.6653 280.655H34.3293V268.879H16.6653V280.655ZM46.1053 280.655H63.7693V268.879H46.1053V280.655ZM63.7693 268.879H75.5453V230.607H63.7693V268.879Z" fill="black"/>
<path d="M110.816 242.383H99.0403V254.159H110.816V242.383ZM87.2643 298.447H99.0403V254.159H87.2643V298.447ZM99.0403 310.223H110.816V298.447H99.0403V310.223ZM110.816 321.999H146.144V310.223H110.816V321.999ZM110.816 242.383H146.144V230.607H110.816V242.383ZM146.144 310.223H157.92V298.447H146.144V310.223ZM146.144 254.159H157.92V242.383H146.144V254.159ZM157.92 298.447H169.696V254.159H157.92V298.447Z" fill="black"/>
<path d="M193.29 230.607H181.514V310.223H193.29V230.607ZM193.29 321.999H240.394V310.223H193.29V321.999ZM240.394 310.223H252.17V230.607H240.394V310.223Z" fill="black"/>
<path d="M0.28125 436.999H12.0573L21.9132 409.095H58.3933L68.1213 436.999H80.6653L46.8733 345.479H33.9453L0.28125 436.999ZM36.1213 369.031C37.9133 363.783 40.3453 356.103 40.3453 356.103H40.6013C40.6013 356.103 42.9053 363.911 44.6973 369.031L55.1933 399.751H25.2413L36.1213 369.031Z" fill="black"/>
<path d="M90.5773 436.999H102.097V398.343H127.569C139.857 398.343 145.233 403.079 146.129 416.519C147.153 431.879 147.537 435.335 149.457 436.999H161.873V436.487C160.209 435.335 158.673 431.623 157.649 416.903C156.753 403.335 153.809 396.935 144.465 393.607V393.223C155.473 389.639 160.337 381.703 160.337 370.567C160.337 355.591 149.457 345.479 133.329 345.479H90.5773V436.999ZM102.097 355.463H129.873C143.313 355.463 148.433 361.095 148.433 372.231C148.433 382.599 142.033 388.999 129.233 388.999H102.097V355.463Z" fill="black"/>
<path d="M174.327 436.999H240.503V426.375H185.847V394.247H234.103V384.519H185.847V355.591H238.967V345.479H174.327V436.999Z" fill="black"/>
</svg>
