<svg width="975" height="292" viewBox="0 0 975 292" fill="none" xmlns="http://www.w3.org/2000/svg">
<path d="M38.2312 292V160.216H0.69519V292H38.2312ZM0.69519 122.68H38.2312V38.224H188.375V0.688026H0.69519V122.68ZM38.2312 160.216H188.375V122.68H38.2312V160.216ZM188.375 292H225.911V160.216H188.375V292ZM188.375 122.68H225.911V38.224H188.375V122.68Z" fill="black"/>
<path d="M256.737 292H294.273L325.69 203.056H441.97L472.978 292H512.961L405.25 0.280029H364.042L256.737 292ZM370.978 75.352C376.69 58.624 384.441 34.144 384.441 34.144H385.258C385.258 34.144 392.602 59.032 398.314 75.352L431.77 173.272H336.298L370.978 75.352Z" fill="black"/>
<path d="M634.724 160.216H597.188V292H634.724V160.216ZM503.348 122.68H540.884V0.688026H503.348V122.68ZM540.884 160.216H597.188V122.68H540.884V160.216ZM634.724 160.216H691.028V122.68H634.724V160.216ZM691.028 122.68H728.564V0.688026H691.028V122.68Z" fill="black"/>
<path d="M718.59 292H756.126L787.542 203.056H903.822L934.83 292H974.814L867.102 0.280029H825.894L718.59 292ZM832.83 75.352C838.542 58.624 846.294 34.144 846.294 34.144H847.11C847.11 34.144 854.454 59.032 860.166 75.352L893.622 173.272H798.15L832.83 75.352Z" fill="black"/>
</svg>
