<svg width="69" height="69" viewBox="0 0 69 69" fill="none" xmlns="http://www.w3.org/2000/svg">
<g clip-path="url(#clip0_2490_3344)">
<path d="M34.7522 68.0304C16.0179 68.0304 0.778152 52.7865 0.778152 34.0522C0.778152 15.3179 16.0179 0.078125 34.7522 0.078125C53.4865 0.078125 68.7263 15.3179 68.7263 34.0522C68.7263 52.7865 53.4865 68.0262 34.7522 68.0262V68.0304ZM34.7522 5.05844C18.7654 5.05844 5.75847 18.0654 5.75847 34.0522C5.75847 50.039 18.7654 63.0459 34.7522 63.0459C50.739 63.0459 63.746 50.039 63.746 34.0522C63.746 18.0654 50.7432 5.05844 34.7522 5.05844Z" fill="black"/>
<path d="M47.0103 46.3086H21.175V51.7476H47.0103V46.3086Z" fill="black"/>
<path d="M36.4722 35.9091L36.4722 16.3945L31.4919 16.3945L31.4919 35.9091L36.4722 35.9091Z" fill="black"/>
<path d="M21.1759 27.4728L24.6995 23.9492L33.9836 33.2334L43.2678 23.9492L46.7872 27.4728L33.9836 40.2764L21.1759 27.4728Z" fill="black"/>
</g>
<defs>
<clipPath id="clip0_2490_3344">
<rect width="67.9523" height="67.9523" fill="white" transform="translate(0.778687 0.078125)"/>
</clipPath>
</defs>
</svg>
