<svg width="69" height="69" viewBox="0 0 69 69" fill="none" xmlns="http://www.w3.org/2000/svg">
<g clip-path="url(#clip0_2490_3330)">
<path d="M34.7516 68.0304C16.0173 68.0304 0.777542 52.7865 0.777542 34.0522C0.777542 15.3179 16.0173 0.078125 34.7516 0.078125C53.4859 0.078125 68.7257 15.3179 68.7257 34.0522C68.7257 52.7865 53.4859 68.0262 34.7516 68.0262V68.0304ZM34.7516 5.05844C18.7648 5.05844 5.75786 18.0654 5.75786 34.0522C5.75786 50.039 18.7648 63.0459 34.7516 63.0459C50.7384 63.0459 63.7454 50.039 63.7454 34.0522C63.7454 18.0654 50.7426 5.05844 34.7516 5.05844Z" fill="black"/>
<path d="M21.9803 19.6777C24.8855 19.6777 26.5248 21.0016 27.3881 22.1139C28.4298 23.4544 28.961 25.2349 28.961 27.4138C28.961 31.2237 27.2802 36.1999 24.5534 40.541C26.4211 42.7033 28.8407 44.1642 31.7126 44.1642C34.5846 44.1642 36.888 43.2097 38.822 41.2466C43.8729 36.1169 44.8275 25.2266 44.7694 21.4623L49.7497 21.3834C49.758 22.0226 49.9074 37.088 42.3747 44.7411C39.4985 47.6629 35.9127 49.1445 31.7168 49.1445C27.8985 49.1445 24.3625 47.5508 21.503 44.5958C17.9421 48.4722 14.7796 49.1445 13.0157 49.1445L13.0157 44.1642C14.6592 44.1642 16.643 42.6867 18.4691 40.4912C16.4604 36.9511 15.29 32.7095 15.29 28.858C15.29 26.4675 15.7632 24.3841 16.6638 22.8402C17.8466 20.8024 19.7391 19.6818 21.9886 19.6818L21.9803 19.6777ZM21.6358 35.6188C23.0386 32.863 23.9807 29.8832 23.9807 27.4138C23.9807 26.4011 23.7939 25.6042 23.4619 25.1726C23.354 25.0315 23.0635 24.658 21.9803 24.658C21.6648 24.658 21.3245 24.7119 20.9593 25.3386C20.5111 26.1147 20.2621 27.3639 20.2621 28.8539C20.2621 30.9705 20.7393 33.3652 21.6358 35.6188Z" fill="black"/>
<path d="M60.3838 27.0467L56.8602 30.5703L47.5761 21.2862L38.2919 30.5703L34.7725 27.0467L47.5761 14.2432L60.3838 27.0467Z" fill="black"/>
</g>
<defs>
<clipPath id="clip0_2490_3330">
<rect width="67.9523" height="67.9523" fill="white" transform="translate(0.778687 0.078125)"/>
</clipPath>
</defs>
</svg>
