<svg width="69" height="69" viewBox="0 0 69 69" fill="none" xmlns="http://www.w3.org/2000/svg">
<g clip-path="url(#clip0_2490_3335)">
<path d="M34.7517 68.5187C16.0174 68.5187 0.777649 53.2748 0.777649 34.5405C0.777649 15.8062 16.0174 0.566406 34.7517 0.566406C53.486 0.566406 68.7258 15.8062 68.7258 34.5405C68.7258 53.2748 53.486 68.5145 34.7517 68.5145V68.5187ZM34.7517 5.54672C18.7649 5.54672 5.75797 18.5536 5.75797 34.5405C5.75797 50.5273 18.7649 63.5342 34.7517 63.5342C50.7385 63.5342 63.7455 50.5273 63.7455 34.5405C63.7455 18.5536 50.7427 5.54672 34.7517 5.54672Z" fill="black"/>
<line x1="18.4555" y1="35.8041" x2="51.0896" y2="35.8041" stroke="black" stroke-width="4.07926"/>
<line x1="34.0927" y1="18.8086" x2="34.0927" y2="51.4426" stroke="black" stroke-width="4.07926"/>
</g>
<defs>
<clipPath id="clip0_2490_3335">
<rect width="67.9523" height="67.9523" fill="white" transform="translate(0.778687 0.566406)"/>
</clipPath>
</defs>
</svg>
