<svg id="Layer_1" xmlns="http://www.w3.org/2000/svg" viewBox="167.52 125.62 786.97 70.75"><defs><style>.cls-1{fill:#098843;stroke-width:0px;}</style></defs><path class="cls-1" d="m225.75,177.29l7.25,14.19c.91,1.77-.38,3.88-2.37,3.88h-19.38c-1.02,0-1.95-.58-2.39-1.49l-6.54-13.34c-.45-.91-1.38-1.49-2.39-1.49h-8.29c-1.47,0-2.67,1.19-2.67,2.67v11c0,1.47-1.19,2.67-2.67,2.67h-16.11c-1.47,0-2.67-1.19-2.67-2.67v-64.37c0-1.47,1.19-2.67,2.67-2.67h42.69c13.11,0,22.1,11.15,22.1,26.69,0,9.26-3.23,17.04-8.61,21.73-.86.75-1.14,2.2-.62,3.22Zm-36.78-22.84c0,1.47,1.19,2.67,2.67,2.67h17.12c2.14,0,4.78,0,4.78-4.78s-2.64-4.78-4.78-4.78h-17.12c-1.47,0-2.67,1.19-2.67,2.67v4.22Z"></path><path class="cls-1" d="m306.49,138.27v54.41c0,1.47-1.19,2.67-2.67,2.67h-14.46c-1.47,0-2.67-1.19-2.67-2.67h0c0-2.13-2.35-3.38-4.13-2.21-5.25,3.44-11.66,5.88-19.78,5.88-11.13,0-23.75-4.18-23.75-25.79v-32.28c0-1.47,1.19-2.67,2.67-2.67h14.46c1.47,0,2.67,1.19,2.67,2.67v22.53c0,10.26,3.05,14.64,11.95,14.64,5.51,0,11.31-2.73,15.2-6.79.47-.49.71-1.16.71-1.84v-28.54c0-1.47,1.19-2.67,2.67-2.67h14.46c1.47,0,2.67,1.19,2.67,2.67Z"></path><path class="cls-1" d="m378.83,160.4v32.29c0,1.47-1.19,2.67-2.67,2.67h-14.46c-1.47,0-2.67-1.19-2.67-2.67v-22.53c0-10.26-3.05-14.64-11.95-14.64-5.51,0-11.31,2.73-15.2,6.79-.47.49-.71,1.16-.71,1.84v28.54c0,1.47-1.19,2.67-2.67,2.67h-14.46c-1.47,0-2.67-1.19-2.67-2.67v-54.41c0-1.47,1.19-2.67,2.67-2.67h14.46c1.47,0,2.67,1.19,2.67,2.67h0c0,2.13,2.35,3.38,4.13,2.21,5.25-3.44,11.66-5.88,19.78-5.88,11.13,0,23.75,4.18,23.75,25.79Z"></path><path class="cls-1" d="m434.63,182.81h-20.66c-1.16,0-2.19.75-2.54,1.86l-2.78,8.82c-.35,1.11-1.38,1.86-2.54,1.86h-17.9c-1.83,0-3.12-1.8-2.52-3.53l22.09-64.37c.37-1.08,1.38-1.8,2.52-1.8h28.02c1.14,0,2.15.72,2.52,1.8l22.09,64.37c.59,1.73-.69,3.53-2.52,3.53h-17.9c-1.16,0-2.19-.75-2.54-1.86l-2.78-8.82c-.35-1.11-1.38-1.86-2.54-1.86Zm-4.74-21.39l-3.05-9.73c-.78-2.49-4.31-2.49-5.09,0l-3.05,9.73c-.54,1.72.74,3.46,2.54,3.46h6.1c1.8,0,3.08-1.75,2.54-3.46Z"></path><path class="cls-1" d="m478.91,174.74c1.11,0,2.17.62,2.62,1.64.96,2.18,4.5,3.04,14.3,3.04,11.05,0,12.94-.6,12.94-3.18,0-2.99-1.9-2.69-13.77-3.28-22.76-1.1-32.74-3.19-32.74-18.42,0-17.03,15.26-19.91,33.56-19.91,17.23,0,29.57,2.56,30.96,17.23.15,1.58-1.09,2.88-2.68,2.88h-14.28c-1.04,0-2.52-.6-3.07-1.48-1.07-1.71-4.59-1.71-11.76-1.71-10.06,0-12.94,0-12.94,2.29,0,2.49,2.06,2.39,14.6,3.18,19.46,1.19,31.91,2.59,31.91,18.22,0,18.22-13.2,21.11-31.91,21.11-17.7,0-33.41-2.58-35.07-18.69-.16-1.6,1.07-2.92,2.67-2.92h14.65Z"></path><path class="cls-1" d="m524.65,125.65h18.4c.94,0,1.81.5,2.29,1.31l12.27,20.71c1.03,1.74,3.56,1.74,4.59,0l12.27-20.71c.48-.81,1.35-1.31,2.29-1.31h18.4c2.1,0,3.37,2.31,2.26,4.08l-26.39,42.07c-.27.42-.41.92-.41,1.42v19.47c0,1.47-1.19,2.67-2.67,2.67h-16.11c-1.47,0-2.67-1.19-2.67-2.67v-19.47c0-.5-.14-.99-.41-1.42l-26.39-42.07c-1.11-1.78.16-4.08,2.26-4.08Z"></path><path class="cls-1" d="m585.74,165.48c0-22.1,12.62-30.87,33.64-30.87s33.64,8.76,33.64,30.87-12.62,30.87-33.64,30.87-33.64-8.76-33.64-30.87Zm47.5,0c0-8.76-5.03-10.95-13.85-10.95s-13.85,2.19-13.85,10.95,5.03,10.96,13.85,10.96,13.85-2.19,13.85-10.96Z"></path><path class="cls-1" d="m722.74,138.27v54.41c0,1.47-1.19,2.67-2.67,2.67h-14.46c-1.47,0-2.67-1.19-2.67-2.67h0c0-2.13-2.35-3.38-4.13-2.21-5.25,3.44-11.66,5.88-19.78,5.88-11.13,0-23.75-4.18-23.75-25.79v-32.28c0-1.47,1.19-2.67,2.67-2.67h14.46c1.47,0,2.67,1.19,2.67,2.67v22.53c0,10.26,3.05,14.64,11.95,14.64,5.51,0,11.31-2.73,15.2-6.79.47-.49.71-1.16.71-1.84v-28.54c0-1.47,1.19-2.67,2.67-2.67h14.46c1.47,0,2.67,1.19,2.67,2.67Z"></path><path class="cls-1" d="m778.55,182.81h-20.66c-1.16,0-2.19.75-2.54,1.86l-2.78,8.82c-.35,1.11-1.38,1.86-2.54,1.86h-17.9c-1.83,0-3.12-1.8-2.52-3.53l22.09-64.37c.37-1.08,1.38-1.8,2.52-1.8h28.02c1.14,0,2.15.72,2.52,1.8l22.09,64.37c.59,1.73-.69,3.53-2.52,3.53h-17.9c-1.16,0-2.19-.75-2.54-1.86l-2.78-8.82c-.35-1.11-1.38-1.86-2.54-1.86Zm-4.74-21.39l-3.05-9.73c-.78-2.49-4.31-2.49-5.09,0l-3.05,9.73c-.54,1.72.74,3.46,2.54,3.46h6.1c1.8,0,3.08-1.75,2.54-3.46Z"></path><path class="cls-1" d="m861.6,138.62v14.43c0,1.73-1.62,2.97-3.31,2.57-3.16-.76-5.93-1.09-8.65-1.09-6.77,0-12.35.93-17.97,7.81-.39.48-.59,1.09-.59,1.71v28.65c0,1.47-1.19,2.67-2.67,2.67h-14.46c-1.47,0-2.67-1.19-2.67-2.67v-54.41c0-1.47,1.19-2.67,2.67-2.67h14.46c1.47,0,2.67,1.19,2.67,2.67v7.29c4.37-7.87,9.33-10.95,17.41-10.95,4.68,0,8.22.65,11.15,1.43,1.16.31,1.96,1.37,1.96,2.58Z"></path><path class="cls-1" d="m910.15,172.95h15.07c1.73,0,3.03,1.62,2.61,3.3-3.39,13.59-13.92,20.1-32.82,20.1s-32.82-8.76-32.82-30.87,13.44-30.87,33.64-30.87,32.51,8.13,33.43,32.04c.06,1.53-1.15,2.81-2.67,2.81h-39.83c-2.36,0-3.56,2.84-1.92,4.55,2.53,2.64,6.37,3.42,10.18,3.42,6.72,0,9.68-.52,13.35-3.78.49-.44,1.12-.7,1.78-.7Zm-26.84-15.44h24.91c-2.23-5.38-7.18-5.98-12.45-5.98s-10.22.6-12.45,5.98Z"></path><rect class="cls-1" x="932.88" y="173.19" width="21.6" height="21.6" rx="1.77" ry="1.77"></rect></svg>