<?xml version="1.0" encoding="UTF-8"?><svg id="Layer_1" xmlns="http://www.w3.org/2000/svg" viewBox="0 0 612 110.2"><defs><style>.cls-1{fill:#fff;}</style></defs><path class="cls-1" d="M73.58,67.3l7.92,15.5c.99,1.94-.42,4.24-2.59,4.24h-21.17c-1.11,0-2.13-.63-2.62-1.63l-7.14-14.58c-.49-1-1.5-1.63-2.62-1.63h-9.05c-1.61,0-2.91,1.3-2.91,2.91v12.01c0,1.61-1.3,2.91-2.91,2.91H12.89c-1.61,0-2.91-1.3-2.91-2.91V13.8c0-1.61,1.3-2.91,2.91-2.91h46.63c14.33,0,24.15,12.18,24.15,29.15,0,10.12-3.52,18.61-9.41,23.74-.94.82-1.25,2.4-.68,3.52ZM33.4,42.35c0,1.61,1.3,2.91,2.91,2.91h18.71c2.34,0,5.23,0,5.23-5.22s-2.88-5.22-5.23-5.22h-18.71c-1.61,0-2.91,1.3-2.91,2.91v4.61Z"/><path class="cls-1" d="M161.79,24.68v59.45c0,1.61-1.3,2.91-2.91,2.91h-15.8c-1.61,0-2.91-1.3-2.91-2.91h0c0-2.33-2.57-3.69-4.52-2.42-5.73,3.76-12.73,6.42-21.61,6.42-12.16,0-25.95-4.57-25.95-28.18V24.68c0-1.61,1.3-2.91,2.91-2.91h15.8c1.61,0,2.91,1.3,2.91,2.91v24.61c0,11.21,3.33,15.99,13.06,15.99,6.02,0,12.35-2.99,16.61-7.41.52-.54.78-1.27.78-2.01v-31.18c0-1.61,1.3-2.91,2.91-2.91h15.8c1.61,0,2.91,1.3,2.91,2.91Z"/><path class="cls-1" d="M240.81,48.85v35.27c0,1.61-1.3,2.91-2.91,2.91h-15.8c-1.61,0-2.91-1.3-2.91-2.91v-24.61c0-11.21-3.33-15.99-13.06-15.99-6.02,0-12.35,2.99-16.61,7.41-.52.54-.78,1.27-.78,2.01v31.18c0,1.61-1.3,2.91-2.91,2.91h-15.8c-1.61,0-2.91-1.3-2.91-2.91V24.68c0-1.61,1.3-2.91,2.91-2.91h15.8c1.61,0,2.91,1.3,2.91,2.91h0c0,2.33,2.57,3.69,4.52,2.42,5.73-3.76,12.73-6.42,21.61-6.42,12.16,0,25.95,4.57,25.95,28.17Z"/><path class="cls-1" d="M267.78,10.78h40.28c19.29,0,29.72,9.34,26.45,26.33-2.18,10.92-9.7,15.5-20.74,17.93l-1.46.24c20.99,3.76,6.55,29.21,11.28,30.67l.36,1.09-22.08-.36c-3.64-3.64,9.58-21.69-8.98-21.69h-14.19l-5.94,22.06h-21.84l16.86-76.26ZM282.1,49.48h14.19c8.73,0,14.68-3.64,16.26-11.53,1.21-6.67-2.18-9.34-10.92-9.34h-15.41l-4.12,20.87Z"/><path class="cls-1" d="M376.51,66.59h19.53c-5.82,13.47-16.62,21.23-32.88,21.23-21.23,0-31.78-15.04-27.42-36.27,3.76-18.32,17.35-29.72,36.52-29.72,21.84,0,30.33,16.01,25.96,37.85h-44.64c-1.7,9.46,4.49,13.59,10.8,13.59,7.28,0,11.53-3.64,12.13-6.67ZM355.89,48.75h25.48c1.58-9.7-3.03-13.59-9.83-13.59-8.01,0-13.95,4.85-15.65,13.59Z"/><path class="cls-1" d="M458.27,77.14c-.61,3.28-.12,4.12,2.18,4.12l-.97,4.85c-2.91,1.46-6.43,1.7-9.71,1.7-8.61,0-11.04-3.88-10.92-7.89-4.85,4.49-12.5,7.89-20.02,7.89-13.71,0-20.02-7.89-17.71-19.9,2.06-10.8,11.53-15.77,26.2-19.17,8.86-2.06,17.71-3.64,18.8-8.86.61-3.03-1.46-4.73-6.19-4.73-7.64,0-11.77,3.15-13.59,9.1h-18.08c2.91-12.86,12.37-22.44,32.03-22.44,18.08,0,27.3,7.28,23.53,26.81l-5.58,28.51ZM443.6,55.3c-2.67,1.58-5.82,2.31-9.95,3.15-8.49,1.82-12.37,4.49-13.1,8.86-.73,4.49,2.18,7.16,6.31,7.16,8.98,0,13.34-5.94,14.92-11.77l1.82-7.4Z"/><path class="cls-1" d="M544.21,6.12l-16.86,79.75h-19.41l.97-5.46c-3.15,3.28-10.19,7.4-18.32,7.4-17.1,0-25.72-13.1-21.59-34.09,3.88-19.77,16.13-31.91,32.03-31.91,9.58,0,15.29,5.34,17.11,8.61l.73-.49,5.94-23.83h19.41ZM505.76,36.38c-8.49,0-15.29,6.79-17.83,19.53-2.18,11.53.85,17.35,8.13,17.35,8.49,0,15.29-6.79,17.83-19.53,2.18-11.53-.85-17.35-8.13-17.35Z"/><path class="cls-1" d="M577.11,85.24c-8.37,15.89-14.56,19.77-27.05,19.77-3.88,0-7.4-.48-11.16-1.33l2.3-14.19c4.85.97,9.71-.24,12.01-3.76,2.55-2.31,3.4-6.19,2.67-11.65l-10.19-52.65h19.05l6.19,40.76h.24l19.65-40.76h19.77l-33.48,63.81Z"/></svg>