<?xml version="1.0" standalone="no"?>
<!DOCTYPE svg PUBLIC "-//W3C//DTD SVG 1.1//EN" "http://www.w3.org/Graphics/SVG/1.1/DTD/svg11.dtd">
<svg xmlns="http://www.w3.org/2000/svg" id="Layer_1" viewBox="0 0 612 164" width="612" height="164"><defs><style>.cls-1{opacity:.61;}.cls-1,.cls-2{fill:#fff;}</style></defs><circle class="cls-2" cx="190.92" cy="98.97" r=".67"/><circle class="cls-2" cx="223.42" cy="119.23" r=".57"/><circle class="cls-2" cx="230.97" cy="118.47" r=".57"/><circle class="cls-2" cx="189.48" cy="83.87" r="1.91"/><circle class="cls-2" cx="213.67" cy="96.96" r="1.62"/><circle class="cls-2" cx="217.87" cy="100.4" r="1.62"/><circle class="cls-2" cx="233.17" cy="99.16" r="1.53"/><circle class="cls-2" cx="244.83" cy="101.93" r="1.62"/><circle class="cls-2" cx="240.72" cy="98.59" r="1.72"/><circle class="cls-2" cx="207.55" cy="112.83" r="1.62"/><circle class="cls-2" cx="190.06" cy="91.32" r="1.91"/><circle class="cls-2" cx="217.3" cy="50.61" r="1.72"/><circle class="cls-2" cx="224.85" cy="50.03" r="1.72"/><circle class="cls-2" cx="254.58" cy="81.86" r="1.43"/><circle class="cls-2" cx="251.04" cy="86.16" r="1.53"/><circle class="cls-2" cx="253.81" cy="74.21" r="1.82"/><circle class="cls-2" cx="253.24" cy="66.66" r="1.34"/><circle class="cls-2" cx="247.6" cy="90.08" r="1.05"/><circle class="cls-2" cx="239.95" cy="90.94" r="1.34"/><circle class="cls-2" cx="223.61" cy="76.99" r="1.91"/><circle class="cls-2" cx="220.64" cy="88.65" r="1.72"/><circle class="cls-2" cx="228.29" cy="88.17" r="1.82"/><path class="cls-2" d="M250.56,75.65c-.18,0-.36.02-.53.05.03-.2.06-.41.06-.62,0-.47-.09-.93-.25-1.34,1.52-.07,2.73-1.32,2.73-2.86s-1.28-2.87-2.87-2.87c-.15,0-.3.02-.45.04.04-.23.07-.47.07-.71,0-.89-.31-1.7-.83-2.34.23.09.47.14.73.14,1.11,0,2.01-.9,2.01-2.01s-.9-2.01-2.01-2.01-2.01.9-2.01,2.01c0,.36.1.7.27,1-.56-.33-1.2-.52-1.89-.52-.1,0-.19,0-.29.01-.01-.55-.14-1.08-.37-1.54,1.26,0,2.29-1.03,2.29-2.29s-1.03-2.29-2.29-2.29-2.29,1.03-2.29,2.29c0,.12.01.24.03.35-.34-.1-.7-.16-1.08-.16-.17,0-.33.02-.5.04-.04-.42-.14-.82-.3-1.19,1.29-.03,2.33-1.09,2.33-2.39s-1.07-2.39-2.39-2.39-2.39,1.07-2.39,2.39c0,.08,0,.17.01.25-.34-.1-.69-.15-1.06-.15-.07,0-.14,0-.21.01-.06-.65-.29-1.25-.63-1.76.12.02.24.03.37.03,1.16,0,2.1-.94,2.1-2.1s-.94-2.1-2.1-2.1-2.1.94-2.1,2.1c0,.25.05.49.13.72-.48-.21-1.01-.34-1.56-.34s-1.14.13-1.63.37c-.06-1.37-1.19-2.47-2.58-2.47s-2.58,1.16-2.58,2.58c0,.29.05.56.13.82-.31-.09-.65-.15-.99-.15-.41,0-.81.08-1.18.21.02-.13.03-.27.03-.4,0-1.58-1.28-2.87-2.87-2.87s-2.87,1.28-2.87,2.87c0,.36.07.71.19,1.03-.22-.05-.44-.07-.67-.07-.75,0-1.43.26-1.97.69.1-.28.15-.57.15-.88,0-1.48-1.2-2.68-2.68-2.68s-2.68,1.2-2.68,2.68c0,.16.02.32.04.47-.26-.06-.53-.09-.81-.09-.72,0-1.38.2-1.96.54.03-.14.05-.29.05-.45,0-1.21-.98-2.2-2.2-2.2s-2.2.98-2.2,2.2.98,2.2,2.2,2.2c.23,0,.45-.03.65-.1-.23.49-.37,1.05-.37,1.63,0,.14,0,.28.02.41-.34.04-.67.13-.98.26,0-1.53-1.24-2.77-2.77-2.77s-2.77,1.24-2.77,2.77c0,.56.17,1.08.45,1.52-.37-.17-.78-.27-1.22-.27-1.58,0-2.87,1.28-2.87,2.87,0,.6.19,1.16.5,1.62-.35-.18-.75-.28-1.17-.28-1.43,0-2.58,1.16-2.58,2.58s1.16,2.58,2.58,2.58c.17,0,.34-.02.51-.05-.14.41-.22.84-.22,1.29,0,0,0,0,0,.01-.48.04-.93.16-1.34.36-.05-1.12-.97-2-2.1-2s-2.1.94-2.1,2.1.94,2.1,2.1,2.1c.06,0,.12,0,.19,0-.12.36-.19.75-.19,1.16,0,.59.14,1.14.38,1.63-1.48.05-2.67,1.27-2.67,2.77s1.24,2.77,2.77,2.77c.15,0,.29-.01.43-.04-.09.35-.14.71-.14,1.09,0,.27.03.53.07.78-1.54.15-2.75,1.46-2.75,3.04,0,1.69,1.37,3.06,3.06,3.06.08,0,.16,0,.24-.01-.03.19-.05.39-.05.59,0,.55.12,1.07.34,1.53-1.35.02-2.44,1.12-2.44,2.48s1.11,2.49,2.49,2.49c.34,0,.66-.07.95-.19-.12.36-.19.74-.19,1.15,0,1.01.42,1.93,1.09,2.59-.29-.19-.63-.3-.99-.3-1,0-1.82.81-1.82,1.82s.81,1.82,1.82,1.82,1.82-.81,1.82-1.82c0-.47-.18-.9-.47-1.22.57.44,1.28.7,2.04.74.1.71.37,1.37.78,1.93-.05,0-.1,0-.15,0-1.11,0-2.01.9-2.01,2.01s.9,2.01,2.01,2.01,2.01-.9,2.01-2.01c0-.21-.03-.42-.1-.61.5.21,1.05.33,1.63.33.02,0,.03,0,.05,0,.09.64.34,1.22.7,1.72-1.15,0-2.09.95-2.09,2.1s.94,2.1,2.1,2.1,2.1-.94,2.1-2.1c0-.23-.04-.45-.1-.65.37.11.75.17,1.16.17.44,0,.85-.07,1.25-.21.04,1.65,1.39,2.98,3.05,2.98.53,0,1.04-.14,1.47-.38-.09.27-.14.56-.14.86,0,1.53,1.24,2.77,2.77,2.77s2.77-1.24,2.77-2.77c0-.18-.02-.35-.05-.52.17.02.35.04.53.04.23,0,.45-.02.67-.06,0,.74.24,1.43.64,1.99-.08-.01-.17-.02-.26-.02-1.16,0-2.1.94-2.1,2.1s.94,2.1,2.1,2.1,2.1-.94,2.1-2.1c0-.28-.06-.55-.15-.79.38.14.78.22,1.21.22.77,0,1.48-.25,2.06-.66-.03.15-.05.31-.05.47,0,1.27,1.03,2.29,2.29,2.29s2.29-1.03,2.29-2.29c0-.21-.03-.42-.09-.61.38.15.8.23,1.23.23.82,0,1.57-.29,2.16-.77-.04.15-.06.31-.06.48,0,1.11.9,2.01,2.01,2.01s2.01-.9,2.01-2.01-.9-2.01-2.01-2.01c-.35,0-.68.09-.97.25.19-.43.3-.9.3-1.4,0-.27-.03-.52-.09-.77.06,0,.12,0,.19,0,.47,0,.92-.09,1.34-.25.02,1.51,1.25,2.74,2.77,2.74s2.77-1.24,2.77-2.77c0-.54-.15-1.03-.42-1.46.34.14.7.21,1.09.21,1.58,0,2.87-1.28,2.87-2.87s-1.28-2.87-2.87-2.87c-.38,0-.75.08-1.09.21.08-.28.13-.58.13-.88,0-1.69-1.37-3.06-3.06-3.06s-3.06,1.37-3.06,3.06c0,.18.02.35.05.52-.17-.02-.35-.04-.53-.04-.59,0-1.14.14-1.63.38,0-.06,0-.13,0-.19,0-1.37-1.11-2.49-2.49-2.49s-2.49,1.11-2.49,2.49c0,.14.01.28.04.41-.4-.14-.83-.22-1.28-.22-.58,0-1.13.13-1.63.36-.01-1.25-1.03-2.27-2.29-2.27s-2.29,1.03-2.29,2.29c0,.25.04.49.11.71-.47-.21-1-.33-1.55-.33-.18,0-.36.02-.54.04-.29-1.55-1.65-2.72-3.28-2.72-.39,0-.76.07-1.11.19.04-.19.06-.38.06-.57,0-1.69-1.37-3.06-3.06-3.06-.13,0-.26.01-.39.03,0-.07,0-.15,0-.22,0-.61-.13-1.2-.37-1.72,1.37,0,2.47-1.12,2.47-2.48s-1.11-2.49-2.49-2.49c-.17,0-.33.02-.49.05.07-.29.11-.6.11-.91,0-.17-.01-.34-.04-.5.66-.07,1.26-.31,1.78-.67-.02.1-.03.21-.03.31,0,1.16.94,2.1,2.1,2.1s2.1-.94,2.1-2.1-.94-2.1-2.1-2.1c-.25,0-.48.05-.71.12.21-.48.32-1,.32-1.56,0-.13,0-.27-.02-.4.41-.03.8-.12,1.17-.26,0,1.47,1.2,2.66,2.68,2.66s2.68-1.2,2.68-2.68c0-.33-.06-.65-.17-.94.32.11.67.18,1.03.18.53,0,1.04-.13,1.48-.37-.03.15-.04.3-.04.46,0,1.53,1.24,2.77,2.77,2.77s2.77-1.24,2.77-2.77c0-.45-.11-.87-.3-1.24.33.12.69.19,1.06.19.21,0,.41-.02.61-.06-.02.15-.03.29-.03.44,0,1.9,1.54,3.44,3.44,3.44.79,0,1.52-.27,2.1-.72-.12.28-.19.59-.19.91,0,1.27,1.03,2.29,2.29,2.29s2.29-1.03,2.29-2.29c0-.2-.03-.4-.08-.59.39.13.8.2,1.23.2.55,0,1.07-.12,1.54-.32.08,1.35,1.2,2.43,2.57,2.43s2.58-1.16,2.58-2.58c0-.29-.05-.56-.14-.82.31.1.65.15,1,.15,1.85,0,3.35-1.5,3.35-3.35,0-.46-.09-.9-.26-1.3.18.03.36.05.55.05,1.58,0,2.87-1.28,2.87-2.87s-1.28-2.87-2.87-2.87ZM222.07,108.11s.01.04.02.06c0,0-.01,0-.02,0,0-.02,0-.04,0-.06ZM238.45,71.42c-.02.13-.03.27-.03.41,0,.06,0,.13,0,.19,0,0,0,0,0,0-.55,0-1.07.13-1.54.37,0-.06,0-.12,0-.18,0-.39-.1-.75-.27-1.07.43.19.91.31,1.41.31.14,0,.27-.01.41-.03ZM241.86,75.34s0-.05,0-.08c0,0,0,0,0,0,.1,0,.19,0,.29-.01.09,0,.19.01.29.01,0,0,0,0,0,0,0,0,0,0,0,0-.2,0-.4.03-.59.07ZM204.79,70.97c0,.07.02.13.03.2-.13-.03-.26-.06-.4-.07.13-.04.25-.08.37-.13ZM206.96,93.8s.08-.04.12-.06c0,.03,0,.07,0,.1-.04-.01-.08-.03-.13-.04ZM216.12,82.55c.08-.31.13-.64.13-.98,0-.62-.15-1.21-.41-1.73.07,0,.14.01.22.01.54,0,1.04-.19,1.43-.51-.42.54-.67,1.21-.67,1.94,0,.48.11.93.3,1.33-.22-.06-.45-.09-.68-.09-.11,0-.21,0-.32.02ZM224.66,80.43c0,.53.14,1.04.38,1.47-.27-.09-.56-.14-.86-.14-.41,0-.79.09-1.14.25.05-.23.09-.47.09-.72,0-1.74-1.41-3.15-3.15-3.15-.79,0-1.51.29-2.06.77.28-.38.44-.84.44-1.35,0-1.27-1.03-2.29-2.29-2.29s-2.29,1.03-2.29,2.29c0,.13.01.26.03.38-.45-.18-.95-.29-1.47-.29-.14,0-.27,0-.4.02-.16-.66-.49-1.26-.94-1.74.27.12.56.19.87.19,1.16,0,2.1-.94,2.1-2.1s-.94-2.1-2.1-2.1-2.1.94-2.1,2.1c0,.47.15.89.41,1.24-.59-.36-1.29-.57-2.03-.57-.1,0-.2,0-.3.02-.03-.41-.12-.8-.26-1.17.03,0,.06,0,.08,0,1.58,0,2.87-1.28,2.87-2.87s-1.28-2.87-2.87-2.87c-.14,0-.28.01-.42.03.02-.17.04-.34.04-.51s-.01-.33-.03-.49c.65-.04,1.26-.25,1.78-.59-.02.1-.03.21-.03.32,0,1.21.98,2.2,2.2,2.2s2.2-.98,2.2-2.2-.98-2.2-2.2-2.2c-.26,0-.51.05-.74.13.17-.43.26-.89.26-1.37,0-.1,0-.2-.02-.31.56-.05,1.09-.23,1.55-.5,0,.05,0,.09,0,.14,0,1.27,1.03,2.29,2.29,2.29s2.29-1.03,2.29-2.29-1.03-2.29-2.29-2.29c-.2,0-.4.03-.59.08.13-.39.2-.8.2-1.23,0-.55-.12-1.06-.32-1.53.56-.01,1.08-.2,1.51-.51-.15.36-.23.76-.23,1.18,0,1.74,1.41,3.15,3.15,3.15s3.15-1.41,3.15-3.15c0-.46-.1-.89-.27-1.28.15.02.31.04.47.04.24,0,.46-.03.68-.09-.07.27-.11.56-.11.85,0,.75.25,1.45.66,2.02-.21-.07-.43-.11-.66-.11-1.16,0-2.1.94-2.1,2.1s.94,2.1,2.1,2.1,2.1-.94,2.1-2.1c0-.34-.08-.67-.23-.95.47.24,1,.38,1.57.38.48,0,.94-.1,1.35-.28,0,.09-.01.18-.01.28,0,1.48,1.2,2.68,2.68,2.68s2.68-1.2,2.68-2.68c0-.18-.02-.35-.05-.52.32.09.66.14,1.01.14.07,0,.14,0,.21-.01.05.48.19.94.39,1.35-.01,0-.02,0-.03,0-1.48,0-2.68,1.2-2.68,2.68s1.2,2.68,2.68,2.68c.29,0,.57-.05.84-.14-.05.23-.07.47-.07.71,0,.75.24,1.44.65,2.01-.21-.06-.42-.09-.65-.09-1.27,0-2.29,1.03-2.29,2.29s1.03,2.29,2.29,2.29c.19,0,.36-.02.54-.07-.1.32-.15.67-.15,1.02,0,.33.05.65.14.96-.84.01-1.62.32-2.22.82.17-.3.26-.65.26-1.02,0-1.16-.94-2.1-2.1-2.1s-2.1.94-2.1,2.1.94,2.1,2.1,2.1c.44,0,.85-.14,1.19-.37-.39.57-.62,1.25-.62,2,0,.16.01.32.04.48-.31,0-.62.05-.9.14,0-.05,0-.09,0-.14,0-1.69-1.37-3.06-3.06-3.06s-3.06,1.37-3.06,3.06Z"/><circle class="cls-2" cx="195.12" cy="60.36" r=".96"/><circle class="cls-2" cx="191.68" cy="64.47" r=".86"/><circle class="cls-2" cx="198.76" cy="56.25" r=".86"/><circle class="cls-2" cx="209.84" cy="51.37" r="1.34"/><circle class="cls-2" cx="232.4" cy="49.36" r="1.24"/><circle class="cls-2" cx="189.01" cy="76.22" r="1.53"/><circle class="cls-2" cx="188.24" cy="68.67" r=".48"/><circle class="cls-2" cx="211.47" cy="116.27" r=".86"/><circle class="cls-2" cx="225.52" cy="99.64" r=".86"/><circle class="cls-2" cx="226.28" cy="65.04" r=".86"/><circle class="cls-2" cx="230.39" cy="68.77" r=".76"/><circle class="cls-2" cx="219.31" cy="73.55" r=".57"/><circle class="cls-2" cx="232.4" cy="91.61" r=".48"/><circle class="cls-2" cx="242.06" cy="113.69" r=".96"/><circle class="cls-2" cx="245.59" cy="109.58" r="1.05"/><circle class="cls-2" cx="35.98" cy="81.77" r="1.91"/><circle class="cls-2" cx="35.5" cy="74.31" r="1.82"/><circle class="cls-2" cx="60.25" cy="52.9" r="1.91"/><circle class="cls-2" cx="76.31" cy="59.21" r="2.1"/><path class="cls-2" d="M75.07,63.32c0-1.32-1.07-2.39-2.39-2.39-.03,0-.05,0-.08,0,.11-.36.18-.75.18-1.15,0-.28-.03-.55-.09-.82,1.52-.27,2.67-1.6,2.67-3.2,0-1.79-1.46-3.25-3.25-3.25s-3.25,1.45-3.25,3.25c0,.07,0,.13,0,.2-.34,0-.67.06-.98.15-.05-.73-.33-1.39-.77-1.92.24.09.51.14.78.14,1.27,0,2.29-1.03,2.29-2.29s-1.03-2.29-2.29-2.29-2.29,1.03-2.29,2.29c0,.48.15.92.4,1.29-.44-.21-.93-.33-1.45-.33-1.85,0-3.35,1.5-3.35,3.35,0,.13,0,.26.03.39-.07,0-.14-.01-.22-.01-.55,0-1.08.12-1.55.33.01-.11.02-.22.02-.33,0-1.48-1.2-2.68-2.68-2.68s-2.68,1.2-2.68,2.68c0,.04,0,.07,0,.11-.1,0-.19-.01-.29-.01-.4,0-.78.08-1.13.21-.13-.66-.45-1.26-.89-1.75.26.13.56.2.87.2,1.11,0,2.01-.9,2.01-2.01s-.9-2.01-2.01-2.01-2.01.9-2.01,2.01c0,.43.14.83.37,1.15-.58-.37-1.26-.58-1.99-.58-.51,0-1,.1-1.44.29,0-.03,0-.06,0-.1,0-1.37-1.11-2.49-2.49-2.49s-2.49,1.11-2.49,2.49c0,.49.14.95.39,1.33-.43-.24-.92-.37-1.44-.37-1.64,0-2.96,1.33-2.96,2.96,0,.73.26,1.4.7,1.91-.35-.18-.75-.29-1.18-.29-1.43,0-2.58,1.16-2.58,2.58,0,1.33,1.01,2.43,2.31,2.57,0,.1-.02.2-.02.3,0,.86.34,1.63.9,2.2-.01,0-.02,0-.04,0-1.53,0-2.77,1.24-2.77,2.77s1.24,2.77,2.77,2.77c.18,0,.35-.02.52-.05-.03.17-.04.35-.04.53,0,.44.08.86.23,1.25-1.61.03-2.91,1.34-2.91,2.96s1.33,2.96,2.96,2.96c.05,0,.11,0,.16,0-.04.22-.06.45-.06.68,0,.21.02.42.05.62-1.65.25-2.92,1.67-2.92,3.4,0,.7.21,1.35.57,1.89-.18-.05-.37-.07-.57-.07-1.27,0-2.29,1.03-2.29,2.29s1.03,2.29,2.29,2.29c.16,0,.32-.02.47-.05-.18.43-.28.89-.28,1.39,0,.62.16,1.21.43,1.72-.02,0-.03,0-.05,0-1.27,0-2.29,1.03-2.29,2.29s1.03,2.29,2.29,2.29c.25,0,.49-.04.71-.11-.15.41-.23.85-.23,1.31,0,.61.14,1.18.39,1.69-.1-.01-.2-.02-.3-.02-1.37,0-2.49,1.11-2.49,2.49s1.11,2.49,2.49,2.49c.26,0,.51-.04.75-.11-.11.34-.17.7-.17,1.07,0,1.9,1.54,3.44,3.44,3.44.56,0,1.09-.14,1.56-.38-.02.12-.03.25-.03.38,0,1.58,1.28,2.87,2.87,2.87s2.87-1.28,2.87-2.87c0-.73-.27-1.39-.72-1.9.38.23.82.37,1.29.37,1.37,0,2.49-1.11,2.49-2.49s-1.11-2.49-2.49-2.49c-.17,0-.33.02-.48.05.06-.26.1-.53.1-.81,0-.48-.1-.93-.27-1.34.03,0,.05,0,.08,0,1.69,0,3.06-1.37,3.06-3.06s-1.37-3.06-3.06-3.06c-.14,0-.28.01-.41.03.1-.32.17-.65.2-.99.56-.01,1.09-.15,1.56-.39,0,.07-.01.13-.01.2,0,1.16.94,2.1,2.1,2.1s2.1-.94,2.1-2.1-.94-2.1-2.1-2.1c-.12,0-.25.01-.37.03.17-.42.27-.89.27-1.37,0-.75-.23-1.44-.61-2.02.08,0,.15.01.23.01,1.21,0,2.2-.98,2.2-2.2s-.98-2.2-2.2-2.2c-.26,0-.51.05-.74.13.17-.43.26-.89.26-1.37,0-.55-.12-1.07-.33-1.54.05,0,.09,0,.14,0,1.37,0,2.49-1.11,2.49-2.49s-1.11-2.49-2.49-2.49c-.29,0-.57.05-.83.15.16-.43.26-.9.26-1.39,0-.04,0-.08,0-.13.64-.08,1.23-.3,1.73-.65,0,.04,0,.07,0,.11,0,1.16.94,2.1,2.1,2.1s2.1-.94,2.1-2.1-.94-2.1-2.1-2.1c-.22,0-.42.03-.62.09.15-.42.24-.87.24-1.34,0-.18-.02-.36-.04-.53,1.86-.3,3.29-1.91,3.29-3.86,0-.03,0-.06,0-.1,0,0,0,0,0,0,.71,0,1.37-.19,1.94-.52-.02.11-.03.21-.03.32,0,1.21.98,2.2,2.2,2.2s2.2-.98,2.2-2.2-.98-2.2-2.2-2.2c-.18,0-.36.03-.53.07.22-.49.34-1.03.34-1.6,0-.04,0-.08,0-.13.3-.04.59-.11.87-.21,0,.02,0,.04,0,.06,0,1.48,1.2,2.68,2.68,2.68s2.68-1.2,2.68-2.68c0-.29-.05-.57-.13-.83.43.17.89.26,1.38.26s.92-.09,1.34-.25c.02,1.3,1.08,2.35,2.39,2.35s2.39-1.07,2.39-2.39ZM45.25,108.92c.06-.25.09-.51.09-.77,0-.15-.01-.29-.03-.44.2.03.4.06.6.06.48,0,.93-.1,1.34-.27,0,.03,0,.05,0,.08,0,.61.22,1.17.58,1.6-.44-.28-.97-.45-1.54-.45-.37,0-.72.07-1.05.2Z"/><path class="cls-2" d="M89,59.41c-.32-.13-.66-.2-1.03-.2-1.48,0-2.68,1.2-2.68,2.68s1.2,2.68,2.68,2.68,2.68-1.2,2.68-2.68c0-.51-.15-.99-.39-1.39.35.16.75.25,1.16.25,1.58,0,2.87-1.28,2.87-2.87s-1.28-2.87-2.87-2.87-2.87,1.28-2.87,2.87c0,.57.17,1.1.45,1.54Z"/><circle class="cls-2" cx="34.73" cy="66.66" r="1.62"/><circle class="cls-2" cx="34.16" cy="59.11" r=".86"/><circle class="cls-2" cx="37.51" cy="54.81" r="1.15"/><circle class="cls-2" cx="75.55" cy="51.66" r="1.43"/><circle class="cls-2" cx="92.18" cy="65.52" r="1.53"/><circle class="cls-2" cx="87.4" cy="54.43" r="1.53"/><circle class="cls-2" cx="83.77" cy="58.44" r="1.91"/><path class="cls-2" d="M129.77,107.18c.06,0,.11,0,.17,0,1.64,0,2.96-1.33,2.96-2.96s-1.33-2.96-2.96-2.96c-.03,0-.07,0-.1,0,0-.03,0-.07,0-.1,0-.37-.06-.72-.17-1.06.65-.02,1.26-.22,1.78-.55-.05.18-.08.36-.08.55,0,1.16.94,2.1,2.1,2.1s2.1-.94,2.1-2.1-.94-2.1-2.1-2.1c-.27,0-.52.05-.76.14.24-.48.37-1.01.37-1.58s-.15-1.14-.4-1.63c0,0,.01,0,.02,0,1.27,0,2.29-1.03,2.29-2.29s-1.03-2.29-2.29-2.29c-.13,0-.25.01-.37.03.12-.34.18-.7.18-1.08,0-.67-.2-1.3-.54-1.82.05,0,.11,0,.16,0,1.37,0,2.49-1.11,2.49-2.49s-1.11-2.49-2.49-2.49c-.11,0-.22,0-.33.02.09-.31.13-.64.13-.98,0-.62-.15-1.21-.42-1.72.01,0,.03,0,.04,0,1.37,0,2.49-1.11,2.49-2.49s-1.11-2.49-2.49-2.49c-.08,0-.15,0-.22.01.08-.31.13-.63.13-.97,0-.62-.15-1.21-.42-1.73,1.25-.13,2.23-1.18,2.23-2.47,0-1.37-1.11-2.49-2.49-2.49-.15,0-.29.02-.43.04.1-.32.15-.65.15-1,0-.95-.39-1.81-1.01-2.44.22.09.47.14.73.14,1.06,0,1.91-.86,1.91-1.91s-.86-1.91-1.91-1.91-1.91.86-1.91,1.91c0,.45.16.87.42,1.19-.49-.27-1.06-.43-1.66-.43-.3,0-.6.04-.88.12,0-.1.02-.2.02-.31,0-.62-.15-1.21-.42-1.73.07,0,.15.01.23.01,1.27,0,2.29-1.03,2.29-2.29s-1.03-2.29-2.29-2.29-2.29,1.03-2.29,2.29c0,.16.02.31.05.45-.43-.17-.89-.26-1.38-.26-.07,0-.14,0-.21.01-.04-.41-.14-.8-.3-1.16.01,0,.02,0,.03,0,1.32,0,2.39-1.07,2.39-2.39s-1.07-2.39-2.39-2.39-2.39,1.07-2.39,2.39c0,.09,0,.19.02.28-.37-.12-.76-.18-1.16-.18-.13,0-.26,0-.39.02-.02-.56-.17-1.09-.41-1.56.07,0,.15.01.23.01,1.16,0,2.1-.94,2.1-2.1s-.94-2.1-2.1-2.1-2.1.94-2.1,2.1c0,.11.01.23.03.33-.48-.21-1-.33-1.56-.33-.62,0-1.21.15-1.72.41-.03-1.29-1.09-2.33-2.39-2.33s-2.39,1.07-2.39,2.39c0,.23.03.44.09.65-.36-.11-.75-.17-1.14-.17-.58,0-1.13.13-1.63.37,0-1.37-1.12-2.47-2.48-2.47s-2.49,1.11-2.49,2.49c0,.11,0,.22.02.32-.31-.08-.64-.13-.98-.13-.7,0-1.35.19-1.92.52,0-.05,0-.09,0-.14,0-1.27-1.03-2.29-2.29-2.29s-2.29,1.03-2.29,2.29,1.03,2.29,2.29,2.29c.2,0,.4-.03.59-.08-.13.39-.2.8-.2,1.23,0,.7.19,1.35.52,1.91-.01,0-.03,0-.04,0-1.32,0-2.39,1.07-2.39,2.39s1.07,2.39,2.39,2.39,2.39-1.07,2.39-2.39c0-.22-.03-.43-.09-.63.33.09.68.15,1.04.15.62,0,1.2-.15,1.72-.41,0,.01,0,.02,0,.03,0,1.37,1.11,2.49,2.49,2.49s2.49-1.11,2.49-2.49c0-.1,0-.2-.02-.3.28.07.58.11.88.11.51,0,.99-.1,1.44-.28,0,.03,0,.06,0,.09,0,1.58,1.28,2.87,2.87,2.87.36,0,.7-.07,1.01-.19-.04.18-.06.37-.06.57,0,1.58,1.28,2.87,2.87,2.87.19,0,.37-.02.55-.05-.05.23-.07.48-.07.72,0,.66.18,1.29.48,1.83-.06,0-.13,0-.19,0-1.27,0-2.29,1.03-2.29,2.29s1.03,2.29,2.29,2.29c.19,0,.36-.02.54-.07-.1.32-.15.67-.15,1.02,0,.33.05.65.14.96-.64,0-1.24.2-1.76.52.06-.19.09-.4.09-.61,0-1.21-.98-2.2-2.2-2.2s-2.2.98-2.2,2.2.98,2.2,2.2,2.2c.29,0,.57-.06.83-.16-.22.45-.35.96-.35,1.5,0,.23.02.46.07.68-.05,0-.11,0-.16,0-.45,0-.88.09-1.28.24.02-.14.04-.29.04-.43,0-1.53-1.24-2.77-2.77-2.77s-2.77,1.24-2.77,2.77c0,.67.24,1.28.63,1.76-.39-.21-.83-.32-1.3-.32-.44,0-.85.11-1.22.29.11-.3.17-.62.17-.96,0-1.53-1.24-2.77-2.77-2.77s-2.77,1.24-2.77,2.77c0,.19.02.38.06.56-.35-.12-.72-.18-1.11-.18-.44,0-.86.08-1.24.23,0-.01,0-.03,0-.04,0-1.43-1.16-2.58-2.58-2.58s-2.58,1.16-2.58,2.58c0,.17.02.34.05.51-.41-.14-.84-.22-1.29-.22-.58,0-1.14.13-1.64.36-.11-1.17-1.09-2.08-2.28-2.08-1.27,0-2.29,1.03-2.29,2.29s1.03,2.29,2.29,2.29c.05,0,.1,0,.15,0-.09.34-.15.69-.15,1.06,0,.17.01.34.04.5-.21.02-.41.07-.61.12-.02-1.46-1.21-2.63-2.67-2.63s-2.68,1.2-2.68,2.68,1.17,2.65,2.63,2.67c-.09.34-.15.69-.15,1.05,0,.04,0,.08,0,.13-.41.05-.8.16-1.15.33-.01-1.36-1.12-2.46-2.48-2.46s-2.49,1.11-2.49,2.49,1.11,2.49,2.49,2.49c.12,0,.23-.01.34-.03-.1.34-.15.7-.15,1.08,0,.3.04.6.1.88-1.57.19-2.78,1.51-2.78,3.13,0,1.74,1.41,3.15,3.15,3.15.17,0,.33-.02.49-.04,0,.11-.02.22-.02.33,0,.58.13,1.14.36,1.63-.06,0-.11,0-.17,0-1.48,0-2.68,1.2-2.68,2.68s1.2,2.68,2.68,2.68c.5,0,.97-.14,1.37-.38-.14.35-.22.74-.22,1.15,0,1.69,1.37,3.06,3.06,3.06.53,0,1.04-.14,1.47-.38-.09.27-.14.56-.14.86,0,1.53,1.24,2.77,2.77,2.77s2.77-1.24,2.77-2.77c0-.13-.01-.25-.03-.37.26.05.52.08.79.08.13,0,.26,0,.39-.02.02.48.13.94.31,1.36-.01,0-.02,0-.03,0-1.21,0-2.2.98-2.2,2.2s.98,2.2,2.2,2.2,2.2-.98,2.2-2.2c0-.05,0-.1,0-.15.42.16.87.25,1.35.25.7,0,1.35-.19,1.91-.52,0,.01,0,.03,0,.04,0,1.21.98,2.2,2.2,2.2s2.2-.98,2.2-2.2-.98-2.2-2.2-2.2c-.17,0-.33.02-.48.05.13-.38.2-.78.2-1.2,0-.47-.09-.93-.25-1.34.48-.02.94-.15,1.34-.37-.09.27-.14.56-.14.86,0,1.53,1.24,2.77,2.77,2.77s2.77-1.24,2.77-2.77-1.24-2.77-2.77-2.77c-.45,0-.87.11-1.24.3.12-.33.19-.69.19-1.06,0-1.69-1.37-3.06-3.06-3.06-.55,0-1.07.15-1.51.4.11-.3.17-.63.17-.98,0-1.58-1.28-2.87-2.87-2.87-.36,0-.69.07-1.01.19.03-.18.05-.37.05-.57,0-1.79-1.46-3.25-3.25-3.25-.09,0-.17,0-.25.01.04-.22.06-.45.06-.68,0-.16-.01-.33-.03-.49.84-.04,1.6-.4,2.16-.97-.2.31-.31.68-.31,1.07,0,1.11.9,2.01,2.01,2.01s2.01-.9,2.01-2.01-.9-2.01-2.01-2.01c-.53,0-1,.2-1.36.54.38-.53.6-1.18.6-1.87,0-.49-.11-.95-.31-1.37.13.02.26.03.4.03,1.58,0,2.87-1.28,2.87-2.87,0-.32-.05-.62-.15-.9.17.03.35.04.53.04,1.95,0,3.54-1.58,3.54-3.54,0-.42-.08-.82-.21-1.19.16.03.33.05.5.05.44,0,.85-.11,1.22-.29-.11.3-.17.62-.17.96,0,1.53,1.24,2.77,2.77,2.77s2.77-1.24,2.77-2.77c0-.67-.24-1.28-.63-1.76.39.21.83.32,1.3.32.22,0,.43-.03.63-.08-.1.33-.15.67-.15,1.03,0,.76.24,1.46.65,2.04-.12-.02-.24-.03-.37-.03-1.11,0-2.01.9-2.01,2.01s.9,2.01,2.01,2.01,2.01-.9,2.01-2.01c0-.27-.05-.53-.15-.76.43.18.9.29,1.39.29.3,0,.58-.04.86-.11,0,0,0,0,0,.01,0,.84.3,1.61.8,2.2-.19-.06-.39-.1-.61-.1-1.06,0-1.91.86-1.91,1.91s.86,1.91,1.91,1.91,1.91-.86,1.91-1.91c0-.36-.1-.69-.27-.97.48.25,1.03.4,1.61.4.2,0,.4-.02.59-.05,0,.08-.01.16-.01.24,0,.48.1.93.27,1.35-.06,0-.12,0-.18,0-1.48,0-2.68,1.2-2.68,2.68s1.2,2.68,2.68,2.68c.18,0,.36-.02.54-.05-.04.2-.06.41-.06.63,0,.14,0,.27.02.4-.76.07-1.45.39-2,.86.04-.16.07-.32.07-.49,0-1.06-.86-1.91-1.91-1.91s-1.91.86-1.91,1.91.86,1.91,1.91,1.91c.34,0,.66-.09.94-.25-.23.48-.37,1.02-.37,1.59,0,.48.1.94.27,1.36-.12-.01-.24-.02-.36-.02-1.74,0-3.15,1.41-3.15,3.15,0,.64.19,1.23.52,1.73-.22-.07-.46-.1-.71-.1-1.37,0-2.49,1.11-2.49,2.49s1.11,2.49,2.49,2.49,2.49-1.11,2.49-2.49c0-.43-.11-.83-.3-1.18.36.14.75.22,1.16.22.38,0,.75-.07,1.09-.2-.02.16-.04.32-.04.49,0,1.74,1.41,3.15,3.15,3.15,1.65,0,3.01-1.27,3.14-2.89.13.01.26.02.4.02.17,0,.34-.02.5-.04.07.28.18.55.31.8-.02,0-.03,0-.05,0-1.27,0-2.29,1.03-2.29,2.29s1.03,2.29,2.29,2.29,2.29-1.03,2.29-2.29c0-.18-.02-.36-.06-.53.32.09.67.15,1.02.15,2.01,0,3.63-1.63,3.63-3.63,0-.48-.09-.93-.26-1.35Z"/><circle class="cls-2" cx="69.24" cy="67.43" r="1.53"/><circle class="cls-2" cx="55.28" cy="84.16" r="1.15"/><circle class="cls-2" cx="34.54" cy="108.91" r="1.05"/><circle class="cls-2" cx="50.6" cy="115.22" r="1.15"/><circle class="cls-2" cx="33.97" cy="101.26" r="1.15"/><circle class="cls-2" cx="42.86" cy="115.79" r="1.53"/><circle class="cls-2" cx="33.11" cy="93.62" r=".76"/><circle class="cls-2" cx="58.25" cy="72.21" r="1.91"/><circle class="cls-2" cx="53.28" cy="103.37" r="1.82"/><circle class="cls-2" cx="38.65" cy="112.35" r="1.72"/><circle class="cls-2" cx="40.95" cy="50.8" r=".76"/><circle class="cls-2" cx="48.59" cy="50.03" r=".96"/><circle class="cls-2" cx="63.98" cy="48.69" r=".86"/><circle class="cls-2" cx="76.89" cy="66.76" r=".76"/><circle class="cls-2" cx="80.42" cy="62.65" r=".67"/><circle class="cls-2" cx="84.44" cy="66.19" r=".86"/><circle class="cls-2" cx="98.87" cy="99.35" r=".96"/><circle class="cls-2" cx="107.86" cy="113.88" r="1.15"/><circle class="cls-2" cx="111.49" cy="67.62" r="1.15"/><circle class="cls-2" cx="98.49" cy="49.55" r="1.24"/><circle class="cls-2" cx="105.94" cy="48.89" r="1.34"/><circle class="cls-2" cx="107.28" cy="64.18" r="1.34"/><circle class="cls-2" cx="89.31" cy="77.18" r="1.34"/><circle class="cls-2" cx="110.72" cy="102.22" r="1.53"/><circle class="cls-2" cx="130.8" cy="111.97" r="1.72"/><circle class="cls-2" cx="134.24" cy="107.76" r="1.53"/><circle class="cls-2" cx="137.1" cy="96.1" r="1.72"/><circle class="cls-2" cx="161.86" cy="116.85" r="1.82"/><circle class="cls-2" cx="155.65" cy="90.46" r="1.82"/><circle class="cls-2" cx="184.13" cy="107.38" r="2.68"/><path class="cls-2" d="M180.31,108.53s-.03,0-.05,0c.03-.19.05-.38.05-.58,0-.55-.12-1.07-.32-1.54,1.46-.08,2.62-1.29,2.62-2.76s-1.24-2.77-2.77-2.77-2.77,1.24-2.77,2.77c0,.18.02.36.05.53-.2-.03-.41-.06-.63-.06-.54,0-1.06.12-1.53.32,0-.01,0-.02,0-.03,0-1.53-1.24-2.77-2.77-2.77s-2.77,1.24-2.77,2.77c0,.2.02.39.06.57-.27-.06-.54-.09-.82-.09-.2,0-.39.02-.58.05,0-.02,0-.03,0-.05,0-.74-.24-1.43-.63-1.99.17.05.35.08.54.08,1.11,0,2.01-.9,2.01-2.01s-.9-2.01-2.01-2.01-2.01.9-2.01,2.01c0,.3.07.58.18.84-.46-.23-.98-.36-1.52-.36-.41,0-.8.07-1.16.2,0-.07.01-.13.01-.2,0-1.58-1.28-2.87-2.87-2.87-.64,0-1.23.21-1.71.57.11-.3.18-.61.18-.95,0-1.48-1.2-2.68-2.68-2.68-.31,0-.61.06-.89.16.08-.29.13-.6.13-.92,0-1.9-1.54-3.44-3.44-3.44-.07,0-.14,0-.22.01.01-.13.02-.26.02-.39,0-.48-.1-.93-.27-1.34,1.32-.06,2.38-1.14,2.38-2.48s-1.11-2.49-2.49-2.49c-.13,0-.26.01-.39.03.13-.37.2-.77.2-1.18s-.07-.81-.2-1.17c1.41-.18,2.49-1.38,2.49-2.84,0-1.58-1.28-2.87-2.87-2.87-.08,0-.15,0-.23.01.02-.16.04-.32.04-.49s-.02-.33-.04-.5c.46-.04.89-.16,1.29-.35,0,.03,0,.05,0,.08,0,1.32,1.07,2.39,2.39,2.39s2.39-1.07,2.39-2.39-1.07-2.39-2.39-2.39c-.13,0-.26.01-.38.03.12-.37.19-.77.19-1.18,0-.2-.02-.39-.05-.59.89-.06,1.69-.44,2.28-1.04-.2.3-.31.66-.31,1.05,0,1.06.86,1.91,1.91,1.91s1.91-.86,1.91-1.91-.86-1.91-1.91-1.91c-.5,0-.95.19-1.29.51.45-.59.72-1.33.72-2.13,0-.1,0-.2-.02-.3.52-.04,1.01-.18,1.45-.41,0,.01,0,.03,0,.04,0,1.37,1.11,2.49,2.49,2.49s2.49-1.11,2.49-2.49c0-.42-.1-.81-.29-1.16.36.13.74.2,1.15.2,1.9,0,3.44-1.54,3.44-3.44.47,0,.92-.09,1.34-.25,0,.02,0,.04,0,.06,0,1.64,1.33,2.96,2.96,2.96s2.96-1.33,2.96-2.96c0-.22-.02-.43-.07-.63.21.04.42.06.64.06.14,0,.27,0,.4-.02.06.65.29,1.26.63,1.77-.12-.02-.24-.03-.36-.03-1.21,0-2.2.98-2.2,2.2s.98,2.2,2.2,2.2,2.2-.98,2.2-2.2c0-.27-.05-.53-.14-.78.46.19.96.3,1.48.3.71,0,1.37-.2,1.94-.53-.02.11-.03.23-.03.34,0,1.16.94,2.1,2.1,2.1s2.1-.94,2.1-2.1-.94-2.1-2.1-2.1c-.19,0-.37.03-.55.07.23-.49.36-1.03.36-1.6s-.12-1.06-.32-1.53c1.4-.03,2.52-1.17,2.52-2.58s-1.16-2.58-2.58-2.58-2.58,1.16-2.58,2.58c0,.14.01.27.03.4-.29-.07-.59-.11-.89-.11-.14,0-.27,0-.4.02-.04-.41-.14-.81-.3-1.17,1.34-.03,2.42-1.13,2.42-2.48s-1.11-2.49-2.49-2.49-2.49,1.11-2.49,2.49c0,.11,0,.22.02.32-.31-.08-.64-.13-.98-.13s-.66.05-.96.13c-.08-1.77-1.54-3.19-3.34-3.19-.67,0-1.29.2-1.81.54.06-.2.09-.41.09-.63,0-1.21-.98-2.2-2.2-2.2s-2.2.98-2.2,2.2.98,2.2,2.2,2.2c.32,0,.63-.07.9-.19-.21.44-.33.92-.33,1.44,0,.17.02.33.04.49-.08,0-.15-.01-.23-.01-.15,0-.29,0-.43.03-.26-1.64-1.68-2.89-3.39-2.89-1.9,0-3.44,1.54-3.44,3.44,0,0,0,0,0,0-.06,0-.13,0-.19,0-.47,0-.92.09-1.34.25,0-.02,0-.04,0-.06,0-1.58-1.28-2.87-2.87-2.87s-2.87,1.28-2.87,2.87c0,.37.07.72.2,1.05-.25-.06-.51-.09-.77-.09-1.9,0-3.44,1.54-3.44,3.44,0,.13,0,.26.02.39-.04,0-.08,0-.12,0-.77,0-1.49.25-2.07.67.04-.15.06-.31.06-.48,0-1.11-.9-2.01-2.01-2.01s-2.01.9-2.01,2.01.9,2.01,2.01,2.01c.29,0,.57-.06.82-.18-.22.46-.35.97-.35,1.52,0,.17.02.33.04.49-.11,0-.22-.02-.33-.02-.59,0-1.14.15-1.63.4,0,0,0-.01,0-.02,0-1.16-.94-2.1-2.1-2.1s-2.1.94-2.1,2.1.94,2.1,2.1,2.1c.12,0,.24-.01.36-.03-.11.34-.17.71-.17,1.08s.06.73.16,1.07c-1.81.16-3.22,1.67-3.22,3.52,0,.44.08.86.23,1.24-.01,0-.03,0-.04,0-1.48,0-2.68,1.2-2.68,2.68s1.2,2.68,2.68,2.68c.1,0,.2,0,.3-.02-.07.28-.11.57-.11.88,0,.23.02.46.06.68-.53.03-1.02.19-1.45.44.03-.15.04-.3.04-.45,0-1.27-1.03-2.29-2.29-2.29s-2.29,1.03-2.29,2.29,1.03,2.29,2.29,2.29c.28,0,.55-.05.8-.15-.14.37-.22.77-.22,1.2,0,.82.29,1.57.78,2.15-.24-.09-.51-.14-.78-.14-1.27,0-2.29,1.03-2.29,2.29s1.03,2.29,2.29,2.29,2.29-1.03,2.29-2.29c0-.48-.15-.92-.4-1.29.44.21.93.33,1.45.33.1,0,.2,0,.29-.01,0,.04,0,.07,0,.11,0,.51.1.99.26,1.44-1.53.06-2.75,1.32-2.75,2.86s1.28,2.87,2.87,2.87c.15,0,.3-.02.45-.04-.04.23-.07.47-.07.71,0,.66.17,1.28.48,1.82-.03,0-.06,0-.09,0-1.27,0-2.29,1.03-2.29,2.29s1.03,2.29,2.29,2.29,2.29-1.03,2.29-2.29c0-.19-.03-.38-.07-.55.35.11.73.17,1.12.17.17,0,.33-.01.49-.04.03.38.11.75.24,1.09-1.51.02-2.74,1.25-2.74,2.77s1.24,2.77,2.77,2.77c.41,0,.79-.09,1.14-.25-.06.23-.09.48-.09.73,0,1.69,1.37,3.06,3.06,3.06.43,0,.84-.09,1.21-.25-.04.2-.07.42-.07.63,0,1.69,1.37,3.06,3.06,3.06s3.01-1.33,3.05-2.98c.13.01.26.02.39.02.14,0,.28,0,.41-.02.05.45.19.88.38,1.27-.01,0-.02,0-.03,0-1.37,0-2.49,1.11-2.49,2.49s1.11,2.49,2.49,2.49,2.49-1.11,2.49-2.49c0-.18-.02-.35-.06-.52.32.09.66.14,1.01.14.27,0,.54-.03.79-.08.2,1.66,1.61,2.95,3.32,2.95.78,0,1.49-.27,2.06-.71-.15.3-.24.64-.24,1,0,1.21.98,2.2,2.2,2.2s2.2-.98,2.2-2.2c0-.19-.03-.37-.07-.55.44.16.91.26,1.41.26.7,0,1.35-.18,1.92-.49,0,.07-.01.13-.01.2,0,1.21.98,2.2,2.2,2.2s2.2-.98,2.2-2.2-.98-2.2-2.2-2.2c-.14,0-.28.01-.41.04.21-.48.32-1.01.32-1.57,0-.07,0-.14-.01-.21.2-.02.4-.06.6-.11.13,1.46,1.36,2.61,2.85,2.61,1.58,0,2.87-1.28,2.87-2.87s-1.28-2.87-2.87-2.87Z"/><circle class="cls-2" cx="175.62" cy="100.31" r="1.72"/><circle class="cls-2" cx="164.06" cy="97.63" r="1.34"/><circle class="cls-2" cx="187.38" cy="103.18" r="1.34"/><circle class="cls-2" cx="183.27" cy="99.64" r="1.24"/><circle class="cls-2" cx="159.76" cy="94" r=".76"/><circle class="cls-2" cx="159.85" cy="51.75" r="2.1"/><circle class="cls-2" cx="175.34" cy="50.41" r="1.91"/><circle class="cls-2" cx="187.57" cy="61.02" r="1.82"/><circle class="cls-2" cx="135" cy="73.07" r="1.72"/><circle class="cls-2" cx="134.43" cy="65.71" r="1.15"/><circle class="cls-2" cx="152.3" cy="52.52" r="1.24"/><circle class="cls-2" cx="165.3" cy="70.39" r=".67"/><circle class="cls-2" cx="163.39" cy="47.83" r=".67"/><circle class="cls-2" cx="180.59" cy="69.15" r=".96"/><circle class="cls-2" cx="186.9" cy="53.28" r=".86"/><circle class="cls-2" cx="182.79" cy="49.94" r=".57"/><circle class="cls-2" cx="155.84" cy="48.41" r=".38"/><circle class="cls-2" cx="155.07" cy="82.82" r="1.43"/><circle class="cls-2" cx="148.86" cy="56.72" r="1.72"/><circle class="cls-2" cx="169.03" cy="66.47" r="1.91"/><circle class="cls-2" cx="138.35" cy="69.15" r="1.82"/><circle class="cls-2" cx="103.08" cy="102.79" r="1.53"/><circle class="cls-2" cx="115.41" cy="113.31" r="1.62"/><circle class="cls-2" cx="96.96" cy="76.6" r="1.72"/><circle class="cls-2" cx="75.36" cy="93.71" r="2.01"/><circle class="cls-2" cx="76.12" cy="101.46" r="2.1"/><circle class="cls-2" cx="101.74" cy="87.69" r="1.91"/><circle class="cls-2" cx="107.28" cy="106.24" r="2.49"/><circle class="cls-2" cx="104.61" cy="75.94" r="1.62"/><circle class="cls-2" cx="99.83" cy="64.75" r=".76"/><circle class="cls-2" cx="78.22" cy="81.96" r=".76"/><circle class="cls-2" cx="76.79" cy="108.82" r="1.05"/><circle class="cls-2" cx="85.2" cy="115.89" r="1.05"/><circle class="cls-2" cx="96.77" cy="118.76" r=".76"/><circle class="cls-2" cx="119.71" cy="116.75" r=".38"/><circle class="cls-2" cx="165.87" cy="120.38" r=".57"/><circle class="cls-2" cx="158.42" cy="78.99" r=".48"/><circle class="cls-2" cx="173.52" cy="119.71" r=".67"/><circle class="cls-2" cx="184.61" cy="114.84" r=".96"/><circle class="cls-2" cx="188.15" cy="110.82" r=".96"/><circle class="cls-2" cx="137.58" cy="103.65" r=".48"/><circle class="cls-2" cx="127.16" cy="116.08" r=".67"/><circle class="cls-2" cx="141.79" cy="107.1" r=".86"/><circle class="cls-2" cx="154.21" cy="117.42" r=".67"/><circle class="cls-2" cx="145.99" cy="110.54" r="1.05"/><circle class="cls-2" cx="150.01" cy="113.98" r="1.05"/><circle class="cls-2" cx="80.81" cy="112.45" r="1.24"/><circle class="cls-2" cx="98.3" cy="91.71" r="1.15"/><circle class="cls-2" cx="74.69" cy="86.07" r=".67"/><circle class="cls-2" cx="113.59" cy="48.12" r=".76"/><circle class="cls-2" cx="79.85" cy="55.1" r=".48"/><circle class="cls-2" cx="32.63" cy="85.88" r=".48"/><circle class="cls-2" cx="56.14" cy="91.8" r=".48"/><circle class="cls-2" cx="54.04" cy="111.01" r=".57"/><path class="cls-2" d="M282.39,71.55c0,1,.81,1.82,1.82,1.82,1,0,1.82-.81,1.82-1.82,0-1-.81-1.82-1.82-1.82-1,0-1.82.81-1.82,1.82Z"/><path class="cls-2" d="M293.89,53.48c1,0,1.82-.81,1.82-1.82,0-1-.81-1.82-1.82-1.82-1,0-1.82.81-1.82,1.82,0,1,.81,1.82,1.82,1.82Z"/><path class="cls-2" d="M301.55,51.9c.44,0,.81-.36.81-.81s-.36-.81-.81-.81-.81.36-.81.81.36.81.81.81Z"/><path class="cls-2" d="M316.92,51.19c.79,0,1.43-.64,1.43-1.43,0-.79-.64-1.43-1.43-1.43-.79,0-1.43.64-1.43,1.43,0,.79.64,1.43,1.43,1.43Z"/><path class="cls-2" d="M309.27,51.38c.63,0,1.15-.51,1.15-1.15s-.51-1.15-1.15-1.15c-.63,0-1.15.51-1.15,1.15s.51,1.15,1.15,1.15Z"/><path class="cls-2" d="M325.33,54.42c-1.16,0-2.1.94-2.1,2.1,0,1.16.94,2.1,2.1,2.1,1.16,0,2.1-.94,2.1-2.1,0-1.16-.94-2.1-2.1-2.1Z"/><path class="cls-2" d="M321.69,57.85c-.12,0-.23,0-.34.02.03-.19.05-.38.05-.57,0-.7-.19-1.35-.52-1.92.09,0,.17.02.26.02,1.27,0,2.29-1.03,2.29-2.29,0-1.27-1.03-2.29-2.29-2.29-1.27,0-2.29,1.03-2.29,2.29,0,.22.03.43.09.62-.42-.16-.88-.25-1.36-.25-.54,0-1.05.11-1.51.31,0-.04,0-.07,0-.11,0-1.37-1.11-2.49-2.49-2.49-1.37,0-2.49,1.11-2.49,2.49,0,.27.04.52.12.77-.37-.12-.76-.19-1.17-.19-.81,0-1.56.26-2.17.7.04-.16.06-.33.06-.51,0-1.16-.94-2.1-2.1-2.1s-2.1.94-2.1,2.1c0,.36.09.69.25.99-.48-.26-1.03-.41-1.61-.41-.65,0-1.26.19-1.78.52.05-.2.08-.4.08-.61,0-1.32-1.07-2.39-2.39-2.39s-2.39,1.07-2.39,2.39c0,.25.04.48.11.71-.4-.15-.83-.23-1.28-.23-.54,0-1.06.12-1.52.33-.07-1.35-1.19-2.43-2.56-2.43-1.42,0-2.57,1.15-2.57,2.57,0,1.42,1.15,2.57,2.57,2.57.15,0,.29-.02.43-.04-.05.23-.07.48-.07.73,0,.24.02.46.07.69-.12-.01-.23-.02-.35-.02-.43,0-.85.09-1.23.24,0-.02,0-.04,0-.05,0-1.37-1.11-2.48-2.48-2.48-1.37,0-2.48,1.11-2.48,2.48,0,1.37,1.11,2.48,2.48,2.48.15,0,.3-.02.44-.04-.05.23-.08.48-.08.73,0,.58.15,1.13.41,1.61,0,0,0,0,0,0-1.53,0-2.77,1.24-2.77,2.77,0,1.53,1.24,2.77,2.77,2.77.18,0,.35-.02.52-.05-.03.17-.04.35-.04.53,0,.38.06.74.17,1.08-.06,0-.13,0-.19,0-1.74,0-3.15,1.41-3.15,3.15,0,1.74,1.41,3.15,3.15,3.15.15,0,.3-.01.44-.03-.02.16-.03.33-.03.49,0,.08,0,.16.01.24-.55.03-1.06.18-1.52.41-.01-1.15-.95-2.09-2.11-2.09-1.17,0-2.11.95-2.11,2.11,0,1.17.95,2.11,2.11,2.11.09,0,.19,0,.28-.02-.14.39-.21.81-.21,1.24,0,.66.17,1.29.47,1.83-1.16.11-2.07,1.09-2.07,2.28,0,1.27,1.03,2.29,2.29,2.29.16,0,.32-.02.47-.05-.18.43-.28.89-.28,1.39,0,.62.16,1.21.43,1.72-.02,0-.03,0-.05,0-1.27,0-2.29,1.03-2.29,2.29,0,1.27,1.03,2.29,2.29,2.29.25,0,.49-.04.71-.11-.15.41-.23.85-.23,1.31,0,.62.15,1.21.41,1.73-.14-.03-.29-.04-.44-.04-1.37,0-2.49,1.11-2.49,2.49,0,1.37,1.11,2.49,2.49,2.49.3,0,.59-.06.86-.16-.17.43-.27.9-.27,1.39,0,.59.14,1.14.38,1.64-.03,0-.06,0-.09,0-1.27,0-2.29,1.03-2.29,2.29,0,1.27,1.03,2.29,2.29,2.29,1.27,0,2.29-1.03,2.29-2.29,0-.13-.01-.26-.03-.38.37.12.77.19,1.18.19.28,0,.55-.03.82-.09.07.56.28,1.08.59,1.53-.21-.06-.43-.1-.67-.1-1.32,0-2.39,1.07-2.39,2.39,0,1.32,1.07,2.39,2.39,2.39s2.39-1.07,2.39-2.39c0-.4-.1-.77-.27-1.1.43.19.89.29,1.39.29,1,0,1.9-.43,2.53-1.1-.22.29-.36.65-.36,1.05,0,.95.77,1.72,1.72,1.72s1.72-.77,1.72-1.72c0-.95-.77-1.72-1.72-1.72-.47,0-.89.19-1.2.49.48-.6.77-1.35.77-2.18,0-.58-.14-1.12-.39-1.6.11.01.21.02.32.02,1.37,0,2.49-1.11,2.49-2.49,0-1.37-1.11-2.49-2.49-2.49-.25,0-.5.04-.72.11.1-.34.15-.69.15-1.06,0-.46-.08-.9-.23-1.31.02,0,.05,0,.07,0,1.6,0,2.9-1.3,2.9-2.9,0-1.6-1.3-2.9-2.9-2.9-.1,0-.2,0-.3.02.17-.47.27-.98.27-1.51,0-.02,0-.04,0-.05,1.56-.24,2.75-1.58,2.75-3.2,0-1.7-1.3-3.08-2.96-3.22-.13-.28-.28-.54-.45-.78.65-.08,1.25-.33,1.75-.71-.07.2-.12.41-.12.63-.04,1.13.84,2.07,1.97,2.12,1.13.04,2.07-.84,2.12-1.97.04-1.13-.84-2.07-1.97-2.12-.37-.01-.72.07-1.02.23.3-.53.48-1.14.48-1.8,0-.57-.13-1.1-.36-1.58.1.01.21.02.32.02,1.37,0,2.49-1.11,2.49-2.49,0-1.37-1.11-2.49-2.49-2.49-.29,0-.57.05-.83.15.16-.43.26-.9.26-1.39,0-.1,0-.19-.01-.29.6-.06,1.16-.26,1.65-.56-.01.09-.02.19-.02.28,0,1.22.99,2.21,2.21,2.21,1.22,0,2.21-.99,2.21-2.21,0-1.22-.99-2.21-2.21-2.21-.21,0-.42.03-.61.09.19-.46.3-.97.3-1.5,0-.11,0-.21-.02-.32.59-.07,1.14-.27,1.62-.58-.05.19-.08.39-.08.59,0,1.28,1.03,2.31,2.31,2.31,1.28,0,2.31-1.03,2.31-2.31,0-1.28-1.03-2.31-2.31-2.31-.29,0-.56.05-.81.15.26-.52.41-1.09.41-1.71.41-.07.8-.2,1.16-.39,0,.02,0,.05,0,.07,0,1.48,1.2,2.67,2.67,2.67s2.67-1.2,2.67-2.67c0-.15-.02-.3-.04-.45.22.04.45.07.68.07.76,0,1.47-.23,2.06-.63-.02.11-.03.23-.03.35,0,1.21.98,2.19,2.19,2.19,1.21,0,2.19-.98,2.19-2.19,0-1.21-.98-2.19-2.19-2.19-.28,0-.55.05-.79.15.17-.43.27-.89.27-1.38,0-.11,0-.22-.02-.33.39-.01.77-.08,1.13-.21.09,1.51,1.34,2.7,2.87,2.7,1.59,0,2.88-1.29,2.88-2.88,0-1.59-1.29-2.88-2.88-2.88ZM305.83,56.54c.31,0,.59-.07.86-.18-.23.49-.37,1.03-.37,1.61,0,.04,0,.07,0,.11-.05,0-.09,0-.13,0-.17,0-.33.01-.49.03-.05-.64-.27-1.22-.62-1.71.24.09.49.14.76.14ZM298.28,57.3c.35,0,.69-.08.99-.22-.16.39-.25.82-.25,1.27,0,.11,0,.22.02.32-.21.03-.41.08-.6.14-.04-.56-.21-1.08-.47-1.54.11.01.21.02.32.02Z"/><path class="cls-2" d="M283.75,65.6c.9,0,1.62-.73,1.62-1.63,0-.9-.73-1.62-1.63-1.62-.9,0-1.62.73-1.62,1.63,0,.9.73,1.62,1.63,1.62Z"/><path class="cls-2" d="M282.93,56.98c.34,0,.61-.27.61-.61s-.27-.61-.61-.61c-.34,0-.61.27-.61.61s.27.61.61.61Z"/><path class="cls-2" d="M286.52,53.27c.47,0,.85-.38.85-.85s-.38-.85-.85-.85c-.47,0-.85.38-.85.85,0,.47.38.85.85.85Z"/><path class="cls-2" d="M324.57,49.46c.32,0,.58-.26.58-.58,0-.32-.26-.58-.58-.58-.32,0-.58.26-.58.58,0,.32.26.58.58.58Z"/><path class="cls-2" d="M304.3,80.32c-.56,0-1.01.45-1.01,1.01s.45,1.01,1.01,1.01c.56,0,1.01-.45,1.01-1.01,0-.56-.45-1.01-1.01-1.01Z"/><path class="cls-2" d="M283.43,104.52c-.87,0-1.57.7-1.57,1.57,0,.87.7,1.57,1.57,1.57.87,0,1.57-.7,1.57-1.57,0-.87-.7-1.57-1.57-1.57Z"/><path class="cls-2" d="M282.9,99.92c.79,0,1.42-.64,1.42-1.42,0-.79-.64-1.42-1.42-1.42s-1.42.64-1.42,1.42c0,.79.64,1.42,1.42,1.42Z"/><path class="cls-2" d="M283.27,90.75c0-.63-.51-1.14-1.14-1.14-.63,0-1.14.51-1.14,1.14,0,.63.51,1.14,1.14,1.14.63,0,1.14-.51,1.14-1.14Z"/><path class="cls-2" d="M303.52,93.14c0-1.1-.89-2-2-2-1.1,0-2,.89-2,2,0,1.1.89,2,2,2s2-.89,2-2Z"/><path class="cls-2" d="M302.3,98.86c-1,0-1.82.81-1.82,1.82s.81,1.82,1.82,1.82c1,0,1.82-.81,1.82-1.82,0-1-.81-1.82-1.82-1.82Z"/><path class="cls-2" d="M322.34,67.82c-.32,0-.57.26-.57.57,0,.32.26.57.57.57.32,0,.57-.26.57-.57,0-.32-.26-.57-.57-.57Z"/><path class="cls-2" d="M332.86,55.39c-.32,0-.57.26-.57.57,0,.32.26.57.57.57.32,0,.57-.26.57-.57,0-.32-.26-.57-.57-.57Z"/><path class="cls-2" d="M329.42,59.21c-.42,0-.76.34-.76.76s.34.76.76.76c.42,0,.76-.34.76-.76s-.34-.76-.76-.76Z"/><path class="cls-2" d="M314.7,68.01c-.53,0-.96.43-.96.96,0,.53.43.96.96.96.53,0,.96-.43.96-.96,0-.53-.43-.96-.96-.96Z"/><path class="cls-2" d="M325.88,63.21c-.58,0-1.05.47-1.05,1.05,0,.58.47,1.05,1.05,1.05.58,0,1.05-.47,1.05-1.05,0-.58-.47-1.05-1.05-1.05Z"/><path class="cls-2" d="M328.95,52.51c0-.21-.17-.37-.37-.37-.21,0-.37.17-.37.37,0,.21.17.37.37.37.21,0,.37-.17.37-.37Z"/><path class="cls-2" d="M281.56,84.26c.43,0,.77-.35.77-.77s-.35-.77-.77-.77c-.43,0-.77.35-.77.77s.35.77.77.77Z"/><path class="cls-2" d="M281.44,75.94c0-.26-.21-.48-.48-.48-.26,0-.48.21-.48.48,0,.26.21.48.48.48.26,0,.48-.21.48-.48Z"/><path class="cls-2" d="M302.75,107.08c-.69,0-1.24.56-1.24,1.24,0,.69.56,1.24,1.24,1.24.69,0,1.24-.56,1.24-1.24,0-.69-.56-1.24-1.24-1.24Z"/><path class="cls-2" d="M295.87,115.42c-.69,0-1.24.56-1.24,1.24,0,.69.56,1.24,1.24,1.24.69,0,1.24-.56,1.24-1.24,0-.69-.56-1.24-1.24-1.24Z"/><path class="cls-2" d="M288.22,116.57c-.37,0-.67.3-.67.67,0,.37.3.67.67.67.37,0,.67-.3.67-.67,0-.37-.3-.67-.67-.67Z"/><path class="cls-2" d="M284.3,113.32c-.32,0-.57.26-.57.57,0,.32.26.57.57.57.32,0,.57-.26.57-.57,0-.32-.26-.57-.57-.57Z"/><circle class="cls-1" cx="390.78" cy="62.27" r=".57"/><circle class="cls-1" cx="392.12" cy="77.56" r=".38"/><path class="cls-2" d="M325.19,98.17c-.33,0-.6.27-.6.6,0,.33.27.6.6.6.33,0,.6-.27.6-.6s-.27-.6-.6-.6Z"/><path class="cls-2" d="M357.38,118.38c-.32,0-.57.26-.57.57,0,.32.26.57.57.57.32,0,.57-.26.57-.57,0-.32-.26-.57-.57-.57Z"/><path class="cls-2" d="M365.05,117.36c-.46,0-.84.37-.84.84s.37.84.84.84.84-.37.84-.84c0-.46-.37-.84-.84-.84Z"/><path class="cls-2" d="M325.45,83.57c0-.91-.74-1.65-1.65-1.65-.91,0-1.65.74-1.65,1.65s.74,1.65,1.65,1.65,1.65-.74,1.65-1.65Z"/><path class="cls-2" d="M329.23,100.61c-.87,0-1.57.71-1.57,1.57s.71,1.57,1.57,1.57c.87,0,1.57-.71,1.57-1.57s-.7-1.57-1.57-1.57Z"/><path class="cls-2" d="M346.05,96.88c0,.99.8,1.79,1.79,1.79.99,0,1.79-.8,1.79-1.79,0-.99-.8-1.79-1.79-1.79-.99,0-1.79.8-1.79,1.79Z"/><path class="cls-2" d="M352.15,98.5c-.96,0-1.74.78-1.74,1.74,0,.96.78,1.74,1.74,1.74.96,0,1.74-.78,1.74-1.74,0-.96-.78-1.74-1.74-1.74Z"/><path class="cls-2" d="M367.1,100.2c.73,0,1.31-.59,1.31-1.31s-.59-1.31-1.31-1.31c-.73,0-1.31.59-1.31,1.31s.59,1.31,1.31,1.31Z"/><path class="cls-2" d="M380.75,101.84c0-.95-.77-1.72-1.72-1.72-.95,0-1.72.77-1.72,1.72,0,.95.77,1.72,1.72,1.72s1.72-.77,1.72-1.72Z"/><path class="cls-2" d="M374.8,99.81c.91,0,1.65-.74,1.65-1.65s-.74-1.65-1.65-1.65c-.91,0-1.65.74-1.65,1.65,0,.91.74,1.65,1.65,1.65Z"/><path class="cls-2" d="M341.51,111.12c-.9,0-1.62.73-1.62,1.63,0,.9.73,1.62,1.63,1.62.9,0,1.62-.73,1.62-1.63,0-.9-.73-1.62-1.63-1.62Z"/><path class="cls-2" d="M324.4,89.61c-.84,0-1.53.68-1.53,1.53,0,.84.68,1.53,1.53,1.53s1.53-.68,1.53-1.53c0-.84-.68-1.53-1.53-1.53Z"/><path class="cls-2" d="M351.45,52.05c.95,0,1.72-.77,1.72-1.72,0-.95-.77-1.72-1.72-1.72-.95,0-1.72.77-1.72,1.72,0,.95.77,1.72,1.72,1.72Z"/><path class="cls-2" d="M359.19,51.48c.93,0,1.68-.75,1.68-1.68,0-.93-.75-1.68-1.68-1.68-.93,0-1.68.75-1.68,1.68,0,.93.75,1.68,1.68,1.68Z"/><path class="cls-2" d="M367.27,76.03c0-1.11-.9-2.01-2.01-2.01-1.11,0-2.01.9-2.01,2.01,0,1.11.9,2.01,2.01,2.01,1.11,0,2.01-.9,2.01-2.01Z"/><path class="cls-2" d="M388.68,80.15c-.92,0-1.67.75-1.67,1.67,0,.92.75,1.67,1.67,1.67.92,0,1.67-.75,1.67-1.67s-.75-1.67-1.67-1.67Z"/><path class="cls-2" d="M385.24,83.87c-.26,0-.51.05-.74.15.23-.48.36-1.02.36-1.59,0-.29-.04-.58-.1-.85,1.7-.18,3.02-1.61,3.02-3.35,0-1.85-1.5-3.36-3.35-3.37,0-.02,0-.05,0-.07,0-.39-.06-.76-.17-1.12,1.5-.23,2.65-1.52,2.65-3.09,0-1.73-1.4-3.13-3.13-3.13-.05,0-.1,0-.14,0,.01-.14.02-.27.02-.41,0-.75-.22-1.45-.6-2.03.09.01.18.02.27.02,1.16,0,2.1-.94,2.1-2.1,0-1.16-.94-2.1-2.1-2.1-1.16,0-2.1.94-2.1,2.1,0,.23.04.45.11.66-.43-.17-.9-.27-1.4-.27-.15,0-.29.01-.44.03-.02-.56-.17-1.1-.42-1.57.06,0,.12,0,.19,0,1.27,0,2.29-1.03,2.29-2.29,0-1.27-1.03-2.29-2.29-2.29-1.27,0-2.29,1.03-2.29,2.29,0,.19.02.36.07.54-.37-.13-.77-.2-1.19-.2-.17,0-.34.02-.51.04-.03-.51-.17-1-.39-1.44,1.26-.07,2.26-1.11,2.26-2.38,0-1.32-1.07-2.39-2.39-2.39s-2.39,1.07-2.39,2.39c0,.14.01.27.04.4-.29-.07-.58-.11-.89-.11-.15,0-.29.01-.44.03-.04-.65-.24-1.26-.58-1.78.11.02.23.03.34.03,1.16,0,2.1-.94,2.1-2.1,0-1.16-.94-2.1-2.1-2.1-1.16,0-2.1.94-2.1,2.1,0,.24.04.47.11.68-.44-.19-.93-.3-1.45-.3-.53,0-1.03.11-1.49.32-.04-1.39-1.18-2.51-2.58-2.51-1.43,0-2.58,1.16-2.58,2.58,0,.11,0,.22.02.33-.33-.09-.67-.14-1.03-.14-.52,0-1.02.11-1.48.3-.02-1.43-1.19-2.59-2.63-2.59-1.45,0-2.63,1.18-2.63,2.63,0,.42.1.81.28,1.17-.32-.11-.66-.16-1.02-.16-.62,0-1.21.18-1.7.49.07-.23.1-.47.1-.72,0-1.45-1.18-2.63-2.63-2.63s-2.63,1.18-2.63,2.63c0,.15.02.29.04.43-.27-.06-.56-.1-.85-.1-.87,0-1.68.3-2.32.79.05-.18.08-.36.08-.55,0-1.14-.92-2.06-2.06-2.06-1.14,0-2.06.92-2.06,2.06,0,1.14.92,2.06,2.06,2.06.32,0,.63-.08.9-.21-.27.52-.42,1.11-.42,1.74,0,.08,0,.17.01.25-.43.03-.84.12-1.22.27-.12-1.31-1.22-2.34-2.57-2.34-1.43,0-2.58,1.16-2.58,2.58,0,1.43,1.16,2.58,2.58,2.58.09,0,.18,0,.26-.01-.05.24-.07.48-.07.73,0,.12,0,.24.02.36-.39.04-.77.14-1.12.29-.07-1.4-1.23-2.52-2.65-2.52-1.47,0-2.65,1.19-2.65,2.65,0,1.47,1.19,2.65,2.65,2.65.12,0,.24-.01.36-.03-.06.27-.09.55-.09.84,0,.04,0,.08,0,.13-.54.06-1.04.24-1.49.5,0-.03,0-.07,0-.1,0-1.35-1.09-2.44-2.44-2.44-1.35,0-2.44,1.09-2.44,2.44,0,1.35,1.09,2.44,2.44,2.44.22,0,.44-.03.65-.09-.11.36-.17.74-.17,1.14,0,.07,0,.14.01.21-.67.05-1.3.27-1.82.63,0,0,0-.02,0-.03,0-1.08-.88-1.96-1.96-1.96-1.08,0-1.96.88-1.96,1.96s.88,1.96,1.96,1.96c.19,0,.37-.03.54-.08-.13.38-.21.79-.21,1.22,0,.7.2,1.35.53,1.91-.1-.01-.21-.02-.32-.02-1.39,0-2.51,1.12-2.51,2.51,0,1.39,1.12,2.51,2.51,2.51.21,0,.4-.03.59-.07-.15.43-.24.9-.24,1.39,0,.37.05.72.13,1.06-1.41.13-2.52,1.31-2.52,2.76,0,1.53,1.24,2.77,2.77,2.77.17,0,.34-.02.5-.05-.08.29-.12.6-.12.91,0,.59.14,1.14.39,1.63-.04,0-.08,0-.13,0-1.28,0-2.32,1.04-2.32,2.32,0,1.28,1.04,2.32,2.32,2.32.45,0,.87-.13,1.23-.36-.22.44-.35.93-.35,1.45,0,1.79,1.46,3.25,3.25,3.25.2,0,.4-.02.59-.06,0,.08-.01.16-.01.25,0,.93.34,1.79.89,2.45-.24-.1-.5-.16-.77-.16-1.08,0-1.96.88-1.96,1.96,0,1.08.88,1.96,1.96,1.96,1.08,0,1.96-.88,1.96-1.96,0-.37-.11-.72-.29-1.02.59.37,1.28.59,2.03.59.08,0,.16,0,.24-.01.01.67.21,1.3.54,1.84-.07,0-.14-.01-.21-.01-1.16,0-2.1.94-2.1,2.1,0,1.16.94,2.1,2.1,2.1,1.16,0,2.1-.94,2.1-2.1,0-.19-.03-.38-.08-.55.42.17.88.26,1.37.26.35,0,.69-.05,1.01-.14,0,.02,0,.03,0,.05,0,1.69,1.37,3.06,3.06,3.06.58,0,1.12-.16,1.58-.45-.03.17-.05.36-.05.54,0,1.53,1.24,2.77,2.77,2.77,1.53,0,2.77-1.24,2.77-2.77,0-.11,0-.22-.02-.32.16.02.33.04.5.04.18,0,.36-.02.54-.04.04.65.25,1.26.57,1.78-.08-.01-.17-.02-.25-.02-1.16,0-2.1.94-2.1,2.1,0,1.16.94,2.1,2.1,2.1,1.16,0,2.1-.94,2.1-2.1,0-.2-.03-.4-.08-.59.45.19.95.29,1.47.29.68,0,1.32-.18,1.87-.49,0,.07-.01.14-.01.21,0,1.27,1.03,2.29,2.29,2.29,1.27,0,2.29-1.03,2.29-2.29,0-.24-.04-.46-.1-.68.38.13.78.2,1.2.2.71,0,1.37-.2,1.94-.55-.01.1-.02.2-.02.3,0,1.14.92,2.06,2.06,2.06,1.14,0,2.06-.92,2.06-2.06,0-1.14-.92-2.06-2.06-2.06-.19,0-.38.03-.56.08.2-.46.32-.97.32-1.51,0-.1,0-.2-.02-.3.37-.01.73-.07,1.07-.19.07,1.55,1.35,2.78,2.91,2.78,1.61,0,2.92-1.31,2.92-2.92,0-.63-.2-1.21-.54-1.68.33.13.69.2,1.06.2,1.58,0,2.87-1.28,2.87-2.87,0-1.58-1.28-2.87-2.87-2.87-.54,0-1.04.15-1.48.41.09-.28.14-.58.14-.89,0-1.59-1.29-2.87-2.87-2.87s-2.87,1.29-2.87,2.87c0,.11,0,.22.02.32-.16-.02-.33-.04-.5-.04-.73,0-1.41.21-1.99.56.02-.12.03-.24.03-.37,0-1.28-1.04-2.32-2.32-2.32-1.28,0-2.32,1.04-2.32,2.32,0,.46.13.88.36,1.24-.48-.24-1.03-.38-1.6-.38-.84,0-1.62.29-2.23.78.17-.32.27-.68.27-1.06,0-1.23-.99-2.22-2.22-2.22-1.23,0-2.22.99-2.22,2.22,0,.3.06.58.17.85-.44-.17-.91-.27-1.41-.27-.22,0-.43.02-.63.06-.09-1.71-1.51-3.07-3.24-3.07-.42,0-.82.08-1.19.23.02-.15.04-.31.04-.47,0-1.65-1.34-2.99-2.99-2.99-.23,0-.45.03-.66.08,0-.11.02-.23.02-.34,0-.67-.17-1.3-.46-1.86.13.02.27.04.41.04,1.4,0,2.53-1.13,2.53-2.53,0-1.4-1.13-2.53-2.53-2.53-.18,0-.36.02-.53.06.12-.38.19-.79.19-1.21,0-.01,0-.02,0-.03.52-.07,1.01-.24,1.45-.5,0,.07-.01.13-.01.2,0,1.29,1.05,2.34,2.34,2.34s2.34-1.05,2.34-2.34c0-1.29-1.05-2.34-2.34-2.34-.21,0-.42.03-.62.09.15-.42.24-.86.24-1.33,0-.07,0-.14-.01-.21.36-.03.7-.12,1.02-.25.04,1.52,1.28,2.74,2.81,2.74,1.56,0,2.82-1.26,2.82-2.82,0-.48-.12-.94-.33-1.33.29.09.59.13.91.13.62,0,1.2-.18,1.69-.5-.16.35-.26.75-.26,1.16,0,1.53,1.24,2.77,2.77,2.77s2.77-1.24,2.77-2.77c0-.59-.18-1.13-.49-1.57.36.15.75.24,1.16.24.24,0,.47-.03.69-.08-.04.21-.07.44-.07.66,0,1.9,1.54,3.44,3.44,3.44.8,0,1.53-.27,2.11-.73-.1.25-.15.53-.15.82,0,1.27,1.03,2.29,2.29,2.29,1.27,0,2.29-1.03,2.29-2.29,0-.2-.03-.4-.08-.59.39.13.8.2,1.23.2.55,0,1.07-.12,1.54-.32.08,1.35,1.2,2.43,2.57,2.43,1.43,0,2.58-1.16,2.58-2.58,0-.14-.01-.27-.03-.4.29.07.59.11.89.11.86,0,1.65-.29,2.28-.78-.02.11-.03.23-.03.35,0,1.03.84,1.87,1.87,1.87,1.03,0,1.87-.84,1.87-1.87,0-1.03-.84-1.87-1.87-1.87ZM376.2,75.07s0-.05,0-.08c0,0,0,0,0,0,.1,0,.19,0,.29-.01.09,0,.19.01.29.01,0,0,0,0,0,0,0,0,0,0,0,0-.2,0-.4.03-.59.07ZM342.32,74.32c-.05,0-.11,0-.16,0-.02-.2-.06-.4-.11-.59.73-.06,1.39-.36,1.91-.82-.13.28-.21.6-.21.93,0,.29.06.57.16.82-.49-.22-1.03-.34-1.59-.34ZM365.88,80.34c-.39,0-.76.07-1.11.19,0-.1.01-.19.01-.29,0-1.64-1.33-2.96-2.96-2.96-1.64,0-2.96,1.33-2.96,2.96,0,.65.21,1.25.56,1.73-.32-.13-.67-.2-1.04-.2-.51,0-.99.14-1.4.38.22-.43.35-.92.35-1.43,0-1.74-1.41-3.15-3.15-3.15-1.74,0-3.15,1.41-3.15,3.15,0,.59.17,1.15.45,1.62-.22-.06-.45-.09-.69-.09-.15,0-.3.02-.45.04.04-.23.07-.47.07-.71,0-.7-.19-1.35-.52-1.92,1.26,0,2.28-1.03,2.28-2.29,0-1.27-1.03-2.29-2.29-2.29-1.27,0-2.29,1.03-2.29,2.29,0,.18.02.36.07.54-.34-.1-.7-.15-1.07-.15-.12,0-.25,0-.37.02-.08-.66-.32-1.26-.68-1.78.14.03.28.04.42.04,1.21,0,2.2-.98,2.2-2.2,0-1.21-.98-2.2-2.2-2.2-.5,0-.96.17-1.33.45.27-.47.42-1.02.42-1.6,0-.63-.18-1.22-.5-1.72.2.05.4.08.62.08,1.41,0,2.56-1.15,2.56-2.56,0-1.41-1.15-2.56-2.56-2.56-.13,0-.26.01-.39.03.08-.31.13-.63.13-.97,0-.08,0-.17-.01-.25.41-.02.8-.11,1.16-.25,0,.02,0,.05,0,.07,0,1.41,1.15,2.56,2.56,2.56,1.41,0,2.56-1.15,2.56-2.56,0-.59-.2-1.13-.54-1.57.5.31,1.08.49,1.71.49,1.79,0,3.24-1.45,3.24-3.24,0-.62-.18-1.19-.48-1.68.2.05.4.07.61.07.13,0,.26-.01.39-.03-.07.29-.11.58-.11.89,0,.84.27,1.61.73,2.24-.13-.02-.26-.04-.39-.04-1.16,0-2.1.94-2.1,2.1,0,1.16.94,2.1,2.1,2.1s2.1-.94,2.1-2.1c0-.29-.06-.56-.16-.81.47.21,1,.33,1.55.33.53,0,1.03-.11,1.48-.3,0,0,0,0,0,.01,0,1.48,1.2,2.68,2.68,2.68,1.48,0,2.68-1.2,2.68-2.68,0-.24-.03-.47-.09-.69.29.07.59.12.91.12.11,0,.23,0,.34-.02.02.67.22,1.3.55,1.83-.11-.01-.21-.02-.33-.02-1.38,0-2.49,1.12-2.49,2.49,0,1.38,1.12,2.49,2.49,2.49.37,0,.72-.08,1.04-.23-.08.29-.12.59-.12.9,0,1.9,1.54,3.44,3.44,3.44.14,0,.27-.01.41-.03-.02.13-.03.27-.03.41,0,.06,0,.13,0,.19,0,0,0,0,0,0-.69,0-1.33.21-1.87.56,0-.07.01-.15.01-.22,0-1.19-.96-2.15-2.15-2.15-1.19,0-2.15.96-2.15,2.15,0,1.19.96,2.15,2.15,2.15.27,0,.52-.05.75-.14-.12.34-.18.71-.18,1.09,0,.33.05.65.14.96-1.79.03-3.24,1.49-3.24,3.29,0,.33.05.65.14.95-.16-.02-.31-.04-.48-.04Z"/><path class="cls-2" d="M386.2,74.08c0,1.08.88,1.96,1.96,1.96,1.08,0,1.96-.88,1.96-1.96,0-1.08-.88-1.96-1.96-1.96-1.08,0-1.96.88-1.96,1.96Z"/><path class="cls-2" d="M387.37,67.94c.86,0,1.55-.7,1.55-1.55s-.7-1.55-1.55-1.55c-.86,0-1.55.7-1.55,1.55,0,.86.7,1.55,1.55,1.55Z"/><path class="cls-2" d="M381.82,88.75c-.65,0-1.17.52-1.17,1.17,0,.65.52,1.17,1.17,1.17.65,0,1.17-.52,1.17-1.17s-.52-1.17-1.17-1.17Z"/><path class="cls-2" d="M375.63,90.66c0-.74-.6-1.34-1.34-1.34-.74,0-1.34.6-1.34,1.34,0,.74.6,1.34,1.34,1.34.74,0,1.34-.6,1.34-1.34Z"/><path class="cls-2" d="M357.52,74.89c-1.06,0-1.91.86-1.91,1.91,0,1.06.86,1.91,1.91,1.91,1.06,0,1.91-.86,1.91-1.91,0-1.06-.86-1.91-1.91-1.91Z"/><path class="cls-2" d="M356.56,88.46c0-.95-.77-1.72-1.72-1.72-.95,0-1.72.77-1.72,1.72,0,.95.77,1.72,1.72,1.72.95,0,1.72-.77,1.72-1.72Z"/><path class="cls-2" d="M360.58,87.79c0,1,.81,1.82,1.82,1.82,1,0,1.82-.81,1.82-1.82,0-1-.81-1.82-1.82-1.82-1,0-1.82.81-1.82,1.82Z"/><path class="cls-2" d="M343.94,52.52c.71,0,1.29-.58,1.29-1.29,0-.71-.58-1.29-1.29-1.29s-1.29.58-1.29,1.29c0,.71.58,1.29,1.29,1.29Z"/><path class="cls-2" d="M366.74,50.33c.66,0,1.2-.54,1.2-1.2s-.54-1.2-1.2-1.2-1.2.54-1.2,1.2.54,1.2,1.2,1.2Z"/><path class="cls-2" d="M323.04,76.97c.52,0,.95-.42.95-.95,0-.52-.42-.95-.95-.95-.52,0-.95.42-.95.95,0,.52.42.95.95.95Z"/><path class="cls-2" d="M349.39,69.34c-.26,0-.48.21-.48.48s.21.48.48.48c.26,0,.48-.21.48-.48s-.21-.48-.48-.48Z"/><path class="cls-2" d="M345.81,115.33c-.48,0-.86.39-.86.86,0,.48.39.86.86.86.48,0,.86-.39.86-.86,0-.48-.39-.86-.86-.86Z"/><path class="cls-2" d="M359.7,98.84c-.38,0-.69.31-.69.69,0,.38.31.69.69.69.38,0,.69-.31.69-.69,0-.38-.31-.69-.69-.69Z"/><path class="cls-2" d="M360.48,64.18c-.48,0-.86.39-.86.86,0,.48.39.86.86.86.48,0,.86-.39.86-.86,0-.48-.39-.86-.86-.86Z"/><path class="cls-2" d="M364.47,68.99c.28,0,.5-.22.5-.5s-.22-.5-.5-.5c-.28,0-.5.22-.5.5,0,.28.22.5.5.5Z"/><path class="cls-2" d="M352.93,65.14c-.32,0-.57.26-.57.57,0,.32.26.57.57.57.32,0,.57-.26.57-.57,0-.32-.26-.57-.57-.57Z"/><path class="cls-2" d="M378.55,52.52c.32,0,.57-.26.57-.57,0-.32-.26-.57-.57-.57-.32,0-.57.26-.57.57,0,.32.26.57.57.57Z"/><path class="cls-2" d="M382.56,55.96c.32,0,.57-.26.57-.57,0-.32-.26-.57-.57-.57-.32,0-.57.26-.57.57,0,.32.26.57.57.57Z"/><path class="cls-2" d="M367.22,91.38c0-.34-.28-.62-.62-.62s-.62.28-.62.62c0,.34.28.62.62.62.34,0,.62-.28.62-.62Z"/><path class="cls-2" d="M376.14,112.19c-.67,0-1.22.55-1.22,1.22,0,.67.55,1.22,1.22,1.22.67,0,1.22-.55,1.22-1.22s-.55-1.22-1.22-1.22Z"/><path class="cls-2" d="M379.58,107.89c-.78,0-1.41.63-1.41,1.41s.63,1.41,1.41,1.41,1.41-.63,1.41-1.41c0-.78-.63-1.41-1.41-1.41Z"/><path class="cls-2" d="M402.74,66.69c.84,0,1.53-.68,1.53-1.53,0-.84-.68-1.53-1.53-1.53-.84,0-1.53.68-1.53,1.53,0,.84.68,1.53,1.53,1.53Z"/><path class="cls-2" d="M397.96,55.2c.69,0,1.24-.56,1.24-1.24s-.56-1.24-1.24-1.24c-.69,0-1.24.56-1.24,1.24s.56,1.24,1.24,1.24Z"/><path class="cls-2" d="M394.33,60c.96,0,1.73-.78,1.73-1.73,0-.96-.78-1.73-1.73-1.73s-1.73.78-1.73,1.73c0,.96.78,1.73,1.73,1.73Z"/><path class="cls-2" d="M419.8,84.66c-1.08,0-1.96.88-1.96,1.96,0,1.08.88,1.96,1.96,1.96,1.08,0,1.96-.88,1.96-1.96,0-1.08-.88-1.96-1.96-1.96Z"/><path class="cls-2" d="M440.76,108.25c0-.37-.06-.73-.16-1.07,1.69-.06,3.04-1.44,3.04-3.14,0-.87-.35-1.65-.92-2.22.34.21.74.33,1.17.33,1.24,0,2.25-1.01,2.25-2.25,0-1.24-1.01-2.25-2.25-2.25-.2,0-.39.03-.58.08.22-.46.34-.97.34-1.51,0-.59-.15-1.14-.4-1.63.04,0,.08,0,.12,0,1.33,0,2.4-1.07,2.4-2.4s-1.07-2.4-2.4-2.4c-.14,0-.28.01-.42.04.08-.28.12-.57.12-.88,0-.67-.2-1.3-.54-1.82.05,0,.11,0,.16,0,1.37,0,2.49-1.11,2.49-2.49s-1.11-2.49-2.49-2.49c-.16,0-.31.02-.46.05.11-.35.17-.73.17-1.12,0-.58-.13-1.12-.37-1.61.03,0,.06,0,.09,0,1.43,0,2.59-1.16,2.59-2.59,0-1.43-1.16-2.59-2.59-2.59-.2,0-.39.02-.58.07.06-.27.09-.55.09-.83,0-.61-.15-1.19-.41-1.71.04,0,.08,0,.13,0,1.48,0,2.69-1.2,2.69-2.69,0-1.48-1.2-2.69-2.69-2.69-.12,0-.24.01-.36.03.04-.22.06-.45.06-.69,0-.66-.17-1.29-.46-1.84.06,0,.13,0,.19,0,1.16,0,2.09-.94,2.09-2.09s-.94-2.09-2.09-2.09c-1.16,0-2.09.94-2.09,2.09,0,.12.01.23.03.35-.48-.21-1.01-.33-1.57-.33-.14,0-.27,0-.41.02-.04-.42-.14-.81-.31-1.18.04,0,.09,0,.13,0,1.38,0,2.5-1.12,2.5-2.5,0-1.38-1.12-2.5-2.5-2.5-1.38,0-2.5,1.12-2.5,2.5,0,.13.01.26.03.39-.37-.12-.76-.18-1.17-.18-.1,0-.2,0-.31.02-.05-.42-.17-.81-.35-1.17.07,0,.14.01.22.01,1.34,0,2.43-1.09,2.43-2.43,0-1.34-1.09-2.43-2.43-2.43-1.34,0-2.43,1.09-2.43,2.43,0,.18.02.35.05.51-.38-.13-.78-.2-1.2-.2-.26,0-.51.03-.75.08-.03-.81-.34-1.55-.83-2.12.26.13.55.2.86.2,1.08,0,1.96-.88,1.96-1.96,0-1.08-.88-1.96-1.96-1.96-1.08,0-1.96.88-1.96,1.96,0,.41.12.78.34,1.1-.54-.34-1.17-.54-1.86-.54-.7,0-1.34.21-1.89.56.04-.18.07-.36.07-.55,0-1.27-1.03-2.3-2.3-2.3-1.27,0-2.3,1.03-2.3,2.3,0,.21.03.4.08.59-.38-.13-.79-.2-1.22-.2-.58,0-1.13.13-1.63.37,0-1.37-1.12-2.47-2.48-2.47-1.37,0-2.49,1.11-2.49,2.49,0,.26.04.51.11.74-.38-.13-.79-.21-1.21-.21-.74,0-1.42.22-1.99.59.03-.15.05-.3.05-.46,0-1.22-.99-2.21-2.21-2.21-1.22,0-2.21.99-2.21,2.21,0,1.22.99,2.21,2.21,2.21.28,0,.55-.05.79-.15-.2.46-.32.96-.32,1.49,0,.53.11,1.03.31,1.48-.03,0-.05,0-.08,0-.59,0-1.14.2-1.58.53.24-.42.39-.91.39-1.43,0-1.58-1.28-2.87-2.87-2.87-1.58,0-2.87,1.28-2.87,2.87,0,.57.17,1.1.45,1.54-.32-.13-.66-.2-1.03-.2-1.48,0-2.68,1.2-2.68,2.68,0,1.48,1.2,2.68,2.68,2.68s2.68-1.2,2.68-2.68c0-.51-.15-.99-.39-1.39.35.16.75.25,1.16.25.66,0,1.27-.23,1.75-.6-.21.38-.33.81-.33,1.27,0,1.45,1.18,2.63,2.63,2.63,1.45,0,2.63-1.18,2.63-2.63,0-.19-.02-.37-.06-.54.28.07.57.11.86.11.68,0,1.32-.19,1.87-.52,0,.03,0,.06,0,.09,0,1.37,1.11,2.49,2.49,2.49,1.37,0,2.49-1.11,2.49-2.49,0-.1,0-.2-.02-.3.28.07.58.11.88.11.33,0,.65-.05.96-.13.12,1.7,1.54,3.05,3.27,3.05.36,0,.71-.06,1.04-.17-.01.1-.02.21-.02.31,0,1.58,1.28,2.87,2.87,2.87.46,0,.88-.11,1.27-.3-.14.36-.22.75-.22,1.16,0,.79.29,1.51.77,2.06-.31-.17-.67-.27-1.05-.27-1.21,0-2.2.98-2.2,2.2,0,1.21.98,2.2,2.2,2.2.19,0,.37-.03.55-.07-.11.33-.16.68-.16,1.05,0,.19.02.38.05.57-.61.05-1.18.25-1.67.56,0-.06,0-.12,0-.18,0-1.17-.95-2.11-2.11-2.11s-2.11.95-2.11,2.11c0,1.17.95,2.11,2.11,2.11.2,0,.4-.03.58-.08-.16.42-.25.88-.25,1.35,0,.35.05.69.14,1.01-.03,0-.06,0-.08,0-.54,0-1.06.14-1.51.37.05-.21.09-.42.09-.65,0-1.43-1.16-2.59-2.59-2.59s-2.59,1.16-2.59,2.59c0,.62.22,1.2.59,1.64-.42-.25-.91-.39-1.44-.39-.56,0-1.09.17-1.53.45.12-.3.19-.63.19-.97,0-1.45-1.18-2.62-2.62-2.62-1.45,0-2.62,1.18-2.62,2.62,0,.33.06.63.17.92-.38-.15-.8-.23-1.23-.23-.49,0-.96.11-1.39.29.03-.16.05-.33.05-.51,0-1.4-1.13-2.53-2.53-2.53-1.4,0-2.53,1.13-2.53,2.53,0,.41.1.8.28,1.15-.4-.16-.84-.25-1.3-.25-1.92,0-3.48,1.56-3.48,3.48,0,.09,0,.18.01.26-.07,0-.13,0-.2,0-.66,0-1.29.17-1.84.46,0-.01,0-.02,0-.03,0-1.23-1-2.23-2.23-2.23s-2.23,1-2.23,2.23c0,1.23,1,2.23,2.23,2.23.13,0,.25-.01.37-.03-.14.41-.22.84-.22,1.3,0,.1,0,.19.01.29-.49.08-.94.25-1.35.49,0-.04,0-.08,0-.12,0-1.27-1.03-2.3-2.3-2.3s-2.3,1.03-2.3,2.3c0,1.27,1.03,2.3,2.3,2.3.23,0,.44-.03.65-.09-.11.36-.18.75-.18,1.15,0,.43.07.84.21,1.22,0,0,0,0,0,0-1.58,0-2.87,1.28-2.87,2.87,0,1.58,1.28,2.87,2.87,2.87.18,0,.35-.02.52-.05-.03.18-.04.36-.04.55,0,.63.15,1.22.41,1.74-.09,0-.18-.01-.27-.01-1.45,0-2.62,1.18-2.62,2.62,0,1.45,1.18,2.62,2.63,2.62.72,0,1.38-.29,1.85-.76-.28.44-.44.96-.44,1.52,0,1.58,1.28,2.86,2.86,2.86.59,0,1.14-.18,1.6-.49-.17.36-.26.75-.26,1.17,0,1.53,1.24,2.76,2.76,2.76s2.76-1.24,2.76-2.76c0-.12-.01-.24-.03-.36.26.06.53.09.8.09.13,0,.26,0,.39-.02.02.48.13.94.31,1.36-.01,0-.02,0-.03,0-1.26,0-2.28,1.02-2.28,2.28,0,1.26,1.02,2.28,2.28,2.28,1.26,0,2.28-1.02,2.28-2.28,0-.07,0-.14-.01-.21.4.14.82.22,1.26.22.7,0,1.35-.19,1.91-.52,0,.01,0,.03,0,.04,0,1.21.98,2.2,2.2,2.2,1.21,0,2.2-.98,2.2-2.2,0-1.21-.98-2.2-2.2-2.2-.17,0-.33.02-.48.05.13-.38.2-.78.2-1.2,0-.49-.1-.96-.27-1.4.29-.02.56-.07.82-.16-.05.22-.08.46-.08.7,0,1.74,1.41,3.15,3.15,3.15s3.15-1.41,3.15-3.15c0-1.74-1.41-3.15-3.15-3.15-.39,0-.76.07-1.11.2.04-.19.06-.39.06-.59,0-1.66-1.35-3.01-3.01-3.01-.72,0-1.38.25-1.89.67.16-.34.25-.72.25-1.12,0-1.48-1.2-2.69-2.69-2.69-.22,0-.43.03-.64.08.09-.31.14-.63.14-.96,0-.79-.27-1.51-.72-2.09.23.08.47.13.73.13,1.16,0,2.11-.94,2.11-2.11,0-1.16-.94-2.11-2.11-2.11-.23,0-.44.04-.65.1.17-.4.26-.84.26-1.3,0-.39-.07-.77-.19-1.12,0,0,0,0,0,0,1.74,0,3.15-1.41,3.15-3.15,0-.23-.03-.46-.07-.68.06,0,.11,0,.17,0,1.9,0,3.44-1.54,3.44-3.44,0-.57-.14-1.11-.39-1.59.2.05.41.08.63.08.49,0,.95-.14,1.35-.37-.15.35-.23.73-.23,1.13,0,1.58,1.28,2.86,2.86,2.86s2.86-1.28,2.86-2.86c0-.71-.26-1.35-.68-1.85.37.21.81.33,1.27.33.34,0,.67-.07.97-.19-.13.35-.2.73-.2,1.12,0,1.79,1.46,3.25,3.25,3.25.38,0,.74-.07,1.08-.19-.01.12-.02.25-.02.38,0,1.79,1.46,3.25,3.25,3.25.17,0,.34-.02.5-.04-.02.14-.03.28-.03.42,0,.52.12,1.01.33,1.45-.01,0-.02,0-.03,0-1.43,0-2.58,1.16-2.58,2.58,0,1.43,1.16,2.58,2.58,2.58.16,0,.31-.02.46-.04-.05.23-.07.47-.07.71,0,.26.03.51.08.76-1.76.15-3.15,1.63-3.15,3.44,0,.44.08.85.23,1.24-.15-.02-.31-.04-.47-.04-1.72,0-3.11,1.39-3.11,3.11,0,.66.21,1.27.56,1.77-.26-.09-.54-.15-.84-.15-1.37,0-2.49,1.11-2.49,2.49,0,1.37,1.11,2.49,2.49,2.49s2.49-1.11,2.49-2.49c0-.46-.13-.89-.35-1.26.38.17.81.26,1.25.26.37,0,.72-.07,1.05-.19-.03.17-.05.34-.05.52,0,1.74,1.41,3.15,3.15,3.15,1.65,0,3.01-1.27,3.14-2.89.13.01.26.02.4.02.16,0,.32-.01.48-.03.06.28.16.55.28.8,0,0,0,0,0,0-1.27,0-2.29,1.03-2.29,2.29,0,1.27,1.03,2.29,2.29,2.29,1.27,0,2.29-1.03,2.29-2.29,0-.13-.01-.25-.03-.37.34.1.7.16,1.07.16,2.05,0,3.72-1.66,3.72-3.72ZM392.88,96.63s-.01-.1-.02-.15c.1.02.19.03.29.04-.09.03-.19.06-.27.1ZM392.88,105.96c.25-.4.39-.87.39-1.37,0-.22-.03-.43-.08-.64.39.13.8.2,1.24.2.04,0,.08,0,.13,0,.04.34.12.66.25.97-.75.03-1.43.35-1.92.85Z"/><path class="cls-2" d="M401.39,50.42c.26,0,.48-.21.48-.48s-.21-.48-.48-.48c-.26,0-.48.21-.48.48,0,.26.21.48.48.48Z"/><path class="cls-2" d="M394.85,64.82c-.56,0-1.01.45-1.01,1.01,0,.56.45,1.01,1.01,1.01.56,0,1.01-.45,1.01-1.01,0-.56-.45-1.01-1.01-1.01Z"/><path class="cls-2" d="M408.66,99.07c0,.37.3.67.67.67.37,0,.67-.3.67-.67,0-.37-.3-.67-.67-.67-.37,0-.67.3-.67.67Z"/><path class="cls-2" d="M418.36,112.32c-.77,0-1.39.62-1.39,1.39s.62,1.39,1.39,1.39c.77,0,1.39-.62,1.39-1.39,0-.77-.62-1.39-1.39-1.39Z"/><path class="cls-2" d="M422,68.07c.46,0,.83-.37.83-.83,0-.46-.37-.83-.83-.83-.46,0-.83.37-.83.83,0,.46.37.83.83.83Z"/><path class="cls-2" d="M409.05,50.25c.53,0,.97-.43.97-.97s-.43-.97-.97-.97c-.53,0-.97.43-.97.97,0,.53.43.97.97.97Z"/><path class="cls-2" d="M416.34,49.65c.6,0,1.09-.49,1.09-1.09,0-.6-.49-1.09-1.09-1.09-.6,0-1.09.49-1.09,1.09s.49,1.09,1.09,1.09Z"/><path class="cls-2" d="M417.69,65.49c.93,0,1.68-.75,1.68-1.68s-.75-1.68-1.68-1.68c-.93,0-1.68.75-1.68,1.68,0,.93.75,1.68,1.68,1.68Z"/><path class="cls-2" d="M400.91,76.87c0-.61-.49-1.1-1.1-1.1-.61,0-1.1.49-1.1,1.1s.49,1.1,1.1,1.1c.61,0,1.1-.49,1.1-1.1Z"/><path class="cls-2" d="M419.75,101.86c0,.84.68,1.53,1.53,1.53s1.53-.68,1.53-1.53c0-.84-.68-1.53-1.53-1.53-.84,0-1.53.68-1.53,1.53Z"/><path class="cls-2" d="M441.36,109.89c-.95,0-1.72.77-1.72,1.72,0,.95.77,1.72,1.72,1.72.95,0,1.72-.77,1.72-1.72,0-.95-.77-1.72-1.72-1.72Z"/><path class="cls-2" d="M444.8,105.87c-.84,0-1.53.68-1.53,1.53s.68,1.53,1.53,1.53,1.53-.68,1.53-1.53-.68-1.53-1.53-1.53Z"/><path class="cls-2" d="M443.74,72.97c0,.95.77,1.72,1.72,1.72s1.72-.77,1.72-1.72-.77-1.72-1.72-1.72c-.95,0-1.72.77-1.72,1.72Z"/><path class="cls-2" d="M444.88,66.49c.69,0,1.25-.56,1.25-1.25,0-.69-.56-1.25-1.25-1.25-.69,0-1.25.56-1.25,1.25s.56,1.25,1.25,1.25Z"/><path class="cls-2" d="M413.64,103.96c.84,0,1.53-.68,1.53-1.53s-.68-1.53-1.53-1.53-1.53.68-1.53,1.53.68,1.53,1.53,1.53Z"/><path class="cls-2" d="M426.6,110.58c-1.33,0-2.41,1.08-2.41,2.41,0,1.33,1.08,2.41,2.41,2.41,1.33,0,2.41-1.08,2.41-2.41,0-1.33-1.08-2.41-2.41-2.41Z"/><path class="cls-2" d="M407.37,77.67c.87,0,1.57-.7,1.57-1.57s-.7-1.57-1.57-1.57-1.57.7-1.57,1.57.7,1.57,1.57,1.57Z"/><path class="cls-2" d="M387.56,93.43c0-.95-.77-1.72-1.72-1.72-.95,0-1.72.77-1.72,1.72,0,.95.77,1.72,1.72,1.72.95,0,1.72-.77,1.72-1.72Z"/><path class="cls-2" d="M386.58,99.16c-1.06,0-1.91.86-1.91,1.91,0,1.06.86,1.91,1.91,1.91,1.06,0,1.91-.86,1.91-1.91,0-1.06-.86-1.91-1.91-1.91Z"/><path class="cls-2" d="M414.21,87.33c0-1.06-.86-1.91-1.91-1.91s-1.91.86-1.91,1.91c0,1.06.86,1.91,1.91,1.91,1.06,0,1.91-.86,1.91-1.91Z"/><path class="cls-2" d="M394.61,81.1c0,1,.81,1.82,1.82,1.82,1,0,1.82-.81,1.82-1.82,0-1-.81-1.82-1.82-1.82-1,0-1.82.81-1.82,1.82Z"/><path class="cls-2" d="M415.36,105.87c0,1.34,1.09,2.43,2.43,2.43,1.34,0,2.43-1.09,2.43-2.43,0-1.34-1.09-2.43-2.43-2.43-1.34,0-2.43,1.09-2.43,2.43Z"/><path class="cls-2" d="M413.54,75.57c0,.9.73,1.62,1.63,1.62s1.62-.73,1.62-1.63c0-.9-.73-1.62-1.63-1.62s-1.62.73-1.62,1.63Z"/><path class="cls-2" d="M423.97,88.46c-.96,0-1.73.78-1.73,1.73,0,.96.78,1.73,1.73,1.73.96,0,1.73-.78,1.73-1.73,0-.96-.78-1.73-1.73-1.73Z"/><path class="cls-2" d="M446.9,85.8c-1.27,0-2.29,1.03-2.29,2.29,0,1.27,1.03,2.29,2.29,2.29,1.27,0,2.29-1.03,2.29-2.29,0-1.27-1.03-2.29-2.29-2.29Z"/><path class="cls-2" d="M444.03,80.63c0,1.17.95,2.11,2.11,2.11,1.17,0,2.11-.95,2.11-2.11,0-1.17-.95-2.11-2.11-2.11-1.17,0-2.11.95-2.11,2.11Z"/><path class="cls-2" d="M422.71,97.82c0,1.06.86,1.91,1.91,1.91,1.06,0,1.91-.86,1.91-1.91,0-1.06-.86-1.91-1.91-1.91-1.06,0-1.91.86-1.91,1.91Z"/><path class="cls-2" d="M411.15,64.54c0-.5-.41-.91-.91-.91-.5,0-.91.41-.91.91s.41.91.91.91c.5,0,.91-.41.91-.91Z"/><path class="cls-2" d="M387.07,107.96c-.43,0-.78.35-.78.78,0,.43.35.78.78.78.43,0,.78-.35.78-.78s-.35-.78-.78-.78Z"/><path class="cls-2" d="M395.62,114.77c-.5,0-.9.4-.9.9,0,.5.4.9.9.9.5,0,.9-.4.9-.9,0-.5-.4-.9-.9-.9Z"/><path class="cls-2" d="M407.18,117.48c-.5,0-.91.41-.91.91,0,.5.41.91.91.91.5,0,.91-.41.91-.91,0-.5-.41-.91-.91-.91Z"/><path class="cls-2" d="M430.12,116.01c-.29,0-.53.24-.53.53s.24.53.53.53.53-.24.53-.53c0-.29-.24-.53-.53-.53Z"/><path class="cls-2" d="M437.81,115.05c-.42,0-.75.34-.75.75,0,.42.34.75.75.75.42,0,.75-.34.75-.75s-.34-.75-.75-.75Z"/><path class="cls-2" d="M414.87,117.32c-.32,0-.57.26-.57.57,0,.32.26.57.57.57.32,0,.57-.26.57-.57,0-.32-.26-.57-.57-.57Z"/><path class="cls-2" d="M391.37,111.02c-.63,0-1.15.51-1.15,1.15,0,.63.51,1.15,1.15,1.15.63,0,1.15-.51,1.15-1.15,0-.63-.51-1.15-1.15-1.15Z"/><path class="cls-2" d="M408.86,90.2c-.73,0-1.33.59-1.33,1.33,0,.73.59,1.33,1.33,1.33.73,0,1.33-.59,1.33-1.33,0-.73-.59-1.33-1.33-1.33Z"/><path class="cls-2" d="M424.1,48.72c.39,0,.71-.32.71-.71,0-.39-.32-.71-.71-.71-.39,0-.71.32-.71.71s.32.71.71.71Z"/><path class="cls-2" d="M435.99,51.37c.26,0,.48-.21.48-.48,0-.26-.21-.48-.48-.48-.26,0-.48.21-.48.48,0,.26.21.48.48.48Z"/><path class="cls-2" d="M439.91,54.81c.32,0,.57-.26.57-.57,0-.32-.26-.57-.57-.57s-.57.26-.57.57c0,.32.26.57.57.57Z"/><path class="cls-2" d="M449.38,95.62c0-1-.81-1.82-1.82-1.82-1,0-1.82.81-1.82,1.82,0,1,.81,1.82,1.82,1.82,1,0,1.82-.81,1.82-1.82Z"/><path class="cls-2" d="M466.2,88.45c-1,0-1.82.81-1.82,1.82,0,1,.81,1.82,1.82,1.82,1,0,1.82-.81,1.82-1.82,0-1-.81-1.82-1.82-1.82Z"/><path class="cls-2" d="M478.56,99.16c-.79,0-1.43.64-1.43,1.43s.64,1.43,1.43,1.43c.79,0,1.43-.64,1.43-1.43,0-.79-.64-1.43-1.43-1.43Z"/><path class="cls-2" d="M486.07,98.74c-.69,0-1.26.56-1.26,1.26,0,.69.56,1.26,1.26,1.26.69,0,1.26-.56,1.26-1.26s-.56-1.26-1.26-1.26Z"/><path class="cls-2" d="M506.92,115.96c-.79,0-1.43.64-1.43,1.43s.64,1.43,1.43,1.43c.79,0,1.43-.64,1.43-1.43,0-.79-.64-1.43-1.43-1.43Z"/><path class="cls-2" d="M474.45,96.5c-.37,0-.66.3-.66.66s.3.66.66.66c.37,0,.66-.3.66-.66s-.3-.66-.66-.66Z"/><path class="cls-2" d="M495.16,87.69c0,.74.6,1.34,1.34,1.34.74,0,1.34-.6,1.34-1.34s-.6-1.34-1.34-1.34c-.74,0-1.34.6-1.34,1.34Z"/><path class="cls-2" d="M495.93,81.19c.63,0,1.15-.51,1.15-1.15s-.51-1.15-1.15-1.15-1.15.51-1.15,1.15c0,.63.51,1.15,1.15,1.15Z"/><path class="cls-2" d="M515.52,104.99c0,.9.73,1.62,1.63,1.62s1.62-.73,1.62-1.63c0-.9-.73-1.62-1.63-1.62s-1.62.73-1.62,1.63Z"/><path class="cls-2" d="M518.48,97.34c0-1-.81-1.82-1.82-1.82-1,0-1.82.81-1.82,1.82,0,1,.81,1.82,1.82,1.82,1,0,1.82-.81,1.82-1.82Z"/><path class="cls-2" d="M470.31,92.85c-.42,0-.76.34-.76.76,0,.42.34.76.76.76.42,0,.76-.34.76-.76,0-.42-.34-.76-.76-.76Z"/><path class="cls-2" d="M470.44,53.42c.98,0,1.78-.8,1.78-1.78,0-.98-.8-1.78-1.78-1.78-.98,0-1.78.8-1.78,1.78,0,.98.8,1.78,1.78,1.78Z"/><path class="cls-2" d="M489.71,55.55c1,0,1.82-.81,1.82-1.82,0-1-.81-1.82-1.82-1.82-1,0-1.82.81-1.82,1.82,0,1,.81,1.82,1.82,1.82Z"/><path class="cls-2" d="M478.13,52.51c.96,0,1.74-.78,1.74-1.74,0-.96-.78-1.74-1.74-1.74-.96,0-1.74.78-1.74,1.74,0,.96.78,1.74,1.74,1.74Z"/><path class="cls-2" d="M485.7,51.12c.48,0,.86-.39.86-.86s-.39-.86-.86-.86-.86.39-.86.86.39.86.86.86Z"/><path class="cls-2" d="M495.64,45.44c0,.63.51,1.15,1.15,1.15s1.15-.51,1.15-1.15-.51-1.15-1.15-1.15c-.63,0-1.15.51-1.15,1.15Z"/><path class="cls-2" d="M517.43,60.73c-1.16,0-2.1.94-2.1,2.1,0,1.16.94,2.1,2.1,2.1,1.16,0,2.1-.94,2.1-2.1,0-1.16-.94-2.1-2.1-2.1Z"/><path class="cls-2" d="M516.76,53.09c-1.16,0-2.1.94-2.1,2.1,0,1.16.94,2.1,2.1,2.1,1.16,0,2.1-.94,2.1-2.1,0-1.16-.94-2.1-2.1-2.1Z"/><path class="cls-2" d="M498.89,27.85c1,0,1.82-.81,1.82-1.82,0-1-.81-1.82-1.82-1.82-1,0-1.82.81-1.82,1.82,0,1,.81,1.82,1.82,1.82Z"/><path class="cls-2" d="M505.77,19.63c1,0,1.82-.81,1.82-1.82,0-1-.81-1.82-1.82-1.82s-1.82.81-1.82,1.82c0,1,.81,1.82,1.82,1.82Z"/><path class="cls-2" d="M462.85,52.78c.32,0,.57-.26.57-.57,0-.32-.26-.57-.57-.57-.32,0-.57.26-.57.57s.26.57.57.57Z"/><path class="cls-2" d="M475.98,69.03c-.7,0-1.28.57-1.28,1.28,0,.7.57,1.28,1.28,1.28s1.28-.57,1.28-1.28c0-.7-.57-1.28-1.28-1.28Z"/><path class="cls-2" d="M496.21,38.56c.37,0,.67-.3.67-.67,0-.37-.3-.67-.67-.67-.37,0-.67.3-.67.67,0,.37.3.67.67.67Z"/><path class="cls-2" d="M513.41,17.91c.37,0,.67-.3.67-.67,0-.37-.3-.67-.67-.67-.37,0-.67.3-.67.67,0,.37.3.67.67.67Z"/><path class="cls-2" d="M528.62,92.66c0-.53-.43-.96-.96-.96-.53,0-.96.43-.96.96s.43.96.96.96c.53,0,.96-.43.96-.96Z"/><path class="cls-2" d="M532.53,102.6c-.58,0-1.05.47-1.05,1.05,0,.58.47,1.05,1.05,1.05.58,0,1.05-.47,1.05-1.05,0-.58-.47-1.05-1.05-1.05Z"/><path class="cls-2" d="M526.8,126.11c-.58,0-1.05.47-1.05,1.05,0,.58.47,1.05,1.05,1.05s1.05-.47,1.05-1.05c0-.58-.47-1.05-1.05-1.05Z"/><path class="cls-2" d="M553.95,127.45c-.58,0-1.05.47-1.05,1.05s.47,1.05,1.05,1.05c.58,0,1.05-.47,1.05-1.05,0-.58-.47-1.05-1.05-1.05Z"/><path class="cls-2" d="M560.16,111.39c-.63,0-1.15.51-1.15,1.15,0,.63.51,1.15,1.15,1.15.63,0,1.15-.51,1.15-1.15,0-.63-.51-1.15-1.15-1.15Z"/><path class="cls-2" d="M566.28,95.52c-.63,0-1.15.51-1.15,1.15s.51,1.15,1.15,1.15c.63,0,1.15-.51,1.15-1.15s-.51-1.15-1.15-1.15Z"/><path class="cls-2" d="M556.14,68.19c.63,0,1.15-.51,1.15-1.15,0-.63-.51-1.15-1.15-1.15s-1.15.51-1.15,1.15c0,.63.51,1.15,1.15,1.15Z"/><path class="cls-2" d="M578.32,58.82c.74,0,1.34-.6,1.34-1.34s-.6-1.34-1.34-1.34-1.34.6-1.34,1.34c0,.74.6,1.34,1.34,1.34Z"/><path class="cls-2" d="M569.91,51.55c.63,0,1.15-.51,1.15-1.15s-.51-1.15-1.15-1.15c-.63,0-1.15.51-1.15,1.15,0,.63.51,1.15,1.15,1.15Z"/><path class="cls-2" d="M516.48,138.73c-.48,0-.86.39-.86.86,0,.48.39.86.86.86.48,0,.86-.39.86-.86,0-.48-.39-.86-.86-.86Z"/><path class="cls-2" d="M521.74,131.18c0,.9.73,1.62,1.63,1.62.9,0,1.62-.73,1.62-1.63,0-.9-.73-1.62-1.63-1.62-.9,0-1.62.73-1.62,1.63Z"/><path class="cls-2" d="M520.68,141.4c-.9,0-1.62.73-1.62,1.63,0,.9.73,1.62,1.63,1.62s1.62-.73,1.62-1.63c0-.9-.73-1.62-1.63-1.62Z"/><path class="cls-2" d="M532.35,144.08c-1,0-1.82.81-1.82,1.82,0,1,.81,1.82,1.82,1.82,1,0,1.82-.81,1.82-1.82,0-1-.81-1.82-1.82-1.82Z"/><path class="cls-2" d="M543.34,139.21c-.95,0-1.72.77-1.72,1.72,0,.95.77,1.72,1.72,1.72.95,0,1.72-.77,1.72-1.72,0-.95-.77-1.72-1.72-1.72Z"/><path class="cls-2" d="M524.6,144.94c-.84,0-1.53.68-1.53,1.53,0,.84.68,1.53,1.53,1.53s1.53-.68,1.53-1.53-.68-1.53-1.53-1.53Z"/><path class="cls-2" d="M539.99,143.98c-.69,0-1.24.56-1.24,1.24,0,.69.56,1.24,1.24,1.24s1.24-.56,1.24-1.24c0-.69-.56-1.24-1.24-1.24Z"/><path class="cls-2" d="M521.74,135.38c0-1-.81-1.82-1.82-1.82-1,0-1.82.81-1.82,1.82,0,1,.81,1.82,1.82,1.82,1,0,1.82-.81,1.82-1.82Z"/><path class="cls-2" d="M545.82,80.8c.74,0,1.34-.6,1.34-1.34s-.6-1.34-1.34-1.34-1.34.6-1.34,1.34c0,.74.6,1.34,1.34,1.34Z"/><path class="cls-2" d="M520.01,85.58c0-.42-.34-.76-.76-.76-.42,0-.76.34-.76.76,0,.42.34.76.76.76.42,0,.76-.34.76-.76Z"/><path class="cls-2" d="M522.88,80.8c-.42,0-.76.34-.76.76,0,.42.34.76.76.76s.76-.34.76-.76c0-.42-.34-.76-.76-.76Z"/><path class="cls-2" d="M540.18,61.11c.26,0,.48-.21.48-.48s-.21-.48-.48-.48c-.26,0-.48.21-.48.48s.21.48.48.48Z"/><path class="cls-2" d="M518.86,43.34c0,.37.3.67.67.67s.67-.3.67-.67c0-.37-.3-.67-.67-.67s-.67.3-.67.67Z"/><path class="cls-2" d="M518.77,76.79c-.58,0-1.05.47-1.05,1.05s.47,1.05,1.05,1.05,1.05-.47,1.05-1.05-.47-1.05-1.05-1.05Z"/><path class="cls-2" d="M536.07,58.25c.53,0,.96-.43.96-.96,0-.53-.43-.96-.96-.96-.53,0-.96.43-.96.96,0,.53.43.96.96.96Z"/><path class="cls-2" d="M526.89,83.29c-.95,0-1.72.77-1.72,1.72,0,.95.77,1.72,1.72,1.72.95,0,1.72-.77,1.72-1.72,0-.95-.77-1.72-1.72-1.72Z"/><path class="cls-2" d="M522.21,72.2c-1,0-1.82.81-1.82,1.82,0,1,.81,1.82,1.82,1.82,1,0,1.82-.81,1.82-1.82,0-1-.81-1.82-1.82-1.82Z"/><path class="cls-2" d="M518.1,68.76c-.84,0-1.53.68-1.53,1.53,0,.84.68,1.53,1.53,1.53.84,0,1.53-.68,1.53-1.53,0-.84-.68-1.53-1.53-1.53Z"/><path class="cls-2" d="M518.86,50.98c0,.74.6,1.34,1.34,1.34.74,0,1.34-.6,1.34-1.34,0-.74-.6-1.34-1.34-1.34s-1.34.6-1.34,1.34Z"/><path class="cls-2" d="M527.66,51.75c.74,0,1.34-.6,1.34-1.34,0-.74-.6-1.34-1.34-1.34-.74,0-1.34.6-1.34,1.34s.6,1.34,1.34,1.34Z"/><path class="cls-2" d="M531.86,55.19c.74,0,1.34-.6,1.34-1.34,0-.74-.6-1.34-1.34-1.34s-1.34.6-1.34,1.34c0,.74.6,1.34,1.34,1.34Z"/><path class="cls-2" d="M540.84,69.72c.74,0,1.34-.6,1.34-1.34s-.6-1.34-1.34-1.34-1.34.6-1.34,1.34c0,.74.6,1.34,1.34,1.34Z"/><path class="cls-2" d="M572.68,80.04c-.58,0-1.05.47-1.05,1.05s.47,1.05,1.05,1.05c.58,0,1.05-.47,1.05-1.05,0-.58-.47-1.05-1.05-1.05Z"/><path class="cls-2" d="M578.89,64.07c-.53,0-.96.43-.96.95s.43.96.95.96.96-.43.96-.95-.43-.96-.95-.96Z"/><path class="cls-2" d="M575.36,67.61c-.84,0-1.53.68-1.53,1.53s.68,1.53,1.53,1.53c.84,0,1.53-.68,1.53-1.53s-.68-1.53-1.53-1.53Z"/><path class="cls-2" d="M531.68,94.38c-.9,0-1.63.72-1.63,1.62,0,.9.72,1.63,1.62,1.63s1.63-.72,1.63-1.62c0-.9-.72-1.63-1.62-1.63Z"/><path class="cls-2" d="M549.93,84.63c1,0,1.82-.81,1.82-1.81,0-1-.81-1.82-1.81-1.82-1,0-1.82.81-1.82,1.81,0,1,.81,1.82,1.81,1.82Z"/><path class="cls-2" d="M553.37,80.8c1.06,0,1.91-.85,1.92-1.91,0-1.06-.85-1.91-1.91-1.92-1.06,0-1.91.85-1.92,1.91,0,1.06.85,1.91,1.91,1.92Z"/><path class="cls-2" d="M569.15,83.48c-.95,0-1.72.77-1.72,1.72,0,.95.77,1.72,1.72,1.72s1.72-.77,1.72-1.72c0-.95-.77-1.72-1.72-1.72Z"/><path class="cls-2" d="M559.68,64.55c1,0,1.82-.81,1.82-1.81,0-1-.81-1.82-1.81-1.82-1,0-1.82.81-1.82,1.81,0,1,.81,1.82,1.81,1.82Z"/><path class="cls-2" d="M574.88,58.82c-.21,0-.41.03-.6.07.05-.19.09-.38.11-.58.08-.78-.08-1.54-.43-2.18.08,0,.16.02.24.02,1.11,0,2.01-.9,2.01-2,0-1.11-.9-2.01-2-2.01-1.11,0-2.01.9-2.01,2,0,.13.01.25.03.37-.37-.17-.76-.29-1.19-.33-.91-.1-1.78.14-2.48.61,0-.02,0-.04,0-.07,0-1.11-.9-2.01-2-2.01-1.11,0-2.01.9-2.01,2,0,1.11.9,2.01,2,2.01.19,0,.38-.03.55-.08-.1.28-.17.57-.21.88-.04.35-.02.7.04,1.03-.59.06-1.15.25-1.64.55.01-.09.02-.19.02-.28,0-1.21-.98-2.2-2.19-2.2-1.21,0-2.2.98-2.2,2.19,0,1.21.98,2.2,2.19,2.2.22,0,.43-.03.63-.09-.13.33-.23.68-.27,1.05-.02.21-.02.41-.01.62-1.68.26-3.05,1.62-3.24,3.4-.07.64.03,1.27.25,1.83-.1-.01-.21-.02-.32-.02-1.48,0-2.68,1.19-2.68,2.67,0,1.48,1.19,2.68,2.67,2.68.25,0,.5-.04.73-.1-.04.17-.08.34-.1.52-.03.25-.03.5,0,.74-.74.05-1.43.31-2,.74.02-.12.03-.24.03-.36,0-1.16-.94-2.1-2.1-2.11-1.16,0-2.1.94-2.11,2.1,0,1.16.94,2.1,2.1,2.11.31,0,.6-.07.86-.18-.13.32-.23.67-.26,1.04-.05.43-.01.86.08,1.26-1.86.05-3.35,1.57-3.35,3.44,0,.2.02.4.05.59-.08,0-.16-.01-.24-.01-1.79,0-3.25,1.46-3.25,3.25,0,.2.02.4.06.59-.11-.01-.23-.02-.34-.02-.37,0-.73.06-1.06.16-.12-1.48-1.35-2.64-2.86-2.64-.46,0-.89.11-1.27.3.08-.28.12-.57.12-.87,0-1.79-1.46-3.25-3.25-3.25-.07,0-.14,0-.21.01.01-.13.02-.26.02-.39,0-.71-.2-1.36-.55-1.92.06,0,.11,0,.17,0,1.16,0,2.1-.94,2.1-2.1,0-1.16-.94-2.1-2.1-2.1-1.16,0-2.1.94-2.1,2.1,0,.21.03.41.09.6-.39-.14-.8-.22-1.24-.22-.14,0-.27,0-.4.02-.04-.38-.14-.74-.29-1.08,1.55-.04,2.8-1.3,2.8-2.86,0-1.58-1.28-2.87-2.87-2.87-.15,0-.3.02-.45.04.05-.23.07-.47.07-.71,0-.72-.21-1.39-.57-1.95.12.02.25.04.38.04,1.21,0,2.2-.98,2.2-2.19,0-1.21-.98-2.2-2.19-2.2s-2.2.98-2.2,2.19c0,.27.05.52.14.76-.43-.18-.89-.27-1.38-.27-.2,0-.39.02-.58.05-.01-.39-.09-.76-.22-1.11.04,0,.09,0,.13,0,1.53,0,2.77-1.24,2.77-2.77,0-1.53-1.24-2.77-2.77-2.77-.49,0-.95.13-1.36.36.13-.35.21-.72.21-1.12,0-1.74-1.41-3.15-3.15-3.15-.57,0-1.09.15-1.55.41.08-.25.12-.52.12-.79,0-1.48-1.2-2.68-2.68-2.68-1.48,0-2.68,1.2-2.68,2.68,0,1.48,1.2,2.68,2.68,2.68.42,0,.82-.1,1.17-.27-.14.35-.21.73-.21,1.13,0,.1,0,.21.02.31-.13-.01-.26-.02-.4-.02-.51,0-.99.1-1.43.29,0-1.43-1.16-2.58-2.58-2.58-1.43,0-2.58,1.16-2.58,2.58,0,1.43,1.16,2.58,2.58,2.58.14,0,.27-.01.4-.03-.07.29-.11.59-.11.89,0,.74.22,1.44.6,2.02-.07,0-.14-.01-.21-.01-1.27,0-2.29,1.03-2.29,2.29,0,1.27,1.03,2.29,2.29,2.29.38,0,.73-.09,1.05-.25-.18.43-.28.9-.28,1.4,0,2.01,1.63,3.63,3.63,3.63.06,0,.13,0,.19,0,0,0,0,0,0,0,0,.55.13,1.07.34,1.54-.05,0-.1,0-.15,0-1.37,0-2.49,1.11-2.49,2.49,0,1.37,1.11,2.49,2.49,2.49.67,0,1.27-.26,1.72-.69-.36.49-.57,1.09-.57,1.74,0,1.64,1.33,2.96,2.96,2.96.17,0,.34-.02.51-.05-.02.14-.03.28-.03.43,0,.63.16,1.22.44,1.73-.08,0-.16-.01-.25-.01-1.37,0-2.49,1.11-2.49,2.49,0,1.37,1.11,2.49,2.49,2.49.44,0,.86-.12,1.22-.32-.17.39-.26.82-.26,1.27,0,1.79,1.46,3.25,3.25,3.25.15,0,.3-.01.44-.03-.04.2-.06.4-.06.61,0,.48.11.93.29,1.34-.03,0-.07,0-.1,0-1.37,0-2.49,1.11-2.48,2.49,0,1.37,1.11,2.49,2.49,2.49.33,0,.64-.06.93-.18-.1.33-.16.68-.16,1.04,0,1.9,1.54,3.44,3.44,3.44.13,0,.26,0,.39-.02,0,.07-.01.14-.01.22,0,.47.09.93.26,1.34-1.52.01-2.75,1.25-2.75,2.77,0,1.53,1.24,2.77,2.77,2.77.18,0,.36-.02.54-.05-.04.2-.06.41-.06.63,0,.44.08.86.23,1.24-.01,0-.03,0-.04,0-1.69,0-3.06,1.37-3.06,3.06,0,.62.19,1.2.51,1.68-.33-.16-.69-.25-1.08-.25-1.37,0-2.49,1.11-2.48,2.49,0,1.37,1.11,2.49,2.49,2.49.32,0,.62-.06.89-.17-.2.46-.32.97-.32,1.51,0,.04,0,.07,0,.11-.56.04-1.08.2-1.54.47,0-.06,0-.13,0-.19,0-1.32-1.07-2.39-2.39-2.39-1.32,0-2.39,1.07-2.39,2.39,0,1.32,1.07,2.39,2.39,2.39.23,0,.45-.03.66-.09-.12.36-.18.75-.18,1.15,0,.17.02.33.04.5-.49.05-.96.19-1.38.42,0-.02,0-.03,0-.05,0-1.48-1.2-2.68-2.68-2.68-1.48,0-2.68,1.2-2.68,2.68,0,.31.05.6.15.88-.26-.07-.54-.11-.82-.11-1.74,0-3.15,1.41-3.15,3.15,0,.31.05.61.13.89-.14-.02-.27-.03-.42-.03-1.85,0-3.35,1.5-3.35,3.35,0,1.85,1.5,3.35,3.35,3.35.46,0,.9-.09,1.3-.26-.04.18-.05.36-.05.55,0,1.53,1.24,2.77,2.77,2.77,1.53,0,2.77-1.24,2.77-2.77,0-.21-.02-.41-.07-.6.3.08.61.12.93.12.44,0,.86-.08,1.25-.22,0,.04,0,.08,0,.12,0,1.53,1.24,2.77,2.77,2.77s2.77-1.24,2.77-2.77c0-.34-.06-.67-.18-.97.27.07.55.11.85.11,1.9,0,3.44-1.54,3.44-3.44,0-.2-.02-.4-.05-.59.08,0,.16.01.24.01.94,0,1.78-.37,2.42-.96-.14.26-.22.55-.22.86,0,1,.81,1.82,1.82,1.82,1,0,1.82-.81,1.82-1.82,0-1-.81-1.82-1.82-1.82-.41,0-.79.14-1.09.37.39-.57.62-1.25.62-1.99,0-.23-.02-.45-.07-.67.02,0,.04,0,.07,0,.87,0,1.67-.33,2.28-.86-.11.23-.17.49-.17.77,0,1,.81,1.82,1.82,1.82,1,0,1.82-.81,1.82-1.82,0-1-.81-1.82-1.82-1.82-.38,0-.72.11-1.01.31.34-.53.54-1.16.54-1.84,0-.56-.13-1.08-.37-1.54.09,0,.18.01.27.01,1.53,0,2.77-1.24,2.77-2.77,0-.66-.23-1.26-.61-1.73.35.19.76.3,1.18.3,1.37,0,2.49-1.11,2.49-2.49,0-1.37-1.11-2.49-2.49-2.49-.18,0-.35.02-.52.05.21-.49.33-1.02.33-1.58,0-.07,0-.14-.01-.21.68-.05,1.3-.3,1.82-.68-.06.19-.09.39-.09.6,0,1.11.9,2.01,2,2.01,1.11,0,2.01-.9,2.01-2,0-1.11-.9-2.01-2-2.01-.32,0-.62.08-.89.21.26-.49.4-1.05.4-1.64,0-.52-.11-1-.31-1.44.07,0,.14.01.22.01,1.53,0,2.77-1.24,2.77-2.77,0-1.53-1.24-2.77-2.77-2.77-.17,0-.33.02-.49.05,0-.08.01-.16.01-.24,0-.33-.05-.66-.14-.96.02,0,.03,0,.05,0,.51,0,1-.11,1.43-.31,0,0,0,0,0,.01,0,1.32,1.07,2.39,2.39,2.39,1.32,0,2.39-1.07,2.39-2.39,0-1.32-1.07-2.39-2.39-2.39-.14,0-.28.01-.41.04.08-.29.12-.59.12-.9,0-.3-.04-.59-.11-.87.07,0,.14.01.21.01.74,0,1.43-.23,2-.62-.12.25-.18.52-.18.81,0,1.06.85,1.91,1.91,1.92,1.06,0,1.91-.85,1.92-1.91,0-1.06-.85-1.91-1.91-1.92-.29,0-.57.07-.81.18.39-.57.62-1.26.62-2,0-.44-.08-.86-.23-1.25,1.42-.12,2.53-1.31,2.53-2.76,0-1.53-1.24-2.77-2.77-2.77-.12,0-.24.01-.35.03.04-.23.07-.46.07-.69,0-.17-.01-.33-.04-.49.57-.04,1.1-.2,1.58-.47,0,.06,0,.12,0,.19,0,1.32,1.07,2.39,2.39,2.39,1.32,0,2.39-1.07,2.39-2.39,0-1.32-1.07-2.39-2.39-2.39-.23,0-.45.03-.66.09.12-.36.18-.75.18-1.15,0-.3-.04-.59-.11-.87,1.71-.09,3.07-1.51,3.07-3.24,0-.42-.08-.83-.23-1.2.17.03.34.05.51.05,1.58,0,2.87-1.28,2.87-2.86,0-1.58-1.28-2.87-2.86-2.87-.15,0-.29.01-.43.03.02-.12.04-.24.06-.36.02-.23.02-.46,0-.68.58-.05,1.13-.23,1.61-.51,0,.06,0,.12,0,.18,0,1.27,1.02,2.3,2.29,2.3,1.27,0,2.3-1.02,2.3-2.29,0-1.27-1.02-2.3-2.29-2.3-.21,0-.41.03-.6.08.1-.28.17-.58.21-.89.06-.52,0-1.03-.14-1.5,1.64-.16,2.92-1.55,2.92-3.23,0-.62-.17-1.19-.47-1.68.27.09.55.15.85.15,1.43,0,2.58-1.15,2.59-2.58,0-1.43-1.15-2.58-2.58-2.59ZM529.76,76.98c.13,0,.26,0,.39-.02.02.34.08.67.19.98-.77.02-1.47.34-1.99.84.28-.4.45-.89.45-1.42,0-.18-.02-.36-.06-.53.32.09.66.15,1.01.15ZM534.54,87.88c.2,0,.4-.02.59-.05-.01.11-.02.22-.02.34,0,.17.01.33.04.49-.62.03-1.2.23-1.69.57.08-.24.12-.5.12-.76s-.04-.5-.11-.73c.34.1.7.16,1.07.16ZM538.94,98.96c.34,0,.67-.05.97-.15.02.22.06.43.11.63-.62.01-1.19.19-1.69.48.02-.13.03-.26.03-.39,0-.22-.03-.44-.09-.64.21.04.43.07.66.07ZM541.43,121.33c.14,0,.27-.01.4-.03,0,.1-.02.21-.02.32,0,.23.02.46.06.68-.61.04-1.18.22-1.67.51.05-.2.08-.4.08-.62,0-.45-.12-.88-.34-1.25.44.24.95.38,1.48.38ZM549.74,122.29c-.19,0-.37.02-.55.05.05-.23.07-.48.07-.72,0-.17-.02-.33-.04-.5.5-.04.98-.18,1.41-.39-.02.13-.04.27-.04.41,0,.57.2,1.1.52,1.52-.41-.23-.88-.37-1.38-.37Z"/><path class="cls-2" d="M538.56,107.09c0-1-.81-1.82-1.81-1.82-1,0-1.82.81-1.82,1.81,0,1,.81,1.82,1.81,1.82,1,0,1.82-.81,1.82-1.81Z"/><path class="cls-2" d="M535.5,114.73c0,1,.81,1.82,1.81,1.82,1,0,1.82-.81,1.82-1.81,0-1-.81-1.82-1.81-1.82-1,0-1.82.81-1.82,1.81Z"/><path class="cls-2" d="M517.91,35.69c0,.53.43.96.96.96.53,0,.96-.43.96-.96,0-.53-.43-.96-.96-.96s-.96.43-.96.96Z"/><path class="cls-2" d="M518.19,29.57c.69,0,1.24-.56,1.24-1.24s-.56-1.24-1.24-1.24-1.24.56-1.24,1.24.56,1.24,1.24,1.24Z"/><path class="cls-2" d="M493.25,50.03c.26,0,.48-.21.48-.48,0-.26-.21-.48-.48-.48-.26,0-.48.21-.48.48,0,.26.21.48.48.48Z"/><path class="cls-2" d="M472.41,73.73c-.32,0-.57.26-.57.57,0,.32.26.57.57.57s.57-.26.57-.57c0-.32-.26-.57-.57-.57Z"/><path class="cls-2" d="M483.5,68.76c-.48,0-.86.39-.86.86,0,.48.39.86.86.86.48,0,.86-.39.86-.86,0-.48-.39-.86-.86-.86Z"/><path class="cls-2" d="M452.28,66.1c.88,0,1.59-.71,1.59-1.59s-.71-1.59-1.59-1.59c-.88,0-1.59.71-1.59,1.59s.71,1.59,1.59,1.59Z"/><path class="cls-2" d="M467.44,82.62c0-1-.81-1.82-1.82-1.82-1,0-1.82.81-1.82,1.82,0,1,.81,1.82,1.82,1.82,1,0,1.82-.81,1.82-1.82Z"/><path class="cls-2" d="M459.4,57.77c.75,0,1.35-.61,1.35-1.35,0-.75-.61-1.35-1.35-1.35-.75,0-1.35.61-1.35,1.35,0,.75.61,1.35,1.35,1.35Z"/><path class="cls-2" d="M448.99,70.1c.74,0,1.34-.6,1.34-1.34s-.6-1.34-1.34-1.34-1.34.6-1.34,1.34c0,.74.6,1.34,1.34,1.34Z"/><path class="cls-2" d="M476.22,118.37c-.84,0-1.51.68-1.51,1.51s.68,1.51,1.51,1.51c.84,0,1.51-.68,1.51-1.51s-.68-1.51-1.51-1.51Z"/><path class="cls-2" d="M468.78,120.19c-.26,0-.48.21-.48.48s.21.48.48.48c.26,0,.48-.21.48-.48,0-.26-.21-.48-.48-.48Z"/><path class="cls-2" d="M499.37,117.7c-.21,0-.38.17-.38.38,0,.21.17.38.38.38s.38-.17.38-.38c0-.21-.17-.38-.38-.38Z"/><path class="cls-2" d="M514.47,116.36c-.21,0-.38.17-.38.38,0,.21.17.38.38.38.21,0,.38-.17.38-.38,0-.21-.17-.38-.38-.38Z"/><path class="cls-2" d="M533.87,119.23c.26,0,.48-.21.48-.48,0-.26-.21-.48-.48-.48-.26,0-.48.21-.48.48,0,.26.21.48.48.48Z"/><path class="cls-2" d="M530.43,123.43c.26,0,.48-.21.48-.48,0-.26-.21-.48-.48-.48-.26,0-.48.21-.48.48,0,.26.21.48.48.48Z"/><path class="cls-2" d="M491.63,118.08c-.37,0-.67.3-.67.67,0,.37.3.67.67.67.37,0,.67-.3.67-.67,0-.37-.3-.67-.67-.67Z"/><path class="cls-2" d="M468.9,77.75c-.39,0-.71.32-.71.71,0,.39.32.71.71.71s.71-.32.71-.71c0-.39-.32-.71-.71-.71Z"/><path class="cls-2" d="M484.01,118.13c-.7,0-1.28.57-1.28,1.28s.57,1.28,1.28,1.28c.7,0,1.28-.57,1.28-1.28,0-.7-.57-1.28-1.28-1.28Z"/><path class="cls-2" d="M495.15,112.82c-1.05,0-1.9.85-1.9,1.9,0,1.05.85,1.9,1.9,1.9,1.05,0,1.9-.85,1.9-1.9,0-1.05-.85-1.9-1.9-1.9Z"/><path class="cls-2" d="M513.85,106.8c-.18,0-.35.02-.51.06.17-.43.27-.9.27-1.4,0-.51-.1-.99-.28-1.43,1.48,0,2.67-1.2,2.67-2.68,0-1.48-1.2-2.68-2.68-2.68-.23,0-.46.03-.68.09.06-.27.1-.56.1-.85,0-.3-.04-.58-.1-.86,0,0,0,0,0,0,1.69,0,3.06-1.37,3.06-3.06,0-1.69-1.37-3.06-3.06-3.06-.24,0-.48.03-.7.08.02-.15.03-.31.03-.47,0-.26-.03-.52-.08-.77.03,0,.05,0,.08,0,.74,0,1.42-.24,1.98-.63-.05.17-.07.35-.07.54,0,1.16.94,2.1,2.1,2.1,1.16,0,2.1-.94,2.1-2.1,0-1.16-.94-2.1-2.1-2.1-.32,0-.62.07-.89.2.2-.44.32-.93.32-1.44,0-.72-.23-1.4-.61-1.95.14.02.27.04.42.04,1.27,0,2.29-1.03,2.29-2.29,0-1.27-1.03-2.29-2.29-2.29-.19,0-.38.03-.55.07.11-.35.17-.73.17-1.12,0-.66-.17-1.28-.48-1.82.03,0,.06,0,.09,0,1.37,0,2.49-1.11,2.49-2.49,0-1.37-1.11-2.49-2.49-2.49-.04,0-.09,0-.13,0,.08-.31.13-.63.13-.96,0-.55-.13-1.07-.34-1.54,1.36-.07,2.45-1.19,2.45-2.57,0-1.43-1.16-2.58-2.58-2.58-.19,0-.37.02-.55.06.11-.35.17-.72.17-1.11,0-.51-.1-.99-.29-1.43,1.48,0,2.68-1.2,2.68-2.68,0-1.48-1.2-2.68-2.68-2.68-.16,0-.32.02-.47.04.06-.26.09-.53.09-.81,0-.33-.05-.66-.13-.96,1.62-.08,2.9-1.41,2.9-3.05,0-1.69-1.37-3.06-3.06-3.06-.19,0-.38.02-.56.05.05-.26.08-.54.08-.82,0-.07,0-.14-.01-.21.8-.08,1.51-.42,2.07-.93-.1.23-.15.49-.15.76,0,1.11.9,2.01,2.01,2.01,1.11,0,2.01-.9,2.01-2.01,0-1.11-.9-2.01-2.01-2.01-.43,0-.82.13-1.15.36.3-.53.48-1.14.48-1.79,0-.67-.19-1.3-.5-1.84.1.01.21.02.31.02,1.27,0,2.29-1.03,2.29-2.29,0-1.27-1.03-2.29-2.29-2.29-.13,0-.26.01-.39.03.12-.37.19-.77.19-1.18,0-.66-.18-1.29-.48-1.83.06,0,.13,0,.19,0,1.32,0,2.39-1.07,2.39-2.39,0-1.32-1.07-2.39-2.39-2.39-.18,0-.36.02-.53.06.15-.41.24-.84.24-1.3,0-.66-.18-1.29-.48-1.83.06,0,.13,0,.19,0,1.21,0,2.2-.98,2.2-2.2,0-1.21-.98-2.2-2.2-2.2-1.21,0-2.2.98-2.2,2.2,0,.18.02.36.07.53-.41-.15-.85-.24-1.31-.24-.1,0-.2,0-.31.02-.05-.48-.19-.94-.4-1.36,1.29-.03,2.33-1.09,2.33-2.39,0-1.32-1.07-2.39-2.39-2.39s-2.39,1.07-2.39,2.39c0,.14.01.28.04.42-.32-.09-.65-.14-1-.14-.74,0-1.43.21-2.02.58,0-.07,0-.13,0-.2,0-1.27-1.03-2.29-2.29-2.29-1.27,0-2.29,1.03-2.29,2.29,0,1.27,1.03,2.29,2.29,2.29.24,0,.47-.04.69-.11-.14.39-.21.81-.21,1.25,0,.4.06.79.18,1.15-.03,0-.05,0-.08,0-1.74,0-3.15,1.41-3.15,3.15,0,.82.31,1.56.82,2.12-.33-.19-.7-.3-1.11-.3-1.21,0-2.2.98-2.2,2.2,0,1.21.98,2.2,2.2,2.2.26,0,.51-.05.74-.13-.17.43-.26.89-.26,1.37,0,.59.14,1.14.38,1.63-.03,0-.06,0-.09,0-1.32,0-2.39,1.07-2.39,2.39,0,1.32,1.07,2.39,2.39,2.39.11,0,.22-.01.33-.03-.15.4-.23.82-.23,1.27,0,.58.14,1.14.39,1.63,0,0,0,0,0,0-1.43,0-2.58,1.16-2.58,2.58,0,1.43,1.16,2.58,2.58,2.58.18,0,.35-.02.52-.05-.09.32-.14.66-.14,1.01,0,.14,0,.27.02.4-.45.04-.88.17-1.27.35,0-.06,0-.12,0-.18,0-1.37-1.11-2.49-2.49-2.48-1.37,0-2.49,1.11-2.49,2.49,0,.63.24,1.2.62,1.64-.45-.31-.99-.5-1.58-.5-1.53,0-2.77,1.24-2.77,2.77,0,.2.02.39.06.57-.27-.06-.54-.09-.82-.09s-.56.03-.83.09c-.16-1.66-1.57-2.96-3.27-2.96-.59,0-1.14.16-1.62.43.06-.22.09-.44.09-.68,0-1.45-1.17-2.62-2.62-2.62s-2.62,1.17-2.62,2.62c0,.11,0,.23.02.34-.26-.06-.54-.09-.82-.09-.43,0-.84.07-1.23.2-.03-1.52-1.27-2.74-2.79-2.74-1.54,0-2.8,1.25-2.8,2.8,0,.23.03.45.08.67-.35-.11-.72-.16-1.1-.16-.51,0-.99.1-1.43.28-.07-1.33-1.17-2.38-2.52-2.38-1.39,0-2.52,1.13-2.52,2.52,0,.49.14.95.38,1.33-.36-.14-.76-.22-1.17-.22-1.76,0-3.19,1.43-3.19,3.19,0,.1,0,.2.02.3-.18-.03-.37-.05-.56-.05-.81,0-1.56.28-2.16.74.05-.17.08-.35.08-.54,0-1.05-.85-1.91-1.91-1.91-1.05,0-1.91.85-1.91,1.91s.85,1.91,1.91,1.91c.3,0,.59-.07.85-.2-.26.49-.4,1.04-.4,1.63,0,.37.06.72.16,1.05-1.76,0-3.19,1.43-3.19,3.19,0,.37.06.72.18,1.04-.13-.02-.26-.03-.4-.03-1.69,0-3.06,1.37-3.06,3.06,0,.81.32,1.55.83,2.09-.38-.25-.83-.39-1.31-.39-1.32,0-2.39,1.07-2.39,2.39,0,1.32,1.07,2.39,2.39,2.39.16,0,.31-.02.46-.04-.11.35-.17.73-.17,1.12,0,.51.1,1,.29,1.45-1.41.13-2.52,1.31-2.52,2.76,0,1.53,1.24,2.77,2.77,2.77.12,0,.24-.01.36-.03-.05.25-.08.51-.08.77,0,.44.08.86.21,1.25-1.5.09-2.69,1.33-2.69,2.86,0,1.58,1.28,2.86,2.85,2.87-.03.19-.05.39-.05.59,0,.56.12,1.1.33,1.58-1.26.09-2.25,1.14-2.25,2.41,0,1.34,1.08,2.42,2.42,2.42.44,0,.86-.12,1.21-.33-.25.47-.39.99-.39,1.56,0,1.85,1.5,3.35,3.35,3.35.24,0,.48-.03.7-.08-.02.15-.03.3-.03.46,0,.65.19,1.26.5,1.78-.15-.04-.31-.06-.47-.06-1.08,0-1.95.87-1.95,1.95,0,1.08.87,1.95,1.95,1.95,1.08,0,1.95-.87,1.95-1.95,0-.21-.03-.42-.1-.61.47.24,1,.38,1.56.38.25,0,.48-.03.72-.08,0,0,0,.01,0,.02,0,.86.31,1.65.83,2.26-.23-.1-.48-.15-.74-.15-1.07,0-1.94.87-1.94,1.94,0,1.07.87,1.94,1.94,1.94,1.07,0,1.94-.87,1.94-1.94,0-.38-.11-.74-.3-1.04.52.31,1.13.49,1.78.49.44,0,.85-.08,1.24-.23.03,1.61,1.34,2.91,2.96,2.91,1.64,0,2.96-1.33,2.96-2.96,0-.12,0-.24-.02-.35.22.04.46.07.69.07.07,0,.13,0,.2-.01.03.53.16,1.03.38,1.49-1.27.01-2.3,1.05-2.3,2.33,0,1.29,1.04,2.33,2.33,2.33,1.29,0,2.33-1.04,2.33-2.33,0-.11-.01-.23-.03-.34.35.11.72.16,1.11.16.47,0,.93-.09,1.35-.25.08,1.37,1.21,2.46,2.61,2.46,1.44,0,2.61-1.17,2.61-2.61,0-.16-.02-.32-.05-.48.3.07.61.12.94.12.62,0,1.2-.15,1.72-.4,0,1.34,1.08,2.42,2.42,2.42,1.34,0,2.42-1.08,2.42-2.42,0-.38-.09-.73-.24-1.05.4.19.85.3,1.32.3,1.69,0,3.06-1.37,3.06-3.06,0-.22-.02-.43-.07-.63.21.04.42.06.64.06.27,0,.52-.03.78-.08.11,1.64,1.47,2.95,3.14,2.95.78,0,1.48-.28,2.03-.75-.14.3-.22.63-.22.98,0,1.29,1.05,2.34,2.34,2.34,1.29,0,2.34-1.05,2.34-2.34,0-.15-.02-.29-.04-.43.37.12.77.19,1.18.19.75,0,1.44-.22,2.02-.6,0,.06,0,.11,0,.17,0,1.24,1.01,2.25,2.25,2.25,1.24,0,2.25-1.01,2.25-2.25,0-1.24-1.01-2.25-2.25-2.25-.25,0-.49.04-.72.12.12-.37.19-.76.19-1.17,0-.23-.02-.45-.06-.67.65,0,1.27-.17,1.8-.47,0,.08-.01.15-.01.23,0,1.24,1.01,2.25,2.25,2.25,1.24,0,2.25-1.01,2.25-2.25,0-1.24-1.01-2.25-2.25-2.25ZM509.6,94.1s0,.09,0,.14c-.1-.02-.2-.03-.3-.04.1-.03.19-.07.29-.11ZM507.76,94.36s.08,0,.12,0c-.04.01-.08.03-.12.05,0-.02,0-.03,0-.05ZM497.36,55.57c.16,0,.32-.02.48-.05-.12.38-.19.78-.19,1.19,0,.08,0,.16.01.24-.34.05-.67.14-.98.28,0-.08.01-.15.01-.23,0-.72-.27-1.36-.72-1.86.4.27.87.42,1.39.42ZM490.38,65.13c.21,0,.41-.02.61-.05-.02.14-.03.29-.03.44,0,.41.08.79.23,1.15-.01,0-.02,0-.03,0-1.27,0-2.29,1.03-2.29,2.29,0,1.27,1.03,2.29,2.29,2.29s2.29-1.03,2.29-2.29c0-.15-.02-.3-.04-.44.2.04.41.06.62.06.34,0,.67-.06.98-.16-.01.12-.02.23-.02.35,0,.48.11.93.29,1.34-.03,0-.07,0-.1,0-1.27,0-2.29,1.03-2.29,2.29,0,1.27,1.03,2.29,2.29,2.29s2.29-1.03,2.29-2.29c0-.17-.02-.33-.05-.49.26.07.54.11.82.11.34,0,.66-.05.96-.15,0,.05,0,.1,0,.15,0,.4.08.79.21,1.15,0,0-.01,0-.02,0-1.48,0-2.68,1.2-2.68,2.68,0,1.48,1.2,2.68,2.68,2.68.15,0,.29-.02.44-.04-.03.2-.05.4-.05.61,0,.75.22,1.44.59,2.03-.1-.01-.2-.02-.3-.02-1.32,0-2.39,1.07-2.39,2.39,0,1.32,1.07,2.39,2.39,2.39.2,0,.4-.03.58-.07-.19.33-.3.72-.3,1.13,0,.5.16.96.44,1.34-1.51.02-2.73,1.25-2.73,2.77,0,1.53,1.24,2.77,2.77,2.77.1,0,.2,0,.3-.02,0,.1-.02.2-.02.3,0,.38.07.75.19,1.09-.15-.02-.31-.04-.47-.04-.52,0-1.01.13-1.45.35,0-.08.01-.17.01-.26,0-1.32-1.07-2.39-2.39-2.39s-2.39,1.07-2.39,2.39c0,1.32,1.07,2.39,2.39,2.39.27,0,.53-.05.78-.13-.07.26-.11.52-.11.8,0,.31.05.61.13.89-.14-.02-.27-.03-.42-.03-.42,0-.81.08-1.18.23h0c0-1.39-1.13-2.52-2.52-2.52-1.39,0-2.52,1.13-2.52,2.52,0,1.39,1.13,2.52,2.52,2.52.2,0,.39-.03.58-.07-.02.16-.04.31-.04.48,0,.3.05.6.13.87-.45.03-.88.14-1.27.31,0-.01,0-.02,0-.03,0-1.53-1.24-2.77-2.77-2.77s-2.77,1.24-2.77,2.77c0,.04,0,.08,0,.12-.13-.01-.26-.02-.39-.02-.78,0-1.5.23-2.11.63,0-.03,0-.05,0-.08,0-1.3-1.06-2.36-2.36-2.36-1.3,0-2.36,1.06-2.36,2.36,0,.2.03.39.07.57-.27-.06-.55-.09-.84-.09-.52,0-1.01.1-1.46.29-.08-1.59-1.39-2.85-2.99-2.85-.74,0-1.42.27-1.94.72.26-.4.41-.88.41-1.39,0-1.43-1.16-2.58-2.58-2.58-1.43,0-2.58,1.16-2.58,2.58,0,.15.02.3.04.44-.31-.09-.63-.14-.96-.15-.05-.41-.17-.8-.34-1.17,1.35-.13,2.41-1.27,2.41-2.66,0-1.48-1.2-2.68-2.68-2.68-.49,0-.94.13-1.34.36.12-.33.19-.68.19-1.05,0-1.67-1.35-3.03-3.03-3.03-.11,0-.21,0-.32.02.06-.26.09-.53.09-.81,0-.43-.08-.85-.21-1.23,1.4-.09,2.51-1.25,2.51-2.67,0-1.48-1.2-2.68-2.68-2.68-.24,0-.46.03-.68.09.07-.27.11-.56.11-.85,0-.24-.02-.47-.07-.69,1.84-.03,3.33-1.53,3.33-3.38,0-.54-.13-1.06-.36-1.51.15.03.29.04.45.04,1.43,0,2.58-1.16,2.58-2.58,0-1.42-1.15-2.58-2.57-2.58.1-.34.16-.7.16-1.07,0-.11,0-.23-.02-.34.25-.05.49-.13.72-.23.12,1.29,1.2,2.29,2.51,2.29,1.39,0,2.52-1.13,2.52-2.52,0-.58-.19-1.1-.52-1.53.45.33,1,.53,1.6.53,1.48,0,2.68-1.2,2.68-2.68,0-.24-.03-.46-.09-.68.27.07.56.11.85.11.63,0,1.21-.16,1.73-.44,0,.04,0,.09,0,.13,0,1.34,1.08,2.42,2.42,2.42,1.34,0,2.42-1.08,2.42-2.42,0-.24-.04-.47-.1-.69.4.15.83.24,1.28.24.59,0,1.14-.14,1.64-.39,0,.07-.01.13-.01.2,0,1.37,1.11,2.49,2.49,2.49s2.49-1.11,2.49-2.49c0-.16-.02-.32-.05-.47.26.06.53.09.81.09ZM490.82,106.38c-.02-.06-.03-.13-.05-.19.03,0,.06,0,.09-.02-.01.07-.03.14-.04.21ZM479.64,113.05c.04.1.08.2.13.3-.06,0-.12,0-.18,0,.02-.1.04-.21.05-.31ZM469.19,66.65c-.02.13-.03.26-.03.39,0,.62.21,1.19.56,1.64-.42-.31-.93-.49-1.49-.49-.15,0-.31.02-.45.04.03-.17.04-.34.04-.52,0-.23-.02-.46-.07-.68.51-.03,1-.16,1.44-.38ZM486.56,61.26s-.01-.06-.02-.09c0,0,.02,0,.03,0,0,.03,0,.06,0,.09ZM466.93,58.33c.08,0,.16,0,.23-.01-.07.29-.11.58-.11.89,0,.14,0,.28.02.41-.1.01-.2.03-.3.05-.07-.54-.28-1.03-.59-1.45.23.07.48.11.74.11ZM471.84,105.09c-.25,0-.49.03-.72.07-.03-.43-.12-.84-.28-1.22.05,0,.1,0,.15,0,.61,0,1.18-.22,1.62-.57-.32.48-.5,1.05-.5,1.66,0,.02,0,.05,0,.07-.09,0-.17-.01-.26-.01ZM490.96,108.33s-.08,0-.13,0c.03-.11.05-.23.07-.34.03.12.07.23.11.34-.02,0-.04,0-.06,0Z"/><path class="cls-2" d="M489.62,96.48c.32,0,.57-.26.57-.57,0-.32-.26-.57-.57-.57-.32,0-.57.26-.57.57,0,.32.26.57.57.57Z"/><path class="cls-2" d="M493.25,92.28c.32,0,.57-.26.57-.57,0-.32-.26-.57-.57-.57-.32,0-.57.26-.57.57,0,.32.26.57.57.57Z"/><path class="cls-2" d="M447.98,102.36c-.55,0-.99.44-.99.99,0,.55.44.99.99.99.55,0,.99-.44.99-.99,0-.55-.44-.99-.99-.99Z"/><path class="cls-2" d="M452.37,105.28c-.87,0-1.57.7-1.57,1.57,0,.87.7,1.57,1.57,1.57s1.57-.7,1.57-1.57c0-.87-.7-1.57-1.57-1.57Z"/><path class="cls-2" d="M464.61,115.93c-.76,0-1.37.61-1.37,1.37,0,.76.61,1.37,1.37,1.37.76,0,1.37-.61,1.37-1.37,0-.76-.61-1.37-1.37-1.37Z"/><path class="cls-2" d="M557.29,124.2c-.21,0-.38.17-.38.38s.17.38.38.38.38-.17.38-.38-.17-.38-.38-.38Z"/><path class="cls-2" d="M563.6,108.33c-.21,0-.38.17-.38.38,0,.21.17.38.38.38s.38-.17.38-.38c0-.21-.17-.38-.38-.38Z"/><path class="cls-2" d="M570,92.08c-.26,0-.48.21-.48.48s.21.48.48.48.48-.21.48-.48-.21-.48-.48-.48Z"/><path class="cls-2" d="M576.22,76.4c-.21,0-.38.17-.38.38,0,.21.17.38.38.38.21,0,.38-.17.38-.38,0-.21-.17-.38-.38-.38Z"/><path class="cls-2" d="M577.55,50.21c.21,0,.38-.17.38-.38,0-.21-.17-.38-.38-.38-.21,0-.38.17-.38.38,0,.21.17.38.38.38Z"/></svg>