<?xml version="1.0" encoding="UTF-8"?><svg id="Layer_1" xmlns="http://www.w3.org/2000/svg" viewBox="0 0 250.87 167.82"><defs><style>.cls-1{fill:#231f20;}</style></defs><path class="cls-1" d="M140.18,124.32l17.45,34.15c2.18,4.27-.92,9.34-5.72,9.34h-46.65c-2.45,0-4.69-1.39-5.77-3.6l-15.74-32.12c-1.08-2.2-3.31-3.6-5.77-3.6h-19.95c-3.55,0-6.42,2.87-6.42,6.42v26.48c0,3.55-2.87,6.42-6.42,6.42H6.42c-3.55,0-6.42-2.87-6.42-6.42V6.42C0,2.87,2.87,0,6.42,0h102.77c31.57,0,53.21,26.85,53.21,64.25,0,22.3-7.77,41.02-20.73,52.32-2.08,1.81-2.74,5.3-1.49,7.75ZM51.62,69.34c0,3.55,2.87,6.42,6.42,6.42h41.23c5.16,0,11.52,0,11.52-11.51s-6.36-11.51-11.52-11.51h-41.23c-3.55,0-6.42,2.87-6.42,6.42v10.17Z"/><path class="cls-1" d="M207.2,79.58c-24.08,0-43.66,19.59-43.66,43.66s19.59,43.66,43.66,43.66,43.66-19.59,43.66-43.66-19.59-43.66-43.66-43.66ZM207.2,158.32c-19.34,0-35.07-15.73-35.07-35.07s15.73-35.07,35.07-35.07,35.07,15.73,35.07,35.07-15.73,35.07-35.07,35.07Z"/><path class="cls-1" d="M194.6,104.2h20.12c9.64,0,14.85,4.67,13.21,13.15-1.09,5.45-4.85,7.75-10.36,8.96l-.73.12c10.48,1.88,3.27,14.59,5.64,15.32l.18.55-11.03-.18c-1.82-1.82,4.79-10.84-4.48-10.84h-7.09l-2.97,11.02h-10.91l8.42-38.1ZM201.75,123.53h7.09c4.36,0,7.33-1.82,8.12-5.76.61-3.33-1.09-4.67-5.45-4.67h-7.7l-2.06,10.42Z"/></svg>