<svg width="280" height="428" viewBox="0 0 280 428" fill="none" xmlns="http://www.w3.org/2000/svg">
<path opacity="0.19" d="M248.92 375.865C259.181 381.673 269.837 387.833 275.637 396.924C281.436 406.014 280.512 418.906 270.242 424.714C260.615 430.161 247.301 427.354 237.163 422.576C208.255 408.962 191.148 382.175 162.169 368.658C141.859 359.181 117.888 357.209 95.2102 352.686C77.795 349.219 60.855 344.159 44.7862 337.629C24.3878 329.34 3.55823 316.307 0.935825 297.669C0.469425 294.36 0.663027 290.866 2.54623 287.927C6.38303 281.925 15.5966 280.13 23.7014 278.977C52.0638 274.929 84.5974 271.744 106.597 287.056C115.811 293.471 121.839 302.377 128.879 310.446C142.369 325.908 158.429 337.955 180.104 344.414C205.439 351.973 226.691 363.281 248.92 375.865Z" fill="black"/>
<path d="M73.8963 218.804C75.7883 217.255 74.6707 210.787 74.0723 208.824C72.7523 204.53 63.9523 198.775 56.3843 201.635C44.8827 205.982 44.6539 210.593 40.2715 219.182C35.8891 227.771 31.9115 227.692 26.7635 236.694C25.0475 239.695 24.0091 257.321 37.8339 255.236C51.6587 253.15 61.9635 228.765 61.9635 228.765L73.8963 218.804Z" fill="#FFC8DB" stroke="black" stroke-width="2.52138" stroke-miterlimit="10" stroke-linecap="round" stroke-linejoin="round"/>
<path d="M78.1908 220.783C78.1908 220.783 75.2692 217.263 72.2684 212.713C69.2588 208.164 63.2484 208.102 58.7868 210.02C54.3252 211.939 49.5644 216.805 44.1612 224.681C39.2596 231.836 28.3652 236.13 29.7644 246.98C30.5476 253.044 33.7508 255.208 37.834 255.252C41.9172 255.296 44.214 252.683 47.4524 250.298L68.0444 235.188L78.1908 220.783Z" fill="white" stroke="black" stroke-width="2.52138" stroke-miterlimit="10" stroke-linecap="round" stroke-linejoin="round"/>
<path d="M220.619 363.722C218.762 361.671 213.64 363.044 211.687 365.094C210.252 366.599 208.88 375.065 209.575 377.467C213.121 389.831 225.969 385.422 230.079 393.545C242.689 418.422 281.937 413.239 274.29 395.041C269.485 386.971 258.459 384.41 240.656 379.526L220.619 363.722Z" fill="#FFC8DB" stroke="black" stroke-width="2.52138" stroke-miterlimit="10" stroke-linecap="round" stroke-linejoin="round"/>
<path d="M215.673 360.553C215.673 360.553 213.887 366.458 214.248 369.3C214.608 372.143 217.301 377.124 222.432 379.429C243.358 388.731 230.167 393.659 247.336 402.978C254.103 407.378 268.887 406.692 273.111 398.754C275.513 394.803 270.876 389.136 265.684 385.017C252.668 375.742 249.817 362.252 241.871 350.671L222.564 351.586C220.416 352.246 216.615 356.171 215.673 360.553Z" fill="white" stroke="black" stroke-width="2.52138" stroke-miterlimit="10" stroke-linecap="round" stroke-linejoin="round"/>
<path d="M212.69 180.822L266.361 254.293L243.631 363.915C236.327 371.615 223.822 364.839 221.288 359.471L227.703 269.79C227.703 269.79 195.741 240.952 187.9 232.988C178.643 223.581 154.443 208.225 169.429 176.589C191.684 171.643 212.69 180.822 212.69 180.822Z" fill="#FFD100" stroke="black" stroke-width="2.52138" stroke-miterlimit="10" stroke-linecap="round" stroke-linejoin="round"/>
<path d="M213.676 183.154C219.73 190.476 230.827 202.945 230.827 202.945C212.681 207.231 191.526 233.297 191.077 237.424C185.472 231.484 183.817 222.129 183.817 222.129L194.087 186.085L213.676 183.154Z" fill="white" stroke="black" stroke-width="2.52138" stroke-miterlimit="10" stroke-linecap="round" stroke-linejoin="round"/>
<path d="M125.333 247.227L75.5157 217.826L70.5173 218.521C65.4573 219.234 61.7525 223.661 61.9549 228.765L62.1221 232.945L122.147 294.316L138.066 286.281C165.144 270.107 198.469 231.264 203.081 180.365L153.897 175.199L118.469 264.537" fill="#FFD100"/>
<path d="M125.333 247.227L75.5157 217.826L70.5173 218.521C65.4573 219.234 61.7525 223.661 61.9549 228.765L62.1221 232.945L122.147 294.316L138.066 286.281C165.144 270.107 198.469 231.264 203.081 180.365L153.897 175.199L118.469 264.537" stroke="black" stroke-width="2.52138" stroke-miterlimit="10" stroke-linecap="round" stroke-linejoin="round"/>
<path d="M136.315 214.059C148.687 229.01 175.598 239.799 185.031 239.57C187.9 233.005 202.887 206.579 203.089 186.788C185.146 185.142 149.066 184.024 149.066 184.024C140.275 199.644 136.315 214.059 136.315 214.059Z" fill="white" stroke="black" stroke-width="2.52138" stroke-miterlimit="10" stroke-linecap="round" stroke-linejoin="round"/>
<path d="M220.698 89.5832C228.169 101.129 221.164 108.213 221.164 108.213L186.651 131.806L206.855 153.92L219.175 152.512L226.708 155.566L229.727 162.465L213.684 177.39L158.464 137.957L182.048 95.5408C182.048 95.532 213.227 78.0376 220.698 89.5832Z" fill="#FFD100" stroke="black" stroke-width="2.52138" stroke-miterlimit="10" stroke-linecap="round" stroke-linejoin="round"/>
<path d="M184.064 82.8601L167.828 86.7409C157.743 90.0145 159.01 99.6505 161.659 109.911C165.381 124.361 165.038 142.436 164.651 147.17C163.991 155.214 149.066 184.016 149.066 184.016C161.536 194.664 194.017 196.97 216.976 183.981C216.976 175.137 210.033 163.521 211.986 154.298C214.556 142.154 216.835 135.387 219.704 125.866C224.72 109.207 213.852 88.4305 210.499 84.2681C206.565 82.1297 184.064 82.8601 184.064 82.8601Z" fill="#89D8FF" stroke="black" stroke-width="2.52138" stroke-miterlimit="10" stroke-linecap="round" stroke-linejoin="round"/>
<path d="M189.115 67.2581L184.064 82.8605C190.875 91.0093 199.473 103.259 205.641 102.238C211.819 101.208 202.896 72.7405 202.896 72.7405L189.115 67.2581Z" fill="#FFD100" stroke="black" stroke-width="2.52138" stroke-miterlimit="10" stroke-linecap="round" stroke-linejoin="round"/>
<path d="M227.835 49.4203C227.527 42.0723 225.934 32.8322 220.285 27.5874C214.697 22.4042 205.105 21.8938 197.853 22.3954C186.607 23.1786 178.696 35.613 180.685 50.001C182.524 63.2802 191.394 83.7491 206.205 86.5211C213.746 87.9379 219.589 82.2795 223.039 75.0283C227.131 66.4483 228.09 55.4835 227.835 49.4203Z" fill="#FFD100" stroke="black" stroke-width="2.52138" stroke-miterlimit="10" stroke-linecap="round" stroke-linejoin="round"/>
<path d="M199.869 172.304L266.467 141.82L267.822 141.204L270.946 139.779L272.249 128.761L258.204 117.427L244.907 122.012L242.214 135.564L206.953 142.208C206.953 142.208 184.169 95.6292 180.403 92.206C178.062 90.0852 175.774 88.6244 173.592 87.6476C164.299 83.5204 154.584 93.0947 158.157 102.616C161.386 111.223 165.637 118.527 168.84 123.402C173.504 130.495 199.869 172.304 199.869 172.304Z" fill="#FFD100" stroke="black" stroke-width="2.52138" stroke-miterlimit="10" stroke-linecap="round" stroke-linejoin="round"/>
<path d="M179.488 5.98368C171.506 2.03248 155.138 -4.16274 148.274 13.5341C141.41 31.2309 133.605 33.9325 126.565 31.2925C119.525 28.6525 120.026 17.5733 120.026 17.5733C120.026 17.5733 109.405 26.9805 118.416 42.0197C115.802 58.8189 141.129 57.4373 146.725 48.2941C163.129 58.8189 160.955 25.1853 169.57 27.2005C177.745 29.1189 188.182 32.3485 190.752 23.0381C193.33 13.7277 184.433 8.43887 179.488 5.98368Z" fill="#404041" stroke="black" stroke-width="2.52138" stroke-miterlimit="10" stroke-linecap="round" stroke-linejoin="round"/>
<path d="M186.897 21.1906C197.334 12.7426 210.516 13.781 217.688 19.6154C227.958 20.073 232.965 26.1802 227.958 36.4762C221.402 44.845 204.4 52.2898 194.923 50.961C193.057 56.9626 190.796 72.0194 185.313 71.6586C174.34 49.0338 170.116 34.769 186.897 21.1906Z" fill="#404041" stroke="black" stroke-width="2.52138" stroke-miterlimit="10" stroke-linecap="round" stroke-linejoin="round"/>
<path d="M229.525 32.1373C229.604 31.7941 231.76 32.5333 231.821 36.4405C231.909 41.8085 229.912 45.0997 227.941 48.6989C227.448 49.5877 218.56 54.9645 201.004 56.7333C192.072 57.6309 178.784 56.2757 178.784 56.2757C178.784 56.2757 175.941 52.8613 175.299 50.2829C174.657 47.7045 175.563 43.4365 175.563 43.4365C175.563 43.4365 175.563 44.7565 183.509 45.1085C191.465 45.4693 209.707 42.5741 215.7 40.6381C219.185 39.5205 224.5 39.1597 227.325 37.1005C229.032 33.8797 229.525 32.1373 229.525 32.1373Z" fill="#89D8FF" stroke="black" stroke-width="2.52138" stroke-miterlimit="10" stroke-linecap="round" stroke-linejoin="round"/>
<path d="M194.096 58.924C194.096 58.924 188.05 53.556 184.856 58.1936C181.424 63.1568 191.579 70.628 191.579 70.628" fill="#FFD100"/>
<path d="M194.096 58.924C194.096 58.924 188.05 53.556 184.856 58.1936C181.424 63.1568 191.579 70.628 191.579 70.628" stroke="black" stroke-width="2.52138" stroke-miterlimit="10" stroke-linecap="round" stroke-linejoin="round"/>
<path d="M224.658 62.752C225.659 62.752 226.471 61.5976 226.471 60.1736C226.471 58.7496 225.659 57.5952 224.658 57.5952C223.657 57.5952 222.845 58.7496 222.845 60.1736C222.845 61.5976 223.657 62.752 224.658 62.752Z" fill="#020202"/>
<path d="M209.285 63.712C210.286 63.712 211.097 62.5576 211.097 61.1336C211.097 59.7096 210.286 58.5552 209.285 58.5552C208.283 58.5552 207.472 59.7096 207.472 61.1336C207.472 62.5576 208.283 63.712 209.285 63.712Z" fill="#020202"/>
<path d="M209.284 71.271C212.857 75.7854 220.716 76.9646 224.473 68.9038" stroke="black" stroke-width="2.52138" stroke-miterlimit="10" stroke-linecap="round" stroke-linejoin="round"/>
<path d="M262.252 121.642L252.246 124.959" stroke="black" stroke-width="2.52138" stroke-miterlimit="10" stroke-linecap="round" stroke-linejoin="round"/>
<path d="M267.945 125.285L257.843 130.679" stroke="black" stroke-width="2.52138" stroke-miterlimit="10" stroke-linecap="round" stroke-linejoin="round"/>
<path d="M265.631 134.886L263.994 142.955" stroke="black" stroke-width="2.52138" stroke-miterlimit="10" stroke-linecap="round" stroke-linejoin="round"/>
<path opacity="0.19" d="M169.702 157.475C174.965 162.051 189.775 170.059 198.188 169.646C184.645 148.209 164.325 116.951 164.325 116.951C164.325 116.951 164.765 147.866 164.325 150.497C164.061 152.063 169.702 157.475 169.702 157.475Z" fill="black"/>
<path opacity="0.19" d="M186.695 76.9295C187.839 80.0799 199.692 96.7383 207.19 95.7615C210.507 91.8103 212.171 86.7415 212.171 86.7415C206.679 87.5511 193.057 81.7343 187.847 72.7495C187.205 74.4743 186.695 76.9295 186.695 76.9295Z" fill="black"/>
<path opacity="0.19" d="M169.579 27.2007C176.284 26.8311 160.594 19.7471 155.895 25.1239C151.204 30.5007 140.864 45.3287 132.54 46.5343C125.816 47.5023 118.46 41.4655 118.46 41.4655C115.802 54.9647 133.279 58.9423 145.335 50.0455C146.743 48.2855 148.837 49.4383 150.94 50.1599C153.044 50.8815 158.148 48.7431 161.148 40.7703C164.14 32.7975 165.46 27.4295 169.579 27.2007Z" fill="black"/>
<path opacity="0.19" d="M198.091 210.285C202.834 216.771 237.867 250.66 238.096 260.049C238.325 269.439 228.328 365.658 228.328 365.658C224.227 363.555 221.385 360.809 221.191 356.691L227.694 269.791L191.077 237.416L187.892 232.989L198.091 210.285Z" fill="black"/>
<path opacity="0.19" d="M92.2267 227.69C92.7019 234.757 107.398 256.502 120.316 259.881C123.115 252.823 124.399 246.681 124.399 246.681L92.2267 227.69Z" fill="black"/>
<path opacity="0.19" d="M147.315 189.244C147.315 189.244 160.101 200.112 180.975 198.686C201.848 197.261 217.653 187.853 217.653 187.853L214.819 185.143C189.748 196.917 168.514 193.908 149.066 184.017L147.315 189.244Z" fill="black"/>
<path opacity="0.19" d="M61.9548 226.45C71.0716 226.45 99.0204 270.661 99.0204 270.661L63.8996 234.757L61.9548 226.45Z" fill="black"/>
<path opacity="0.19" d="M169.702 124.73L199.868 172.303L266.467 141.82C266.467 141.82 212.76 163.424 203.45 159.992C194.139 156.56 169.702 124.73 169.702 124.73Z" fill="black"/>
<path opacity="0.19" d="M223.901 363.659C224.359 365.49 235.007 382.667 233.977 387.015C232.948 391.362 231.918 395.603 231.918 395.603C231.918 395.603 226.427 388.731 222.185 388.273C220.223 388.062 210.737 384.612 209.821 379.112C208.906 373.621 209.716 364.513 212.655 364.099C216.307 363.58 219.264 352.862 220.98 352.976C221.781 356.188 223.901 363.659 223.901 363.659Z" fill="black"/>
</svg>
