<svg xmlns="http://www.w3.org/2000/svg" xmlns:xlink="http://www.w3.org/1999/xlink" width="1218" height="1218" viewBox="0 0 1218 1218">
  <defs>
    <clipPath id="clip-path">
      <rect id="Rectangle_1225" data-name="Rectangle 1225" width="1218" height="1218" transform="translate(14405 13578)" fill="#fff" stroke="#707070" stroke-width="1"/>
    </clipPath>
    <clipPath id="clip-path-2">
      <rect id="Rectangle_1195" data-name="Rectangle 1195" width="12.478" height="19.937" fill="none"/>
    </clipPath>
    <clipPath id="clip-path-3">
      <rect id="Rectangle_1196" data-name="Rectangle 1196" width="314.411" height="171.682" fill="none"/>
    </clipPath>
    <clipPath id="clip-path-4">
      <rect id="Rectangle_1197" data-name="Rectangle 1197" width="11.092" height="6.049" fill="none"/>
    </clipPath>
    <clipPath id="clip-path-5">
      <rect id="Rectangle_1198" data-name="Rectangle 1198" width="19.23" height="30.396" fill="none"/>
    </clipPath>
    <clipPath id="clip-path-6">
      <rect id="Rectangle_1199" data-name="Rectangle 1199" width="37.04" height="47.609" fill="none"/>
    </clipPath>
    <clipPath id="clip-path-7">
      <rect id="Rectangle_1200" data-name="Rectangle 1200" width="51.682" height="59.329" fill="none"/>
    </clipPath>
    <clipPath id="clip-path-8">
      <rect id="Rectangle_1201" data-name="Rectangle 1201" width="50.909" height="41.071" fill="none"/>
    </clipPath>
    <clipPath id="clip-path-9">
      <rect id="Rectangle_1202" data-name="Rectangle 1202" width="30.202" height="49.685" fill="none"/>
    </clipPath>
    <clipPath id="clip-path-10">
      <rect id="Rectangle_1203" data-name="Rectangle 1203" width="30.648" height="53.725" fill="none"/>
    </clipPath>
    <clipPath id="clip-path-11">
      <rect id="Rectangle_1204" data-name="Rectangle 1204" width="86.619" height="167.134" fill="none"/>
    </clipPath>
    <clipPath id="clip-path-12">
      <rect id="Rectangle_1205" data-name="Rectangle 1205" width="53.816" height="55.826" fill="none"/>
    </clipPath>
    <clipPath id="clip-path-13">
      <rect id="Rectangle_1206" data-name="Rectangle 1206" width="314.411" height="171.684" fill="none"/>
    </clipPath>
    <clipPath id="clip-path-14">
      <rect id="Rectangle_1207" data-name="Rectangle 1207" width="28.758" height="26.027" fill="none"/>
    </clipPath>
    <clipPath id="clip-path-15">
      <rect id="Rectangle_1208" data-name="Rectangle 1208" width="36.902" height="12.61" fill="none"/>
    </clipPath>
    <clipPath id="clip-path-16">
      <rect id="Rectangle_1209" data-name="Rectangle 1209" width="78.281" height="20.856" fill="none"/>
    </clipPath>
    <clipPath id="clip-path-17">
      <rect id="Rectangle_1210" data-name="Rectangle 1210" width="60.492" height="67.666" fill="none"/>
    </clipPath>
    <clipPath id="clip-path-18">
      <rect id="Rectangle_1211" data-name="Rectangle 1211" width="100.272" height="52.746" fill="none"/>
    </clipPath>
    <clipPath id="clip-path-19">
      <rect id="Rectangle_1212" data-name="Rectangle 1212" width="54.03" height="67.473" fill="none"/>
    </clipPath>
    <clipPath id="clip-path-20">
      <rect id="Rectangle_1213" data-name="Rectangle 1213" width="72.642" height="165.303" fill="none"/>
    </clipPath>
    <clipPath id="clip-path-21">
      <rect id="Rectangle_1214" data-name="Rectangle 1214" width="15.71" height="22.297" fill="none"/>
    </clipPath>
    <clipPath id="clip-path-22">
      <rect id="Rectangle_1215" data-name="Rectangle 1215" width="27.616" height="46.016" fill="none"/>
    </clipPath>
    <clipPath id="clip-path-23">
      <rect id="Rectangle_1216" data-name="Rectangle 1216" width="265.895" height="202.658" fill="none"/>
    </clipPath>
    <clipPath id="clip-path-24">
      <rect id="Rectangle_1217" data-name="Rectangle 1217" width="85.392" height="44.019" fill="none"/>
    </clipPath>
    <clipPath id="clip-path-25">
      <rect id="Rectangle_1218" data-name="Rectangle 1218" width="19.162" height="16.287" fill="none"/>
    </clipPath>
    <clipPath id="clip-path-26">
      <rect id="Rectangle_1219" data-name="Rectangle 1219" width="71.348" height="95.79" fill="none"/>
    </clipPath>
    <clipPath id="clip-path-27">
      <rect id="Rectangle_1220" data-name="Rectangle 1220" width="50.891" height="74.012" fill="none"/>
    </clipPath>
    <clipPath id="clip-path-28">
      <rect id="Rectangle_1221" data-name="Rectangle 1221" width="25.69" height="26.408" fill="none"/>
    </clipPath>
    <clipPath id="clip-path-29">
      <rect id="Rectangle_1222" data-name="Rectangle 1222" width="18.69" height="101.269" fill="none"/>
    </clipPath>
    <clipPath id="clip-path-30">
      <rect id="Rectangle_1223" data-name="Rectangle 1223" width="86.891" height="194.635" fill="none"/>
    </clipPath>
    <clipPath id="clip-path-31">
      <rect id="Rectangle_1224" data-name="Rectangle 1224" width="27.641" height="51.865" fill="none"/>
    </clipPath>
  </defs>
  <g id="Mask_Group_19" data-name="Mask Group 19" transform="translate(-14405 -13578)" clip-path="url(#clip-path)">
    <g id="Group_3451" data-name="Group 3451" transform="translate(-2486.725 -195.237)">
      <g id="Group_3362" data-name="Group 3362" transform="translate(17540.879 14110.752)" opacity="0.19">
        <g id="Group_3361" data-name="Group 3361" transform="translate(0 0)">
          <g id="Group_3360" data-name="Group 3360" clip-path="url(#clip-path-2)">
            <path id="Path_9216" data-name="Path 9216" d="M525.861,312.788c3.877-7.372,9.8-13.724,11.25-12.815s-8.282,20.51-11.048,19.834-.2-7.019-.2-7.019" transform="translate(-524.779 -299.886)"/>
          </g>
        </g>
      </g>
      <path id="Path_9217" data-name="Path 9217" d="M571.8,304.053c1.393-7.99,5.082-15.467,6.763-14.925s-1.463,21.652-4.34,21.635-2.423-6.711-2.423-6.711" transform="translate(17037.438 13805.968)" fill="#2ea748"/>
      <path id="Path_9218" data-name="Path 9218" d="M565.8,299.654c-2.409-7.813-2.472-15.922-.675-15.986s8.655,20.4,6,21.346-5.326-5.36-5.326-5.36" transform="translate(17033.852 13803.501)" fill="#2ea748"/>
      <path id="Path_9219" data-name="Path 9219" d="M548.712,318.372c-1.425-7.34-5.083-14.1-6.716-13.526s1.613,19.992,4.416,19.85,2.3-6.324,2.3-6.324" transform="translate(17023.717 13813.103)" fill="#2ea748"/>
      <path id="Path_9220" data-name="Path 9220" d="M786.757,496.92l2.706-.111,8.936,5.159-2.7.112Z" transform="translate(17135.063 13900.289)" fill="#63615f" fill-rule="evenodd"/>
      <path id="Path_9221" data-name="Path 9221" d="M800.294,502.046l-14.729,44.775-8.937-5.161,14.729-44.775Z" transform="translate(17130.463 13900.323)" fill="#878584" fill-rule="evenodd"/>
      <path id="Path_9222" data-name="Path 9222" d="M823.524,598.262l9.639-3.272-.119,53.277-9.719,5.646Z" transform="translate(17151.668 13944.872)" fill="#4f4d4a" fill-rule="evenodd"/>
      <path id="Path_9223" data-name="Path 9223" d="M816.589,596.7l9.716-5.646,9.917,5.726-9.716,5.648Z" transform="translate(17148.609 13943.084)" fill="#63615f" fill-rule="evenodd"/>
      <path id="Path_9224" data-name="Path 9224" d="M844.879,599.8l-.02,6.481L831.411,614.1l.015-6.484Z" transform="translate(17155.34 13947.059)" fill="#9a692b" fill-rule="evenodd"/>
      <g id="Group_3393" data-name="Group 3393" transform="translate(81 352.131)">
        <path id="Path_9225" data-name="Path 9225" d="M252.157,129.235a7.187,7.187,0,0,0-6.525,0c-1.8,1.044-1.787,2.737.02,3.779a7.2,7.2,0,0,0,6.527,0c1.8-1.044,1.786-2.737-.023-3.781" transform="translate(16888.73 13733.018)" fill="#9a9ca0" fill-rule="evenodd"/>
        <g id="Group_3365" data-name="Group 3365" transform="translate(16954.564 14144.535)" opacity="0.19">
          <g id="Group_3364" data-name="Group 3364" transform="translate(0 0)">
            <g id="Group_3363" data-name="Group 3363" clip-path="url(#clip-path-3)">
              <path id="Path_9226" data-name="Path 9226" d="M401.792,436.286c11.586,6.558,23.615,13.517,30.161,23.776s5.5,24.821-6.09,31.377c-10.872,6.149-25.9,2.979-37.346-2.412-32.642-15.374-51.956-45.611-84.671-60.877-22.927-10.7-50-12.931-75.6-18.029a314.478,314.478,0,0,1-56.934-17c-23.03-9.361-46.551-24.077-49.5-45.121-.523-3.733-.31-7.676,1.815-11,4.33-6.779,14.73-8.8,23.882-10.1,32.025-4.567,68.753-8.171,93.595,9.123,10.406,7.243,17.2,17.3,25.159,26.412,15.227,17.458,33.367,31.062,57.835,38.355,28.608,8.524,52.6,21.3,77.7,35.5" transform="translate(-121.564 -323.119)"/>
            </g>
          </g>
        </g>
        <path id="Path_9227" data-name="Path 9227" d="M195.042,341.311c1.681.518,6.786,5.752,6.786,7.432s3.465,8.626-2.392,13.055c-7.691,5.816-19.912,1.845-28.275-4.976s-11.825-7.952-17.644-10.567c-8.293-3.725-20.724-17.361-11.567-24.817,9.4-7.659,28.6,9.985,28.6,9.985Z" transform="translate(16840.795 13819.777)" fill="#fff"/>
        <path id="Path_9228" data-name="Path 9228" d="M195.042,341.311c1.681.518,6.786,5.752,6.786,7.432s3.465,8.626-2.392,13.055c-7.691,5.816-19.912,1.845-28.275-4.976s-11.825-7.952-17.644-10.567c-8.293-3.725-20.724-17.361-11.567-24.817,9.4-7.659,28.6,9.985,28.6,9.985Z" transform="translate(16840.795 13819.777)" fill="none" stroke="#000" stroke-linecap="round" stroke-linejoin="round" stroke-width="1.958"/>
        <path id="Path_9229" data-name="Path 9229" d="M182.6,325.424a41.469,41.469,0,0,1-9.565-2.263c-5.462-1.938-15.566-6.452-24.267-4.717s-10.26,8.271-2.617,16.609c7.6,8.3,17.262,8.383,27.725,15.286,10.584,6.983,21.327,6.786,24.138,2.811s2.908-10.954,2.908-10.954c-.968-6.786-3.312-7.82-9.678-10.106Z" transform="translate(16841.93 13819.116)" fill="#404041"/>
        <path id="Path_9230" data-name="Path 9230" d="M182.6,325.424a41.469,41.469,0,0,1-9.565-2.263c-5.462-1.938-15.566-6.452-24.267-4.717s-10.26,8.271-2.617,16.609c7.6,8.3,17.262,8.383,27.725,15.286,10.584,6.983,21.327,6.786,24.138,2.811s2.908-10.954,2.908-10.954c-.968-6.786-3.312-7.82-9.678-10.106Z" transform="translate(16841.93 13819.116)" fill="none" stroke="#000" stroke-linecap="round" stroke-linejoin="round" stroke-width="1.958"/>
        <path id="Path_9231" data-name="Path 9231" d="M233.344,192.577l66.07,28.429-4.486,31.75L281.9,254.35l-6.357,12.9,5.547-.455,3.414,12.267,20.417,1.182,19.312-71.627-77.072-40.065s-26.914-6.974-13.818,24.025" transform="translate(16882.127 13750.923)" fill="#37b550"/>
        <path id="Path_9232" data-name="Path 9232" d="M233.344,192.577l66.07,28.429-4.486,31.75L281.9,254.35l-6.357,12.9,5.547-.455,3.414,12.267,20.417,1.182,19.312-71.627-77.072-40.065S220.248,161.579,233.344,192.577Z" transform="translate(16882.127 13750.923)" fill="none" stroke="#000" stroke-linecap="round" stroke-linejoin="round" stroke-width="1.958"/>
        <path id="Path_9233" data-name="Path 9233" d="M296.121,238.369c10.967,9.319,18.979,30.805,15.778,42.8-4.137,15.5-27.2,23.661-27.2,23.661l-73.384,9.99-25.983,60.578a16.564,16.564,0,0,1-10.013,2.228,9.29,9.29,0,0,1-8.549-10.923l19.646-84.37,82.145-34.5Z" transform="translate(16853.461 13782.932)" fill="#6537bf"/>
        <path id="Path_9234" data-name="Path 9234" d="M296.121,238.369c10.967,9.319,18.979,30.805,15.778,42.8-4.137,15.5-27.2,23.661-27.2,23.661l-73.384,9.99-25.983,60.578a16.564,16.564,0,0,1-10.013,2.228,9.29,9.29,0,0,1-8.549-10.923l19.646-84.37,82.145-34.5Z" transform="translate(16853.461 13782.932)" fill="none" stroke="#000" stroke-linecap="round" stroke-linejoin="round" stroke-width="1.958"/>
        <path id="Path_9235" data-name="Path 9235" d="M218.155,252.441c-5.787,41.174,12.816,141.728,12.816,141.728l79.336,59.113,19.111-13.676-62.592-63.738,1.333-73.228c13.923-13.581,12.052-33.026-5.976-58.5-11.794-9.593-44.029,8.3-44.029,8.3" transform="translate(16876.355 13784.267)" fill="#6537bf"/>
        <path id="Path_9236" data-name="Path 9236" d="M218.155,252.441c-5.787,41.174,12.816,141.728,12.816,141.728l79.336,59.113,19.111-13.676-62.592-63.738,1.333-73.228c13.923-13.581,12.052-33.026-5.976-58.5C250.389,234.545,218.155,252.441,218.155,252.441Z" transform="translate(16876.355 13784.267)" fill="none" stroke="#000" stroke-linecap="round" stroke-linejoin="round" stroke-width="1.958"/>
        <path id="Path_9237" data-name="Path 9237" d="M240.625,149.505c-1.72-10.211-10.948-23.4-22.425-21.852-11.692,1.579-18.649,19.483-19.085,27.655-.745,13.884,2.007,39.822,23.286,30.186,16.577-7.5,20.789-20.759,18.224-35.989" transform="translate(16868.168 13732.599)" fill="#37b550"/>
        <path id="Path_9238" data-name="Path 9238" d="M240.625,149.505c-1.72-10.211-10.948-23.4-22.425-21.852-11.692,1.579-18.649,19.483-19.085,27.655-.745,13.884,2.007,39.822,23.286,30.186C238.977,177.989,243.19,164.735,240.625,149.505Z" transform="translate(16868.168 13732.599)" fill="none" stroke="#000" stroke-linecap="round" stroke-linejoin="round" stroke-width="1.958"/>
        <path id="Path_9239" data-name="Path 9239" d="M214.619,173.119q.757,2.591,1.563,5.572c3.564,13.25-10.151,20.117-10.151,20.117s8.973,14.777,22.71,15.672,16.023.877,26.638-8.569c11.15-9.921,2.806-24.427,2.806-24.427s-5.834,3.17-14.644-13.568c-5.258-9.99-9.69-24.251-9.69-24.251l-24.353,14.1a37.72,37.72,0,0,1,1.831,4.989" transform="translate(16871.355 13739.927)" fill="#37b550"/>
        <path id="Path_9240" data-name="Path 9240" d="M214.619,173.119q.757,2.591,1.563,5.572c3.564,13.25-10.151,20.117-10.151,20.117s8.973,14.777,22.71,15.672,16.023.877,26.638-8.569c11.15-9.921,2.806-24.427,2.806-24.427s-5.834,3.17-14.644-13.568c-5.258-9.99-9.69-24.251-9.69-24.251l-24.353,14.1a37.72,37.72,0,0,1,1.831,4.989" transform="translate(16871.355 13739.927)" fill="none" stroke="#000" stroke-linecap="round" stroke-linejoin="round" stroke-width="1.958"/>
        <path id="Path_9241" data-name="Path 9241" d="M210.448,223.843l11.237,46.964c29.114-.281,48.038-9.264,56.851-17.893-10.014-17.68-15.719-42.753-15.719-42.753Z" transform="translate(16873.361 13770.122)" fill="#37b550"/>
        <path id="Path_9242" data-name="Path 9242" d="M210.448,223.843l11.237,46.964c29.114-.281,48.038-9.264,56.851-17.893-10.014-17.68-15.719-42.753-15.719-42.753Z" transform="translate(16873.361 13770.122)" fill="none" stroke="#000" stroke-linecap="round" stroke-linejoin="round" stroke-width="1.958"/>
        <path id="Path_9243" data-name="Path 9243" d="M216.533,248.568l1.217,13.363c30.286-.653,49.208-9.636,58.023-18.263-2-3.539-6.274-13.145-6.274-13.145-12.8,11-28.577,17.755-52.966,18.045" transform="translate(16876.125 13779.368)" fill="#6537bf"/>
        <path id="Path_9244" data-name="Path 9244" d="M216.533,248.568l1.217,13.363c30.286-.653,49.208-9.636,58.023-18.263-2-3.539-6.274-13.145-6.274-13.145C256.7,241.528,240.921,248.278,216.533,248.568Z" transform="translate(16876.125 13779.368)" fill="none" stroke="#000" stroke-linecap="round" stroke-linejoin="round" stroke-width="1.958"/>
        <path id="Path_9245" data-name="Path 9245" d="M260.172,132.685c-5.949-11.035-19.092-20.951-36.274-11.5-11.628-3.523-27.927,4.093-30.724,17.308,4.281,10.218,11.627,19.076,19.867,21.791,9.306,24.042,21.769,22.105,32.867,21.452,8.144-6.764,8.144-6.764,13.485-19.209,2.946-6.862,4.461-23.015.778-29.847" transform="translate(16865.518 13728)" fill="#ffc3da"/>
        <path id="Path_9246" data-name="Path 9246" d="M260.172,132.685c-5.949-11.035-19.092-20.951-36.274-11.5-11.628-3.523-27.927,4.093-30.724,17.308,4.281,10.218,11.627,19.076,19.867,21.791,9.306,24.042,21.769,22.105,32.867,21.452,8.144-6.764,8.144-6.764,13.485-19.209C262.34,155.67,263.855,139.516,260.172,132.685Z" transform="translate(16865.518 13728)" fill="none" stroke="#000" stroke-linecap="round" stroke-linejoin="round" stroke-width="1.958"/>
        <path id="Path_9247" data-name="Path 9247" d="M204.837,148.851s9.981-6.037,11.807,2.13-6.052,11.483-6.052,11.483" transform="translate(16870.814 13741.306)" fill="#37b550"/>
        <path id="Path_9248" data-name="Path 9248" d="M204.837,148.851s9.981-6.037,11.807,2.13-6.052,11.483-6.052,11.483" transform="translate(16870.814 13741.306)" fill="none" stroke="#000" stroke-linecap="round" stroke-linejoin="round" stroke-width="1.958"/>
        <path id="Path_9249" data-name="Path 9249" d="M242.456,121c-7.406-2.734-12.1-2.929-18,2.059-6.112,5.166-2.6,24.837,7.861,26.587,6.721,1.121,15.172-1.172,18.361-7.244,4.058-7.734,2.722-17.365-8.217-21.4" transform="translate(16878.357 13728.769)" fill="#fff"/>
        <path id="Path_9250" data-name="Path 9250" d="M242.456,121c-7.406-2.734-12.1-2.929-18,2.059-6.112,5.166-2.6,24.837,7.861,26.587,6.721,1.121,15.172-1.172,18.361-7.244C254.732,134.669,253.4,125.039,242.456,121Z" transform="translate(16878.357 13728.769)" fill="none" stroke="#000" stroke-linecap="round" stroke-linejoin="round" stroke-width="1.958"/>
        <path id="Path_9251" data-name="Path 9251" d="M229.176,130.234s2.324-13.538,15.579-9.6,17.454,20.513,27.011,32.335,22.355,1.482,22.355,1.482-8.325,9.145-12.8,10.342-10.291-.625-10.291-.625,10.871,9.188,15.1,16.372c7.631,12.965-3.009,20.834-3.009,20.834s1.768-12.249-10.858-16.388c-8.588-2.817-21.2-4.826-31.547-18.237s-11.543-36.514-11.543-36.514" transform="translate(16881.867 13729.142)" fill="#ffc3da"/>
        <path id="Path_9252" data-name="Path 9252" d="M229.176,130.234s2.324-13.538,15.579-9.6,17.454,20.513,27.011,32.335,22.355,1.482,22.355,1.482-8.325,9.145-12.8,10.342-10.291-.625-10.291-.625,10.871,9.188,15.1,16.372c7.631,12.965-3.009,20.834-3.009,20.834s1.768-12.249-10.858-16.388c-8.588-2.817-21.2-4.826-31.547-18.237S229.176,130.234,229.176,130.234Z" transform="translate(16881.867 13729.142)" fill="none" stroke="#000" stroke-linecap="round" stroke-linejoin="round" stroke-width="1.958"/>
        <path id="Path_9253" data-name="Path 9253" d="M287.233,367.315s15.9-2.039,20.762,2.577,15.876,73.369,15.876,73.369c-2.505,1.931-6.42,2.412-12.579.579-1.655-.493-7.776-10.531-8.822-11.9-4.262-11.039-12.409-24.5-24.461-39.277L276.9,382.609c.137-6.1,4.871-12.576,10.334-15.294" transform="translate(16903.537 13841.282)" fill="#404041"/>
        <path id="Path_9254" data-name="Path 9254" d="M287.233,367.315s15.9-2.039,20.762,2.577,15.876,73.369,15.876,73.369c-2.505,1.931-6.42,2.412-12.579.579-1.655-.493-7.776-10.531-8.822-11.9-4.262-11.039-12.409-24.5-24.461-39.277L276.9,382.609C277.036,376.508,281.77,370.033,287.233,367.315Z" transform="translate(16903.537 13841.282)" fill="none" stroke="#000" stroke-linecap="round" stroke-linejoin="round" stroke-width="1.958"/>
        <path id="Path_9255" data-name="Path 9255" d="M294.507,367.619c-8.965,3.419-9.751,13.519-6.269,21.513,6.849,15.717,6.1,40.609,13.314,50.022s14.218,9.311,21.973,4.141,11.319-28.822,1.524-37.254c-6.42-5.527-12.11-9.375-11.042-25.205.745-11.019-10.535-16.636-19.5-13.218" transform="translate(16907.814 13841.171)" fill="#fff"/>
        <path id="Path_9256" data-name="Path 9256" d="M294.507,367.619c-8.965,3.419-9.751,13.519-6.269,21.513,6.849,15.717,6.1,40.609,13.314,50.022s14.218,9.311,21.973,4.141,11.319-28.822,1.524-37.254c-6.42-5.527-12.11-9.375-11.042-25.205C314.751,369.818,303.472,364.2,294.507,367.619Z" transform="translate(16907.814 13841.171)" fill="none" stroke="#000" stroke-linecap="round" stroke-linejoin="round" stroke-width="1.958"/>
        <path id="Path_9257" data-name="Path 9257" d="M206.3,188.775l8.832-8.522c12.06,3.2,33.279-2.635,33.479-14.492l9.591,3.754c5.11,4.186,10.179,12.194,9.9,26.05-.5,24.848-.89,36.335-.89,36.335-9.648,7.608-33.23,17.749-54.492,17.749L205.442,231.9Z" transform="translate(16871.088 13749.96)" fill="#6537bf"/>
        <path id="Path_9258" data-name="Path 9258" d="M206.3,188.775l8.832-8.522c12.06,3.2,33.279-2.635,33.479-14.492l9.591,3.754c5.11,4.186,10.179,12.194,9.9,26.05-.5,24.848-.89,36.335-.89,36.335-9.648,7.608-33.23,17.749-54.492,17.749L205.442,231.9Z" transform="translate(16871.088 13749.96)" fill="none" stroke="#000" stroke-linecap="round" stroke-linejoin="round" stroke-width="1.958"/>
        <path id="Path_9259" data-name="Path 9259" d="M265.058,238.73l7.836-9.043,12.846,4.419-.739,11.3" transform="translate(16898.16 13778.989)" fill="none" stroke="#000" stroke-linecap="round" stroke-linejoin="round" stroke-width="1.958"/>
        <path id="Path_9260" data-name="Path 9260" d="M271.979,250.853l-2.337-9.132,4.5-11.247" transform="translate(16900.242 13779.346)" fill="none" stroke="#000" stroke-linecap="round" stroke-linejoin="round" stroke-width="1.958"/>
        <path id="Path_9261" data-name="Path 9261" d="M276.5,250.5l-2.311-8.743,2.975-9.434" transform="translate(16902.307 13780.187)" fill="none" stroke="#000" stroke-linecap="round" stroke-linejoin="round" stroke-width="1.958"/>
        <path id="Path_9262" data-name="Path 9262" d="M233.219,181.1c-6.94,2.543-16.475,10.436-22.059,21.582-3.785,7.554-15.866,29.466-23.261,42.809l-17.132-21.858,4.121-15.21L170.6,189.226l-8,.711v3.994l-.647-.763-13.184,6.981,2.737,26.091,26.876,51.225,13.4-.068s43.572-52.867,50.457-60.966,6.562-26.648-9.024-35.335m-45.336,64.418c-3.507,6.328-5.963,10.731-5.963,10.731Z" transform="translate(16845.354 13756.924)" fill="#37b550"/>
        <path id="Path_9263" data-name="Path 9263" d="M233.219,181.1c-6.94,2.543-16.475,10.436-22.059,21.582-3.785,7.554-15.866,29.466-23.261,42.809l-17.132-21.858,4.121-15.21L170.6,189.226l-8,.711v3.994l-.647-.763-13.184,6.981,2.737,26.091,26.876,51.225,13.4-.068s43.572-52.867,50.457-60.966S248.805,189.783,233.219,181.1Zm-45.336,64.418c-3.507,6.328-5.963,10.731-5.963,10.731Z" transform="translate(16845.354 13756.924)" fill="none" stroke="#000" stroke-linecap="round" stroke-linejoin="round" stroke-width="1.958"/>
        <line id="Line_380" data-name="Line 380" x2="0.193" y2="15.783" transform="translate(17007.955 13950.854)" fill="#37b550"/>
        <line id="Line_381" data-name="Line 381" x2="0.193" y2="15.783" transform="translate(17007.955 13950.854)" fill="none" stroke="#000" stroke-linecap="round" stroke-linejoin="round" stroke-width="1.958"/>
        <path id="Path_9264" data-name="Path 9264" d="M309.361,371.052c-8.864-6.273-18.07-.922-18.687,7.106-.518,6.721,4.394,12.926,6.2,24.3,3.59,34.429,11.285,46.072,22.381,41.36" transform="translate(16909.775 13841.934)" fill="none" stroke="#000" stroke-linecap="round" stroke-linejoin="round" stroke-width="1.958"/>
        <g id="Group_3368" data-name="Group 3368" transform="translate(17076.531 13913.924)" opacity="0.19">
          <g id="Group_3367" data-name="Group 3367" transform="translate(0 0)">
            <g id="Group_3366" data-name="Group 3366" clip-path="url(#clip-path-4)">
              <path id="Path_9265" data-name="Path 9265" d="M205.442,168.49a15.747,15.747,0,0,1,9.7-3.965c2.629,4.881.731,5.262.731,5.262s-4.445,2.452-10.43-1.3" transform="translate(-205.442 -164.525)"/>
            </g>
          </g>
        </g>
        <g id="Group_3371" data-name="Group 3371" transform="translate(17014.342 13981.499)" opacity="0.19">
          <g id="Group_3370" data-name="Group 3370" transform="translate(0 0)">
            <g id="Group_3369" data-name="Group 3369" clip-path="url(#clip-path-5)">
              <path id="Path_9266" data-name="Path 9266" d="M165.193,211c-4.223.631-2.369,5.414,0,10.583s11.122,19.814,11.122,19.814l5.59-10.064Z" transform="translate(-162.674 -210.997)"/>
            </g>
          </g>
        </g>
        <g id="Group_3374" data-name="Group 3374" transform="translate(17077.84 13972.4)" opacity="0.19">
          <g id="Group_3373" data-name="Group 3373" transform="translate(0 0)">
            <g id="Group_3372" data-name="Group 3372" clip-path="url(#clip-path-6)">
              <path id="Path_9267" data-name="Path 9267" d="M216.835,204.74l-10.493,12.652,5.246,12.793,2.369,3,4.586,19.166s1.431-18.387,24.839-25.019c-12.088,2.3-28.471-10.28-26.547-22.589" transform="translate(-206.342 -204.74)"/>
            </g>
          </g>
        </g>
        <g id="Group_3377" data-name="Group 3377" transform="translate(17139.201 13941.672)" opacity="0.19">
          <g id="Group_3376" data-name="Group 3376" transform="translate(0 0)">
            <g id="Group_3375" data-name="Group 3375" clip-path="url(#clip-path-7)">
              <path id="Path_9268" data-name="Path 9268" d="M248.541,183.608l51.682,27.144s-4.749,28.622-12.9,32.185c3.135-26.073,3.788-28.889,3.788-28.889l-42.569-18.4Z" transform="translate(-248.541 -183.608)"/>
            </g>
          </g>
        </g>
        <g id="Group_3380" data-name="Group 3380" transform="translate(17020.084 13993.316)" opacity="0.19">
          <g id="Group_3379" data-name="Group 3379" transform="translate(0 0)">
            <g id="Group_3378" data-name="Group 3378" clip-path="url(#clip-path-8)">
              <path id="Path_9269" data-name="Path 9269" d="M217.533,219.124s-33.446,34.192-50.911,32.28A57,57,0,0,0,170.5,260.2L184,259.734Z" transform="translate(-166.623 -219.124)"/>
            </g>
          </g>
        </g>
        <g id="Group_3383" data-name="Group 3383" transform="translate(17092.777 13867.349)" opacity="0.19">
          <g id="Group_3382" data-name="Group 3382" transform="translate(0 0)">
            <g id="Group_3381" data-name="Group 3381" clip-path="url(#clip-path-9)">
              <path id="Path_9270" data-name="Path 9270" d="M223.644,132.495s5.508,11.051,13.651,11.342c2.693,5.13,9.521,17.7,9.521,17.7a81.969,81.969,0,0,1-8.1,10c-1.809,1.9,5.955,10.555,5.955,10.555s-7.637,1.328-9.793-6.427c-7.02,0-16.436-1.109-18.265-3.1,7.755-12.121,7.029-40.069,7.029-40.069" transform="translate(-216.615 -132.495)"/>
            </g>
          </g>
        </g>
        <g id="Group_3386" data-name="Group 3386" transform="translate(17064.779 14044.023)" opacity="0.19">
          <g id="Group_3385" data-name="Group 3385" transform="translate(0 0)">
            <g id="Group_3384" data-name="Group 3384" clip-path="url(#clip-path-10)">
              <path id="Path_9271" data-name="Path 9271" d="M226.353,254s.63,39.376,1.656,49.553l-30.65,4.173S216.231,291.977,226.353,254" transform="translate(-197.36 -253.996)"/>
            </g>
          </g>
        </g>
        <g id="Group_3389" data-name="Group 3389" transform="translate(17093.816 14065.778)" opacity="0.19">
          <g id="Group_3388" data-name="Group 3388" transform="translate(0 0)">
            <g id="Group_3387" data-name="Group 3387" clip-path="url(#clip-path-11)">
              <path id="Path_9272" data-name="Path 9272" d="M224.608,343.224l6.231,38.391,73.111,54.476V427.07c-18.394-14.555-42.157-34.379-59.124-53.29-2.536-2.827-23.695-101.56-25.886-104.326-6.245-7.878,7.848,80.5,5.668,73.769" transform="translate(-217.33 -268.957)"/>
            </g>
          </g>
        </g>
        <g id="Group_3392" data-name="Group 3392" transform="translate(17113.002 13872.921)" opacity="0.19">
          <g id="Group_3391" data-name="Group 3391" transform="translate(0)">
            <g id="Group_3390" data-name="Group 3390" clip-path="url(#clip-path-12)">
              <path id="Path_9273" data-name="Path 9273" d="M230.524,136.328s2.377,31.195,37.027,39.956c8.871,3.6,15.208,5.53,15.041,15.87,3.062-12.281,3.451-18.873-10.251-24.3s-40.568-24.587-41.817-31.523" transform="translate(-230.524 -136.327)"/>
            </g>
          </g>
        </g>
      </g>
      <g id="Group_3396" data-name="Group 3396" transform="translate(17724.475 14601.866)" opacity="0.19">
        <g id="Group_3395" data-name="Group 3395" transform="translate(0 0)">
          <g id="Group_3394" data-name="Group 3394" clip-path="url(#clip-path-13)">
            <path id="Path_9274" data-name="Path 9274" d="M931.268,750.8c11.586,6.558,23.615,13.517,30.161,23.776s5.5,24.822-6.09,31.377c-10.872,6.149-25.9,2.979-37.346-2.412-32.642-15.374-51.956-45.611-84.671-60.877-22.927-10.7-50-12.931-75.6-18.029a314.488,314.488,0,0,1-56.934-17c-23.03-9.362-46.552-24.077-49.5-45.121-.523-3.733-.31-7.676,1.815-11,4.33-6.779,14.73-8.8,23.882-10.1,32.025-4.567,68.753-8.171,93.595,9.123,10.406,7.243,17.2,17.3,25.159,26.412C810.96,694.4,829.1,708,853.567,715.294c28.608,8.524,52.6,21.3,77.7,35.5" transform="translate(-651.04 -637.631)"/>
          </g>
        </g>
      </g>
      <path id="Path_9275" data-name="Path 9275" d="M842.37,490.295c8.437,13.037.524,21.031.524,21.031l-38.965,26.633,22.812,24.97,13.907-1.589,8.507,3.443,3.411,7.79-18.112,16.847L772.107,544.9l26.632-47.885s35.195-19.755,43.632-6.718" transform="translate(17128.41 13895.31)" fill="#007680"/>
      <path id="Path_9276" data-name="Path 9276" d="M842.37,490.295c8.437,13.037.524,21.031.524,21.031l-38.965,26.633,22.812,24.97,13.907-1.589,8.507,3.443,3.411,7.79-18.112,16.847L772.107,544.9l26.632-47.885S833.934,477.257,842.37,490.295Z" transform="translate(17128.41 13895.31)" fill="none" stroke="#000" stroke-linecap="round" stroke-linejoin="round" stroke-width="1.958"/>
      <path id="Path_9277" data-name="Path 9277" d="M820.681,518.421c4.653-5.719,10.179-7.95,9.016-16.965s-5.235-16.481-11.924-17.353-5.914,7.271-5.914,7.271Z" transform="translate(17146.449 13894.488)" fill="#00efae"/>
      <path id="Path_9278" data-name="Path 9278" d="M820.681,518.421c4.653-5.719,10.179-7.95,9.016-16.965s-5.235-16.481-11.924-17.353-5.914,7.271-5.914,7.271Z" transform="translate(17146.449 13894.488)" fill="none" stroke="#000" stroke-linecap="round" stroke-linejoin="round" stroke-width="1.958"/>
      <path id="Path_9279" data-name="Path 9279" d="M723.408,595.566c2.133-1.745.875-9.047.193-11.269-1.486-4.847-11.426-11.349-19.969-8.12-12.991,4.912-13.245,10.116-18.189,19.811s-9.436,9.6-15.254,19.776c-1.938,3.391-3.1,23.29,12.5,20.935s27.241-29.886,27.241-29.886Z" transform="translate(17081.629 13935.937)" fill="#007680"/>
      <path id="Path_9280" data-name="Path 9280" d="M723.408,595.566c2.133-1.745.875-9.047.193-11.269-1.486-4.847-11.426-11.349-19.969-8.12-12.991,4.912-13.245,10.116-18.189,19.811s-9.436,9.6-15.254,19.776c-1.938,3.391-3.1,23.29,12.5,20.935s27.241-29.886,27.241-29.886Z" transform="translate(17081.629 13935.937)" fill="none" stroke="#000" stroke-linecap="round" stroke-linejoin="round" stroke-width="1.958"/>
      <path id="Path_9281" data-name="Path 9281" d="M726.9,594.99s-3.3-3.974-6.689-9.113-10.179-5.206-15.22-3.039-10.414,7.656-16.51,16.548c-5.533,8.075-17.837,12.925-16.257,25.172.883,6.843,4.5,9.29,9.113,9.335s7.2-2.905,10.858-5.59l23.245-17.061Z" transform="translate(17082.988 13938.742)" fill="#fff"/>
      <path id="Path_9282" data-name="Path 9282" d="M726.9,594.99s-3.3-3.974-6.689-9.113-10.179-5.206-15.22-3.039-10.414,7.656-16.51,16.548c-5.533,8.075-17.837,12.925-16.257,25.172.883,6.843,4.5,9.29,9.113,9.335s7.2-2.905,10.858-5.59l23.245-17.061Z" transform="translate(17082.988 13938.742)" fill="none" stroke="#000" stroke-linecap="round" stroke-linejoin="round" stroke-width="1.958"/>
      <path id="Path_9283" data-name="Path 9283" d="M824.325,702.115c-2.094-2.318-7.878-.768-10.08,1.55-1.618,1.7-3.166,11.256-2.386,13.97,4.006,13.959,18.5,8.978,23.154,18.15,14.233,28.084,58.554,22.232,49.918,1.688-5.43-9.111-17.871-12.005-37.978-17.512Z" transform="translate(17146.367 13992.997)" fill="#007680"/>
      <path id="Path_9284" data-name="Path 9284" d="M824.325,702.115c-2.094-2.318-7.878-.768-10.08,1.55-1.618,1.7-3.166,11.256-2.386,13.97,4.006,13.959,18.5,8.978,23.154,18.15,14.233,28.084,58.554,22.232,49.918,1.688-5.43-9.111-17.871-12.005-37.978-17.512Z" transform="translate(17146.367 13992.997)" fill="none" stroke="#000" stroke-linecap="round" stroke-linejoin="round" stroke-width="1.958"/>
      <path id="Path_9285" data-name="Path 9285" d="M817.046,702.778s-2.015,6.666-1.607,9.878,3.449,8.832,9.241,11.438c23.631,10.5,8.733,16.068,28.122,26.591,7.637,4.966,24.329,4.192,29.1-4.767,2.715-4.46-2.52-10.858-8.38-15.511-14.692-10.471-17.912-25.7-26.885-38.778l-21.8,1.034c-2.43.744-6.722,5.171-7.788,10.115" transform="translate(17148.063 13988.756)" fill="#fff"/>
      <path id="Path_9286" data-name="Path 9286" d="M817.046,702.778s-2.015,6.666-1.607,9.878,3.449,8.832,9.241,11.438c23.631,10.5,8.733,16.068,28.122,26.591,7.637,4.966,24.329,4.192,29.1-4.767,2.715-4.46-2.52-10.858-8.38-15.511-14.692-10.471-17.912-25.7-26.885-38.778l-21.8,1.034C822.4,693.407,818.112,697.834,817.046,702.778Z" transform="translate(17148.063 13988.756)" fill="none" stroke="#000" stroke-linecap="round" stroke-linejoin="round" stroke-width="1.958"/>
      <path id="Path_9287" data-name="Path 9287" d="M831.148,561.758l60.6,82.951-8.771,96.977s-1.034,18.743-8.143,25.98-31.116,1.851-33.976-4.211l-7.9-16.728,9.306-23.266-.388-60.88S812,629.646,803.159,620.659c-10.453-10.618-37.776-27.954-20.852-63.676,25.128-5.591,48.84,4.775,48.84,4.775" transform="translate(17130.59 13926.861)" fill="#c8abf5"/>
      <path id="Path_9288" data-name="Path 9288" d="M831.148,561.758l60.6,82.951-8.771,96.977s-1.034,18.743-8.143,25.98-31.116,1.851-33.976-4.211l-7.9-16.728,9.306-23.266-.388-60.88S812,629.646,803.159,620.659c-10.453-10.618-37.776-27.954-20.852-63.676C807.436,551.392,831.148,561.758,831.148,561.758Z" transform="translate(17130.59 13926.861)" fill="none" stroke="#000" stroke-linecap="round" stroke-linejoin="round" stroke-width="1.958"/>
      <path id="Path_9289" data-name="Path 9289" d="M857.094,561.218l-55.532-5.832a286.631,286.631,0,0,0-32.25,81.315l-31.931-21.195-8.919-14.865-14.6-8.014c-5.716.8-17.58,10.728-17.838,21.586-.078,3.295-1.035,9.047,3.877,16.286s65.821,59.365,65.821,59.365l22.85-1.458c21.314-12.734,49.7-59.387,64.5-92.936" transform="translate(17093.803 13926.889)" fill="#c8abf5"/>
      <path id="Path_9290" data-name="Path 9290" d="M857.094,561.218l-55.532-5.832a286.631,286.631,0,0,0-32.25,81.315l-31.931-21.195-8.919-14.865-14.6-8.014c-5.716.8-17.58,10.728-17.838,21.586-.078,3.295-1.035,9.047,3.877,16.286s65.821,59.365,65.821,59.365l22.85-1.458c21.314-12.734,49.7-59.387,64.5-92.936" transform="translate(17093.803 13926.889)" fill="none" stroke="#000" stroke-linecap="round" stroke-linejoin="round" stroke-width="1.958"/>
      <path id="Path_9291" data-name="Path 9291" d="M806.516,483.73l-18.332,4.384c-11.383,3.695-12.242,14.189-11.723,26.145.97,22.3,1.254,32.751-3.4,43.222-3.7,8.323-13.08,30.455-13.08,30.455,14.083,12.018,57.764,24.628,83.688,9.964,0-9.982-3.107-21.65-.9-32.066,2.905-13.709-1.351-2.156,3.977-33.555s-6.6-42.269-10.392-46.962c-4.438-2.411-29.84-1.586-29.84-1.586" transform="translate(17122.904 13894.288)" fill="#00efae"/>
      <path id="Path_9292" data-name="Path 9292" d="M806.516,483.73l-18.332,4.384c-11.383,3.695-12.242,14.189-11.723,26.145.97,22.3,1.254,32.751-3.4,43.222-3.7,8.323-13.08,30.455-13.08,30.455,14.083,12.018,57.764,24.628,83.688,9.964,0-9.982-3.107-21.65-.9-32.066,2.905-13.709-1.351-2.156,3.977-33.555s-6.6-42.269-10.392-46.962C831.918,482.906,806.516,483.73,806.516,483.73Z" transform="translate(17122.904 13894.288)" fill="none" stroke="#000" stroke-linecap="round" stroke-linejoin="round" stroke-width="1.958"/>
      <path id="Path_9293" data-name="Path 9293" d="M797.684,471.57l-5.7,17.622c7.688,9.2,16.49,15.208,23.459,14.048s-2.2-25.48-2.2-25.48Z" transform="translate(17137.438 13888.827)" fill="#007680"/>
      <path id="Path_9294" data-name="Path 9294" d="M797.684,471.57l-5.7,17.622c7.688,9.2,16.49,15.208,23.459,14.048s-2.2-25.48-2.2-25.48Z" transform="translate(17137.438 13888.827)" fill="none" stroke="#000" stroke-linecap="round" stroke-linejoin="round" stroke-width="1.958"/>
      <path id="Path_9295" data-name="Path 9295" d="M842.685,464.717c-.348-8.3-.646-11.941-7.028-17.862-6.306-5.856-15.983-4.583-24.171-4.007-12.7.887-24.283,6.29-22.038,22.528,2.075,15,12.091,38.1,28.812,41.237,8.512,1.594,15.111-4.79,19.008-12.973,4.617-9.7,5.7-22.076,5.418-28.922" transform="translate(17136.158 13875.544)" fill="#007680"/>
      <path id="Path_9296" data-name="Path 9296" d="M842.685,464.717c-.348-8.3-.646-11.941-7.028-17.862-6.306-5.856-15.983-4.583-24.171-4.007-12.7.887-24.283,6.29-22.038,22.528,2.075,15,12.091,38.1,28.812,41.237,8.512,1.594,15.111-4.79,19.008-12.973C841.884,483.941,842.972,471.563,842.685,464.717Z" transform="translate(17136.158 13875.544)" fill="none" stroke="#000" stroke-linecap="round" stroke-linejoin="round" stroke-width="1.958"/>
      <path id="Path_9297" data-name="Path 9297" d="M819.23,583.329l75.192-34.416,1.525-.7,3.528-1.614,1.473-12.438-15.857-12.8-15.012,5.177-3.045,15.3-39.815,7.5s-25.72-52.593-29.978-56.45a29.084,29.084,0,0,0-7.692-5.142c-10.493-4.655-21.455,6.155-17.422,16.9a120.659,120.659,0,0,0,12.062,23.465c5.278,8.012,35.041,55.216,35.041,55.216" transform="translate(17128.031 13895.669)" fill="#007680"/>
      <path id="Path_9298" data-name="Path 9298" d="M819.23,583.329l75.192-34.416,1.525-.7,3.528-1.614,1.473-12.438-15.857-12.8-15.012,5.177-3.045,15.3-39.815,7.5s-25.72-52.593-29.978-56.45a29.084,29.084,0,0,0-7.692-5.142c-10.493-4.655-21.455,6.155-17.422,16.9a120.659,120.659,0,0,0,12.062,23.465C789.467,536.125,819.23,583.329,819.23,583.329Z" transform="translate(17128.031 13895.669)" fill="none" stroke="#000" stroke-linecap="round" stroke-linejoin="round" stroke-width="1.958"/>
      <path id="Path_9299" data-name="Path 9299" d="M826.2,466.981c0,1.608-.917,2.911-2.05,2.911s-2.052-1.3-2.052-2.911.919-2.911,2.052-2.911,2.05,1.3,2.05,2.911" transform="translate(17151.109 13885.422)" fill="#020202"/>
      <path id="Path_9300" data-name="Path 9300" d="M814.257,467.723c0,1.608-.918,2.911-2.05,2.911s-2.052-1.3-2.052-2.911.919-2.911,2.052-2.911,2.05,1.3,2.05,2.911" transform="translate(17145.688 13885.759)" fill="#020202"/>
      <path id="Path_9301" data-name="Path 9301" d="M811.566,475.518c4.035,5.1,12.908,6.433,17.145-2.674" transform="translate(17146.328 13889.406)" fill="none" stroke="#000" stroke-linecap="round" stroke-linejoin="round" stroke-width="1.958"/>
      <line id="Line_382" data-name="Line 382" x1="11.298" y2="3.752" transform="translate(18006.402 14421.797)" fill="none" stroke="#000" stroke-linecap="round" stroke-linejoin="round" stroke-width="1.958"/>
      <line id="Line_383" data-name="Line 383" x1="11.403" y2="6.091" transform="translate(18012.725 14425.916)" fill="none" stroke="#000" stroke-linecap="round" stroke-linejoin="round" stroke-width="1.958"/>
      <line id="Line_384" data-name="Line 384" x1="1.854" y2="9.103" transform="translate(18019.66 14436.758)" fill="none" stroke="#000" stroke-linecap="round" stroke-linejoin="round" stroke-width="1.958"/>
      <g id="Group_3399" data-name="Group 3399" transform="translate(17932.391 14366.604)" opacity="0.19">
        <g id="Group_3398" data-name="Group 3398" transform="translate(0 0)">
          <g id="Group_3397" data-name="Group 3397" clip-path="url(#clip-path-14)">
            <path id="Path_9302" data-name="Path 9302" d="M794.027,480.557c1.293,3.555,14.67,22.361,23.138,21.263a34.892,34.892,0,0,0,5.62-10.183c-6.2.915-21.583-5.652-27.465-15.8a41.5,41.5,0,0,0-1.293,4.719" transform="translate(-794.027 -475.838)"/>
          </g>
        </g>
      </g>
      <line id="Line_385" data-name="Line 385" x1="3.237" y2="17.582" transform="translate(17859.877 14563.588)" fill="#ffe376"/>
      <line id="Line_386" data-name="Line 386" x1="3.237" y2="17.582" transform="translate(17859.877 14563.588)" fill="none" stroke="#000" stroke-linecap="round" stroke-linejoin="round" stroke-width="1.958"/>
      <path id="Path_9303" data-name="Path 9303" d="M785.542,572.463c-4.394,5.171-12.925,10.987-26.627,4.653" transform="translate(17122.42 13934.643)" fill="none" stroke="#000" stroke-linecap="round" stroke-linejoin="round" stroke-width="1.958"/>
      <path id="Path_9304" data-name="Path 9304" d="M787.891,547.551l30.828-18.613s-16.759-32.226-21.015-36.082a29.106,29.106,0,0,0-7.692-5.143c-10.493-4.655-23.023,7.792-18.989,18.54,3.647,9.719,16.868,41.3,16.868,41.3" transform="translate(17127.566 13895.702)" fill="#00efae"/>
      <path id="Path_9305" data-name="Path 9305" d="M787.891,547.551l30.828-18.613s-16.759-32.226-21.015-36.082a29.106,29.106,0,0,0-7.692-5.143c-10.493-4.655-23.023,7.792-18.989,18.54C774.671,515.972,787.891,547.551,787.891,547.551Z" transform="translate(17127.566 13895.702)" fill="none" stroke="#000" stroke-linecap="round" stroke-linejoin="round" stroke-width="1.958"/>
      <path id="Path_9306" data-name="Path 9306" d="M820.477,437.988c-9.111-.941-39.341,3.773-30.828,34.512,19.739,1.727,56.766-5.025,56.766-5.025.567-16.292-6.6-27.49-25.938-29.486" transform="translate(17135.697 13873.529)" fill="#f47920"/>
      <path id="Path_9307" data-name="Path 9307" d="M820.477,437.988c-9.111-.941-39.341,3.773-30.828,34.512,19.739,1.727,56.766-5.025,56.766-5.025C846.982,451.182,839.817,439.984,820.477,437.988Z" transform="translate(17135.697 13873.529)" fill="none" stroke="#000" stroke-linecap="round" stroke-linejoin="round" stroke-width="1.958"/>
      <path id="Path_9308" data-name="Path 9308" d="M819.419,466.77c-10.3,1.149-21.548,1.9-29.784,1.175-2.037-7.326-1.839-13.158-.292-17.808l0-.036c15.991-6.682,27.376,2.94,30.072,16.67" transform="translate(17135.693 13878.092)" fill="#f47920"/>
      <path id="Path_9309" data-name="Path 9309" d="M819.419,466.77c-10.3,1.149-21.548,1.9-29.784,1.175-2.037-7.326-1.839-13.158-.292-17.808l0-.036C805.337,443.419,816.723,453.041,819.419,466.77Z" transform="translate(17135.693 13878.092)" fill="none" stroke="#000" stroke-linecap="round" stroke-linejoin="round" stroke-width="1.958"/>
      <path id="Path_9310" data-name="Path 9310" d="M799.188,465.366c20.036-13.1,35.218-13.3,42.73-9.668,2.468,1.486,10.4,4.874,13.863,10.957-25.076-4.624-32.053,9.66-56.594-1.288" transform="translate(17140.707 13880.703)" fill="#fff"/>
      <path id="Path_9311" data-name="Path 9311" d="M799.188,465.366c20.036-13.1,35.218-13.3,42.73-9.668,2.468,1.486,10.4,4.874,13.863,10.957C830.706,462.03,823.729,476.314,799.188,465.366Z" transform="translate(17140.707 13880.703)" fill="none" stroke="#000" stroke-linecap="round" stroke-linejoin="round" stroke-width="1.958"/>
      <path id="Path_9312" data-name="Path 9312" d="M801.859,463s-6.821-6.059-10.436-.829c-3.875,5.607,7.589,14.036,7.589,14.036" transform="translate(17136.818 13883.594)" fill="#007680"/>
      <path id="Path_9313" data-name="Path 9313" d="M801.859,463s-6.821-6.059-10.436-.829c-3.875,5.607,7.589,14.036,7.589,14.036" transform="translate(17136.818 13883.594)" fill="none" stroke="#000" stroke-linecap="round" stroke-linejoin="round" stroke-width="1.958"/>
      <g id="Group_3402" data-name="Group 3402" transform="translate(17941.764 14347.085)" opacity="0.19">
        <g id="Group_3401" data-name="Group 3401" transform="translate(0 0)">
          <g id="Group_3400" data-name="Group 3400" clip-path="url(#clip-path-15)">
            <path id="Path_9314" data-name="Path 9314" d="M800.827,463c-3.189-1.256,15.7,15.027,34.221,11.537,2.133-8.338,2.327-12.118,2.327-12.118s-21.036,6.689-36.547.582" transform="translate(-800.472 -462.415)"/>
          </g>
        </g>
      </g>
      <g id="Group_3405" data-name="Group 3405" transform="translate(17889.057 14488.041)" opacity="0.19">
        <g id="Group_3404" data-name="Group 3404" transform="translate(0 0)">
          <g id="Group_3403" data-name="Group 3403" clip-path="url(#clip-path-16)">
            <path id="Path_9315" data-name="Path 9315" d="M764.225,565.249A45.555,45.555,0,0,0,801.1,580.1a103.051,103.051,0,0,0,41.41-12.226l-3.2-3.061c-28.9,7.92-51.155,5.713-73.111-5.459Z" transform="translate(-764.225 -559.352)"/>
          </g>
        </g>
      </g>
      <g id="Group_3408" data-name="Group 3408" transform="translate(17789.303 14540.131)" opacity="0.19">
        <g id="Group_3407" data-name="Group 3407" transform="translate(0 0)">
          <g id="Group_3406" data-name="Group 3406" clip-path="url(#clip-path-17)">
            <path id="Path_9316" data-name="Path 9316" d="M697.874,595.175c10.289,0,58.242,67.667,58.242,67.667-22.749-18.355-53.472-42.361-60.492-60.494Z" transform="translate(-695.624 -595.175)"/>
          </g>
        </g>
      </g>
      <g id="Group_3411" data-name="Group 3411" transform="translate(17922.18 14426.252)" opacity="0.19">
        <g id="Group_3410" data-name="Group 3410" transform="translate(0 0)">
          <g id="Group_3409" data-name="Group 3409" clip-path="url(#clip-path-18)">
            <path id="Path_9317" data-name="Path 9317" d="M787.005,529.337l25.08,40.27,75.192-34.416s-60.639,24.393-71.149,20.514c-6.074-2.241-15.536-9.82-18.394-18.614-1.681-5.169,13.237-18.5,11.892-20.035-1.784-2.033-22.62,12.28-22.62,12.28" transform="translate(-787.005 -516.859)"/>
          </g>
        </g>
      </g>
      <g id="Group_3414" data-name="Group 3414" transform="translate(17892.58 14410.162)" opacity="0.19">
        <g id="Group_3413" data-name="Group 3413" transform="translate(0 0)">
          <g id="Group_3412" data-name="Group 3412" clip-path="url(#clip-path-19)">
            <path id="Path_9318" data-name="Path 9318" d="M774.533,505.794s.646,31.281-2.2,37.872l-5.687,13.184c13.83-1.163,35.416.647,54.028,16.415-12.925-19.13-24.429-38.906-24.429-38.906l-5.559,4.007Z" transform="translate(-766.648 -505.794)"/>
          </g>
        </g>
      </g>
      <g id="Group_3417" data-name="Group 3417" transform="translate(17934.848 14532.829)" opacity="0.19">
        <g id="Group_3416" data-name="Group 3416" transform="translate(0 0)">
          <g id="Group_3415" data-name="Group 3415" clip-path="url(#clip-path-20)">
            <path id="Path_9319" data-name="Path 9319" d="M803.471,590.152s42.138,43.432,43.688,46.534-.775,72.382-.775,72.382l-11.117,23.008s18.1,17.839,33.091,16.287c-1.035,6.2-13.7,8.272-19.907,6.464s-13.405-4.029-16.138-7.185-7.9-16.728-7.9-16.728l9.017-23.849-.1-60.3-37.613-40.329Z" transform="translate(-795.716 -590.154)"/>
          </g>
        </g>
      </g>
      <g id="Group_3420" data-name="Group 3420" transform="translate(17847.404 14554.35)" opacity="0.19">
        <g id="Group_3419" data-name="Group 3419" transform="translate(0 0)">
          <g id="Group_3418" data-name="Group 3418" clip-path="url(#clip-path-21)">
            <path id="Path_9320" data-name="Path 9320" d="M735.581,604.953s9.113,19,12.409,22.3c1.357-5.816,3.3-13.058,3.3-13.058" transform="translate(-735.581 -604.953)"/>
          </g>
        </g>
      </g>
      <g id="Group_3423" data-name="Group 3423" transform="translate(17957.59 14684.704)" opacity="0.19">
        <g id="Group_3422" data-name="Group 3422" transform="translate(0 0)">
          <g id="Group_3421" data-name="Group 3421" clip-path="url(#clip-path-22)">
            <path id="Path_9321" data-name="Path 9321" d="M827.52,704.554c.518,2.068,12.537,21.457,11.374,26.369s-2.327,9.694-2.327,9.694-6.2-7.756-10.986-8.272c-2.219-.24-12.927-4.137-13.961-10.341s1.075-16.075,4.4-16.545c4.12-.582,5.3-10.987,7.239-10.858.9,3.619,4.265,9.953,4.265,9.953" transform="translate(-811.357 -694.599)"/>
          </g>
        </g>
      </g>
      <g id="Group_3426" data-name="Group 3426" transform="translate(17521.893 14262.669)" opacity="0.19">
        <g id="Group_3425" data-name="Group 3425" transform="translate(0 0)">
          <g id="Group_3424" data-name="Group 3424" clip-path="url(#clip-path-23)">
            <path id="Path_9322" data-name="Path 9322" d="M545.906,548.5c-11.586,6.558-23.615,13.517-30.161,23.776s-5.5,24.821,6.09,31.377c10.872,6.149,25.9,2.979,37.346-2.412,32.642-15.374,58.967-67.656,91.681-82.924,22.927-10.7,43.9-46.914,62.044-54.287,23.029-9.363,61.519-15.242,64.473-36.286.523-3.733.308-7.676-1.815-11-4.33-6.779-14.731-8.8-23.882-10.1-32.025-4.569-49.269-3.378-74.111,13.916-10.406,7.243-17.2,17.3-25.159,26.412-15.227,17.458-28.268,56.3-52.736,63.594-28.608,8.525-28.67,23.732-53.77,37.94" transform="translate(-511.723 -404.361)"/>
          </g>
        </g>
      </g>
      <path id="Path_9323" data-name="Path 9323" d="M580.826,266.513,538.3,336.748l-35.468-11.474.775-15.238L490.1,300.18l-.586,6.443-14.731,1.463-5.428,23.148,78.181,36.415,35.429-47.092s35.977-62.853-2.139-54.043" transform="translate(16990.932 13795.327)" fill="#ff80aa"/>
      <path id="Path_9324" data-name="Path 9324" d="M580.826,266.513,538.3,336.748l-35.468-11.474.775-15.238L490.1,300.18l-.586,6.443-14.731,1.463-5.428,23.148,78.181,36.415,35.429-47.092S618.943,257.7,580.826,266.513Z" transform="translate(16990.932 13795.327)" fill="none" stroke="#000" stroke-linecap="round" stroke-linejoin="round" stroke-width="1.958"/>
      <path id="Path_9325" data-name="Path 9325" d="M486.851,293.833l8.794,10.779-7.627,13.831-12.8-3.1" transform="translate(16993.596 13808.117)" fill="none" stroke="#000" stroke-linecap="round" stroke-linejoin="round" stroke-width="1.958"/>
      <path id="Path_9326" data-name="Path 9326" d="M472.154,299.477l10.925-.854,11.985,7.4" transform="translate(16992.201 13810.293)" fill="none" stroke="#000" stroke-linecap="round" stroke-linejoin="round" stroke-width="1.958"/>
      <path id="Path_9327" data-name="Path 9327" d="M470.863,304.61l10.475-.9L491.549,309" transform="translate(16991.615 13812.603)" fill="none" stroke="#000" stroke-linecap="round" stroke-linejoin="round" stroke-width="1.958"/>
      <path id="Path_9328" data-name="Path 9328" d="M642.574,365c-2.135-1.745-.877-9.047-.195-11.269,1.486-4.846,11.426-11.349,19.969-8.12,12.992,4.912,9.5,12.312,14.446,22.006s9.654,6.494,15.665,15.413c2.181,3.24,6.436,25.457-9.171,23.1s-27.241-29.886-27.241-29.886Z" transform="translate(17069.051 13831.237)" fill="#fff"/>
      <path id="Path_9329" data-name="Path 9329" d="M642.574,365c-2.135-1.745-.877-9.047-.195-11.269,1.486-4.846,11.426-11.349,19.969-8.12,12.992,4.912,9.5,12.312,14.446,22.006s9.654,6.494,15.665,15.413c2.181,3.24,6.436,25.457-9.171,23.1s-27.241-29.886-27.241-29.886Z" transform="translate(17069.051 13831.237)" fill="none" stroke="#000" stroke-linecap="round" stroke-linejoin="round" stroke-width="1.958"/>
      <path id="Path_9330" data-name="Path 9330" d="M577.539,494.349c2.094-2.318,7.878-.768,10.08,1.55,1.618,1.7,3.166,11.256,2.386,13.97-4.006,13.959-13.575,8.277-18.224,17.449-14.234,28.084-60.083,28.093-56.227,4.394,5.428-9.111,19.251-14.01,39.358-19.517Z" transform="translate(17011.807 13898.651)" fill="#fff"/>
      <path id="Path_9331" data-name="Path 9331" d="M577.539,494.349c2.094-2.318,7.878-.768,10.08,1.55,1.618,1.7,3.166,11.256,2.386,13.97-4.006,13.959-13.575,8.277-18.224,17.449-14.234,28.084-60.083,28.093-56.227,4.394,5.428-9.111,19.251-14.01,39.358-19.517Z" transform="translate(17011.807 13898.651)" fill="none" stroke="#000" stroke-linecap="round" stroke-linejoin="round" stroke-width="1.958"/>
      <path id="Path_9332" data-name="Path 9332" d="M582.432,495.012s2.015,6.666,1.607,9.878-3.449,8.832-9.241,11.438c-15.536,6.314-8.733,16.068-28.122,26.591-7.637,4.966-24.329,4.192-29.1-4.767-2.715-4.46,2.52-10.858,8.38-15.511,14.692-10.471,17.912-25.7,26.885-38.778l21.8,1.034c2.43.745,6.722,5.171,7.788,10.115" transform="translate(17012.494 13894.41)" fill="#ffd8b5"/>
      <path id="Path_9333" data-name="Path 9333" d="M582.432,495.012s2.015,6.666,1.607,9.878-3.449,8.832-9.241,11.438c-15.536,6.314-8.733,16.068-28.122,26.591-7.637,4.966-24.329,4.192-29.1-4.767-2.715-4.46,2.52-10.858,8.38-15.511,14.692-10.471,17.912-25.7,26.885-38.778l21.8,1.034C577.074,485.641,581.367,490.068,582.432,495.012Z" transform="translate(17012.494 13894.41)" fill="none" stroke="#000" stroke-linecap="round" stroke-linejoin="round" stroke-width="1.958"/>
      <path id="Path_9334" data-name="Path 9334" d="M638.869,364.425s3.3-3.974,6.689-9.113,10.179-5.206,15.22-3.039,8.725,7.609,12.991,16.42,20.939,7.656,19.776,25.3c-.454,6.885-4.5,9.29-9.113,9.335s-7.2-2.905-10.858-5.59l-23.245-17.061Z" transform="translate(17067.908 13834.043)" fill="#ffd8b5"/>
      <path id="Path_9335" data-name="Path 9335" d="M638.869,364.425s3.3-3.974,6.689-9.113,10.179-5.206,15.22-3.039,8.725,7.609,12.991,16.42,20.939,7.656,19.776,25.3c-.454,6.885-4.5,9.29-9.113,9.335s-7.2-2.905-10.858-5.59l-23.245-17.061Z" transform="translate(17067.908 13834.043)" fill="none" stroke="#000" stroke-linecap="round" stroke-linejoin="round" stroke-width="1.958"/>
      <path id="Path_9336" data-name="Path 9336" d="M662.417,372.908l-.192,4.79-17.381,14.954c.017-9.9-9.639-18.045-18.322-20.043l20.337-12.257,5.726.8a11.418,11.418,0,0,1,9.831,11.753" transform="translate(17062.301 13838.323)" fill="#fff"/>
      <path id="Path_9337" data-name="Path 9337" d="M662.417,372.908l-.192,4.79-17.381,14.954c.017-9.9-9.639-18.045-18.322-20.043l20.337-12.257,5.726.8A11.418,11.418,0,0,1,662.417,372.908Z" transform="translate(17062.301 13838.323)" fill="none" stroke="#000" stroke-linecap="round" stroke-linejoin="round" stroke-width="1.958"/>
      <path id="Path_9338" data-name="Path 9338" d="M682.146,408.168l-66.589,57.287c-11.409-6.811-21.349-17.818-30.35-31.544-10.386-15.831-19.524-35.274-28.188-56.055-4.3-10.288-8.472-20.911-12.639-31.582l57.342-20.09,7.624,23.747,14.635,45.579,4.479,13.935,35.365-21.321c8.681,2,18.339,10.15,18.32,20.045" transform="translate(17025 13822.808)" fill="#ff80aa"/>
      <path id="Path_9339" data-name="Path 9339" d="M682.146,408.168l-66.589,57.287c-11.409-6.811-21.349-17.818-30.35-31.544-10.386-15.831-19.524-35.274-28.188-56.055-4.3-10.288-8.472-20.911-12.639-31.582l57.342-20.09,7.624,23.747,14.635,45.579,4.479,13.935,35.365-21.321C672.506,390.121,682.165,398.272,682.146,408.168Z" transform="translate(17025 13822.808)" fill="none" stroke="#000" stroke-linecap="round" stroke-linejoin="round" stroke-width="1.958"/>
      <path id="Path_9340" data-name="Path 9340" d="M611.284,370.674l6.949,21.651c-12.457,14.809-27.477,25.861-40.263,27.184a41.153,41.153,0,0,1-8.9-19.754Z" transform="translate(17036.211 13843.011)" fill="#fff"/>
      <path id="Path_9341" data-name="Path 9341" d="M611.284,370.674l6.949,21.651c-12.457,14.809-27.477,25.861-40.263,27.184a41.153,41.153,0,0,1-8.9-19.754Z" transform="translate(17036.211 13843.011)" fill="none" stroke="#000" stroke-linecap="round" stroke-linejoin="round" stroke-width="1.958"/>
      <path id="Path_9342" data-name="Path 9342" d="M568.818,347.8l-22.105,1.514c2.06,13.151,11.053,37.426,11.053,37.426L568.818,347.8Z" transform="translate(17026.059 13832.622)" fill="#007680"/>
      <path id="Path_9343" data-name="Path 9343" d="M568.818,347.8l-22.105,1.514c2.06,13.151,11.053,37.426,11.053,37.426L568.818,347.8Z" transform="translate(17026.059 13832.622)" fill="none" stroke="#000" stroke-linecap="round" stroke-linejoin="round" stroke-width="1.958"/>
      <path id="Path_9344" data-name="Path 9344" d="M566.981,497.334a14.087,14.087,0,0,1-16.388,7.587l-9.247-2.489-6.174-29.793c10.824,4.122,22.534-.173,29.611-6.093Z" transform="translate(17020.818 13886.546)" fill="#fff"/>
      <path id="Path_9345" data-name="Path 9345" d="M566.981,497.334a14.087,14.087,0,0,1-16.388,7.587l-9.247-2.489-6.174-29.793c10.824,4.122,22.534-.173,29.611-6.093Z" transform="translate(17020.818 13886.546)" fill="none" stroke="#000" stroke-linecap="round" stroke-linejoin="round" stroke-width="1.958"/>
      <path id="Path_9346" data-name="Path 9346" d="M634.381,388.093a59.546,59.546,0,0,1-19.561,23.538c-3.8,2.635-11.253,8.482-19.214,14.865-14.082,11.29-29.767,24.275-29.767,24.275L571,522.87c-7.077,5.918-18.786,10.212-29.61,6.093h-.01l-19.9-95.973,45.934-62.549L580.6,352.483s18.311-9.866,39.149-9.966a58.131,58.131,0,0,1,12.95,1.332C641.157,361.729,639.5,376.669,634.381,388.093Z" transform="translate(17014.602 13830.224)" fill="#ff80aa"/>
      <path id="Path_9347" data-name="Path 9347" d="M634.381,388.093a59.546,59.546,0,0,1-19.561,23.538c-3.8,2.635-11.253,8.482-19.214,14.865-14.082,11.29-29.767,24.275-29.767,24.275L571,522.87c-7.077,5.918-18.786,10.212-29.61,6.093h-.01l-19.9-95.973,45.934-62.549L580.6,352.483s18.311-9.866,39.149-9.966a58.131,58.131,0,0,1,12.95,1.332C641.157,361.729,639.5,376.669,634.381,388.093Z" transform="translate(17014.602 13830.224)" fill="none" stroke="#000" stroke-linecap="round" stroke-linejoin="round" stroke-width="1.958"/>
      <path id="Path_9348" data-name="Path 9348" d="M617.938,397.968l-34.161,26.181c-6.84-16.916-21.422-25.041-48.98-24.522,9.593-13.068,29.328-41.7,29.328-41.7L615.1,372.889Z" transform="translate(17020.648 13837.222)" fill="#fff"/>
      <path id="Path_9349" data-name="Path 9349" d="M617.938,397.968l-34.161,26.181c-6.84-16.916-21.422-25.041-48.98-24.522,9.593-13.068,29.328-41.7,29.328-41.7L615.1,372.889Z" transform="translate(17020.648 13837.222)" fill="none" stroke="#000" stroke-linecap="round" stroke-linejoin="round" stroke-width="1.958"/>
      <path id="Path_9350" data-name="Path 9350" d="M537.98,393.209c6.629-.766,25.771-5.764,45.752,9.575a91.424,91.424,0,0,1,12.148-7.906l-4.058,13.058a159.739,159.739,0,0,1,12.812,13.971s49.436-47.255,16.05-76.747c-13.487-2.026-47.9,4.048-47.9,4.048l-34.808,44.01Z" transform="translate(17022.09 13831.237)" fill="#007680"/>
      <path id="Path_9351" data-name="Path 9351" d="M537.98,393.209c6.629-.766,25.771-5.764,45.752,9.575a91.424,91.424,0,0,1,12.148-7.906l-4.058,13.058a159.739,159.739,0,0,1,12.812,13.971s49.436-47.255,16.05-76.747c-13.487-2.026-47.9,4.048-47.9,4.048l-34.808,44.01Z" transform="translate(17022.09 13831.237)" fill="none" stroke="#000" stroke-linecap="round" stroke-linejoin="round" stroke-width="1.958"/>
      <path id="Path_9352" data-name="Path 9352" d="M525.315,310.1,545.55,326.53l7.487-55.5-6.055-1.578Z" transform="translate(17016.342 13797.046)" fill="#89d8ff"/>
      <path id="Path_9353" data-name="Path 9353" d="M525.315,310.1,545.55,326.53l7.487-55.5-6.055-1.578Z" transform="translate(17016.342 13797.046)" fill="none" stroke="#000" stroke-linecap="round" stroke-linejoin="round" stroke-width="1.958"/>
      <path id="Path_9354" data-name="Path 9354" d="M590.42,263.376l17.9,5.089.446,69.36,17.874,41.96c-17.765,9.676-66.534,10.022-75.481,8.115-12.357-38.429-14.3-59.349-15.658-69.234-2.809-20.573,3.32-41.685,7.167-46.454C550.641,266.777,590.42,263.376,590.42,263.376Z" transform="translate(17020.645 13794.287)" fill="#89d8ff"/>
      <path id="Path_9355" data-name="Path 9355" d="M590.42,263.376l17.9,5.089.446,69.36,17.874,41.96c-17.765,9.676-66.534,10.022-75.481,8.115-12.357-38.429-14.3-59.349-15.658-69.234-2.809-20.573,3.32-41.685,7.167-46.454C550.641,266.777,590.42,263.376,590.42,263.376Z" transform="translate(17020.645 13794.287)" fill="none" stroke="#000" stroke-linecap="round" stroke-linejoin="round" stroke-width="1.958"/>
      <path id="Path_9356" data-name="Path 9356" d="M568.4,249.613l13.587,21.612c-7.816,9.348-17.154,16-24.24,14.82s-7.615-21.2-7.615-21.2L568.4,249.6Z" transform="translate(17027.611 13788.033)" fill="#ff80aa"/>
      <path id="Path_9357" data-name="Path 9357" d="M568.4,249.613l13.587,21.612c-7.816,9.348-17.154,16-24.24,14.82s-7.615-21.2-7.615-21.2L568.4,249.6Z" transform="translate(17027.611 13788.033)" fill="none" stroke="#000" stroke-linecap="round" stroke-linejoin="round" stroke-width="1.958"/>
      <path id="Path_9358" data-name="Path 9358" d="M538.767,270.1c3.958,8.317,10.387,13.077,19.041,11.454,9.183-1.723,16.652-7.641,21.659-16.716,4.258-7.714-1.131-19.505-.164-26.51,2.28-16.5-45.688-6.055-46.035,2.38-.291,6.958.811,19.534,5.508,29.392Z" transform="translate(17019.934 13778.948)" fill="#ff80aa"/>
      <path id="Path_9359" data-name="Path 9359" d="M538.767,270.1c3.958,8.317,10.387,13.077,19.041,11.454,9.183-1.723,16.652-7.641,21.659-16.716,4.258-7.714-1.131-19.505-.164-26.51,2.28-16.5-45.688-6.055-46.035,2.38-.291,6.958.811,19.534,5.508,29.392Z" transform="translate(17019.934 13778.948)" fill="none" stroke="#000" stroke-linecap="round" stroke-linejoin="round" stroke-width="1.958"/>
      <path id="Path_9360" data-name="Path 9360" d="M536.314,245.414c1.153,0,2.088,1.323,2.088,2.955s-.935,2.955-2.088,2.955-2.088-1.323-2.088-2.955.935-2.955,2.088-2.955" transform="translate(17020.389 13786.13)" fill="#020202"/>
      <path id="Path_9361" data-name="Path 9361" d="M548.45,246.167c1.153,0,2.088,1.323,2.088,2.955s-.935,2.955-2.088,2.955-2.088-1.323-2.088-2.955.935-2.955,2.088-2.955" transform="translate(17025.9 13786.473)" fill="#020202"/>
      <path id="Path_9362" data-name="Path 9362" d="M552.8,255.52c-4.1,5.18-13.113,6.539-17.419-2.718" transform="translate(17020.912 13789.485)" fill="none" stroke="#000" stroke-linecap="round" stroke-linejoin="round" stroke-width="1.958"/>
      <path id="Path_9363" data-name="Path 9363" d="M535.684,246.207c5.088,4.231,31.411-.262,31.411-.262C565.286,259.13,577.16,256.1,577.16,256.1a4.057,4.057,0,0,1,4.9,1.093,37.92,37.92,0,0,1,4.294,7.468c1.6-19.232,8.317-31.078-2.808-34.5-9.34-24.548-31.68-5.635-54.388-7.167-3.292,9.74.126,17.893,6.52,23.209Z" transform="translate(17017.508 13773.445)" fill="#00aded"/>
      <path id="Path_9364" data-name="Path 9364" d="M535.684,246.207c5.088,4.231,31.411-.262,31.411-.262C565.286,259.13,577.16,256.1,577.16,256.1a4.057,4.057,0,0,1,4.9,1.093,37.92,37.92,0,0,1,4.294,7.468c1.6-19.232,8.317-31.078-2.808-34.5-9.34-24.548-31.68-5.635-54.388-7.167-3.292,9.74.126,17.893,6.52,23.209Z" transform="translate(17017.508 13773.445)" fill="none" stroke="#000" stroke-linecap="round" stroke-linejoin="round" stroke-width="1.958"/>
      <path id="Path_9365" data-name="Path 9365" d="M561.777,245.374s7.167-7.2,11.463-2.946c4.925,4.9-.92,12.95-2.872,14a6.372,6.372,0,0,1-5.48.5" transform="translate(17032.9 13784.163)" fill="#ff80aa"/>
      <path id="Path_9366" data-name="Path 9366" d="M561.777,245.374s7.167-7.2,11.463-2.946c4.925,4.9-.92,12.95-2.872,14a6.372,6.372,0,0,1-5.48.5" transform="translate(17032.9 13784.163)" fill="none" stroke="#000" stroke-linecap="round" stroke-linejoin="round" stroke-width="1.958"/>
      <path id="Path_9367" data-name="Path 9367" d="M594.885,264.7l-15.794-1.322c-8.992,23.7-17.135,45.6-18.932,54.142s2.745,47.42,2.745,47.42c26.994,4.6,43.709-7.852,43.709-7.852l-8.728-22.142s5.134-38.694-3-70.255Z" transform="translate(17031.975 13794.287)" fill="#ffd100"/>
      <path id="Path_9368" data-name="Path 9368" d="M594.885,264.7l-15.794-1.322c-8.992,23.7-17.135,45.6-18.932,54.142s2.745,47.42,2.745,47.42c26.994,4.6,43.709-7.852,43.709-7.852l-8.728-22.142s5.134-38.694-3-70.255Z" transform="translate(17031.975 13794.287)" fill="none" stroke="#000" stroke-linecap="round" stroke-linejoin="round" stroke-width="1.958"/>
      <path id="Path_9369" data-name="Path 9369" d="M543.133,270.709l9.446-4.022c-2.114,29.675.173,53.066.337,57.981s5.718,37.764,5.718,37.764a17.86,17.86,0,0,1-16.3,2.233s-8.9-57.251-8.536-67.191,8.435-25.169,9.338-26.774Z" transform="translate(17020.191 13795.79)" fill="#ffd100"/>
      <path id="Path_9370" data-name="Path 9370" d="M543.133,270.709l9.446-4.022c-2.114,29.675.173,53.066.337,57.981s5.718,37.764,5.718,37.764a17.86,17.86,0,0,1-16.3,2.233s-8.9-57.251-8.536-67.191,8.435-25.169,9.338-26.774Z" transform="translate(17020.191 13795.79)" fill="none" stroke="#000" stroke-linecap="round" stroke-linejoin="round" stroke-width="1.958"/>
      <path id="Path_9371" data-name="Path 9371" d="M565.665,303.162l-18.9,1.469.749,7.368,18.092-1.458Z" transform="translate(17026.084 13812.354)" fill="#ffd100"/>
      <path id="Path_9372" data-name="Path 9372" d="M565.665,303.162l-18.9,1.469.749,7.368,18.092-1.458Z" transform="translate(17026.084 13812.354)" fill="none" stroke="#000" stroke-linecap="round" stroke-linejoin="round" stroke-width="1.958"/>
      <path id="Path_9373" data-name="Path 9373" d="M565.4,314.727l-17.208,1.3.829,7.122,17.1-2.034Z" transform="translate(17026.73 13817.605)" fill="#ffd100"/>
      <path id="Path_9374" data-name="Path 9374" d="M565.4,314.727l-17.208,1.3.829,7.122,17.1-2.034Z" transform="translate(17026.73 13817.605)" fill="none" stroke="#000" stroke-linecap="round" stroke-linejoin="round" stroke-width="1.958"/>
      <path id="Path_9375" data-name="Path 9375" d="M664.548,341.737l-59.14,66.5-12.675-1.187-9.347-18.476,8.335-13.815,15.85.228,21.5-32.538s-39.652-30.75-42.579-35.8c-10.76-18.566-4.641-40.918-4.641-40.918,19.142,2.809,32.867,19.3,39.706,26.245s42.98,49.756,42.98,49.756Z" transform="translate(17041.23 13795.354)" fill="#ff80aa"/>
      <path id="Path_9376" data-name="Path 9376" d="M664.548,341.737l-59.14,66.5-12.675-1.187-9.347-18.476,8.335-13.815,15.85.228,21.5-32.538s-39.652-30.75-42.579-35.8c-10.76-18.566-4.641-40.918-4.641-40.918,19.142,2.809,32.867,19.3,39.706,26.245s42.98,49.756,42.98,49.756Z" transform="translate(17041.23 13795.354)" fill="none" stroke="#000" stroke-linecap="round" stroke-linejoin="round" stroke-width="1.958"/>
      <path id="Path_9377" data-name="Path 9377" d="M631.385,300.408l-25.352,23.546s-17.216-13.16-19.323-17.308c-7.925-8.764-8.682-31.59-4.641-40.918,18.467,3.318,31.862,15.457,49.317,34.68" transform="translate(17041.025 13795.354)" fill="#89d8ff"/>
      <path id="Path_9378" data-name="Path 9378" d="M631.385,300.408l-25.352,23.546s-17.216-13.16-19.323-17.308c-7.925-8.764-8.682-31.59-4.641-40.918C600.535,269.046,613.93,281.185,631.385,300.408Z" transform="translate(17041.025 13795.354)" fill="none" stroke="#000" stroke-linecap="round" stroke-linejoin="round" stroke-width="1.958"/>
      <path id="Path_9379" data-name="Path 9379" d="M584.1,305.765l-21.012,1.085,2.837,27.4,18.64-1.706Z" transform="translate(17033.494 13813.535)" fill="#ffd100"/>
      <path id="Path_9380" data-name="Path 9380" d="M584.1,305.765l-21.012,1.085,2.837,27.4,18.64-1.706Z" transform="translate(17033.494 13813.535)" fill="none" stroke="#000" stroke-linecap="round" stroke-linejoin="round" stroke-width="1.958"/>
      <path id="Path_9381" data-name="Path 9381" d="M581.169,309.474c-.145-1.988-2.362-6.264-5.3-6.922-.154-2.508-.438-4.7-.438-4.7l-5.252.284-.32,4.458c-2.161.292-5.918,3.813-4.97,7.715Z" transform="translate(17034.244 13809.944)" fill="#89d8ff"/>
      <path id="Path_9382" data-name="Path 9382" d="M581.169,309.474c-.145-1.988-2.362-6.264-5.3-6.922-.154-2.508-.438-4.7-.438-4.7l-5.252.284-.32,4.458c-2.161.292-5.918,3.813-4.97,7.715Z" transform="translate(17034.244 13809.944)" fill="none" stroke="#000" stroke-linecap="round" stroke-linejoin="round" stroke-width="1.958"/>
      <line id="Line_387" data-name="Line 387" x1="11.471" transform="translate(17627.117 14188.862)" fill="none" stroke="#000" stroke-linecap="round" stroke-linejoin="round" stroke-width="1.958"/>
      <line id="Line_388" data-name="Line 388" x1="8.956" transform="translate(17631.418 14195.903)" fill="none" stroke="#000" stroke-linecap="round" stroke-linejoin="round" stroke-width="1.958"/>
      <path id="Path_9383" data-name="Path 9383" d="M596.8,344.836l-5.344,5.654-8.508.758" transform="translate(17042.514 13831.277)" fill="none" stroke="#000" stroke-linecap="round" stroke-linejoin="round" stroke-width="1.958"/>
      <line id="Line_389" data-name="Line 389" x1="0.009" transform="translate(17555.984 14359.186)" fill="none" stroke="#000" stroke-linecap="round" stroke-linejoin="round" stroke-width="1.958"/>
      <path id="Path_9384" data-name="Path 9384" d="M604.513,334.792c2.59-.4,10.706,3.657,11.947,6.392-3.392,7.041-4.806,6.129-4.806,6.129-4.306-2.982-9.111-5.006-11.929-5.28A22.416,22.416,0,0,1,604.513,334.792Z" transform="translate(17050.133 13826.704)" fill="#007680"/>
      <path id="Path_9385" data-name="Path 9385" d="M604.513,334.792c2.59-.4,10.706,3.657,11.947,6.392-3.392,7.041-4.806,6.129-4.806,6.129-4.306-2.982-9.111-5.006-11.929-5.28A22.416,22.416,0,0,1,604.513,334.792Z" transform="translate(17050.133 13826.704)" fill="none" stroke="#000" stroke-linecap="round" stroke-linejoin="round" stroke-width="1.958"/>
      <path id="Path_9386" data-name="Path 9386" d="M613.846,336.921c4.618,0,8.362,4.009,8.362,8.956s-3.744,8.954-8.362,8.954-8.363-4.009-8.363-8.954,3.744-8.956,8.363-8.956" transform="translate(17052.746 13827.684)" fill="#007680"/>
      <path id="Path_9387" data-name="Path 9387" d="M613.846,336.921c4.618,0,8.362,4.009,8.362,8.956s-3.744,8.954-8.362,8.954-8.363-4.009-8.363-8.954S609.227,336.921,613.846,336.921Z" transform="translate(17052.746 13827.684)" fill="none" stroke="#000" stroke-linecap="round" stroke-linejoin="round" stroke-width="1.958"/>
      <g id="Group_3429" data-name="Group 3429" transform="translate(17473.48 14118.957)" opacity="0.19">
        <g id="Group_3428" data-name="Group 3428" transform="translate(0 0)">
          <g id="Group_3427" data-name="Group 3427" clip-path="url(#clip-path-24)">
            <path id="Path_9388" data-name="Path 9388" d="M561.493,305.529s-18.473,30.25-23.9,30.036-59.163-15.3-59.163-15.3l64.988,29.284,20.4-27.122Z" transform="translate(-478.429 -305.529)"/>
          </g>
        </g>
      </g>
      <g id="Group_3432" data-name="Group 3432" transform="translate(17470.078 14115.67)" opacity="0.19">
        <g id="Group_3431" data-name="Group 3431" transform="translate(0 0)">
          <g id="Group_3430" data-name="Group 3430" clip-path="url(#clip-path-25)">
            <path id="Path_9389" data-name="Path 9389" d="M494.6,303.268l.646,6.981s-1.615,9.306-3.166,9.306-16-7.173-16-7.173l10.179,1.777Z" transform="translate(-476.089 -303.268)"/>
          </g>
        </g>
      </g>
      <g id="Group_3435" data-name="Group 3435" transform="translate(17633.963 14107.8)" opacity="0.19">
        <g id="Group_3434" data-name="Group 3434" transform="translate(0 0)">
          <g id="Group_3433" data-name="Group 3433" clip-path="url(#clip-path-26)">
            <path id="Path_9390" data-name="Path 9390" d="M635.667,297.856l24.474,28.74-29.652,34.419s.43,10.151-10.8,12.145l-18.22,20.487-12.675-1.187s21.937-20.333,26.229-23.085,30.661-33.773,29.886-44.114-9.242-27.4-9.242-27.4" transform="translate(-588.794 -297.856)"/>
          </g>
        </g>
      </g>
      <g id="Group_3438" data-name="Group 3438" transform="translate(17594.256 14095.037)" opacity="0.19">
        <g id="Group_3437" data-name="Group 3437" transform="translate(0 0)">
          <g id="Group_3436" data-name="Group 3436" clip-path="url(#clip-path-27)">
            <path id="Path_9391" data-name="Path 9391" d="M598.65,301.842l-1.559,21.43,8.726,22.142,6.561,17.676s-31.584-2.729-46.162-5.02c-2.578-.4-6.189-3.916-4.108-4.8,1.841-.785,9.029,1.018,12.322,1.018,17.547-2.561,18.537-12.888,18.265-20.642s-1.732-44.562-1.732-44.562c3.993,6.962,7.686,12.763,7.686,12.763" transform="translate(-561.488 -289.079)"/>
          </g>
        </g>
      </g>
      <g id="Group_3441" data-name="Group 3441" transform="translate(17573.711 14043.782)" opacity="0.19">
        <g id="Group_3440" data-name="Group 3440" transform="translate(0 0)">
          <g id="Group_3439" data-name="Group 3439" clip-path="url(#clip-path-28)">
            <path id="Path_9392" data-name="Path 9392" d="M573.049,253.83S566.2,268.3,547.358,271.492c5.206,10.942,20.583,17.587,25.691-17.662" transform="translate(-547.36 -253.83)"/>
          </g>
        </g>
      </g>
      <g id="Group_3444" data-name="Group 3444" transform="translate(17565.311 14066.492)" opacity="0.19">
        <g id="Group_3443" data-name="Group 3443" transform="translate(0 0)">
          <g id="Group_3442" data-name="Group 3442" clip-path="url(#clip-path-29)">
            <path id="Path_9393" data-name="Path 9393" d="M548.781,269.455c-.2-.707-.25,51.558-.25,51.558l6.567,37.638s-2.3,6.062-13.516,4.548c1.639,5.931,1.1,7.518,1.1,7.518s16.25-1.869,17.483-7.518-7.961-81.536-11.378-93.744" transform="translate(-541.582 -269.448)"/>
          </g>
        </g>
      </g>
      <g id="Group_3447" data-name="Group 3447" transform="translate(17566.654 14196.246)" opacity="0.19">
        <g id="Group_3446" data-name="Group 3446" transform="translate(0 0)">
          <g id="Group_3445" data-name="Group 3445" clip-path="url(#clip-path-30)">
            <path id="Path_9394" data-name="Path 9394" d="M629.022,358.681c1.176,4.813-.556,16.343-3.312,23.122,1.155,5.275-9.485,42-14.779,48.973a37.685,37.685,0,0,1-8.906,8.489l-15.966-20.109-29.765,24.276L563.479,543.9s-2.918,8.4-7.186,9.421c-3.352-29.7-11.455-94.62-13.722-112.726a8.413,8.413,0,0,1,3.219-7.715l40.735-31.385s28.032-23.359,28.643-36.149a19.754,19.754,0,0,0,8.365-.776Z" transform="translate(-542.505 -358.681)"/>
          </g>
        </g>
      </g>
      <g id="Group_3450" data-name="Group 3450" transform="translate(17574.033 14380.502)" opacity="0.19">
        <g id="Group_3449" data-name="Group 3449" transform="translate(0 0)">
          <g id="Group_3448" data-name="Group 3448" clip-path="url(#clip-path-31)">
            <path id="Path_9395" data-name="Path 9395" d="M556.277,495.285c-.518,2.268-9.758,24.4-8.6,29.792s5.105,12.185,5.105,12.185,3.426-10.06,8.208-10.627c2.217-.262,12.925-4.537,13.959-11.342s-1.054-18.5-4.394-18.149c-4.4.467-2.456-11.845-8.661-11.748-.9,3.97-5.623,9.888-5.623,9.888" transform="translate(-547.58 -485.396)"/>
          </g>
        </g>
      </g>
    </g>
  </g>
</svg>
