<svg xmlns="http://www.w3.org/2000/svg" width="314.386" height="314.405" viewBox="0 0 314.386 314.405">
  <g id="Group_62" data-name="Group 62" transform="translate(-1965.391 2514.237)">
    <path id="Path_302" data-name="Path 302" d="M157.971,314.484C71.29,314.484.778,243.952.778,157.271S71.29.078,157.971.078,315.164,70.59,315.164,157.271,244.652,314.464,157.971,314.464Zm0-291.362C84,23.121,23.821,83.3,23.821,157.271S84,291.421,157.971,291.421s134.15-60.181,134.15-134.15S231.959,23.121,157.971,23.121Z" transform="translate(1964.613 -2514.315)"/>
    <path id="Path_303" data-name="Path 303" d="M21.176,40.252l16.3-16.3L80.435,66.906l42.957-42.957,16.284,16.3-59.24,59.24Z" transform="translate(2037.172 -2276.609) rotate(-90)"/>
    <path id="Path_304" data-name="Path 304" d="M21.176,40.252l16.3-16.3L80.435,66.906l42.957-42.957,16.284,16.3-59.24,59.24Z" transform="translate(2101.173 -2276.609) rotate(-90)"/>
  </g>
</svg>
