<svg xmlns="http://www.w3.org/2000/svg" width="314.386" height="314.405" viewBox="0 0 314.386 314.405">
  <g id="Group_66" data-name="Group 66" transform="translate(-4499.858 1950.237)">
    <path id="Path_379" data-name="Path 379" d="M157.971,314.484C71.29,314.484.778,243.952.778,157.271S71.29.078,157.971.078,315.164,70.59,315.164,157.271,244.652,314.464,157.971,314.464Zm0-291.362C84,23.121,23.821,83.3,23.821,157.271S84,291.421,157.971,291.421s134.15-60.181,134.15-134.15S231.959,23.121,157.971,23.121Z" transform="translate(4499.08 -1950.315)"/>
    <path id="Union_12" data-name="Union 12" d="M97.236,213.078A65.1,65.1,0,0,1,57.453,153.1V92.048a64.443,64.443,0,0,1,5.115-25.311,65.117,65.117,0,0,1,59.571-39.79l.023-.023h.415a65.176,65.176,0,0,1,65.1,65.1v61.052a64.713,64.713,0,0,1-11.133,36.389,65.4,65.4,0,0,1-28.667,23.6,65.093,65.093,0,0,1-50.642.006ZM65.553,153.1a57.022,57.022,0,0,0,109.519,22.159,56.491,56.491,0,0,0,4.484-22.159V94.461l-.019.02V92.066a57.066,57.066,0,0,0-57-57,56.471,56.471,0,0,0-22.15,4.488A57.242,57.242,0,0,0,82.267,51.777,57.732,57.732,0,0,0,75.3,60.209a56.632,56.632,0,0,0-9.749,31.837v5.1h7.13v-5.1a49.849,49.849,0,0,1,99.7,0V153.1a49.85,49.85,0,0,1-99.7,0V123.594h-7.13Zm15.276,0a41.8,41.8,0,0,0,41.728,41.727,41.581,41.581,0,0,0,29.474-12.235A41.657,41.657,0,0,0,164.282,153.1V91.633l.022-.022A41.749,41.749,0,0,0,84.119,75.829a41.292,41.292,0,0,0-3.29,16.219v5.1h7.13v-5.1a34.576,34.576,0,1,1,69.152,0V153.1a34.576,34.576,0,1,1-69.152,0V123.594h-7.13Zm15.293-.022A26.506,26.506,0,0,0,122.6,179.554a26.479,26.479,0,0,0,26.475-26.475V92.027A26.506,26.506,0,0,0,122.6,65.551a26.139,26.139,0,0,0-10.285,2.09,26.747,26.747,0,0,0-14.1,14.1,26.155,26.155,0,0,0-2.089,10.286v5.1h7.13v-5.1a19.3,19.3,0,0,1,38.6,0v61.052a19.3,19.3,0,0,1-38.6,0V123.573h-7.13Zm18.529-68.955a11.131,11.131,0,0,0-3.277,7.924V153.1a11.2,11.2,0,1,0,22.4,0V92.048a11.207,11.207,0,0,0-19.126-7.924Zm-18.529,31.35h7.13v-10.2h-7.13Zm-15.273,0h7.129v-10.2H80.849ZM65.6,115.45h7.13v-10.2H65.6Z" transform="translate(4536.072 -1922.843)"/>
  </g>
</svg>
