<svg xmlns="http://www.w3.org/2000/svg" width="314.386" height="314.405" viewBox="0 0 314.386 314.405">
  <g id="Group_72" data-name="Group 72" transform="translate(-1592.7 1941.995)">
    <path id="Path_354" data-name="Path 354" d="M157.971,314.484C71.29,314.484.778,243.952.778,157.271S71.29.078,157.971.078,315.164,70.59,315.164,157.271,244.652,314.464,157.971,314.464Zm0-291.362C84,23.121,23.821,83.3,23.821,157.271S84,291.421,157.971,291.421s134.15-60.181,134.15-134.15S231.959,23.121,157.971,23.121Z" transform="translate(1591.922 -1942.073)"/>
    <path id="Path_353" data-name="Path 353" d="M2.483,85.978h8.361L4.1,136.947c-.5,3.861,1.872,6.693,3.245,3.6L40.671,67.7c1.5-3.089.374-8.495-1.747-8.495H27.193L38.175,6.95C38.924,3.6,37.676,0,35.928,0H13.964c-1.123,0-2,1.545-2.371,3.6L.111,79.285C-.388,82.631.86,85.978,2.483,85.978Z" transform="translate(1667.339 -1856.074) rotate(1)"/>
    <path id="Union_11" data-name="Union 11" d="M41.012,140.985,82.024,99.974,41.012,58.962,59.746,40.228l41.012,41.011,40.227-40.227,18.734,18.734L119.491,99.974,159.719,140.2l-18.734,18.733-40.227-40.227L59.746,159.719Z" transform="translate(1679.649 -1884.766)"/>
  </g>
</svg>
