<svg xmlns="http://www.w3.org/2000/svg" width="314.386" height="314.405" viewBox="0 0 314.386 314.405">
  <g id="Group_71" data-name="Group 71" transform="translate(-3306 1293)">
    <path id="Path_383" data-name="Path 383" d="M157.971,314.484C71.29,314.484.778,243.952.778,157.271S71.29.078,157.971.078,315.164,70.59,315.164,157.271,244.652,314.464,157.971,314.464Zm0-291.362C84,23.121,23.821,83.3,23.821,157.271S84,291.421,157.971,291.421s134.15-60.181,134.15-134.15S231.959,23.121,157.971,23.121Z" transform="translate(3305.222 -1293.078)"/>
    <g id="Group_70" data-name="Group 70" transform="translate(8.297 11.617)">
      <path id="Path_384" data-name="Path 384" d="M2.483,85.978h8.361L4.1,136.947c-.5,3.861,1.872,6.693,3.245,3.6L40.671,67.7c1.5-3.089.374-8.495-1.747-8.495H27.193L38.175,6.95C38.924,3.6,37.676,0,35.928,0H13.964c-1.123,0-2,1.545-2.371,3.6L.111,79.285C-.388,82.631.86,85.978,2.483,85.978Z" transform="translate(3381.703 -1209.153) rotate(-19)"/>
      <path id="Path_385" data-name="Path 385" d="M2.483,85.978h8.361L4.1,136.947c-.5,3.861,1.872,6.693,3.245,3.6L40.671,67.7c1.5-3.089.374-8.495-1.747-8.495H27.193L38.175,6.95C38.924,3.6,37.676,0,35.928,0H13.964c-1.123,0-2,1.545-2.371,3.6L.111,79.285C-.388,82.631.86,85.978,2.483,85.978Z" transform="translate(3486.282 -1218.617) rotate(7)"/>
    </g>
  </g>
</svg>
