<svg xmlns="http://www.w3.org/2000/svg" width="314.386" height="314.405" viewBox="0 0 314.386 314.405">
  <g id="Group_65" data-name="Group 65" transform="translate(-5601.271 1318.937)">
    <path id="Path_305" data-name="Path 305" d="M157.971,314.484C71.29,314.484.778,243.952.778,157.271S71.29.078,157.971.078,315.164,70.59,315.164,157.271,244.652,314.464,157.971,314.464Zm0-291.362C84,23.121,23.821,83.3,23.821,157.271S84,291.421,157.971,291.421s134.15-60.181,134.15-134.15S231.959,23.121,157.971,23.121Z" transform="translate(5600.493 -1319.016)"/>
    <path id="Union_7" data-name="Union 7" d="M61.284,80.021,22.6,118.706,3.865,99.974,42.55,61.287,0,18.737,18.733,0,61.284,42.555,103.838,0l18.734,18.733L80.016,61.287l38.69,38.69L99.973,118.71Z" transform="translate(5697.188 -1221.09)"/>
  </g>
</svg>
