<svg xmlns="http://www.w3.org/2000/svg" width="314.386" height="314.405" viewBox="0 0 314.386 314.405">
  <g id="Group_64" data-name="Group 64" transform="translate(-4499.858 2513.46)">
    <path id="Path_365" data-name="Path 365" d="M157.971,314.484C71.29,314.484.778,243.952.778,157.271S71.29.078,157.971.078,315.164,70.59,315.164,157.271,244.652,314.464,157.971,314.464Zm0-291.362C84,23.121,23.821,83.3,23.821,157.271S84,291.421,157.971,291.421s134.15-60.181,134.15-134.15S231.959,23.121,157.971,23.121Z" transform="translate(4499.08 -2513.539)"/>
    <path id="Union_5" data-name="Union 5" d="M26.852,148.388l.427-19.93s41.38,1.562,56.52-4.137,20.358-8.936,31.5-30.42c6.125-11.813,7.681-31.179,7.841-46.219L94.373,77.468,79.7,63.282,131.25,9.9l53.4,51.55L170.462,76.141,142.034,48.688c-.134,18.183-2.043,44.939-11.074,61.041-14.666,26.149-26.484,29.342-45.513,35.407-9.872,3.147-25.274,3.9-37.808,3.9C36.012,149.04,26.852,148.388,26.852,148.388Z" transform="translate(4559.21 -2437.604)"/>
  </g>
</svg>
