<svg xmlns="http://www.w3.org/2000/svg" width="314.386" height="314.405" viewBox="0 0 314.386 314.405">
  <g id="Group_67" data-name="Group 67" transform="translate(-1592.7 835.967)">
    <path id="Path_328" data-name="Path 328" d="M157.971,314.484C71.29,314.484.778,243.952.778,157.271S71.29.078,157.971.078,315.164,70.59,315.164,157.271,244.652,314.464,157.971,314.464Zm0-291.362C84,23.121,23.821,83.3,23.821,157.271S84,291.421,157.971,291.421s134.15-60.181,134.15-134.15S231.959,23.121,157.971,23.121Z" transform="translate(1591.922 -836.045)"/>
    <path id="Union_13" data-name="Union 13" d="M4.714,156.491l29.831-56.9.094.045,3.04-6.12,40.028,20.4L116.68,39.249,72.042,60.063,62.317,39.174,138.245,3.768,173.67,79.7l-20.9,9.743L133.425,47.952,86.085,138.64l-.763-.413-.295.594L45.76,118.813l-24,45.779Z" transform="translate(1667.119 -763.385)"/>
  </g>
</svg>
