<svg xmlns="http://www.w3.org/2000/svg" width="314.386" height="314.405" viewBox="0 0 314.386 314.405">
  <g id="Group_63" data-name="Group 63" transform="translate(-3381.704 2513.46)">
    <path id="Path_337" data-name="Path 337" d="M157.971,314.484C71.29,314.484.778,243.952.778,157.271S71.29.078,157.971.078,315.164,70.59,315.164,157.271,244.652,314.464,157.971,314.464Zm0-291.362C84,23.121,23.821,83.3,23.821,157.271S84,291.421,157.971,291.421s134.15-60.181,134.15-134.15S231.959,23.121,157.971,23.121Z" transform="translate(3380.926 -2513.539)"/>
    <path id="Path_336" data-name="Path 336" d="M221.492,46.309H21.175V64.521H221.492Z" transform="translate(3417.563 -2400.246)"/>
    <circle id="Ellipse_1" data-name="Ellipse 1" cx="24.5" cy="24.5" r="24.5" transform="translate(3450 -2407.937)"/>
    <circle id="Ellipse_2" data-name="Ellipse 2" cx="24.5" cy="24.5" r="24.5" transform="translate(3578 -2407.937)"/>
    <circle id="Ellipse_8" data-name="Ellipse 8" cx="24.5" cy="24.5" r="24.5" transform="translate(3514 -2331.937)"/>
  </g>
</svg>
