<svg xmlns="http://www.w3.org/2000/svg" width="314.386" height="314.405" viewBox="0 0 314.386 314.405">
  <g id="Group_72" data-name="Group 72" transform="translate(-3381.703 1949.46)">
    <path id="Path_338" data-name="Path 338" d="M157.971,314.484C71.29,314.484.778,243.952.778,157.271S71.29.078,157.971.078,315.164,70.59,315.164,157.271,244.652,314.464,157.971,314.464Zm0-291.362C84,23.121,23.821,83.3,23.821,157.271S84,291.421,157.971,291.421s134.15-60.181,134.15-134.15S231.959,23.121,157.971,23.121Z" transform="translate(3380.925 -1949.539)"/>
    <path id="Path_386" data-name="Path 386" d="M111,144.8a16.1,16.1,0,0,1,5.974-12.535L98.341,100.193a25.086,25.086,0,0,1-20.748-.02L58.906,132.188a16.067,16.067,0,1,1-4.342-2.48L73.278,97.649A25,25,0,0,1,63.091,79.9H32.079a16.136,16.136,0,1,1,0-5H63.091a24.986,24.986,0,0,1,9.274-17.046L55.016,31.049a16.156,16.156,0,1,1,4.267-2.61l17.278,26.7a25.07,25.07,0,0,1,22.814-.022l17.234-26.753A16.073,16.073,0,1,1,120.855,31l-17.28,26.824a24.983,24.983,0,0,1,9.307,17.015l31.041-.076a16.138,16.138,0,1,1-.043,5l-30.986.076a25,25,0,0,1-10.232,17.834L121.3,129.752A16.139,16.139,0,1,1,111,144.8Zm7.555-8.582a12.059,12.059,0,1,0,4.783-2.952l-4.322,2.513Q118.785,135.992,118.559,136.218Zm-78.3,0a12.135,12.135,0,1,0,17.162,0q-.273-.273-.56-.526l-4.35-2.466a22.524,22.524,0,0,0-3.672-.563A12.056,12.056,0,0,0,40.259,136.218Zm111-50.231A12.127,12.127,0,1,0,148,74.757l-.061,5A12.049,12.049,0,0,0,151.263,85.987ZM7.555,68.823a12.134,12.134,0,1,0,8.581-3.555A12.057,12.057,0,0,0,7.555,68.823ZM127.139,28.274a12.137,12.137,0,0,0,0-24.274,12.137,12.137,0,0,0-8.581,20.719q.121.121.244.238l4.261,2.619A12.143,12.143,0,0,0,127.139,28.274ZM40.26,7.555A12.144,12.144,0,0,0,52.795,27.618l4.29-2.574q.171-.159.337-.325A12.136,12.136,0,1,0,40.26,7.555Z" transform="translate(3450.907 -1872.726)"/>
  </g>
</svg>
