<svg width="68" height="69" viewBox="0 0 68 69" fill="none" xmlns="http://www.w3.org/2000/svg">
<g clip-path="url(#clip0_2490_3317)">
<path d="M33.9736 68.5187C15.2393 68.5187 -0.000488281 53.2748 -0.000488281 34.5405C-0.000488281 15.8062 15.2393 0.566406 33.9736 0.566406C52.7079 0.566406 67.9476 15.8062 67.9476 34.5405C67.9476 53.2748 52.7079 68.5145 33.9736 68.5145V68.5187ZM33.9736 5.54672C17.9868 5.54672 4.97983 18.5536 4.97983 34.5405C4.97983 50.5273 17.9868 63.5342 33.9736 63.5342C49.9604 63.5342 62.9673 50.5273 62.9673 34.5405C62.9673 18.5536 49.9645 5.54672 33.9736 5.54672Z" fill="black"/>
<path d="M58.3266 32.0508H38.8121V37.0311H58.3266V32.0508Z" fill="black"/>
<path d="M47.2481 47.3457L34.4404 34.5379L47.2481 21.7344L50.7675 25.2538L41.4834 34.5379L50.7675 43.8221L47.2481 47.3457Z" fill="black"/>
<path d="M29.1373 32.0508H9.6228V37.0311H29.1373V32.0508Z" fill="black"/>
<path d="M20.6996 47.3457L17.1761 43.8221L26.4602 34.5379L17.1761 25.2538L20.6996 21.7344L33.5032 34.5379L20.6996 47.3457Z" fill="black"/>
</g>
<defs>
<clipPath id="clip0_2490_3317">
<rect width="67.9523" height="67.9523" fill="white" transform="translate(0 0.566406)"/>
</clipPath>
</defs>
</svg>
