<?xml version="1.0" encoding="UTF-8"?><svg id="Layer_1" xmlns="http://www.w3.org/2000/svg" viewBox="0 0 1920 423.28"><defs><style>.cls-1{fill:#211e1f;}</style></defs><path class="cls-1" d="M1357.2,195.34c6.25-5.57,12.49-11.11,18.76-16.68h100.3c17.34,0,7.31,16.68-14.98,16.68h-104.07ZM1484.08,218.97s27.02-6.99,48.03-22.63c27.01-20.1,11.44-37.6-11.64-37.6h-399.7c-8.77,7.8-17.53,15.61-26.33,23.44h98.9c-22.13,19.66-44.25,39.35-66.36,59.04l-26.2,23.33h51.72c30.87-27.45,61.72-54.94,92.59-82.37h75.08c-30.87,27.43-61.72,54.9-92.58,82.37h54.6c15.24-13.56,30.5-27.12,45.74-40.69h94.92c15.13,0,10.4,9.85,5.46,14.31-9.82,8.88-19.76,17.61-29.67,26.38h56.83c8.72-7.76,17.46-15.52,26.16-23.27,7.4-6.61,9.3-15.94,2.45-22.3ZM969.48,241.22c30.92-27.49,61.81-54.97,92.69-82.48h-48.25c-28.83,25.66-57.63,51.3-86.45,76.91-6.35,5.65-14.7,28.9,23.51,28.9h130.15l26.22-23.33h-137.87ZM1705.27,211.16h-45.07l54.92-24.64-9.85,24.64ZM1747.14,158.74h-15.04c-14.49,0-25.89,2.49-38.09,7.8l-227.43,98.01h71c20.16-9.06,40.3-18.1,60.44-27.12h89.76c-3.6,9.02-7.24,18.06-10.84,27.12h47.78c11.55-28.94,23.14-57.67,34.7-86.79,5.23-13.2-2.22-19.02-12.29-19.02ZM879.9,211.16h-45.07l54.91-24.64-9.84,24.64ZM921.78,158.74h-15.05c-14.49,0-25.89,2.49-38.09,7.8l-227.43,98.01h71c20.14-9.06,40.28-18.1,60.42-27.12h89.79c-3.63,9.02-7.24,18.06-10.86,27.12h47.78c11.59-28.94,23.15-57.67,34.7-86.79,5.25-13.2-2.2-19.02-12.26-19.02Z"/><path class="cls-1" d="M643.35,158.74c-158.45,12.8-334.8,52.67-484.74,105.81h195.33s76.85-70.69,289.39-105.81h.02Z"/><path class="cls-1" d="M656.84,158.74c-192.47,36.67-259.38,105.81-259.38,105.81h192.7c-48.25-33.24-1.91-75.59,66.69-105.81Z"/></svg>