<?xml version="1.0" encoding="UTF-8"?><svg id="Layer_1" xmlns="http://www.w3.org/2000/svg" viewBox="0 0 1920 869.35"><defs><style>.cls-1{fill:#231f20;}</style></defs><path class="cls-1" d="M518.2,568.29h-52.81l64.34-28.89-11.54,28.89ZM567.26,506.88h-17.63c-16.97,0-30.32,2.91-44.62,9.12l-266.46,114.84h83.19c23.61-10.61,47.2-21.21,70.79-31.78h105.18c-4.23,10.58-8.47,21.17-12.72,31.78h55.99c13.54-33.9,27.1-67.56,40.66-101.67,6.13-15.49-2.59-22.29-14.39-22.29Z"/><path class="cls-1" d="M1485.19,568.29h-52.81l64.34-28.89-11.54,28.89ZM1534.26,506.88h-17.63c-16.97,0-30.32,2.91-44.63,9.12l-266.45,114.84h83.19c23.62-10.61,47.2-21.21,70.79-31.78h105.17c-4.22,10.58-8.47,21.17-12.68,31.78h55.97c13.55-33.9,27.09-67.56,40.66-101.67,6.14-15.49-2.59-22.29-14.39-22.29Z"/><path class="cls-1" d="M623.16,603.5c36.21-32.2,72.4-64.4,108.59-96.62h-56.55c-33.75,30.03-67.51,60.09-101.27,90.12-7.42,6.61-17.21,33.85,27.54,33.85h152.49l30.72-27.34h-161.52Z"/><path class="cls-1" d="M1077.39,549.75c7.33-6.51,14.64-13.03,21.97-19.53h117.52c20.32,0,8.55,19.53-17.56,19.53h-121.93ZM1226.06,577.44s31.66-8.18,56.26-26.5c31.66-23.55,13.4-44.05-13.64-44.05h-468.29c-10.26,9.13-20.52,18.29-30.83,27.43h115.88c-25.92,23.05-51.86,46.13-77.76,69.2l-30.72,27.32h60.61c36.16-32.17,72.31-64.34,108.49-96.52h87.95c-36.15,32.18-72.31,64.33-108.46,96.52h63.97c17.86-15.88,35.72-31.78,53.59-47.68h111.21c17.73,0,12.19,11.56,6.39,16.78-11.5,10.39-23.14,20.61-34.75,30.89h66.58c10.22-9.08,20.43-18.16,30.65-27.27,8.66-7.73,10.91-18.66,2.87-26.13Z"/><path class="cls-1" d="M1651.02,238.55c-357.23,28.86-754.8,118.75-1092.84,238.55h440.37s173.26-159.37,652.43-238.55h.03Z"/><path class="cls-1" d="M1681.45,238.55c-433.92,82.67-584.78,238.55-584.78,238.55h434.43c-108.78-74.93-4.31-170.41,150.35-238.55Z"/><path class="cls-1" d="M1542.48,630.8h3.89l4.36-11.03,1.99,7.19h.1l7.76-7.26-4.37,11.1h3.94l6.73-17h-4.49l-7.43,7.19-1.71-7.19h-4.04l-6.73,17ZM1530.54,630.8h3.89l5.36-13.55h5.37l1.36-3.45h-14.65l-1.35,3.45h5.37l-5.36,13.55Z"/></svg>