<?xml version="1.0" encoding="UTF-8"?><svg id="_ÉåÉCÉÑÅ_1" xmlns="http://www.w3.org/2000/svg" viewBox="0 0 841.89 297.64"><defs><style>.cls-1{fill:#231f20;}</style></defs><path class="cls-1" d="M810.82,207.32c2.62,2.62,3.91,5.77,3.91,9.47,0,3.73-1.3,6.91-3.92,9.54-2.6,2.63-5.75,3.94-9.48,3.94s-6.87-1.31-9.49-3.94c-2.58-2.63-3.88-5.81-3.87-9.54,0-3.7,1.3-6.85,3.89-9.47,2.63-2.63,5.78-3.93,9.45-3.93s6.89,1.3,9.49,3.93ZM812.38,205.82c-3.05-3.02-6.74-4.53-11.05-4.53s-7.93,1.51-10.96,4.53c-3.04,3.04-4.54,6.7-4.54,10.97,0,4.33,1.5,8.01,4.51,11.04,3.03,3.04,6.69,4.57,11,4.57s7.99-1.53,11.03-4.57c3.04-3.05,4.57-6.73,4.57-11.04s-1.53-7.96-4.56-10.97ZM803.66,216.08c-.63.25-1.59.38-2.86.38h-2.72v-6.18h2.57c1.67,0,2.88.2,3.64.63.76.43,1.14,1.26,1.15,2.5,0,1.32-.6,2.21-1.77,2.68ZM795.07,225.28h3v-6.72h2.38c1.6,0,2.72.18,3.34.54,1.07.65,1.63,1.95,1.63,3.93v1.36l.05.55c.03.08.04.14.05.2.01.05.03.1.04.15h2.82l-.1-.2c-.07-.14-.11-.45-.15-.89-.03-.46-.05-.87-.04-1.28v-1.25c-.01-.86-.3-1.74-.93-2.64-.63-.91-1.61-1.46-2.95-1.68,1.05-.17,1.88-.43,2.48-.83,1.12-.73,1.67-1.84,1.67-3.37,0-2.14-.88-3.58-2.64-4.32-1-.41-2.54-.6-4.67-.6h-5.97v17.06"/><path class="cls-1" d="M218.92,16.84c-42.84.02-90.03,26.23-119.65,51.05l2.34,3.39c45.98-32.23,109.8-53.2,127.39-21.76,9.3,16.6-6.48,50.09-28.69,76.58,5.32-11.69,1.82-34.15-29.15-34.15-51.49,0-152.81,68.2-152.81,137.98,0,27.96,19.38,46.2,51.32,46.2,85.51,0,201.48-140.16,201.48-210.56-.01-24.86-14.31-48.73-52.23-48.73ZM98.94,200.73c-14.79,0-21.9-11.38-18.19-24.54,7.67-27.26,56.92-67.68,90.49-67.68,24.5,0,22.63,21.9,8.28,40.59l-7.93,8.78c-28.45,27.94-54.83,42.85-72.64,42.85Z"/><path class="cls-1" d="M751.59,76.83c-13.52,0-26.08,4-36.32,11.58-10.33,7.64-16.01,16.83-19.42,29.5-7.35,27.45,14.21,40.7,31.56,50.09,12.43,6.74,23.17,12.55,20.86,21.16-1.65,6.18-4.35,11.58-19.65,11.58h-46.69l-8.47,31.66h51.68c13.86,0,26.64-2.89,36.95-10.8,10.33-7.94,16.15-19,19.77-32.5,3.45-12.86,1.11-25.12-7.15-34.28-6.89-7.68-16.8-13.02-25.55-17.74-11.19-6.02-21.74-11.71-19.89-18.6,1.12-4.16,5.27-9.98,14.31-9.98h45.41l8.49-31.66h-45.9Z"/><path class="cls-1" d="M480.6,76.83c-13.53,0-26.1,4-36.33,11.58-10.32,7.64-16.01,16.83-19.43,29.5-7.35,27.45,14.24,40.7,31.58,50.09,12.43,6.74,23.17,12.55,20.86,21.16-1.66,6.18-4.35,11.58-19.65,11.58h-46.68l-8.49,31.66h51.68c13.87,0,26.66-2.89,36.96-10.8,10.33-7.94,16.15-19,19.77-32.5,3.44-12.86,1.1-25.12-7.14-34.28-6.88-7.68-16.81-13.02-25.56-17.74-11.18-6.02-21.72-11.71-19.87-18.6,1.11-4.16,5.27-9.98,14.29-9.98h45.4l8.5-31.66h-45.89Z"/><path class="cls-1" d="M551.12,76.83l-40.54,155.56h34.24l40.52-155.56h-34.22Z"/><path class="cls-1" d="M676.46,76.83c-60.29.22-91.83,40.38-101.86,77.78-11.88,44.35,11.73,77.78,54.92,77.78h28.94l8.47-31.66h-28.93c-16.17,0-38.39-12.72-29.43-46.13,7.11-26.56,32.99-46.12,61.41-46.12h18.37l8.49-31.66h-20.39Z"/><path class="cls-1" d="M408.1,90.83c-7.89-9.67-20.61-14-29.73-14h-50.02l-8.48,31.66h47.15l4.52.48s4.35.5,6.71,3.72c1.94,2.68,2.22,6.68.83,11.91l-2.24,8.33h-29.71c-25.58,0-61.23,18.35-69.17,47.99-3.96,14.78-.5,27.58,7.19,36.99,7.61,9.34,21.98,14.48,37.52,14.48h27.52-.01s34.97,0,34.97,0l16.41-61.26,12.07-45.03c4.74-17.71-.39-28.96-5.55-35.27ZM329,200.73c-4.97,0-9.11-1.75-11.71-4.91-2.7-3.33-3.51-8.03-2.22-12.9,2.83-10.57,14.21-18.84,25.9-18.84h27.51l-9.82,36.65h-29.67Z"/></svg>