<?xml version="1.0" encoding="UTF-8"?><svg id="Layer_1" xmlns="http://www.w3.org/2000/svg" viewBox="0 0 661.76 94.44"><path d="M647.32,51.29c-5.81,44.7-77.21,38.45-70.59-9.6,3.92-28.46,42.85-39.46,61.03-17.43l-6.41,6.51c-20.99-23.28-56.41,2.19-41.16,29.63,11.29,20.32,43.64,13.99,45.91-9.11h-28.5l2.25-9.45,37.47.91c-.24,2.73.34,5.89,0,8.54Z"/><polygon points="209.06 13.7 230.66 54.71 253.11 13.7 267.35 13.7 267.35 80.33 258.25 81.85 256.99 80.76 256.99 28.22 230.66 74.36 205.18 28.22 205.18 80.33 194.81 82.04 194.81 13.7 209.06 13.7"/><path d="M126.17,47.22c0,19.3-15.81,34.94-35.32,34.94s-35.32-15.64-35.32-34.94,15.81-34.94,35.32-34.94,35.32,15.64,35.32,34.94ZM116.4,47.17c0-13.93-11.42-25.23-25.5-25.23s-25.5,11.29-25.5,25.23,11.42,25.23,25.5,25.23,25.5-11.29,25.5-25.23Z"/><path d="M165.02,13.7c4.37.72,10.67,5.74,12.7,9.65,6.23,12.02-1.07,24.93-13.99,27.51l17.27,29.48-10.24,1.63c-3.26-3.91-15.22-29.15-17.57-30.5-1.35-.77-4.94.14-6.73-.18v29.05l-9.11,1.52-1.26-1.09V13.7c8.75,1.01,20.58-1.37,28.93,0ZM146.46,41.89h15.98c.92,0,4.19-2.5,4.95-3.65,2.34-3.53,2.42-9.35-.59-12.62-.66-.72-4.73-3.38-5.22-3.38h-15.11v19.65Z"/><path d="M423.52,13.84l23.46,66.49-10.79.92-7.47-22.15-24.4-.17-6.99,20.57-10.8,2.55,21.66-68.26,15.32.06ZM425.39,50.43l-9.07-28.2-9.07,28.2h18.13Z"/><path d="M293.26,12.84v49.12c0,4.05,6.1,8.96,10.14,9.62,9.28,1.51,14.86-4.22,15.76-13.04,1.39-13.69-.98-29.5-.03-43.42l10.4-2.27v47.42c0,2.71-3.08,9.91-4.82,12.31-12.27,16.91-39.65,9.56-41.8-11.47-1.48-14.51,1.11-31.23-.05-45.98l10.4-2.28Z"/><polygon points="49.74 13.7 48.01 22.24 24.69 22.24 24.69 41.89 44.55 41.89 42.83 51.29 24.69 51.29 24.69 80.33 14.33 82.04 14.33 13.7 49.74 13.7"/><polygon points="538.51 13.7 536.79 22.24 513.47 22.24 513.47 41.89 533.33 41.89 531.61 51.29 513.47 51.29 513.47 80.33 504.37 81.85 503.11 80.76 503.11 13.7 538.51 13.7"/><polygon points="354.57 12.84 354.57 71.79 377.89 71.79 376.16 81.19 345.51 81.19 344.21 79.91 344.21 14.55 354.57 12.84"/><path d="M563.56,12.84v66.21c-2.77,2.52-7.08,1.46-10.36,2.99V14.55l10.36-1.71Z"/></svg>