<?xml version="1.0" encoding="UTF-8"?><svg id="Layer_1" xmlns="http://www.w3.org/2000/svg" viewBox="0 0 348.94 88.91"><defs><style>.cls-1{fill:#fff;}</style></defs><path class="cls-1" d="M224.28,80.8c-1.01-2.65-6.05-5.17-6.77-7.57-2.06-6.84.87-22.75-.29-31.14-2.48-17.92-25.67-19.56-36.27-7.47-7.95-10.3-22.48-10.08-31.37-.97v-5.89h-20.93c.36,4.02,6.23,5.64,6.95,9.35.61,3.16.32,35.03-.49,36.79-.95,2.05-5.53,4.34-6.46,6.89h20.92v-30.94c0-7.08,13.82-15.81,18.44-6.4,1.99,4.05,2.16,19.29,1.42,24.01s-5.83,8.75-6.91,13.32h27.89c-.79-4.04-6.21-8.5-6.93-12.32s-.37-16.07.64-19.91c1.5-5.68,7.33-10.68,13.56-8.82.91.27,4.69,3.91,4.69,4.22v36.83h21.91Z"/><path d="M28.05,7.13v26.52c7.11-6.56,16.06-8.97,25.24-4.76,14.38,6.59,6.32,30.5,8.65,42.55.72,3.72,6.59,5.33,6.95,9.35h-20.92v-34.87c0-3.21-5.43-7.47-9.23-7.16-4.81.39-10.7,6.77-10.7,11.09v30.94H7.13v-1.96c3.59-2.79,6.56-4.5,7.03-9.27,1.67-16.67-1.35-36.1-.08-53.08l-6.95-7.39v-1.96h20.92Z"/><path d="M341.81,79.81v.98h-27.88c-1.1-.97,6.28-10.39,6.76-12.48,1.09-4.74.68-22.93-2.28-26.8-5.5-7.17-16.19.1-17.34,8.43-.51,3.7-.66,15.96.12,19.35s5.59,8.02,6.76,11.5h-27.89c.2-3.72,5.28-4.86,5.95-8.37.62-3.2.32-36.01-.49-37.77-1.05-2.27-5.65-3.73-5.46-6.89h20.92v5.89c11.3-11.66,31.87-8.17,33.87,9.33.92,8.02-1.76,23.74.2,30.25.56,1.86,5.03,5.23,6.77,6.59Z"/><path d="M84.83,81.78c-20.46-6.27-10.1-29.79-12.97-44.67-.72-3.72-6.59-5.33-6.95-9.35h21.91v36.83c0,3.08,5.87,5.92,9.23,5.23,12.16-2.49,8.11-25.06,8.68-33.69l-6.95-8.37h21.91v42.72c0,.53,5.41,7.27,5.96,8.86v1.45s-20.9,0-20.9,0l-.49-5.89-9.47,6.87h-9.96Z"/><path d="M224.28,80.8h-21.91v-36.83c0-.31-3.78-3.95-4.69-4.22-6.23-1.86-12.06,3.14-13.56,8.82-1.01,3.84-1.35,16.1-.64,19.91s6.13,8.28,6.93,12.32h-27.89c1.08-4.57,6.18-8.71,6.91-13.32s.57-19.97-1.42-24.01c-4.62-9.41-18.44-.69-18.44,6.4v30.94h-20.92c.93-2.55,5.51-4.84,6.46-6.89.81-1.76,1.1-33.63.49-36.79-.72-3.72-6.59-5.33-6.95-9.35h20.92v5.89c8.9-9.11,23.43-9.33,31.38.97,10.6-12.1,33.79-10.45,36.27,7.47,1.16,8.4-1.77,24.3.29,31.14.72,2.39,5.75,4.91,6.77,7.57Z"/><path d="M237.22,81.78c-7.06-2.43-12.42-6.31-12.98-14.2-1.37-18.99,17.71-19.24,31.92-20.18.77-6.77-6.34-10.58-12.24-7.63-1.97.99-3.08,3.51-5.14,3.63-1.78.1-7.84-2.1-10.17-2.78-1.22-.35-2.9.66-2.31-1.52,3.72-13.68,30.11-15.61,39.33-6.47,9.12,9.03,3.48,26.11,5.49,36.82.66,3.54,5.62,7.4,5.93,11.34h-16.93l-2.52-4.94-11.43,5.92h-8.96ZM256.15,58.21c-4.74-.62-21.95.38-19.54,7.88,2.85,8.84,21.79,1.83,19.54-7.88Z"/></svg>