<?xml version="1.0" encoding="UTF-8"?><svg id="Layer_1" xmlns="http://www.w3.org/2000/svg" viewBox="0 0 270 205.73"><polygon points="67.44 11.21 67.44 31.14 83.34 31.14 83.34 11.21 98.24 11.21 98.24 66.01 83.34 66.01 83.34 44.09 67.44 44.09 67.44 66.01 52.54 66.01 52.54 11.21 67.44 11.21"/><path d="M171.76,194.52c-9.53-2.5-19.77-10.08-22.17-20.11-9.59-40,46.42-52.23,55.95-14.76h-15.9c-.56,0-2.25-6.51-7.24-8.18-20.94-7.02-25.62,27.33-6.9,29.9,9.76,1.34,13.73-8.77,14.64-8.77h15.4c-2.24,11.74-11.06,18.4-21.86,21.92h-11.92Z"/><path d="M116.12,194.52c-7.34-1.53-15.9-9.68-15.9-17.43v-38.36h14.9v36.36c0,7.65,12.92,7.96,12.92,1.99v-38.36h14.9v40.35c0,5.81-9.52,13.93-14.9,15.44h-11.92Z"/><polygon points="259.19 193.52 241.51 193.32 227.4 171.61 227.4 193.52 213.49 193.52 213.49 138.73 227.4 138.73 227.4 161.64 240.17 142.03 241.31 138.73 258.2 138.73 240.47 165.95 259.19 192.53 259.19 193.52"/><polygon points="137.98 11.21 137.98 24.16 121.09 24.16 121.09 31.14 137.98 31.14 137.98 45.08 121.09 45.08 121.09 53.05 137.98 53.05 137.98 66.01 107.18 66.01 107.18 11.21 137.98 11.21"/><path d="M10.81,111.83l15.25-.05c1.42,8.37,8.6,6.79,8.6-.45v-36.36h14.9c-.64,13.91,1.26,29.42-1.23,43.1s-25.33,17.26-33.54,6.21l-3.98-9.46v-2.99Z"/><polygon points="47.57 11.21 47.58 24.17 36.64 24.16 36.64 66.01 21.74 66.01 21.74 24.16 11.8 24.17 11.8 11.21 47.57 11.21"/><path d="M81.85,138.73c13.05,2.33,16.79,23.92,7.5,32.42-1.88,1.72-3.79,2.09-5.73,3.22-.83.48-1.65-.28-1.26,1.7l13.9,17.45h-17.88l-10.93-15.94v15.94h-13.91v-54.79c8.48,1.06,20.29-1.43,28.32,0ZM67.44,151.68v13.95c17,2.07,17.82-16.84,0-13.95Z"/><path d="M186.67,95.89h-15.4c-.77,0-4.18-8.42-11.94-8.98-18.7-1.37-19.39,27.68-3.71,30.7,10.42,2.01,14.7-8.76,15.65-8.76h15.4c-10.21,38.54-68.33,22.39-55.69-16.49,8.71-26.8,50.37-24.22,55.69,3.54Z"/><path d="M72.41,74.97v36.36c0,8.11,12.92,7.79,12.92,1.99v-38.36h14.9v40.35c0,3.97-5.29,10.18-8.6,12.29-10.06,6.42-27.5,3.85-32.35-8.09-.31-.76-1.77-5.86-1.77-6.2v-38.36h14.9Z"/><polygon points="223.43 74.97 223.43 87.92 206.54 87.92 206.54 94.9 223.43 94.9 223.43 108.84 206.54 108.84 206.54 116.81 223.43 116.81 223.43 129.76 192.63 129.76 192.63 74.97 223.43 74.97"/><polygon points="47.57 138.73 47.58 151.69 36.64 151.68 36.64 193.52 21.74 193.52 21.74 151.68 11.8 151.69 11.8 138.73 47.57 138.73"/><rect x="108.18" y="74.97" width="14.9" height="54.79"/></svg>