<?xml version="1.0" encoding="UTF-8"?>
<svg id="Layer_1" xmlns="http://www.w3.org/2000/svg" version="1.1" viewBox="0 0 2443.2 854.3">
  <!-- Generator: Adobe Illustrator 29.2.1, SVG Export Plug-In . SVG Version: 2.1.0 Build 116)  -->
  <defs>
    <style>
      .st0 {
        fill: #231f20;
      }
    </style>
  </defs>
  <path id="Path_18" class="st0" d="M1829.8,169.9c204.7-53.6,408.9-107,612.7-160.4.3.5.5,1,.7,1.4-4.2,2.1-8.2,4.5-12.5,6.3-21.6,9.1-43.2,18.1-64.8,27.1-20.8,8.7-41.7,17.2-62.6,26-21,8.8-41.9,17.8-62.9,26.6s-42,17.4-63,26.2c-19.2,8.1-38.4,16.4-57.7,24.5-18.5,7.8-37,15.3-55.5,23-16.8,7-33.5,14.1-50.2,21.2-18.5,7.8-36.9,15.5-55.4,23.3-16.9,7.1-33.8,14.2-50.7,21.3-18.5,7.8-36.9,15.5-55.4,23.3-16.9,7.1-33.8,14.2-50.7,21.3-21,8.8-42,17.6-63,26.4-16.7,7-33.5,14.1-50.3,21.1-18.6,7.8-37.3,15.6-55.9,23.4-16.7,7-33.5,14.1-50.3,21.1-18.6,7.8-37.3,15.6-55.9,23.4-16.7,7-33.5,14.1-50.3,21.1-21,8.8-41.9,17.7-62.9,26.5-16.9,7.1-33.8,14.1-50.7,21.2-18.5,7.8-36.9,15.5-55.4,23.3-16.9,7.1-33.8,14.1-50.7,21.2-18.5,7.8-36.9,15.5-55.4,23.3-16.9,7.1-33.8,14.2-50.7,21.2-21.1,8.8-42.3,17.7-63.4,26.5-16.7,7-33.4,14.2-50.2,21.2-18.5,7.8-36.9,15.5-55.4,23.2l-50.7,21.3c-21,8.8-42,17.6-63,26.3-16.7,7-33.5,14.1-50.3,21.1-21.1,8.9-42.3,17.7-63.4,26.5-16,6.7-32,13.4-47.9,20.1-20.4,8.5-40.6,17.3-61.1,25.6-23,9.3-45.9,18.7-69.2,27.1-22.9,8.4-46.2,16-69.4,23.4-34.6,10.9-69.8,19.8-105.5,26.7-16.5,3.2-33.3,5.2-50,7.3-11,1.4-22.1,2.6-33.2,3-20.5.7-41.2,1.6-61.7.7-15.8-.7-31.6-3.2-47.1-6.2-14.8-2.7-29.5-6.4-43.8-11.1-27.5-9-53.2-23-75.8-41.3-23.3-19-42.9-42-58-67.9-12.6-21.2-21.3-44.6-25.7-68.9-2.4-13.2-3.1-26.8-4.4-40.2-.5-5.1-1.3-10.3-.9-15.4,1.5-19.4,3.1-38.9,5.2-58.3,3.3-29.5,11.6-57.9,20.9-85.9,9.2-27.2,20.1-53.8,32.6-79.6,20.3-42.1,44.1-82.6,71-120.9,15.7-22.5,32.3-44.3,49-66,13.4-17.5,27.3-34.5,41.3-51.5,8.8-10.7,18.2-21,27.3-31.5,13.8-15.9,27.7-31.8,41.6-47.6,6-6.8,12.1-13.6,18.3-20.3,11.1-12.2,22.3-24.3,33.5-36.5,1.4-1.6,2.7-3.3,4-5,.6.5,1.2.9,1.8,1.4-1.8,3.6-3.5,7.3-5.4,10.9-7.7,14.4-16,28.6-23.2,43.2-14.5,29.4-27.9,59.4-37.3,90.9-6.6,22.2-12.5,44.7-17.6,67.4-2.7,12.2-3.5,25-4.4,37.6-.9,11.7-1.4,23.4-1.1,35.1.7,27.4,5.7,54.1,16.2,79.6,9.5,23.2,23.3,44.5,40.6,62.7,17.6,18.9,38.7,34.2,62.1,45,18.2,8.4,37.6,14.1,57.4,16.8,16.1,2.2,32.2,3.9,48.4,5.3,11.3,1.1,22.7,1.4,34.1,1,15.5-.7,31.1-2.1,46.5-4,18.6-2.3,37.2-4.7,55.5-8.2,21.5-4.2,42.7-9.4,63.9-14.8,36.8-9.2,73.6-18.9,110.3-28.5,42.3-11,84.6-22.3,126.9-33.3,33.9-8.9,67.9-17.6,101.9-26.5,39.8-10.5,79.6-21.2,119.4-31.7,30-7.8,60.2-15.3,90.2-23.1,34.1-8.9,68.2-18,102.3-26.9,35.6-9.3,71.2-18.4,106.8-27.7,34.1-8.9,68.2-18,102.3-26.9,31.1-8.2,62.3-16.4,93.5-24.4,4.5-1.1,194.1-53.1,193.8-51Z"/>
</svg>