<?xml version="1.0" encoding="UTF-8"?><svg id="Layer_1" xmlns="http://www.w3.org/2000/svg" viewBox="0 0 378 162"><defs><style>.cls-1{fill:#231f20;}</style></defs><path class="cls-1" d="M108.69,25.98s-10.92-3.77-26.01-6.32l4.59-10.76c-1.07-.41-2.38-.7-3.44-.9,0,0-.01,0-.02,0-.59-.09-1.19-.18-1.79-.27-.06,0-.1-.01-.1-.01-6.56-.93-13.71-1.58-21-1.58-26.68,0-51.68,8.62-51.68,8.62v60.37c0,.39,0,.79,0,1.18,0,19.59,9.27,37.97,24.93,49.7h0s-4.6,10.77-4.6,10.77l2.74,1.92s.64.44.89.61l23.46,16.03,24.17-16.03c17.76-11.78,28.27-31.74,27.86-52.96V25.98ZM20.78,75.35v-.22s0-51.72,0-51.72c8.91-2.36,24.33-5.71,40.13-5.71,6.5,0,12.93.57,18.88,1.4l-40.94,95.9c-11.7-9.79-18.36-24.23-18.08-39.65ZM74.45,129.67l-17.7,11.73-17.18-11.73c-1.01-.67-1.99-1.39-2.95-2.13L78,30.62c3.81.58,7.4,1.26,10.63,1.96,3.23.7,6.11,1.41,8.51,2.05v51.94c.33,17.35-8.15,33.47-22.69,43.11Z"/><path class="cls-1" d="M214.78,57.17c-13.4,0-22.45,9.05-22.45,23.05s9.05,23.05,22.45,23.05,22.37-9.05,22.37-23.05-8.96-23.05-22.37-23.05ZM214.78,94.39c-7,0-11.44-4.87-11.44-14.17s4.44-14.17,11.44-14.17,11.44,4.87,11.44,14.17-4.52,14.17-11.44,14.17Z"/><path class="cls-1" d="M253.45,66.05v-7.85h-10.41v44.05h10.76v-22.37c0-8.37,4.78-12.29,12.72-12.29h2.73v-9.9c-.94-.17-1.71-.17-2.65-.17-6.83,0-11.01,3.59-13.15,8.54Z"/><path class="cls-1" d="M170.99,57.17c-6.23,0-10.93,3.16-13.74,7.34v-6.32h-10.41v44.05h10.76v-24.67c0-7.85,5.12-11.1,9.82-11.1,5.46,0,8.28,2.73,8.28,8.37v27.4h10.76v-29.19c0-10.5-6.23-15.88-15.45-15.88Z"/><path class="cls-1" d="M360.08,70.4c0-7.94-5.21-13.23-18.35-13.23s-19.21,5.72-19.8,15.02h10.59c.43-5.38,2.99-7,9.13-7s8.02,2.05,8.02,5.46-2.13,4.52-6.23,5.04l-6.66.6c-12.46,1.19-16.9,6.4-16.9,13.74,0,8.54,6.49,13.23,15.88,13.23,6.49,0,11.27-2.31,14.17-6.4.17,2.13.51,4.18,1.19,5.38h10.76c-1.2-1.71-1.79-5.21-1.79-8.37v-23.47ZM349.66,84.83c0,7.68-5.63,10.76-11.35,10.76-4.95,0-7.43-2.31-7.43-5.98s1.96-5.63,7.94-6.32l5.81-.68c2.3-.26,3.93-.77,5.04-1.79v4.01Z"/><path class="cls-1" d="M303.65,63.91c-2.99-4.27-7.51-6.74-13.57-6.74-12.21,0-19.81,9.05-19.81,23.05s7.6,23.05,19.81,23.05c6.32,0,10.93-2.73,13.91-7.17v6.15h10.41v-60.78h-10.76v22.45ZM292.55,94.39c-6.91,0-11.27-4.52-11.27-13.83s4.35-14.51,11.27-14.51,11.35,4.87,11.35,14.17-4.35,14.17-11.35,14.17Z"/><polygon class="cls-1" points="358.35 42.01 360.29 42.01 360.29 46.61 360.99 46.61 360.99 42.01 362.94 42.01 362.94 41.46 358.35 41.46 358.35 42.01"/><path class="cls-1" d="M368.35,41.46l-1.28,2.84c-.23.51-.5,1.15-.68,1.57-.17-.4-.42-.98-.65-1.48l-1.33-2.93h-.88v5.15h.66v-1.65c0-.69,0-1.63-.02-2.63.15.38.31.73.51,1.17l1.42,3.1h.58l1.41-3.1c.2-.44.35-.79.51-1.17-.02,1-.02,1.94-.02,2.63v1.65h.66v-5.15h-.88Z"/></svg>