<?xml version="1.0" encoding="UTF-8"?><svg id="Layer_1" xmlns="http://www.w3.org/2000/svg" viewBox="0 0 1521.25 2987.19"><defs><style>.cls-1{fill:#231f20;}</style></defs><path id="Path_224" class="cls-1" d="M1521.25,237.37c-5,5-9.55,10.91-13.64,15.01l-194.18,193.72-5,5c-5,5.91-5,11.82,1.36,19.55,49.11,83.22,79.58,171.44,90.04,266.48,20.92,193.72-28.19,367.89-149.16,521.13-104.14,130.96-239.65,212.82-401.49,248.74-74.62,15.92-150.57,17.28-226.46,9.55-125.05-13.19-237.42-58.66-337.42-133.24-144.61-107.32-234.65-249.65-271.98-427C-.31,891.29-2.54,824.44,2.41,758.96c13.69-152.79,72.3-288.76,176.49-403.81,99.13-110.96,220.55-183.11,364.25-216.45,70.89-15.92,142.74-22.28,216.41-15.46,105.09,9.55,203.31,40.17,294.67,91.86,11.82,7.28,15.92,2.27,23.19-5l192.36-192.82c5-5,9.55-10.91,15.01-17.28,78.67,79.58,157.34,157.79,236.46,237.38M1083.33,833.08c5.91-225.1-171.44-388.8-371.52-394.71-225.05-5.91-393.81,180.99-393.81,382.89s173.71,385.17,382.89,381.53c206.45,2.27,377.89-166.43,382.44-369.7M1379.37,2392.84c1.36,189.17,0,379.25,0,568.88v25.47h-338.78v-23.19c0-198.27,1.36-397.44,0-595.71,0-104.14-36.38-194.63-112.32-267.84-50.02-47.75-110.96-75.94-180.94-85.49-90.95-13.19-173.71,9.55-247.42,64.12-73.62,55.93-116.82,131.88-130.92,221.46-7.28,43.2-8.18,87.76-8.18,131.88-1.41,176.44,0,351.06,0,527.95v24.56H24.29v-21.37c0-213.73-2.32-428.37,1.32-642.09,2.32-113.69,38.2-220.55,97.77-319.23,99.13-163.71,240.56-268.75,426.09-311.95,58.61-13.24,118.73-18.59,178.76-15.92,185.99,8.19,344.69,81.85,470.61,220.55,90.04,100.5,146.88,217.37,166.89,351.06,8.64,50.02,13.64,99.13,13.64,146.88"/></svg>