<?xml version="1.0" encoding="UTF-8"?><svg id="Layer_1" xmlns="http://www.w3.org/2000/svg" viewBox="0 0 54 42"><defs><style>.cls-1{fill:#231f20;}</style></defs><path class="cls-1" d="M5.2.59c-.3,0-.7,1.3-1.3,1.9-.5.5-1.1.5-1.4,1.1-.1.2-.1.6-.2.9-.3.7-1.3.8-1.3,1.6s.8,1,1.5,1.6c.6.4.6.7,1.3,1,.6.2,1.4-.4,2.2-.2.5.2,1.1.3,1.3.9.1.6,0,1.5-.8,1.4-.2,0-1.3-.4-2.7-.2-1.6.2-3.5.7-3.6,2.5-.1,1,1.1,2.1,2.4,1.9.8-.2.4-1.1.9-1.6.6-.6,4,2.1,7.1,2.1,1.3,0,2.3-.3,3.3-1.3.1-.1.2-.2.3-.2s.4.1.4.2c2.5,2,4.4,6,13.7,6,1.3,0,2.8.6,4,1.7,1.1,1,1.7,2.5,2.3,4.1.9,2.3,2.6,4.6,5.1,7.1.1.1,2.2,1.7,2.4,1.8,0,0,.2.4.1.6,0,1.5-.3,5.9,3.1,6.1.8,0,.6-.5.6-.9,0-.8-.1-1.5.3-2.3.6-1.1-1.2-1.6-1.1-3.9,0-1.7-1.4-1.4-2.2-2.8-.4-.8-.8-1.2-.8-2.1.2-5.3-1.2-8.8-1.8-9.6-.5-.6-1-.9-.5-1.2,2.8-1.8,3.4-3.5,3.4-3.5,1.5-3.4,2.8-6.5,4.6-7.9.3-.4,1.3-1.1,1.9-1.4,1.7-.8,2.6-1.3,3.1-1.7.8-.7,1.4-2.3.7-3.3-.9-1.2-2.6-.2-3.3.2-5.1,3-5.9,8.2-7.6,11.3-1.4,2.4-3.7,4.2-5.8,4.3-1.5.1-3.2-.2-4.8-.9-4-1.7-6.2-4-6.7-4.4-1.2-.8-9.6-8.9-16.4-9.2,0,0-.8-1.7-1-1.7-.5-.1-1,1-1.4,1.1-.3.1-.9-1.2-1.3-1.1"/></svg>