<svg xmlns="http://www.w3.org/2000/svg" width="4775" height="1132" viewBox="0 0 4775 1132">
  <g id="Group_3" data-name="Group 3" transform="translate(-3951 -1478.908)">
    <path id="Path_15" data-name="Path 15" d="M3577.25,3252.91c-8.2-1.135-16.368-2.475-24.589-3.374-87.241-9.54-172.651-28.625-257.63-49.774-157.037-39.082-311.557-86.769-465.155-137.487q-326.661-107.862-646.856-233.687c-10.148-3.991-16.749-9.706-20.332-19.952-3.068-8.774-7.338-17.126-11.034-25.683-.923-2.137-1.64-4.363-2.526-6.518-2-4.855-2.868-9.765.746-14.169,3.859-4.7,9-5,14.566-3.553q22.222,5.76,44.5,11.321c165.583,41.591,331.8,80.47,499.14,114.321q122.789,24.839,246.343,45.827c62.01,10.452,124.459,18.546,186.91,26.048a1157.471,1157.471,0,0,0,167.558,8.231c153.061-3.888,293.705-47.3,420.771-132.988,41.966-28.3,82.676-58.464,123.884-87.885,58.556-41.807,116.705-84.193,175.68-125.4,34.954-24.422,71.662-46.227,110.368-64.34,62.162-29.089,127.4-39.245,195.6-31.411,58.135,6.678,112.971,24.769,166.482,47.444,71.31,30.215,138.733,67.871,204.674,108.248,19.59,11.995,38.658,24.86,57.7,37.714,4.22,2.848,7.334,7.334,10.957,11.065v12c-4.707,12.335-14.261,16.606-26.715,16.126-5.993-.231-11.989-.356-17.984-.528-40.283-1.155-80.561-2.651-120.852-3.357-32.485-.57-64.359,4.336-95.7,12.884-49.859,13.6-95.974,35.712-140.373,61.687-60.52,35.406-116.649,77.147-172.079,119.875-58.578,45.154-116.676,90.942-175.762,135.42-58.342,43.918-119.151,84.148-184.964,116.315-48.093,23.506-97.974,41.612-150.9,50.655-10.129,1.731-20.287,3.287-30.432,4.923ZM4063.691,2874.2c.59-34.312-26.174-76.452-77.33-76.408-46.037.039-76.584,36.766-76.8,77.068-.223,42.636,35.3,77.525,77.978,76.972a76.779,76.779,0,0,0,76.147-77.632m-228.162,152.167a77.009,77.009,0,0,0-76.772-77.1c-41.986-.247-77,34.647-77.192,76.926a76.886,76.886,0,0,0,77.547,77.272c42.655-.093,76.4-34.142,76.417-77.1m456.13-303.163a76.729,76.729,0,0,0-76.5-77.235c-42.526-.405-77.875,34.821-77.681,77.409.192,42.057,35.039,77.273,77.37,76.834,47.219-.488,77.824-39.378,76.814-77.008" transform="translate(3951 -642.002)" fill="#1a1818"/>
    <path id="Path_16" data-name="Path 16" d="M257.946,2120.91c12.119,2.022,24.283,3.8,36.348,6.106a379.786,379.786,0,0,1,124.472,47.152c2.5,1.5,4.8,3.328,7.764,5.405l-51.337,93c-3.556-1.825-6.71-3.39-9.814-5.047-30.3-16.174-61.141-31.066-94.567-39.794-19.88-5.19-39.982-7.5-60.266-2.834a79.073,79.073,0,0,0-18.692,6.743c-33.763,17.616-32.032,59.565-5.725,77.457a132.923,132.923,0,0,0,25.371,13.757c16.995,6.746,34.382,12.523,51.7,18.429,32.217,10.986,63.713,23.524,92.5,42.022,16.352,10.508,31.317,22.647,43.509,37.929,16.335,20.475,25.081,43.607,25.107,70.038.019,19.375-.373,38.646-5.271,57.54-11.909,45.936-40.13,78.109-82.864,97.9-26,12.041-53.617,17.685-82,20.124-85.613,7.36-161.343-19.866-231.591-66.23-5.557-3.668-10.836-7.76-16.407-11.407-1.792-1.173-4.107-1.548-6.183-2.288v-4c2.444-2.481,5.377-4.639,7.255-7.493,15.2-23.092,30.184-46.32,45.258-69.492,1.972-3.031,4.071-5.983,6.454-9.475,3.842,2.528,7.144,4.705,10.453,6.874,31.818,20.863,64.659,39.765,100.763,52.372,21.212,7.407,42.863,12.408,65.533,11.086,14.441-.842,28.207-3.964,40.883-11.541,24-14.345,37.52-59.136,3.209-82.72a158.777,158.777,0,0,0-19.712-11.706,195.083,195.083,0,0,0-23.945-9.941c-20.5-6.885-41.239-13.035-61.716-19.973-30.108-10.2-58.835-23.222-83.755-43.481-21.542-17.513-37.02-39.158-43.94-66.283-4.574-17.928-4.958-36.16-3.02-54.574,3.724-35.376,17.057-66.186,42.395-91.426,25.831-25.731,57.587-40.222,92.68-48.118,10.323-2.323,20.771-4.087,31.161-6.109Z" transform="translate(3951 -642.002)" fill="#1a1818"/>
    <path id="Path_17" data-name="Path 17" d="M880.854,2181.376v-31.315h121.6c2.06,7.652,2.491,472.692.423,483.906H881.065v-33.053c-4.691,2.371-7.561,3.818-10.429,5.271-11.575,5.86-23.057,11.916-34.741,17.553q-64.341,31.039-135.107,20.858c-47.627-6.756-91.73-22.492-130.428-51.536-55.528-41.675-88.359-96.987-96.676-166.053-8.4-69.766,6.406-133.912,50.268-189.821,38.061-48.517,88.518-77.8,148.024-92.16a319.032,319.032,0,0,1,58.276-7.976c32.88-1.728,64.331,4.511,94.427,17.339,15.587,6.644,30.616,14.6,45.894,21.965,2.9,1.4,5.795,2.831,10.281,5.022m16.8,210.773c-1.623-11.176-2.339-22.575-5.015-33.494-20.8-84.9-110.214-132.865-193.81-104.28-78.175,26.732-119.062,111.421-90.779,188.03,23.716,64.241,89.38,103.461,158.925,94.921,74.1-9.1,129.706-71.246,130.679-145.177" transform="translate(3951 -642.002)" fill="#1a1818"/>
    <path id="Path_18" data-name="Path 18" d="M2396.79,2135.843c89.261,2.176,163.127,35.67,216.867,108.379,34.671,46.909,49.325,100.353,48.363,158.553-1.956,118.38-84.513,221.608-206.759,247.861-63.633,13.666-125.636,7.492-183.745-22.454-79.9-41.18-127.438-107.038-139.2-196.268-14.438-109.554,37.709-209.874,130.477-261.706a264.327,264.327,0,0,1,119.022-33.661c4.992-.217,9.982-.468,14.973-.7m-135.6,263.722c.42,4.351.9,12.669,2.067,20.891,10.769,75.884,76.61,128.577,151.153,118.877,34.693-4.515,63.588-19.2,85.136-46.87,26.092-33.5,34.721-71.917,30.326-113.76-7.162-68.183-58.081-119.775-123.509-124.529-42.719-3.1-79.65,9.495-108.871,41.389-25.819,28.181-35.746,62.472-36.3,104" transform="translate(3951 -642.002)" fill="#1a1818"/>
    <path id="Path_19" data-name="Path 19" d="M3218.9,2159.05h140.128l126.657,330.687a6.843,6.843,0,0,0,1.312-.174c.3-.12.721-.285.807-.53q57.955-164.8,116.028-330.091H3740.6c-1.385,4.161-2.447,7.861-3.829,11.436q-80.12,207.258-160.307,414.49c-12.255,31.664-24.434,63.361-37.1,94.861-9.595,23.862-21.5,46.55-37.011,67.21-26.757,35.648-62.106,55.124-106.776,58.5-50.78,3.843-97.86-7.241-141.828-32.5a28.478,28.478,0,0,1-3.065-2.575l45.652-100.451c4.483,2.359,8.237,4.337,11.993,6.311,15.458,8.128,31.636,13.792,49.148,15.705,22.6,2.468,40.621-4.595,53.232-23.988.364-.558.7-1.134,1.064-1.691,11.1-16.912,11.119-16.921,3.445-35.326q-95.712-229.533-191.424-459.066c-1.633-3.917-3.036-7.929-4.892-12.807" transform="translate(3951 -642.002)" fill="#1a1818"/>
    <path id="Path_20" data-name="Path 20" d="M1241.883,2153.653v12.935q0,131.478-.032,262.954c-.011,14.09,1.221,27.978,5.961,41.316,24.726,69.591,104.3,74.987,142.688,39.284,19.71-18.329,28.136-41.614,29.125-67.894.5-13.312.1-26.659.1-39.991q-.021-120.978-.035-241.955c0-1.951.192-3.9.329-6.517h137.19V2642.3H1448.183c-.817-10.72-1.62-21.244-2.536-33.252-3.633,1.768-6.471,3.1-9.266,4.516-21.136,10.72-42.84,20.009-66.054,25.213-36.923,8.281-73.584,5.281-109.744-4.2-44.982-11.792-83.6-34.319-113.264-70.8-24.2-29.757-37.986-63.912-41.735-102.035-1.041-10.586-1.545-21.269-1.559-31.908q-.181-131.976-.069-263.951c0-3.911,0-7.823,0-12.236Z" transform="translate(3951 -642.002)" fill="#1a1818"/>
    <path id="Path_21" data-name="Path 21" d="M3189.306,2642.667H3051.387v-11.976q0-132.5.049-264.993c.018-15.843-1.966-31.239-8.192-45.885-25.353-59.648-94.5-68.188-134.515-38.2-18.829,14.112-29.252,33.42-33.216,56.226a158.039,158.039,0,0,0-2.052,26.84q-.1,136.994.121,273.987a23.1,23.1,0,0,1-.352,2.894c-7.041,2.055-119.84,2.826-136.4.958-1.93-7.158-2.394-476.988-.381-488.824h108.661c.786,11.066,1.535,21.624,2.376,33.484,3.751-1.616,6.961-2.8,9.992-4.336,22.048-11.174,44.735-20.636,69.015-25.8,34.656-7.378,69.02-4.2,102.936,4.181,44.075,10.893,82.351,32.126,112.464,66.736,30.278,34.8,45.586,75.742,47.018,121.479,1.136,36.3.367,72.656.385,108.988q.042,86.5.007,172.995Z" transform="translate(3951 -642.002)" fill="#1a1818"/>
    <path id="Path_22" data-name="Path 22" d="M2099.33,2231.657c-27.272,29.391-54.206,58.418-81.808,88.163-2.992-2.917-5.431-5.486-8.067-7.833-11.924-10.615-22.9-22.671-36.049-31.468-42.668-28.548-88.183-34.6-135.269-11.491-28.7,14.086-48.31,37.544-60.208,66.9-17.2,42.431-17.381,85.45,1.352,127.276,22.506,50.249,62.322,76.884,117.418,78.957,26.158.983,50.7-6.342,73.221-19.975a216.3,216.3,0,0,0,44.026-35.9c2.516-2.625,4.341-5.913,7.158-9.834,28.6,28.186,55.317,54.522,82.423,81.238a334.711,334.711,0,0,1-49.271,48.648c-38.752,30.684-83.036,46.832-132.12,51.232-52.374,4.694-102.581-2.692-149.166-27.4-77.041-40.862-122.377-105.11-135.372-191.315-8.631-57.26-.5-112.566,27.116-163.767,41.157-76.293,105.164-121.548,191.008-134.323,49.584-7.379,98.342-2.607,145.235,16.152,36.3,14.524,76.788,45.3,98.373,74.734" transform="translate(3951 -642.002)" fill="#1a1818"/>
  </g>
</svg>
