<?xml version="1.0" encoding="UTF-8"?><svg id="Layer_1" xmlns="http://www.w3.org/2000/svg" xmlns:xlink="http://www.w3.org/1999/xlink" viewBox="0 0 695.3 159.19"><defs><style>.cls-1{fill:none;}.cls-2{clip-path:url(#clippath);}</style><clipPath id="clippath"><rect class="cls-1" width="695.3" height="159.19"/></clipPath></defs><g class="cls-2"><path d="M608.13,159.19c-3.99-.77-8.02-1.37-11.95-2.31-42.65-10.77-68.49-54.07-57.72-96.72,10.77-42.65,54.07-68.49,96.72-57.72,42.65,10.77,68.49,54.07,57.72,96.72-7.48,29.6-31.21,52.32-61.11,58.5-2.92.62-5.88,1.04-8.82,1.55l-14.84-.02ZM639.18,107.7l1,.22c.46.71.97,1.38,1.53,2.02,6.1,6.12,12.21,12.23,18.34,18.31,1.79,1.78,3.51,1.97,4.81.58,1.3-1.39,1.05-2.88-.67-4.61-5.12-5.13-10.26-10.25-15.41-15.36-1.63-1.61-3.38-3.1-5.42-4.96,1.1-.86,1.83-1.33,2.43-1.93,6.64-6.56,13.26-13.14,19.87-19.73,1.97-1.96,1.98-3.31,0-5.33-1.15-1.15-2.31-2.31-3.46-3.46l-18.64-18.52c.83-.41,1.61-.91,2.34-1.48,6.15-6.08,12.27-12.17,18.36-18.29,1.73-1.73,1.9-3.33.64-4.61-1.26-1.28-2.95-1.22-4.61.45-6.18,6.15-12.36,12.3-18.52,18.44-.58.58-1.19,1.12-2.13,2.01-.53-.76-1.11-1.5-1.73-2.2-6.32-6.34-12.66-12.66-19.02-18.97-2.88-2.88-3.8-2.88-6.64-.07-6.5,6.48-13,12.96-19.5,19.45-.52.52-1.08,1.01-2.05,1.9-.48-.77-1.02-1.5-1.61-2.19-6.2-6.23-12.42-12.45-18.66-18.65-1.11-1.15-2.95-1.17-4.1-.06-1.15,1.11-1.17,2.95-.06,4.1.37.4.76.77,1.15,1.15,5.9,5.88,11.78,11.78,17.71,17.63.71.53,1.48.97,2.31,1.31-1.26,1.33-1.83,1.94-2.42,2.54-6.5,6.49-13,12.97-19.49,19.45-2.31,2.31-2.31,3.46.06,5.76,3.43,3.46,6.87,6.89,10.32,10.3l11.67,11.62c-.85.36-1.65.82-2.39,1.38-6.15,6.07-12.27,12.17-18.36,18.29-1.73,1.73-1.94,3.26-.67,4.61s2.99,1.19,4.81-.58c.33-.32.66-.65.99-.98,5.76-5.76,11.59-11.53,17.34-17.35.54-.72.98-1.51,1.32-2.35,7.78,7.76,14.8,14.8,21.85,21.81,2.31,2.31,3.46,2.31,5.83-.03,6.51-6.47,13-12.96,19.48-19.47.53-.67.98-1.41,1.34-2.19"/><path d="M0,42.18c.53-2.31.94-4.64,1.62-6.92,2.26-8.99,10.57-15.12,19.83-14.63,14.27-.37,28.56-.1,42.84-.1.14,0,.27.11.55.22v24.31h-16.72c0-2.4-.03-4.7,0-7,.04-1.98-.68-2.95-2.85-2.88-5.1.1-10.19,0-15.29.05-6.67-.45-12.44,4.6-12.88,11.27-.03.39-.03.78-.02,1.17-.1,2.07,0,4.16,0,6.23-.23,4.19,2,8.14,5.71,10.11,6.29,3.57,12.62,7.08,18.91,10.67,5.88,3.37,11.76,6.72,17.55,10.25,3.27,1.79,5.32,5.2,5.35,8.93.37,9.06.2,18.14-.49,27.18-.81,10.56-10.01,18.47-20.57,17.68-14.5.39-29.02.13-43.53.16v-25.03c4.94.06,9.87.19,14.81.13,1.76,0,2.31.58,2.2,2.26s0,3.54-.04,5.31.63,2.68,2.56,2.66c5.56-.06,11.12.1,16.69-.05,6.01.04,11.03-4.55,11.53-10.53.29-2.88.16-5.83.16-8.75.06-3.55-1.73-6.88-4.71-8.79-2.28-1.58-4.61-3.14-6.99-4.5-8.65-4.9-17.33-9.75-26.04-14.55-5.46-2.29-9.24-7.37-9.88-13.26,0-.13-.18-.24-.27-.36v-21.25"/><path d="M246.99,138.79h-16.59V20.47c6.06,0,11.98-.06,17.91.09.62,0,1.47,1.15,1.76,1.91,6.89,18.6,13.74,37.21,20.55,55.84,4.13,11.26,8.28,22.51,12.43,33.76.05.14.05.35.14.43.71.65,1.45,1.29,2.18,1.93.42-.81,1.15-1.6,1.15-2.42.12-2.77,0-5.54-.05-8.32-.2-14.63-.41-29.26-.63-43.9-.21-13-.48-25.99-.72-39.19h16.81v118.33h-7.84c-3.63,0-7.26-.12-10.89.05-1.76.34-3.46-.81-3.81-2.56-9.94-26.73-19.95-53.44-30.03-80.12-.07-.38-.22-.74-.44-1.05-.58-.58-1.29-1.05-1.94-1.57-.47.69-1.3,1.37-1.33,2.08-.12,2.92,0,5.85.05,8.78.14,8.01.32,16.01.46,24.02.27,16.09.54,32.18.79,48.27v1.98"/><path d="M174.15,123.64c-2.61,5.13-4.99,9.85-7.44,14.53-.3.42-.78.68-1.3.71-8.4.04-16.81.03-25.66.03l24.59-118.45h8.55c4.79,0,9.57.05,14.36-.03,1.52,0,2.04.41,2.37,1.97,7.92,38.09,15.88,76.17,23.89,114.23.14.66.17,1.35.27,2.16h-16.61c-1.59-7.88-3.18-15.7-4.75-23.53-4.52-22.54-9.04-45.09-13.56-67.64-.02-.31-.11-.61-.27-.88-.58-.67-1.23-1.29-1.84-1.93-.54.64-1.37,1.21-1.54,1.94-1.29,5.3-2.45,10.63-3.63,15.97-4.23,19.21-8.45,38.43-12.68,57.64-.62,2.8-.26,3.24,2.67,3.25h12.61"/><path d="M414.09,20.54h64.88c-2.54,4.97-4.93,9.75-7.49,14.46-.26.48-1.44.65-2.2.65-11.66.04-23.32,0-34.99.03-3.35,0-3.61.25-3.61,3.46v31.67c0,3.04.26,3.29,3.32,3.29h28.85v15.53h-28.93c-3,0-3.23.21-3.23,3.09v27.74c0,2.85.32,3.16,3.22,3.16,11.74,0,23.48.03,35.21-.03,1.38-.17,2.68.64,3.15,1.95,2.09,4.35,4.35,8.65,6.67,13.19h-64.85V20.54Z"/><path d="M373.5,114.05c5.49,0,10.72-.03,15.95.06.38,0,1.07.86,1.07,1.33.07,7.69.05,15.39.05,23.23-.55.12-1.11.2-1.67.24-13.75-.03-27.5.06-41.24-.18-6.03.2-11.87-2.16-16.07-6.49-3.33-3.9-5.31-8.77-5.64-13.89-.34-3.06-.49-6.14-.47-9.22-.04-20.75-.11-41.46.06-62.19.09-3.99.67-7.96,1.73-11.82,1.89-7.76,8.52-13.45,16.48-14.14,2.29-.35,4.6-.52,6.92-.51,12.36-.05,24.72,0,37.07,0h2.64c.11.55.18,1.11.22,1.67,0,7.01-.03,14.03.04,21.04,0,1.61-.48,2.14-2.11,2.11-4.92-.09-9.84-.03-14.99-.03v-6.96c0-2.76-.35-3.1-3.02-3.11h-14.37c-6.69-.77-12.73,4.03-13.5,10.72-.09.76-.1,1.53-.05,2.3-.15,20.96-.15,41.92,0,62.88-.53,6.71,4.47,12.57,11.17,13.11.69.06,1.39.05,2.08-.01,5.01.12,10.04-.03,15.06.05,2.06.03,2.72-.88,2.65-2.81-.1-2.36,0-4.74,0-7.37"/><path d="M116.9,138.8h-16.72V39.36c0-3.61-.06-3.67-3.59-3.68h-20.78v-15.08h65.4v15.08h-20.69c-3.35,0-3.62.27-3.62,3.72v99.4Z"/><path d="M595.81,55.29l19.6-19.53,19.68,19.67-19.55,19.53-19.71-19.67"/><path d="M571.43,79.63l19.6-19.55,19.8,19.83-19.63,19.48-19.8-19.76"/><path d="M659.35,79.84l-19.46,19.42-19.67-19.64,19.48-19.4,19.65,19.6"/><path d="M595.92,103.86l19.35-19.41,19.68,19.65-19.46,19.42-19.6-19.66"/></g></svg>