<?xml version="1.0" encoding="UTF-8"?><svg id="Layer_1" xmlns="http://www.w3.org/2000/svg" viewBox="0 0 440 35"><defs><style>.cls-1{opacity:.57;}</style></defs><g class="cls-1"><path d="M46,1c7.19.37,18.1,3.06,24.01,7.49,11.32,8.47,2.39,18.48-7.66,22.37-4.75,1.84-9.39,2.74-14.36,3.14-1.8.14-3.66-.15-5.47.04l-.53.96c-3.59-.22-7.46.31-11,0-.05,0,.03-.8-.56-.91-5.96-1.15-10.4-.76-16.8-3.23-2.33-.9-7.88-3.78-9.68-5.32-.25-.21-2.82-3.87-2.89-4.11-.59-2.04.2-5.56-.01-7.86.12-.41,5.14-5.52,5.93-6.07C16.42.75,34.71.41,46,1ZM21,10h15V4c-6.05-.84-11.51,1-15,6ZM53,10c-3.27-5.57-7.77-6.73-14-6v6h14ZM66,9l-12-4c-.38,2.32,2.38,2.75,2.02,4.98,2.15,0,4.32.06,6.48.02,1.22-.03,3.73.75,3.5-1ZM20,6l-5.36,1.14-4.64,2.86,7.98-.02c-.34-1.91,1.53-2.44,2.02-3.98ZM16,13l-10.47.03-1.5,1.5.03,5.91,2.5,2.5,9.44.06c.54-1.87-.83-2.99-1.03-4.46-.32-2.34.86-3.49,1.03-5.54ZM36,13h-17c-.75,3.69-1.53,7.01,1.5,10h15.5v-10ZM55,13h-16v10h16c-.52-1.82.83-2.97,1.03-4.46.33-2.37-.84-3.52-1.03-5.54ZM58,23l11.45-.05c3.17-2.89,3.92-7.48-.02-9.89l-11.44-.06c1.95,3.2.92,6.63,0,10ZM20,29l-2.56-2.94-6.44-.06c-.28,1.14,1.73,1.55,2.64,1.86,2.02.7,4.17,1.38,6.36,1.14ZM36,26h-14c2.65,5.04,8.89,5.97,14,6v-6ZM52,26h-13s0,6,0,6c5.47.56,10.22-1.08,13-6ZM64,26c-4,.13-9.43-1.43-10,4l5.36-1.14,4.64-2.86Z"/><path d="M48,34v1h-6l.53-.96c1.81-.18,3.68.11,5.47-.04Z"/></g><path d="M92.37,1.09c7.9-.89,15.09.97,15,10h-4.99c.56-4.35-4.66-6.76-8.43-5.92-4.4.98-4.88,6.1-1.4,7.87,1.83.93,3.85,1.33,4.9,1.69,3.01,1.03,7.64,1.93,9.44,4.35,2.62,3.51,1.65,12.2-2.33,14.19-2.43,1.21-13.62,3.05-18.17-2.18-.97-1.11-2.64-3.89-2.02-7.99h4.99s-.6,6.26,4.52,6.38c3.92.1,9.49,1.06,9.13-5.06-.17-2.79-3.13-3.54-4.89-4.18-5.17-1.88-11.4-1.76-12.67-7.73-1.13-5.32,1.12-10.76,6.91-11.41Z"/><path d="M112.21,25.59c-.04-6.12,0-24.5,0-24.5h5l.02,23.64s-.33,5.28,7.9,5.19c6.26-.07,6.03-5.09,6.03-5.09l.05-23.73h5v24.56c-.08,8.9-8.98,8.94-11.35,8.97-1.57.02-12.59.5-12.65-9.02Z"/><polygon points="439.25 14.09 436.12 14.09 436.11 8.01 434 14.09 431.42 14.09 429.33 8.01 429.37 14.09 426.33 14.09 426.33 1.1 430.58 1.09 432.75 7.78 435.16 1.1 439.25 1.09 439.25 14.09"/><polygon points="309.15 34.09 309.15 6.09 299.15 6.09 299.15 1.09 324.15 1.09 324.15 6.09 314.15 6.09 314.15 34.09 309.15 34.09"/><polygon points="283.01 34.09 283.01 1.09 288.01 1.09 288.01 30.09 303.01 30.09 303.01 34.09 283.01 34.09"/><polygon points="337.15 34.09 337.15 1.09 342.15 1.09 342.15 30.09 357.15 30.09 357.15 34.09 337.15 34.09"/><polygon points="425.08 1.09 425.08 4.09 421.57 4.09 421.58 14.09 418.44 14.09 418.44 4.09 415.08 4.09 415.08 1.09 425.08 1.09"/><path d="M209.51,1.09c4.14.01,7.36,3.31,7.4,8.18.04,5.03.09,8-4.86,9.33,0,0,3.7,2.31,4.45,6.47.51,2.81.55,6.07.51,9.02h-5c-.03-9.1-1.15-10.9-2.22-12.04-1.22-1.3-10.78-.96-10.78-.96v13s-5,0-5,0V1.09h15.5ZM199.01,17.01c3.7-.21,7.84.95,11.02-1.41,3.17-2.35,2.83-7.46-.58-9.46l-10.44-.06v10.93Z"/><polygon points="189.37 1.09 189.37 6.09 173.37 6.09 173.37 15.09 187.37 15.09 187.37 19.09 173.37 19.09 173.37 30.09 190.37 30.09 190.37 34.09 168.37 34.09 168.37 1.09 189.37 1.09"/><path d="M156.27,1.05c4.07.06,7.84,4.1,7.94,8.03.38,13.79-6.1,11.73-17.85,12.01v13s-5,0-5,0V.99s11.01,0,14.91.06ZM146.37,16.01c7.55-.01,12.82.86,12.72-5.15-.05-2.88-1.67-4.63-3.49-4.74-2.58-.15-9.23-.04-9.23-.04v9.93Z"/><path d="M386.44,34.03c-1.28-.02-5.25.02-5.25.02l-2.62-8.03h-12.09s-2.56,8.04-2.56,8.04c0,0-3.67,0-4.91.01l10.63-33,5.68-.04s8.48,24.3,11.12,32.99ZM377.24,22.1l-4.17-15.09h-.98s-4.09,15.07-4.09,15.07h9.24Z"/><path d="M236.99,1.05c3.02-.02,7.95,2.45,7.95,8.18,0,3.25-.9,5.93-4.08,7.23,5.02,1.47,5.27,4.85,5.24,8.72-.05,5.84-4.4,8.81-8.71,8.89h-15.03s0-32.99,0-32.99c4.9-.02,10.47,0,14.63-.04ZM235.87,14.94s3.84-.07,3.88-4.83c.04-3.95-3.39-4.04-3.39-4.04h-8.99v8.87h8.5ZM234.99,19.06l-7.63.02v10.86c8.5.12,13.21.61,13.29-5.25.06-4.65-1.76-5.6-5.66-5.63Z"/><path d="M404,1.07c3.02-.02,7.95,2.45,7.95,8.18,0,3.25-.9,5.93-4.08,7.23,5.02,1.47,5.27,4.85,5.24,8.72-.05,5.84-4.4,8.81-8.71,8.89h-15.03s0-32.99,0-32.99c4.9-.02,10.47,0,14.63-.04ZM402.87,14.95s3.84-.07,3.88-4.83c.04-3.95-3.39-4.04-3.39-4.04h-8.99v8.87h8.5ZM402,19.08l-7.63.02v10.86c8.5.12,13.21.61,13.29-5.25.06-4.65-1.76-5.6-5.66-5.63Z"/><path d="M263.75.46c-8.37,0-14.5,7.68-14.5,17.16s6.14,17.16,14.5,17.16,14.22-7.68,14.22-17.16S272.11.46,263.75.46ZM263.65,30.23c-5.71,0-9.68-5.66-9.68-12.63s3.98-12.63,9.68-12.63,9.39,5.66,9.39,12.63-3.69,12.63-9.39,12.63Z"/><path d="M37.93.61c-.12,0-.24,0-.37,0-.87,0-1.72.04-2.54.09C15.64,1.21.26,7.49.34,17.57c.09,11.27,16.67,16.9,37.23,16.9s37.25-6.4,37.23-16.9c-.02-9.84-14.9-16.18-33.91-16.84-.95-.07-1.93-.12-2.95-.12v.06h0v-.06s0,0,0,0h0ZM39,9.91V3.68c.4,0,.8.02,1.19.03,5.03.32,9.12,1.71,11.93,4.08.76.64,1.41,1.35,1.98,2.12h-15.1ZM20.89,9.91c.33-.45.68-.88,1.08-1.28,2.96-2.97,7.85-4.65,14.16-4.93v6.21h-15.24ZM57.7,9.91c-.94-1.77-2.25-3.35-3.92-4.69,5.2,1.09,9.54,2.7,12.65,4.69h-8.73ZM8.62,9.91c3.13-2.01,7.45-3.6,12.59-4.67-1.67,1.3-2.98,2.87-3.92,4.67h-8.67ZM58.41,22.99c.73-1.76,1.13-3.6,1.13-5.47,0-1.65-.23-3.24-.67-4.73h10.97c1.26,1.48,1.94,3.09,1.94,4.79,0,1.95-.81,3.72-2.49,5.42h-10.89ZM39,22.99v-10.21h16.63c.54,1.45.83,3.03.83,4.73,0,1.86-.51,3.73-1.45,5.47h-16.01ZM20.03,22.99c-.87-1.65-1.34-3.51-1.36-5.54-.02-1.7.22-3.26.71-4.67h16.75v10.21h-16.1ZM5.63,22.99c-1.47-1.64-2.28-3.46-2.29-5.45-.01-1.7.6-3.26,1.87-4.76h10.97c-.4,1.46-.61,3.02-.59,4.71.03,1.96.41,3.8,1.08,5.5H5.63ZM52.69,30.14c1.68-1.24,3.07-2.69,4.15-4.27h8.57c-3.28,1.85-7.64,3.31-12.72,4.27h0ZM39,31.4v-5.53h13.93c-2.98,3.18-7.75,5.44-13.93,5.53h0ZM36.12,31.31c-6.16-.46-10.97-2.39-13.96-5.44h13.96v5.44h0ZM22.83,30.33c-5.63-.95-10.25-2.48-13.58-4.46h8.96c1.17,1.71,2.72,3.21,4.63,4.46h0Z"/></svg>