<?xml version="1.0" encoding="UTF-8"?><svg id="Layer_1" xmlns="http://www.w3.org/2000/svg" viewBox="0 0 445.46 288.5"><defs><style>.cls-1{fill:#231f20;}</style></defs><polygon class="cls-1" points="180.65 113.67 171.67 113.67 171.67 78.21 158.64 78.21 158.64 70.59 193.66 70.59 193.66 78.21 180.65 78.21 180.65 113.67"/><polygon class="cls-1" points="205.86 94.34 205.86 113.67 196.86 113.67 196.86 70.59 205.86 70.59 205.86 86.92 222.65 86.92 222.65 70.59 231.66 70.59 231.66 113.67 222.65 113.67 222.65 94.34 205.86 94.34"/><polygon class="cls-1" points="266.5 78.21 243.88 78.21 243.88 87.27 263.82 87.27 263.82 94.89 243.88 94.89 243.88 106.06 266.5 106.06 266.5 113.67 235.5 113.67 235.5 70.59 266.5 70.59 266.5 78.21"/><polygon class="cls-1" points="98.08 118.09 106.49 118.09 106.49 161.17 97.49 161.17 79.91 130.45 79.78 130.45 79.78 161.17 71.39 161.17 71.39 118.09 80.86 118.09 97.94 148.09 98.08 148.09 98.08 118.09"/><path class="cls-1" d="M131.27,116.95c5.71,0,20.7,2.46,20.7,22.68s-14.99,22.67-20.7,22.67-20.7-2.46-20.7-22.67,15.01-22.68,20.7-22.68M131.27,154.69c4.87,0,11.7-3,11.7-15.06s-6.83-15.06-11.7-15.06-11.7,3-11.7,15.06,6.85,15.06,11.7,15.06"/><polygon class="cls-1" points="215.46 161.17 206.47 161.17 206.47 125.7 193.43 125.7 193.43 118.09 228.46 118.09 228.46 125.7 215.46 125.7 215.46 161.17"/><polygon class="cls-1" points="240.7 141.86 240.7 161.16 231.71 161.16 231.71 118.09 240.7 118.09 240.7 134.4 257.49 134.4 257.49 118.09 266.5 118.09 266.5 161.16 257.49 161.16 257.49 141.86 240.7 141.86"/><path class="cls-1" d="M155.72,118.09h21.79c11.45,0,13.55,8.46,13.55,12.19,0,4.74-2.41,8.82-6.67,10.26,3.55,1.55,5.46,2.87,5.46,10.91,0,6.3,0,7.86,1.92,8.58v1.13h-9.97c-.59-2.02-.95-4.26-.95-8.69,0-5.88-.35-8.16-7.03-8.16h-9.28v16.85h-8.83v-43.08ZM175.11,137.06c4.68,0,6.96-1.62,6.96-5.88,0-2.27-1.03-5.63-6.3-5.63h-11.23v11.52h10.56Z"/><polygon class="cls-1" points="138.11 208.67 129.12 208.67 129.12 165.59 159.77 165.59 159.77 173.21 138.11 173.21 138.11 182.93 157.06 182.93 157.06 190.56 138.11 190.56 138.11 208.67"/><path class="cls-1" d="M163.82,208.67h-9.48l15.36-43.08h10.38l15.17,43.08h-9.78l-2.76-8.88h-15.89l-3,8.88ZM169.22,192.35h10.97l-5.34-17.03h-.1l-5.53,17.03Z"/><path class="cls-1" d="M222.88,179.84c-.71-2.57-2.1-7.43-9.52-7.43-4.32,0-10.7,2.88-10.7,15.05,0,7.74,3.07,14.71,10.7,14.71,4.97,0,8.46-2.83,9.52-8.11h9c-1.8,9.36-7.9,15.89-18.71,15.89-11.46,0-19.68-7.71-19.68-22.61s8.69-22.74,19.82-22.74c12.88,0,18.09,8.89,18.57,15.23h-9Z"/><polygon class="cls-1" points="266.5 173.21 243.88 173.21 243.88 182.26 263.82 182.26 263.82 189.89 243.88 189.89 243.88 201.06 266.5 201.06 266.5 208.67 235.5 208.67 235.5 165.59 266.5 165.59 266.5 173.21"/><path class="cls-1" d="M374.95,170.43c0-55.18-44.65-99.84-99.84-99.84h-1.98v43.08h1.98c32.11,0,58.13,25.79,58.51,57.8h0v37.2h41.32v-38.24Z"/><path class="cls-1" d="M275.11,165.59h-1.97v43.08h20.66v-24.39c0-10.33-8.36-18.69-18.69-18.69"/><path class="cls-1" d="M329.21,171.97c-.12-29.78-24.25-53.84-54.05-53.88h-2.03v43.08h1.98c12.77,0,23.1,10.33,23.1,23.1v24.39h31v-36.69Z"/></svg>