<?xml version="1.0" encoding="UTF-8"?><svg id="Layer_1" xmlns="http://www.w3.org/2000/svg" viewBox="0 0 303.56 139.37"><defs><style>.cls-1{fill:#231f20;}</style></defs><polygon class="cls-1" points="109.26 43.08 100.28 43.08 100.28 7.62 87.25 7.62 87.25 0 122.28 0 122.28 7.62 109.26 7.62 109.26 43.08"/><polygon class="cls-1" points="134.48 23.76 134.48 43.08 125.48 43.08 125.48 0 134.48 0 134.48 16.33 151.27 16.33 151.27 0 160.28 0 160.28 43.08 151.27 43.08 151.27 23.76 134.48 23.76"/><polygon class="cls-1" points="195.12 7.62 172.49 7.62 172.49 16.68 192.43 16.68 192.43 24.3 172.49 24.3 172.49 35.47 195.11 35.47 195.11 43.08 164.11 43.08 164.11 0 195.12 0 195.12 7.62"/><polygon class="cls-1" points="26.7 47.5 35.11 47.5 35.11 90.59 26.1 90.59 8.53 59.87 8.4 59.87 8.4 90.59 0 90.59 0 47.5 9.47 47.5 26.56 77.5 26.7 77.5 26.7 47.5"/><path class="cls-1" d="M59.88,46.36c5.71,0,20.7,2.46,20.7,22.68s-14.99,22.67-20.7,22.67-20.7-2.46-20.7-22.67,15.01-22.68,20.7-22.68M59.88,84.1c4.87,0,11.7-3,11.7-15.06s-6.83-15.06-11.7-15.06-11.7,3-11.7,15.06,6.85,15.06,11.7,15.06"/><polygon class="cls-1" points="144.07 90.59 135.08 90.59 135.08 55.12 122.04 55.12 122.04 47.5 157.07 47.5 157.07 55.12 144.07 55.12 144.07 90.59"/><polygon class="cls-1" points="169.31 71.27 169.31 90.58 160.32 90.58 160.32 47.5 169.31 47.5 169.31 63.81 186.1 63.81 186.1 47.5 195.11 47.5 195.11 90.58 186.1 90.58 186.1 71.27 169.31 71.27"/><path class="cls-1" d="M84.33,47.5h21.79c11.45,0,13.55,8.46,13.55,12.19,0,4.74-2.41,8.82-6.67,10.26,3.55,1.55,5.46,2.87,5.46,10.91,0,6.3,0,7.86,1.92,8.58v1.13h-9.97c-.59-2.02-.95-4.26-.95-8.69,0-5.88-.35-8.16-7.03-8.16h-9.28v16.85h-8.83v-43.08ZM103.72,66.47c4.68,0,6.96-1.62,6.96-5.88,0-2.27-1.03-5.63-6.3-5.63h-11.23v11.52h10.56Z"/><polygon class="cls-1" points="66.73 138.08 57.74 138.08 57.74 95 88.38 95 88.38 102.62 66.73 102.62 66.73 112.34 85.68 112.34 85.68 119.98 66.73 119.98 66.73 138.08"/><path class="cls-1" d="M92.43,138.08h-9.48l15.36-43.08h10.38l15.17,43.08h-9.78l-2.76-8.88h-15.89l-3,8.88ZM97.84,121.77h10.97l-5.34-17.03h-.1l-5.53,17.03Z"/><path class="cls-1" d="M151.49,109.25c-.71-2.57-2.1-7.43-9.52-7.43-4.32,0-10.7,2.88-10.7,15.05,0,7.74,3.07,14.71,10.7,14.71,4.97,0,8.46-2.83,9.52-8.11h9c-1.8,9.36-7.9,15.89-18.71,15.89-11.46,0-19.68-7.71-19.68-22.61s8.69-22.74,19.82-22.74c12.88,0,18.09,8.89,18.57,15.23h-9Z"/><polygon class="cls-1" points="195.12 102.62 172.49 102.62 172.49 111.68 192.43 111.68 192.43 119.3 172.49 119.3 172.49 130.47 195.11 130.47 195.11 138.08 164.11 138.08 164.11 95 195.12 95 195.12 102.62"/><path class="cls-1" d="M303.56,99.84C303.56,44.66,258.91,0,203.73,0h-1.98v43.08h1.98c32.11,0,58.13,25.79,58.51,57.8h0v37.2h41.32v-38.24Z"/><path class="cls-1" d="M203.73,95h-1.97v43.08h20.66v-24.39c0-10.33-8.36-18.69-18.69-18.69"/><path class="cls-1" d="M257.82,101.39c-.12-29.78-24.25-53.84-54.05-53.88h-2.03v43.08h1.98c12.77,0,23.1,10.33,23.1,23.1v24.39h31v-36.69Z"/></svg>